G04 (created by PCBNEW-RS274X (2011-04-29 BZR 2986)-stable) date 11/21/2011 11:54:47 AM*
G01*
G70*
G90*
%MOIN*%
G04 Gerber Fmt 3.4, Leading zero omitted, Abs format*
%FSLAX34Y34*%
G04 APERTURE LIST*
%ADD10C,0.006000*%
%ADD11C,0.160000*%
%ADD12R,0.060000X0.060000*%
%ADD13C,0.060000*%
%ADD14C,0.215000*%
%ADD15C,0.007000*%
%ADD16C,0.010000*%
G04 APERTURE END LIST*
G54D10*
G54D11*
X13000Y-37500D03*
X43000Y-37500D03*
X13000Y-13000D03*
G54D12*
X08500Y-14000D03*
G54D13*
X09500Y-14000D03*
X08500Y-15000D03*
X09500Y-15000D03*
X08500Y-16000D03*
X09500Y-16000D03*
X08500Y-17000D03*
X09500Y-17000D03*
X08500Y-18000D03*
X09500Y-18000D03*
X08500Y-19000D03*
X09500Y-19000D03*
X08500Y-20000D03*
X09500Y-20000D03*
X08500Y-21000D03*
X09500Y-21000D03*
X08500Y-22000D03*
X09500Y-22000D03*
X08500Y-23000D03*
X09500Y-23000D03*
G54D14*
X08900Y-10500D03*
G54D13*
X08500Y-24000D03*
X09500Y-24000D03*
X08500Y-25000D03*
X09500Y-25000D03*
X08500Y-26000D03*
X09500Y-26000D03*
X08500Y-27000D03*
X09500Y-27000D03*
X08500Y-28000D03*
X09500Y-28000D03*
X08500Y-29000D03*
X09500Y-29000D03*
X08500Y-30000D03*
X09500Y-30000D03*
X08500Y-31000D03*
X09500Y-31000D03*
X08500Y-32000D03*
X09500Y-32000D03*
X08500Y-33000D03*
X09500Y-33000D03*
X08500Y-34000D03*
X09500Y-34000D03*
X08500Y-35000D03*
X09500Y-35000D03*
X08500Y-36000D03*
X09500Y-36000D03*
X08500Y-37000D03*
X09500Y-37000D03*
X08500Y-38000D03*
X09500Y-38000D03*
G54D14*
X08900Y-41500D03*
G54D12*
X16000Y-41000D03*
G54D13*
X16000Y-40000D03*
X17000Y-41000D03*
X17000Y-40000D03*
X18000Y-41000D03*
X18000Y-40000D03*
X19000Y-41000D03*
X19000Y-40000D03*
X20000Y-41000D03*
X20000Y-40000D03*
X21000Y-41000D03*
X21000Y-40000D03*
X22000Y-41000D03*
X22000Y-40000D03*
X23000Y-41000D03*
X23000Y-40000D03*
X24000Y-41000D03*
X24000Y-40000D03*
X25000Y-41000D03*
X25000Y-40000D03*
G54D14*
X12500Y-40600D03*
G54D13*
X26000Y-41000D03*
X26000Y-40000D03*
X27000Y-41000D03*
X27000Y-40000D03*
X28000Y-41000D03*
X28000Y-40000D03*
X29000Y-41000D03*
X29000Y-40000D03*
X30000Y-41000D03*
X30000Y-40000D03*
X31000Y-41000D03*
X31000Y-40000D03*
X32000Y-41000D03*
X32000Y-40000D03*
X33000Y-41000D03*
X33000Y-40000D03*
X34000Y-41000D03*
X34000Y-40000D03*
X35000Y-41000D03*
X35000Y-40000D03*
X36000Y-41000D03*
X36000Y-40000D03*
X37000Y-41000D03*
X37000Y-40000D03*
X38000Y-41000D03*
X38000Y-40000D03*
X39000Y-41000D03*
X39000Y-40000D03*
X40000Y-41000D03*
X40000Y-40000D03*
G54D14*
X43500Y-40600D03*
G54D12*
X47500Y-38000D03*
G54D13*
X46500Y-38000D03*
X47500Y-37000D03*
X46500Y-37000D03*
X47500Y-36000D03*
X46500Y-36000D03*
X47500Y-35000D03*
X46500Y-35000D03*
X47500Y-34000D03*
X46500Y-34000D03*
X47500Y-33000D03*
X46500Y-33000D03*
X47500Y-32000D03*
X46500Y-32000D03*
X47500Y-31000D03*
X46500Y-31000D03*
X47500Y-30000D03*
X46500Y-30000D03*
X47500Y-29000D03*
X46500Y-29000D03*
G54D14*
X47100Y-41500D03*
G54D13*
X47500Y-28000D03*
X46500Y-28000D03*
X47500Y-27000D03*
X46500Y-27000D03*
X47500Y-26000D03*
X46500Y-26000D03*
X47500Y-25000D03*
X46500Y-25000D03*
X47500Y-24000D03*
X46500Y-24000D03*
X47500Y-23000D03*
X46500Y-23000D03*
X47500Y-22000D03*
X46500Y-22000D03*
X47500Y-21000D03*
X46500Y-21000D03*
X47500Y-20000D03*
X46500Y-20000D03*
X47500Y-19000D03*
X46500Y-19000D03*
X47500Y-18000D03*
X46500Y-18000D03*
X47500Y-17000D03*
X46500Y-17000D03*
X47500Y-16000D03*
X46500Y-16000D03*
X47500Y-15000D03*
X46500Y-15000D03*
X47500Y-14000D03*
X46500Y-14000D03*
G54D14*
X47100Y-10500D03*
G54D11*
X43000Y-13000D03*
G54D13*
X17000Y-19000D03*
X16000Y-19000D03*
X15000Y-19000D03*
X14000Y-19000D03*
X17000Y-20000D03*
X16000Y-20000D03*
X15000Y-20000D03*
X14000Y-20000D03*
X17000Y-21000D03*
X16000Y-21000D03*
X15000Y-21000D03*
X14000Y-21000D03*
X17000Y-22000D03*
X16000Y-22000D03*
X15000Y-22000D03*
X14000Y-22000D03*
X17000Y-23000D03*
X16000Y-23000D03*
X15000Y-23000D03*
X14000Y-23000D03*
X17000Y-24000D03*
X16000Y-24000D03*
X15000Y-24000D03*
X14000Y-24000D03*
X17000Y-25000D03*
X16000Y-25000D03*
X15000Y-25000D03*
X14000Y-25000D03*
X17000Y-26000D03*
X16000Y-26000D03*
X15000Y-26000D03*
X14000Y-26000D03*
X17000Y-27000D03*
X16000Y-27000D03*
X15000Y-27000D03*
X14000Y-27000D03*
X17000Y-28000D03*
X16000Y-28000D03*
X15000Y-28000D03*
X14000Y-28000D03*
X17000Y-29000D03*
X16000Y-29000D03*
X15000Y-29000D03*
X14000Y-29000D03*
X17000Y-30000D03*
X16000Y-30000D03*
X15000Y-30000D03*
X14000Y-30000D03*
X17000Y-31000D03*
X16000Y-31000D03*
X15000Y-31000D03*
X14000Y-31000D03*
X17000Y-32000D03*
X16000Y-32000D03*
X15000Y-32000D03*
X14000Y-32000D03*
X17000Y-33000D03*
X16000Y-33000D03*
X15000Y-33000D03*
X14000Y-33000D03*
X42000Y-33000D03*
X41000Y-33000D03*
X40000Y-33000D03*
X39000Y-33000D03*
X42000Y-32000D03*
X41000Y-32000D03*
X40000Y-32000D03*
X39000Y-32000D03*
X42000Y-31000D03*
X41000Y-31000D03*
X40000Y-31000D03*
X39000Y-31000D03*
X42000Y-30000D03*
X41000Y-30000D03*
X40000Y-30000D03*
X39000Y-30000D03*
X42000Y-29000D03*
X41000Y-29000D03*
X40000Y-29000D03*
X39000Y-29000D03*
X42000Y-28000D03*
X41000Y-28000D03*
X40000Y-28000D03*
X39000Y-28000D03*
X42000Y-27000D03*
X41000Y-27000D03*
X40000Y-27000D03*
X39000Y-27000D03*
X42000Y-26000D03*
X41000Y-26000D03*
X40000Y-26000D03*
X39000Y-26000D03*
X42000Y-25000D03*
X41000Y-25000D03*
X40000Y-25000D03*
X39000Y-25000D03*
X42000Y-24000D03*
X41000Y-24000D03*
X40000Y-24000D03*
X39000Y-24000D03*
X42000Y-23000D03*
X41000Y-23000D03*
X40000Y-23000D03*
X39000Y-23000D03*
X42000Y-22000D03*
X41000Y-22000D03*
X40000Y-22000D03*
X39000Y-22000D03*
X42000Y-21000D03*
X41000Y-21000D03*
X40000Y-21000D03*
X39000Y-21000D03*
X42000Y-20000D03*
X41000Y-20000D03*
X40000Y-20000D03*
X39000Y-20000D03*
X42000Y-19000D03*
X41000Y-19000D03*
X40000Y-19000D03*
X39000Y-19000D03*
G54D15*
X42000Y-33000D02*
X42000Y-35075D01*
X26500Y-40500D02*
X26000Y-41000D01*
X26500Y-39500D02*
X26500Y-40500D01*
X28100Y-37900D02*
X26500Y-39500D01*
X39175Y-37900D02*
X28100Y-37900D01*
X42000Y-35075D02*
X39175Y-37900D01*
X42000Y-31000D02*
X42000Y-31025D01*
X42975Y-32000D02*
X42975Y-34975D01*
X42975Y-34975D02*
X39375Y-38575D01*
X39375Y-38575D02*
X31425Y-38575D01*
X31425Y-38575D02*
X30475Y-39525D01*
X30475Y-39525D02*
X30475Y-40525D01*
X30475Y-40525D02*
X30000Y-41000D01*
X42000Y-31025D02*
X42975Y-32000D01*
X40000Y-31000D02*
X40500Y-30500D01*
X31500Y-40500D02*
X31000Y-41000D01*
X31500Y-39500D02*
X31500Y-40500D01*
X32200Y-38800D02*
X31500Y-39500D01*
X39375Y-38800D02*
X32200Y-38800D01*
X43125Y-35050D02*
X39375Y-38800D01*
X43125Y-31525D02*
X43125Y-35050D01*
X42100Y-30500D02*
X43125Y-31525D01*
X40500Y-30500D02*
X42100Y-30500D01*
X40000Y-32000D02*
X40500Y-31500D01*
X29500Y-40500D02*
X29000Y-41000D01*
X29500Y-39500D02*
X29500Y-40500D01*
X30600Y-38400D02*
X29500Y-39500D01*
X39325Y-38400D02*
X30600Y-38400D01*
X42800Y-34925D02*
X39325Y-38400D01*
X42800Y-32200D02*
X42800Y-34925D01*
X42100Y-31500D02*
X42800Y-32200D01*
X40500Y-31500D02*
X42100Y-31500D01*
X42000Y-32000D02*
X42025Y-32000D01*
X28500Y-40500D02*
X28000Y-41000D01*
X28500Y-39500D02*
X28500Y-40500D01*
X29775Y-38225D02*
X28500Y-39500D01*
X39275Y-38225D02*
X29775Y-38225D01*
X42625Y-34875D02*
X39275Y-38225D01*
X42625Y-32600D02*
X42625Y-34875D01*
X42025Y-32000D02*
X42625Y-32600D01*
X20075Y-39075D02*
X18550Y-39075D01*
X21000Y-40000D02*
X20075Y-39075D01*
X18550Y-39075D02*
X12425Y-32950D01*
X12975Y-31000D02*
X14000Y-31000D01*
X12425Y-31550D02*
X12975Y-31000D01*
X12425Y-32950D02*
X12425Y-31550D01*
X21500Y-39775D02*
X20525Y-38800D01*
X21500Y-40500D02*
X21500Y-39775D01*
X12675Y-31925D02*
X13125Y-31475D01*
X14525Y-31475D02*
X15000Y-31000D01*
X13125Y-31475D02*
X14525Y-31475D01*
X12675Y-32900D02*
X12675Y-31925D01*
X18575Y-38800D02*
X12675Y-32900D01*
X20525Y-38800D02*
X18575Y-38800D01*
X21000Y-41000D02*
X21500Y-40500D01*
X23000Y-41000D02*
X23500Y-40500D01*
X23500Y-39650D02*
X22225Y-38375D01*
X23500Y-40500D02*
X23500Y-39650D01*
X13450Y-33050D02*
X13450Y-32775D01*
X14500Y-32500D02*
X15000Y-32000D01*
X22225Y-38375D02*
X18775Y-38375D01*
X18775Y-38375D02*
X13450Y-33050D01*
X13725Y-32500D02*
X14500Y-32500D01*
X13450Y-32775D02*
X13725Y-32500D01*
X21575Y-38575D02*
X23000Y-40000D01*
X18650Y-38575D02*
X21575Y-38575D01*
X12900Y-32825D02*
X12900Y-32425D01*
X12900Y-32425D02*
X13325Y-32000D01*
X14000Y-32000D02*
X13325Y-32000D01*
X18650Y-38575D02*
X12900Y-32825D01*
X18275Y-39500D02*
X12025Y-33250D01*
X14000Y-30000D02*
X13371Y-30000D01*
X19000Y-40000D02*
X18500Y-39500D01*
X18500Y-39500D02*
X18275Y-39500D01*
X13371Y-30000D02*
X12025Y-31346D01*
X12025Y-33250D02*
X12025Y-31346D01*
X14000Y-28000D02*
X13750Y-28000D01*
X09000Y-32500D02*
X09500Y-33000D01*
X09000Y-31850D02*
X09000Y-32500D01*
X09350Y-31500D02*
X09000Y-31850D01*
X09750Y-31500D02*
X09350Y-31500D01*
X09750Y-31500D02*
X10250Y-31500D01*
X10250Y-31500D02*
X13750Y-28000D01*
X09000Y-30500D02*
X09500Y-31000D01*
X14000Y-27000D02*
X13750Y-27000D01*
X11250Y-29500D02*
X13750Y-27000D01*
X09000Y-29775D02*
X09000Y-30500D01*
X09275Y-29500D02*
X09000Y-29775D01*
X09750Y-29500D02*
X09275Y-29500D01*
X09750Y-29500D02*
X11250Y-29500D01*
X15500Y-27500D02*
X16000Y-27000D01*
X10000Y-30000D02*
X11250Y-30000D01*
X09500Y-30000D02*
X10000Y-30000D01*
X11250Y-30000D02*
X13750Y-27500D01*
X13750Y-27500D02*
X15500Y-27500D01*
X43300Y-35100D02*
X43300Y-31275D01*
X32525Y-40475D02*
X32000Y-41000D01*
X32525Y-39475D02*
X32525Y-40475D01*
X32975Y-39025D02*
X32525Y-39475D01*
X39375Y-39025D02*
X32975Y-39025D01*
X43300Y-35100D02*
X39375Y-39025D01*
X42000Y-30000D02*
X42025Y-30000D01*
X43300Y-31275D02*
X42025Y-30000D01*
X43475Y-30875D02*
X43475Y-35150D01*
X43475Y-35150D02*
X39425Y-39200D01*
X39425Y-39200D02*
X34025Y-39200D01*
X34025Y-39200D02*
X33525Y-39700D01*
X33525Y-39700D02*
X33525Y-40475D01*
X33000Y-41000D02*
X33525Y-40475D01*
X40500Y-29500D02*
X40000Y-30000D01*
X42100Y-29500D02*
X40500Y-29500D01*
X43475Y-30875D02*
X42100Y-29500D01*
X43825Y-35200D02*
X39475Y-39550D01*
X43825Y-35200D02*
X43825Y-30200D01*
X43825Y-30200D02*
X42125Y-28500D01*
X42125Y-28500D02*
X40500Y-28500D01*
X40000Y-29000D02*
X40500Y-28500D01*
X35475Y-40525D02*
X35000Y-41000D01*
X35475Y-39800D02*
X35475Y-40525D01*
X35725Y-39550D02*
X35475Y-39800D01*
X39475Y-39550D02*
X35725Y-39550D01*
X43650Y-35175D02*
X43650Y-30650D01*
X42000Y-29000D02*
X42000Y-29000D01*
X39425Y-39400D02*
X34925Y-39400D01*
X34925Y-39400D02*
X34500Y-39825D01*
X34500Y-39825D02*
X34500Y-40500D01*
X34500Y-40500D02*
X34000Y-41000D01*
X43650Y-35175D02*
X39425Y-39400D01*
X43650Y-30650D02*
X42000Y-29000D01*
X25000Y-40000D02*
X23125Y-38125D01*
X14000Y-33275D02*
X18850Y-38125D01*
X14000Y-33275D02*
X14000Y-33000D01*
X18850Y-38125D02*
X23125Y-38125D01*
X25000Y-40975D02*
X25500Y-40475D01*
X19025Y-37925D02*
X23725Y-37925D01*
X15000Y-33900D02*
X15000Y-33000D01*
X15000Y-33900D02*
X19025Y-37925D01*
X25000Y-41000D02*
X25000Y-40975D01*
X25500Y-39700D02*
X23725Y-37925D01*
X25500Y-40475D02*
X25500Y-39700D01*
X40000Y-33000D02*
X40475Y-32525D01*
X27500Y-40500D02*
X27000Y-41000D01*
X27500Y-39500D02*
X27500Y-40500D01*
X28950Y-38050D02*
X27500Y-39500D01*
X39225Y-38050D02*
X28950Y-38050D01*
X42450Y-34825D02*
X39225Y-38050D01*
X42450Y-32825D02*
X42450Y-34825D01*
X42150Y-32525D02*
X42450Y-32825D01*
X40475Y-32525D02*
X42150Y-32525D01*
X19525Y-39750D02*
X19025Y-39250D01*
X19525Y-40475D02*
X19525Y-39750D01*
X19000Y-41000D02*
X19525Y-40475D01*
X19025Y-39250D02*
X18400Y-39250D01*
X18400Y-39250D02*
X12225Y-33075D01*
X14550Y-30450D02*
X15000Y-30000D01*
X13279Y-30450D02*
X14550Y-30450D01*
X12225Y-31504D02*
X13279Y-30450D01*
X12225Y-33075D02*
X12225Y-31504D01*
X11825Y-31175D02*
X13525Y-29475D01*
X11825Y-33550D02*
X11825Y-31175D01*
X17500Y-39225D02*
X11825Y-33550D01*
X17000Y-41000D02*
X17500Y-40500D01*
X17500Y-40500D02*
X17500Y-39225D01*
X14525Y-29475D02*
X15000Y-29000D01*
X13525Y-29475D02*
X14525Y-29475D01*
X17000Y-39700D02*
X11625Y-34325D01*
X17000Y-40000D02*
X17000Y-39700D01*
X13675Y-29000D02*
X14000Y-29000D01*
X11625Y-34325D02*
X11625Y-31050D01*
X13675Y-29000D02*
X11625Y-31050D01*
X09500Y-25000D02*
X10000Y-25000D01*
X13500Y-24000D02*
X14000Y-24000D01*
X10000Y-25000D02*
X12500Y-25000D01*
X12500Y-25000D02*
X13500Y-24000D01*
X12000Y-20000D02*
X13500Y-21500D01*
X09500Y-20000D02*
X10000Y-20000D01*
X13500Y-21500D02*
X15500Y-21500D01*
X15500Y-21500D02*
X16000Y-22000D01*
X10000Y-20000D02*
X12000Y-20000D01*
X12000Y-27500D02*
X13500Y-26000D01*
X14000Y-26000D02*
X13500Y-26000D01*
X09000Y-28500D02*
X09500Y-29000D01*
X09000Y-27800D02*
X09000Y-28500D01*
X09300Y-27500D02*
X09000Y-27800D01*
X09750Y-27500D02*
X09300Y-27500D01*
X09750Y-27500D02*
X12000Y-27500D01*
X09500Y-24000D02*
X10000Y-24000D01*
X13500Y-23500D02*
X15500Y-23500D01*
X15500Y-23500D02*
X16000Y-24000D01*
X10000Y-24000D02*
X13000Y-24000D01*
X13000Y-24000D02*
X13500Y-23500D01*
X11500Y-19000D02*
X10000Y-19000D01*
X09500Y-19000D02*
X10000Y-19000D01*
X13500Y-21000D02*
X14000Y-21000D01*
X13500Y-21000D02*
X11500Y-19000D01*
X15500Y-26500D02*
X16000Y-26000D01*
X10000Y-28000D02*
X12000Y-28000D01*
X12000Y-28000D02*
X13500Y-26500D01*
X13500Y-26500D02*
X15500Y-26500D01*
X09500Y-28000D02*
X10000Y-28000D01*
X09500Y-23000D02*
X10000Y-23000D01*
X10000Y-23000D02*
X14000Y-23000D01*
X11000Y-18000D02*
X13500Y-20500D01*
X13500Y-20500D02*
X15500Y-20500D01*
X09500Y-18000D02*
X10000Y-18000D01*
X15500Y-20500D02*
X16000Y-21000D01*
X10000Y-18000D02*
X11000Y-18000D01*
X13750Y-28500D02*
X15500Y-28500D01*
X15500Y-28500D02*
X16000Y-28000D01*
X09500Y-32000D02*
X10250Y-32000D01*
X10250Y-32000D02*
X13750Y-28500D01*
X12750Y-25500D02*
X13250Y-25000D01*
X14000Y-25000D02*
X13250Y-25000D01*
X09000Y-26500D02*
X09500Y-27000D01*
X09000Y-25825D02*
X09000Y-26500D01*
X09325Y-25500D02*
X09000Y-25825D01*
X09750Y-25500D02*
X09325Y-25500D01*
X09750Y-25500D02*
X12750Y-25500D01*
X15500Y-22500D02*
X16000Y-23000D01*
X10000Y-22000D02*
X13000Y-22000D01*
X09500Y-22000D02*
X10000Y-22000D01*
X13000Y-22000D02*
X13500Y-22500D01*
X13500Y-22500D02*
X15500Y-22500D01*
X10000Y-26000D02*
X13000Y-26000D01*
X13000Y-26000D02*
X13500Y-25500D01*
X09500Y-26000D02*
X10000Y-26000D01*
X13500Y-25500D02*
X15500Y-25500D01*
X15500Y-25500D02*
X16000Y-25000D01*
X12500Y-21000D02*
X13000Y-21500D01*
X13500Y-22000D02*
X14000Y-22000D01*
X13000Y-21500D02*
X13500Y-22000D01*
X13000Y-21500D02*
X13000Y-21500D01*
X09500Y-21000D02*
X10000Y-21000D01*
X10000Y-21000D02*
X12500Y-21000D01*
X09500Y-17000D02*
X10000Y-17000D01*
X10500Y-17000D02*
X13500Y-20000D01*
X13500Y-20000D02*
X14000Y-20000D01*
X10000Y-17000D02*
X10500Y-17000D01*
X09500Y-16000D02*
X10000Y-16000D01*
X13500Y-19500D02*
X15500Y-19500D01*
X15500Y-19500D02*
X16000Y-20000D01*
X10000Y-16000D02*
X13500Y-19500D01*
X09500Y-15000D02*
X10000Y-15000D01*
X10000Y-15000D02*
X14000Y-19000D01*
X11000Y-14000D02*
X16000Y-19000D01*
X09500Y-14000D02*
X10000Y-14000D01*
X10000Y-14000D02*
X11000Y-14000D01*
X43850Y-21000D02*
X42000Y-21000D01*
X43850Y-21000D02*
X46400Y-23550D01*
X47050Y-23550D02*
X46400Y-23550D01*
X47050Y-23550D02*
X47500Y-24000D01*
X45550Y-26825D02*
X45550Y-26550D01*
X46275Y-27550D02*
X45550Y-26825D01*
X47050Y-27550D02*
X46275Y-27550D01*
X47500Y-28000D02*
X47050Y-27550D01*
X45550Y-26550D02*
X42000Y-23000D01*
X42100Y-22500D02*
X40500Y-22500D01*
X47500Y-27000D02*
X47025Y-26525D01*
X46125Y-26525D02*
X42100Y-22500D01*
X47025Y-26525D02*
X46125Y-26525D01*
X40500Y-22500D02*
X40000Y-23000D01*
X47000Y-28500D02*
X46400Y-28500D01*
X42075Y-23500D02*
X40500Y-23500D01*
X45400Y-26825D02*
X42075Y-23500D01*
X40500Y-23500D02*
X40000Y-24000D01*
X47500Y-29000D02*
X47000Y-28500D01*
X45400Y-27500D02*
X45400Y-26825D01*
X46400Y-28500D02*
X45400Y-27500D01*
X47025Y-29525D02*
X46400Y-29525D01*
X45225Y-27225D02*
X42000Y-24000D01*
X42000Y-24000D02*
X42000Y-24000D01*
X47500Y-30000D02*
X47025Y-29525D01*
X45225Y-28350D02*
X45225Y-27225D01*
X46400Y-29525D02*
X45225Y-28350D01*
X45825Y-19000D02*
X42000Y-19000D01*
X46325Y-19500D02*
X45825Y-19000D01*
X47000Y-19500D02*
X46325Y-19500D01*
X47500Y-20000D02*
X47000Y-19500D01*
X47500Y-19000D02*
X47000Y-18500D01*
X47000Y-18500D02*
X40500Y-18500D01*
X40500Y-18500D02*
X40000Y-19000D01*
X47025Y-20525D02*
X46375Y-20525D01*
X40500Y-19500D02*
X40000Y-20000D01*
X45350Y-19500D02*
X40500Y-19500D01*
X47500Y-21000D02*
X47025Y-20525D01*
X46375Y-20525D02*
X45350Y-19500D01*
X47500Y-22000D02*
X46975Y-21475D01*
X46350Y-21475D02*
X46975Y-21475D01*
X44875Y-20000D02*
X42000Y-20000D01*
X44875Y-20000D02*
X46350Y-21475D01*
X45150Y-24550D02*
X47050Y-24550D01*
X47050Y-24550D02*
X47500Y-25000D01*
X42100Y-21500D02*
X40500Y-21500D01*
X40500Y-21500D02*
X40000Y-22000D01*
X45150Y-24550D02*
X42100Y-21500D01*
X47500Y-26000D02*
X46938Y-25438D01*
X45438Y-25438D02*
X42000Y-22000D01*
X45438Y-25438D02*
X46938Y-25438D01*
X42000Y-22000D02*
X42000Y-22000D01*
X40500Y-24500D02*
X40000Y-25000D01*
X42075Y-24500D02*
X40500Y-24500D01*
X45050Y-27475D02*
X42075Y-24500D01*
X45050Y-29325D02*
X45050Y-27475D01*
X45050Y-29325D02*
X46225Y-30500D01*
X46225Y-30500D02*
X47000Y-30500D01*
X47500Y-31000D02*
X47000Y-30500D01*
X44875Y-30125D02*
X44875Y-27850D01*
X44875Y-30125D02*
X46250Y-31500D01*
X46250Y-31500D02*
X47000Y-31500D01*
X47500Y-32000D02*
X47000Y-31500D01*
X42025Y-25000D02*
X42000Y-25000D01*
X44875Y-27850D02*
X42025Y-25000D01*
X42000Y-28000D02*
X42000Y-28000D01*
X47000Y-37500D02*
X47500Y-38000D01*
X46000Y-37500D02*
X47000Y-37500D01*
X43975Y-35475D02*
X46000Y-37500D01*
X43975Y-29975D02*
X43975Y-35475D01*
X43975Y-29975D02*
X42000Y-28000D01*
X40500Y-27500D02*
X40000Y-28000D01*
X42075Y-27500D02*
X40500Y-27500D01*
X44125Y-29550D02*
X42075Y-27500D01*
X44125Y-34625D02*
X44125Y-29550D01*
X44125Y-34625D02*
X45975Y-36475D01*
X45975Y-36475D02*
X46975Y-36475D01*
X47500Y-37000D02*
X46975Y-36475D01*
X44425Y-32925D02*
X46000Y-34500D01*
X44425Y-28825D02*
X44425Y-32925D01*
X44425Y-28825D02*
X42100Y-26500D01*
X42100Y-26500D02*
X40500Y-26500D01*
X40000Y-27000D02*
X40500Y-26500D01*
X47000Y-34500D02*
X47500Y-35000D01*
X46000Y-34500D02*
X47000Y-34500D01*
X44275Y-33775D02*
X44275Y-29225D01*
X44275Y-33775D02*
X46000Y-35500D01*
X46000Y-35500D02*
X47000Y-35500D01*
X47500Y-36000D02*
X47000Y-35500D01*
X42050Y-27000D02*
X42000Y-27000D01*
X44275Y-29225D02*
X42050Y-27000D01*
X46225Y-32500D02*
X47000Y-32500D01*
X47500Y-33000D02*
X47000Y-32500D01*
X40500Y-25500D02*
X40000Y-26000D01*
X42075Y-25500D02*
X40500Y-25500D01*
X44725Y-28150D02*
X42075Y-25500D01*
X44725Y-31000D02*
X44725Y-28150D01*
X44725Y-31000D02*
X46225Y-32500D01*
X44575Y-28550D02*
X44575Y-32075D01*
X44575Y-28550D02*
X42025Y-26000D01*
X42000Y-26000D02*
X42025Y-26000D01*
X47000Y-33500D02*
X47500Y-34000D01*
X46000Y-33500D02*
X47000Y-33500D01*
X44575Y-32075D02*
X46000Y-33500D01*
X47050Y-22550D02*
X47500Y-23000D01*
X44350Y-20500D02*
X40500Y-20500D01*
X40500Y-20500D02*
X40000Y-21000D01*
X44350Y-20500D02*
X46400Y-22550D01*
X47050Y-22550D02*
X46400Y-22550D01*
G54D10*
G36*
X49575Y-42575D02*
X48038Y-42575D01*
X48306Y-42308D01*
X48524Y-41784D01*
X48524Y-41218D01*
X48308Y-40695D01*
X47908Y-40294D01*
X47384Y-40076D01*
X46818Y-40076D01*
X46295Y-40292D01*
X45894Y-40692D01*
X45676Y-41216D01*
X45676Y-41782D01*
X45892Y-42305D01*
X46161Y-42575D01*
X44924Y-42575D01*
X44924Y-40884D01*
X44924Y-40318D01*
X44708Y-39795D01*
X44308Y-39394D01*
X43784Y-39176D01*
X43218Y-39176D01*
X42695Y-39392D01*
X42294Y-39792D01*
X42076Y-40316D01*
X42076Y-40882D01*
X42292Y-41405D01*
X42692Y-41806D01*
X43216Y-42024D01*
X43782Y-42024D01*
X44305Y-41808D01*
X44706Y-41408D01*
X44924Y-40884D01*
X44924Y-42575D01*
X40446Y-42575D01*
X40446Y-41056D01*
X40446Y-40056D01*
X40433Y-39880D01*
X40391Y-39777D01*
X40325Y-39746D01*
X40071Y-40000D01*
X40325Y-40254D01*
X40391Y-40223D01*
X40446Y-40056D01*
X40446Y-41056D01*
X40433Y-40880D01*
X40391Y-40777D01*
X40325Y-40746D01*
X40254Y-40817D01*
X40254Y-40675D01*
X40254Y-40325D01*
X40000Y-40071D01*
X39746Y-40325D01*
X39777Y-40391D01*
X39944Y-40446D01*
X40120Y-40433D01*
X40223Y-40391D01*
X40254Y-40325D01*
X40254Y-40675D01*
X40223Y-40609D01*
X40056Y-40554D01*
X39880Y-40567D01*
X39777Y-40609D01*
X39746Y-40675D01*
X40000Y-40929D01*
X40254Y-40675D01*
X40254Y-40817D01*
X40071Y-41000D01*
X40325Y-41254D01*
X40391Y-41223D01*
X40446Y-41056D01*
X40446Y-42575D01*
X40254Y-42575D01*
X40254Y-41325D01*
X40000Y-41071D01*
X39929Y-41142D01*
X39929Y-41000D01*
X39675Y-40746D01*
X39609Y-40777D01*
X39554Y-40944D01*
X39567Y-41120D01*
X39609Y-41223D01*
X39675Y-41254D01*
X39929Y-41000D01*
X39929Y-41142D01*
X39746Y-41325D01*
X39777Y-41391D01*
X39944Y-41446D01*
X40120Y-41433D01*
X40223Y-41391D01*
X40254Y-41325D01*
X40254Y-42575D01*
X39446Y-42575D01*
X39446Y-41056D01*
X39433Y-40880D01*
X39391Y-40777D01*
X39325Y-40746D01*
X39254Y-40817D01*
X39254Y-40675D01*
X39254Y-40325D01*
X39000Y-40071D01*
X38746Y-40325D01*
X38777Y-40391D01*
X38944Y-40446D01*
X39120Y-40433D01*
X39223Y-40391D01*
X39254Y-40325D01*
X39254Y-40675D01*
X39223Y-40609D01*
X39056Y-40554D01*
X38880Y-40567D01*
X38777Y-40609D01*
X38746Y-40675D01*
X39000Y-40929D01*
X39254Y-40675D01*
X39254Y-40817D01*
X39071Y-41000D01*
X39325Y-41254D01*
X39391Y-41223D01*
X39446Y-41056D01*
X39446Y-42575D01*
X39254Y-42575D01*
X39254Y-41325D01*
X39000Y-41071D01*
X38929Y-41142D01*
X38929Y-41000D01*
X38675Y-40746D01*
X38609Y-40777D01*
X38554Y-40944D01*
X38567Y-41120D01*
X38609Y-41223D01*
X38675Y-41254D01*
X38929Y-41000D01*
X38929Y-41142D01*
X38746Y-41325D01*
X38777Y-41391D01*
X38944Y-41446D01*
X39120Y-41433D01*
X39223Y-41391D01*
X39254Y-41325D01*
X39254Y-42575D01*
X38446Y-42575D01*
X38446Y-41056D01*
X38433Y-40880D01*
X38391Y-40777D01*
X38325Y-40746D01*
X38254Y-40817D01*
X38254Y-40675D01*
X38254Y-40325D01*
X38000Y-40071D01*
X37746Y-40325D01*
X37777Y-40391D01*
X37944Y-40446D01*
X38120Y-40433D01*
X38223Y-40391D01*
X38254Y-40325D01*
X38254Y-40675D01*
X38223Y-40609D01*
X38056Y-40554D01*
X37880Y-40567D01*
X37777Y-40609D01*
X37746Y-40675D01*
X38000Y-40929D01*
X38254Y-40675D01*
X38254Y-40817D01*
X38071Y-41000D01*
X38325Y-41254D01*
X38391Y-41223D01*
X38446Y-41056D01*
X38446Y-42575D01*
X38254Y-42575D01*
X38254Y-41325D01*
X38000Y-41071D01*
X37929Y-41142D01*
X37929Y-41000D01*
X37675Y-40746D01*
X37609Y-40777D01*
X37554Y-40944D01*
X37567Y-41120D01*
X37609Y-41223D01*
X37675Y-41254D01*
X37929Y-41000D01*
X37929Y-41142D01*
X37746Y-41325D01*
X37777Y-41391D01*
X37944Y-41446D01*
X38120Y-41433D01*
X38223Y-41391D01*
X38254Y-41325D01*
X38254Y-42575D01*
X37446Y-42575D01*
X37446Y-41056D01*
X37433Y-40880D01*
X37391Y-40777D01*
X37325Y-40746D01*
X37254Y-40817D01*
X37254Y-40675D01*
X37254Y-40325D01*
X37000Y-40071D01*
X36746Y-40325D01*
X36777Y-40391D01*
X36944Y-40446D01*
X37120Y-40433D01*
X37223Y-40391D01*
X37254Y-40325D01*
X37254Y-40675D01*
X37223Y-40609D01*
X37056Y-40554D01*
X36880Y-40567D01*
X36777Y-40609D01*
X36746Y-40675D01*
X37000Y-40929D01*
X37254Y-40675D01*
X37254Y-40817D01*
X37071Y-41000D01*
X37325Y-41254D01*
X37391Y-41223D01*
X37446Y-41056D01*
X37446Y-42575D01*
X37254Y-42575D01*
X37254Y-41325D01*
X37000Y-41071D01*
X36929Y-41142D01*
X36929Y-41000D01*
X36675Y-40746D01*
X36609Y-40777D01*
X36554Y-40944D01*
X36567Y-41120D01*
X36609Y-41223D01*
X36675Y-41254D01*
X36929Y-41000D01*
X36929Y-41142D01*
X36746Y-41325D01*
X36777Y-41391D01*
X36944Y-41446D01*
X37120Y-41433D01*
X37223Y-41391D01*
X37254Y-41325D01*
X37254Y-42575D01*
X36446Y-42575D01*
X36446Y-41056D01*
X36433Y-40880D01*
X36391Y-40777D01*
X36325Y-40746D01*
X36071Y-41000D01*
X36325Y-41254D01*
X36391Y-41223D01*
X36446Y-41056D01*
X36446Y-42575D01*
X36254Y-42575D01*
X36254Y-41325D01*
X36000Y-41071D01*
X35746Y-41325D01*
X35777Y-41391D01*
X35944Y-41446D01*
X36120Y-41433D01*
X36223Y-41391D01*
X36254Y-41325D01*
X36254Y-42575D01*
X13924Y-42575D01*
X13924Y-40884D01*
X13924Y-40318D01*
X13708Y-39795D01*
X13308Y-39394D01*
X12784Y-39176D01*
X12218Y-39176D01*
X11695Y-39392D01*
X11294Y-39792D01*
X11076Y-40316D01*
X11076Y-40882D01*
X11292Y-41405D01*
X11692Y-41806D01*
X12216Y-42024D01*
X12782Y-42024D01*
X13305Y-41808D01*
X13706Y-41408D01*
X13924Y-40884D01*
X13924Y-42575D01*
X09838Y-42575D01*
X10106Y-42308D01*
X10324Y-41784D01*
X10324Y-41218D01*
X10108Y-40695D01*
X09946Y-40532D01*
X09946Y-38056D01*
X09946Y-37056D01*
X09946Y-36056D01*
X09946Y-35056D01*
X09946Y-34056D01*
X09933Y-33880D01*
X09891Y-33777D01*
X09825Y-33746D01*
X09571Y-34000D01*
X09825Y-34254D01*
X09891Y-34223D01*
X09946Y-34056D01*
X09946Y-35056D01*
X09933Y-34880D01*
X09891Y-34777D01*
X09825Y-34746D01*
X09754Y-34817D01*
X09754Y-34675D01*
X09754Y-34325D01*
X09500Y-34071D01*
X09429Y-34142D01*
X09429Y-34000D01*
X09175Y-33746D01*
X09109Y-33777D01*
X09054Y-33944D01*
X09067Y-34120D01*
X09109Y-34223D01*
X09175Y-34254D01*
X09429Y-34000D01*
X09429Y-34142D01*
X09246Y-34325D01*
X09277Y-34391D01*
X09444Y-34446D01*
X09620Y-34433D01*
X09723Y-34391D01*
X09754Y-34325D01*
X09754Y-34675D01*
X09723Y-34609D01*
X09556Y-34554D01*
X09380Y-34567D01*
X09277Y-34609D01*
X09246Y-34675D01*
X09500Y-34929D01*
X09754Y-34675D01*
X09754Y-34817D01*
X09571Y-35000D01*
X09825Y-35254D01*
X09891Y-35223D01*
X09946Y-35056D01*
X09946Y-36056D01*
X09933Y-35880D01*
X09891Y-35777D01*
X09825Y-35746D01*
X09754Y-35817D01*
X09754Y-35675D01*
X09754Y-35325D01*
X09500Y-35071D01*
X09429Y-35142D01*
X09429Y-35000D01*
X09175Y-34746D01*
X09109Y-34777D01*
X09054Y-34944D01*
X09067Y-35120D01*
X09109Y-35223D01*
X09175Y-35254D01*
X09429Y-35000D01*
X09429Y-35142D01*
X09246Y-35325D01*
X09277Y-35391D01*
X09444Y-35446D01*
X09620Y-35433D01*
X09723Y-35391D01*
X09754Y-35325D01*
X09754Y-35675D01*
X09723Y-35609D01*
X09556Y-35554D01*
X09380Y-35567D01*
X09277Y-35609D01*
X09246Y-35675D01*
X09500Y-35929D01*
X09754Y-35675D01*
X09754Y-35817D01*
X09571Y-36000D01*
X09825Y-36254D01*
X09891Y-36223D01*
X09946Y-36056D01*
X09946Y-37056D01*
X09933Y-36880D01*
X09891Y-36777D01*
X09825Y-36746D01*
X09754Y-36817D01*
X09754Y-36675D01*
X09754Y-36325D01*
X09500Y-36071D01*
X09429Y-36142D01*
X09429Y-36000D01*
X09175Y-35746D01*
X09109Y-35777D01*
X09054Y-35944D01*
X09067Y-36120D01*
X09109Y-36223D01*
X09175Y-36254D01*
X09429Y-36000D01*
X09429Y-36142D01*
X09246Y-36325D01*
X09277Y-36391D01*
X09444Y-36446D01*
X09620Y-36433D01*
X09723Y-36391D01*
X09754Y-36325D01*
X09754Y-36675D01*
X09723Y-36609D01*
X09556Y-36554D01*
X09380Y-36567D01*
X09277Y-36609D01*
X09246Y-36675D01*
X09500Y-36929D01*
X09754Y-36675D01*
X09754Y-36817D01*
X09571Y-37000D01*
X09825Y-37254D01*
X09891Y-37223D01*
X09946Y-37056D01*
X09946Y-38056D01*
X09933Y-37880D01*
X09891Y-37777D01*
X09825Y-37746D01*
X09754Y-37817D01*
X09754Y-37675D01*
X09754Y-37325D01*
X09500Y-37071D01*
X09429Y-37142D01*
X09429Y-37000D01*
X09175Y-36746D01*
X09109Y-36777D01*
X09054Y-36944D01*
X09067Y-37120D01*
X09109Y-37223D01*
X09175Y-37254D01*
X09429Y-37000D01*
X09429Y-37142D01*
X09246Y-37325D01*
X09277Y-37391D01*
X09444Y-37446D01*
X09620Y-37433D01*
X09723Y-37391D01*
X09754Y-37325D01*
X09754Y-37675D01*
X09723Y-37609D01*
X09556Y-37554D01*
X09380Y-37567D01*
X09277Y-37609D01*
X09246Y-37675D01*
X09500Y-37929D01*
X09754Y-37675D01*
X09754Y-37817D01*
X09571Y-38000D01*
X09825Y-38254D01*
X09891Y-38223D01*
X09946Y-38056D01*
X09946Y-40532D01*
X09754Y-40340D01*
X09754Y-38325D01*
X09500Y-38071D01*
X09429Y-38142D01*
X09429Y-38000D01*
X09175Y-37746D01*
X09109Y-37777D01*
X09054Y-37944D01*
X09067Y-38120D01*
X09109Y-38223D01*
X09175Y-38254D01*
X09429Y-38000D01*
X09429Y-38142D01*
X09246Y-38325D01*
X09277Y-38391D01*
X09444Y-38446D01*
X09620Y-38433D01*
X09723Y-38391D01*
X09754Y-38325D01*
X09754Y-40340D01*
X09708Y-40294D01*
X09184Y-40076D01*
X08946Y-40076D01*
X08946Y-38056D01*
X08946Y-37056D01*
X08946Y-36056D01*
X08946Y-35056D01*
X08946Y-34056D01*
X08933Y-33880D01*
X08891Y-33777D01*
X08825Y-33746D01*
X08571Y-34000D01*
X08825Y-34254D01*
X08891Y-34223D01*
X08946Y-34056D01*
X08946Y-35056D01*
X08933Y-34880D01*
X08891Y-34777D01*
X08825Y-34746D01*
X08754Y-34817D01*
X08754Y-34675D01*
X08754Y-34325D01*
X08500Y-34071D01*
X08429Y-34142D01*
X08429Y-34000D01*
X08175Y-33746D01*
X08109Y-33777D01*
X08054Y-33944D01*
X08067Y-34120D01*
X08109Y-34223D01*
X08175Y-34254D01*
X08429Y-34000D01*
X08429Y-34142D01*
X08246Y-34325D01*
X08277Y-34391D01*
X08444Y-34446D01*
X08620Y-34433D01*
X08723Y-34391D01*
X08754Y-34325D01*
X08754Y-34675D01*
X08723Y-34609D01*
X08556Y-34554D01*
X08380Y-34567D01*
X08277Y-34609D01*
X08246Y-34675D01*
X08500Y-34929D01*
X08754Y-34675D01*
X08754Y-34817D01*
X08571Y-35000D01*
X08825Y-35254D01*
X08891Y-35223D01*
X08946Y-35056D01*
X08946Y-36056D01*
X08933Y-35880D01*
X08891Y-35777D01*
X08825Y-35746D01*
X08754Y-35817D01*
X08754Y-35675D01*
X08754Y-35325D01*
X08500Y-35071D01*
X08429Y-35142D01*
X08429Y-35000D01*
X08175Y-34746D01*
X08109Y-34777D01*
X08054Y-34944D01*
X08067Y-35120D01*
X08109Y-35223D01*
X08175Y-35254D01*
X08429Y-35000D01*
X08429Y-35142D01*
X08246Y-35325D01*
X08277Y-35391D01*
X08444Y-35446D01*
X08620Y-35433D01*
X08723Y-35391D01*
X08754Y-35325D01*
X08754Y-35675D01*
X08723Y-35609D01*
X08556Y-35554D01*
X08380Y-35567D01*
X08277Y-35609D01*
X08246Y-35675D01*
X08500Y-35929D01*
X08754Y-35675D01*
X08754Y-35817D01*
X08571Y-36000D01*
X08825Y-36254D01*
X08891Y-36223D01*
X08946Y-36056D01*
X08946Y-37056D01*
X08933Y-36880D01*
X08891Y-36777D01*
X08825Y-36746D01*
X08754Y-36817D01*
X08754Y-36675D01*
X08754Y-36325D01*
X08500Y-36071D01*
X08429Y-36142D01*
X08429Y-36000D01*
X08175Y-35746D01*
X08109Y-35777D01*
X08054Y-35944D01*
X08067Y-36120D01*
X08109Y-36223D01*
X08175Y-36254D01*
X08429Y-36000D01*
X08429Y-36142D01*
X08246Y-36325D01*
X08277Y-36391D01*
X08444Y-36446D01*
X08620Y-36433D01*
X08723Y-36391D01*
X08754Y-36325D01*
X08754Y-36675D01*
X08723Y-36609D01*
X08556Y-36554D01*
X08380Y-36567D01*
X08277Y-36609D01*
X08246Y-36675D01*
X08500Y-36929D01*
X08754Y-36675D01*
X08754Y-36817D01*
X08571Y-37000D01*
X08825Y-37254D01*
X08891Y-37223D01*
X08946Y-37056D01*
X08946Y-38056D01*
X08933Y-37880D01*
X08891Y-37777D01*
X08825Y-37746D01*
X08754Y-37817D01*
X08754Y-37675D01*
X08754Y-37325D01*
X08500Y-37071D01*
X08429Y-37142D01*
X08429Y-37000D01*
X08175Y-36746D01*
X08109Y-36777D01*
X08054Y-36944D01*
X08067Y-37120D01*
X08109Y-37223D01*
X08175Y-37254D01*
X08429Y-37000D01*
X08429Y-37142D01*
X08246Y-37325D01*
X08277Y-37391D01*
X08444Y-37446D01*
X08620Y-37433D01*
X08723Y-37391D01*
X08754Y-37325D01*
X08754Y-37675D01*
X08723Y-37609D01*
X08556Y-37554D01*
X08380Y-37567D01*
X08277Y-37609D01*
X08246Y-37675D01*
X08500Y-37929D01*
X08754Y-37675D01*
X08754Y-37817D01*
X08571Y-38000D01*
X08825Y-38254D01*
X08891Y-38223D01*
X08946Y-38056D01*
X08946Y-40076D01*
X08754Y-40076D01*
X08754Y-38325D01*
X08500Y-38071D01*
X08429Y-38142D01*
X08429Y-38000D01*
X08175Y-37746D01*
X08109Y-37777D01*
X08054Y-37944D01*
X08067Y-38120D01*
X08109Y-38223D01*
X08175Y-38254D01*
X08429Y-38000D01*
X08429Y-38142D01*
X08246Y-38325D01*
X08277Y-38391D01*
X08444Y-38446D01*
X08620Y-38433D01*
X08723Y-38391D01*
X08754Y-38325D01*
X08754Y-40076D01*
X08618Y-40076D01*
X08095Y-40292D01*
X07694Y-40692D01*
X07476Y-41216D01*
X07476Y-41782D01*
X07692Y-42305D01*
X07961Y-42575D01*
X07425Y-42575D01*
X07425Y-09425D01*
X07961Y-09425D01*
X07694Y-09692D01*
X07476Y-10216D01*
X07476Y-10782D01*
X07692Y-11305D01*
X08092Y-11706D01*
X08616Y-11924D01*
X09182Y-11924D01*
X09705Y-11708D01*
X10106Y-11308D01*
X10324Y-10784D01*
X10324Y-10218D01*
X10108Y-09695D01*
X09838Y-09425D01*
X17575Y-09425D01*
X17575Y-18692D01*
X17550Y-18632D01*
X17368Y-18450D01*
X17129Y-18351D01*
X16871Y-18351D01*
X16632Y-18450D01*
X16500Y-18582D01*
X16368Y-18450D01*
X16129Y-18351D01*
X15895Y-18351D01*
X14150Y-16606D01*
X14150Y-13229D01*
X14150Y-12772D01*
X13975Y-12349D01*
X13652Y-12026D01*
X13229Y-11850D01*
X12772Y-11850D01*
X12349Y-12025D01*
X12026Y-12348D01*
X11850Y-12771D01*
X11850Y-13228D01*
X12025Y-13651D01*
X12348Y-13974D01*
X12771Y-14150D01*
X13228Y-14150D01*
X13651Y-13975D01*
X13974Y-13652D01*
X14150Y-13229D01*
X14150Y-16606D01*
X11272Y-13728D01*
X11148Y-13644D01*
X11000Y-13615D01*
X10033Y-13615D01*
X09868Y-13450D01*
X09629Y-13351D01*
X09371Y-13351D01*
X09132Y-13450D01*
X09087Y-13494D01*
X08998Y-13404D01*
X08870Y-13351D01*
X08731Y-13351D01*
X08131Y-13351D01*
X08003Y-13404D01*
X07904Y-13502D01*
X07851Y-13630D01*
X07851Y-13769D01*
X07851Y-14369D01*
X07904Y-14497D01*
X07994Y-14587D01*
X07950Y-14632D01*
X07851Y-14871D01*
X07851Y-15129D01*
X07950Y-15368D01*
X08082Y-15500D01*
X07950Y-15632D01*
X07851Y-15871D01*
X07851Y-16129D01*
X07950Y-16368D01*
X08082Y-16500D01*
X07950Y-16632D01*
X07851Y-16871D01*
X07851Y-17129D01*
X07950Y-17368D01*
X08082Y-17500D01*
X07950Y-17632D01*
X07851Y-17871D01*
X07851Y-18129D01*
X07950Y-18368D01*
X08082Y-18500D01*
X07950Y-18632D01*
X07851Y-18871D01*
X07851Y-19129D01*
X07950Y-19368D01*
X08082Y-19500D01*
X07950Y-19632D01*
X07851Y-19871D01*
X07851Y-20129D01*
X07950Y-20368D01*
X08082Y-20500D01*
X07950Y-20632D01*
X07851Y-20871D01*
X07851Y-21129D01*
X07950Y-21368D01*
X08082Y-21500D01*
X07950Y-21632D01*
X07851Y-21871D01*
X07851Y-22129D01*
X07950Y-22368D01*
X08082Y-22500D01*
X07950Y-22632D01*
X07851Y-22871D01*
X07851Y-23129D01*
X07950Y-23368D01*
X08082Y-23500D01*
X07950Y-23632D01*
X07851Y-23871D01*
X07851Y-24129D01*
X07950Y-24368D01*
X08082Y-24500D01*
X07950Y-24632D01*
X07851Y-24871D01*
X07851Y-25129D01*
X07950Y-25368D01*
X08082Y-25500D01*
X07950Y-25632D01*
X07851Y-25871D01*
X07851Y-26129D01*
X07950Y-26368D01*
X08082Y-26500D01*
X07950Y-26632D01*
X07851Y-26871D01*
X07851Y-27129D01*
X07950Y-27368D01*
X08082Y-27500D01*
X07950Y-27632D01*
X07851Y-27871D01*
X07851Y-28129D01*
X07950Y-28368D01*
X08082Y-28500D01*
X07950Y-28632D01*
X07851Y-28871D01*
X07851Y-29129D01*
X07950Y-29368D01*
X08082Y-29500D01*
X07950Y-29632D01*
X07851Y-29871D01*
X07851Y-30129D01*
X07950Y-30368D01*
X08082Y-30500D01*
X07950Y-30632D01*
X07851Y-30871D01*
X07851Y-31129D01*
X07950Y-31368D01*
X08082Y-31500D01*
X07950Y-31632D01*
X07851Y-31871D01*
X07851Y-32129D01*
X07950Y-32368D01*
X08082Y-32500D01*
X07950Y-32632D01*
X07851Y-32871D01*
X07851Y-33129D01*
X07950Y-33368D01*
X08132Y-33550D01*
X08276Y-33609D01*
X08246Y-33675D01*
X08500Y-33929D01*
X08754Y-33675D01*
X08723Y-33609D01*
X08868Y-33550D01*
X09000Y-33418D01*
X09132Y-33550D01*
X09276Y-33609D01*
X09246Y-33675D01*
X09500Y-33929D01*
X09754Y-33675D01*
X09723Y-33609D01*
X09868Y-33550D01*
X10050Y-33368D01*
X10149Y-33129D01*
X10149Y-32871D01*
X10050Y-32632D01*
X09918Y-32500D01*
X10033Y-32385D01*
X10250Y-32385D01*
X10397Y-32356D01*
X10398Y-32356D01*
X10522Y-32272D01*
X11240Y-31554D01*
X11240Y-34325D01*
X11269Y-34473D01*
X11353Y-34597D01*
X13105Y-36350D01*
X12772Y-36350D01*
X12349Y-36525D01*
X12026Y-36848D01*
X11850Y-37271D01*
X11850Y-37728D01*
X12025Y-38151D01*
X12348Y-38474D01*
X12771Y-38650D01*
X13228Y-38650D01*
X13651Y-38475D01*
X13974Y-38152D01*
X14150Y-37729D01*
X14150Y-37394D01*
X16106Y-39351D01*
X15871Y-39351D01*
X15632Y-39450D01*
X15450Y-39632D01*
X15351Y-39871D01*
X15351Y-40129D01*
X15450Y-40368D01*
X15494Y-40412D01*
X15404Y-40502D01*
X15351Y-40630D01*
X15351Y-40769D01*
X15351Y-41369D01*
X15404Y-41497D01*
X15502Y-41596D01*
X15630Y-41649D01*
X15769Y-41649D01*
X16369Y-41649D01*
X16497Y-41596D01*
X16587Y-41505D01*
X16632Y-41550D01*
X16871Y-41649D01*
X17129Y-41649D01*
X17368Y-41550D01*
X17500Y-41418D01*
X17632Y-41550D01*
X17871Y-41649D01*
X18129Y-41649D01*
X18368Y-41550D01*
X18500Y-41418D01*
X18632Y-41550D01*
X18871Y-41649D01*
X19129Y-41649D01*
X19368Y-41550D01*
X19500Y-41418D01*
X19632Y-41550D01*
X19871Y-41649D01*
X20129Y-41649D01*
X20368Y-41550D01*
X20500Y-41418D01*
X20632Y-41550D01*
X20871Y-41649D01*
X21129Y-41649D01*
X21368Y-41550D01*
X21500Y-41418D01*
X21632Y-41550D01*
X21871Y-41649D01*
X22129Y-41649D01*
X22368Y-41550D01*
X22500Y-41418D01*
X22632Y-41550D01*
X22871Y-41649D01*
X23129Y-41649D01*
X23368Y-41550D01*
X23500Y-41418D01*
X23632Y-41550D01*
X23871Y-41649D01*
X24129Y-41649D01*
X24368Y-41550D01*
X24500Y-41418D01*
X24632Y-41550D01*
X24871Y-41649D01*
X25129Y-41649D01*
X25368Y-41550D01*
X25500Y-41418D01*
X25632Y-41550D01*
X25871Y-41649D01*
X26129Y-41649D01*
X26368Y-41550D01*
X26500Y-41418D01*
X26632Y-41550D01*
X26871Y-41649D01*
X27129Y-41649D01*
X27368Y-41550D01*
X27500Y-41418D01*
X27632Y-41550D01*
X27871Y-41649D01*
X28129Y-41649D01*
X28368Y-41550D01*
X28500Y-41418D01*
X28632Y-41550D01*
X28871Y-41649D01*
X29129Y-41649D01*
X29368Y-41550D01*
X29500Y-41418D01*
X29632Y-41550D01*
X29871Y-41649D01*
X30129Y-41649D01*
X30368Y-41550D01*
X30500Y-41418D01*
X30632Y-41550D01*
X30871Y-41649D01*
X31129Y-41649D01*
X31368Y-41550D01*
X31500Y-41418D01*
X31632Y-41550D01*
X31871Y-41649D01*
X32129Y-41649D01*
X32368Y-41550D01*
X32500Y-41418D01*
X32632Y-41550D01*
X32871Y-41649D01*
X33129Y-41649D01*
X33368Y-41550D01*
X33500Y-41418D01*
X33632Y-41550D01*
X33871Y-41649D01*
X34129Y-41649D01*
X34368Y-41550D01*
X34500Y-41418D01*
X34632Y-41550D01*
X34871Y-41649D01*
X35129Y-41649D01*
X35368Y-41550D01*
X35550Y-41368D01*
X35609Y-41223D01*
X35675Y-41254D01*
X35894Y-41035D01*
X35929Y-41000D01*
X36000Y-40929D01*
X36035Y-40894D01*
X36254Y-40675D01*
X36223Y-40609D01*
X36056Y-40554D01*
X35880Y-40567D01*
X35849Y-40579D01*
X35859Y-40526D01*
X35860Y-40525D01*
X35860Y-40418D01*
X35944Y-40446D01*
X36120Y-40433D01*
X36223Y-40391D01*
X36254Y-40325D01*
X36035Y-40106D01*
X36000Y-40071D01*
X35929Y-40000D01*
X35994Y-39935D01*
X36006Y-39935D01*
X36071Y-40000D01*
X36106Y-40035D01*
X36325Y-40254D01*
X36391Y-40223D01*
X36446Y-40056D01*
X36437Y-39935D01*
X36556Y-39935D01*
X36554Y-39944D01*
X36567Y-40120D01*
X36609Y-40223D01*
X36675Y-40254D01*
X36894Y-40035D01*
X36929Y-40000D01*
X36994Y-39935D01*
X37006Y-39935D01*
X37071Y-40000D01*
X37106Y-40035D01*
X37325Y-40254D01*
X37391Y-40223D01*
X37446Y-40056D01*
X37437Y-39935D01*
X37556Y-39935D01*
X37554Y-39944D01*
X37567Y-40120D01*
X37609Y-40223D01*
X37675Y-40254D01*
X37894Y-40035D01*
X37929Y-40000D01*
X37994Y-39935D01*
X38006Y-39935D01*
X38071Y-40000D01*
X38106Y-40035D01*
X38325Y-40254D01*
X38391Y-40223D01*
X38446Y-40056D01*
X38437Y-39935D01*
X38556Y-39935D01*
X38554Y-39944D01*
X38567Y-40120D01*
X38609Y-40223D01*
X38675Y-40254D01*
X38894Y-40035D01*
X38929Y-40000D01*
X38994Y-39935D01*
X39006Y-39935D01*
X39071Y-40000D01*
X39106Y-40035D01*
X39325Y-40254D01*
X39391Y-40223D01*
X39446Y-40056D01*
X39437Y-39935D01*
X39475Y-39935D01*
X39562Y-39917D01*
X39554Y-39944D01*
X39567Y-40120D01*
X39609Y-40223D01*
X39675Y-40254D01*
X39894Y-40035D01*
X39929Y-40000D01*
X40000Y-39929D01*
X40035Y-39894D01*
X40254Y-39675D01*
X40223Y-39609D01*
X40056Y-39554D01*
X40011Y-39557D01*
X41850Y-37719D01*
X41850Y-37728D01*
X42025Y-38151D01*
X42348Y-38474D01*
X42771Y-38650D01*
X43228Y-38650D01*
X43651Y-38475D01*
X43974Y-38152D01*
X44150Y-37729D01*
X44150Y-37272D01*
X43975Y-36849D01*
X43652Y-36526D01*
X43229Y-36350D01*
X43219Y-36350D01*
X43762Y-35806D01*
X45727Y-37772D01*
X45728Y-37772D01*
X45811Y-37827D01*
X45852Y-37855D01*
X45853Y-37856D01*
X45856Y-37856D01*
X45851Y-37871D01*
X45851Y-38129D01*
X45950Y-38368D01*
X46132Y-38550D01*
X46371Y-38649D01*
X46629Y-38649D01*
X46868Y-38550D01*
X46912Y-38505D01*
X47002Y-38596D01*
X47130Y-38649D01*
X47269Y-38649D01*
X47869Y-38649D01*
X47997Y-38596D01*
X48096Y-38498D01*
X48149Y-38370D01*
X48149Y-38231D01*
X48149Y-37631D01*
X48096Y-37503D01*
X48005Y-37412D01*
X48050Y-37368D01*
X48149Y-37129D01*
X48149Y-36871D01*
X48050Y-36632D01*
X47918Y-36500D01*
X48050Y-36368D01*
X48149Y-36129D01*
X48149Y-35871D01*
X48050Y-35632D01*
X47918Y-35500D01*
X48050Y-35368D01*
X48149Y-35129D01*
X48149Y-34871D01*
X48050Y-34632D01*
X47918Y-34500D01*
X48050Y-34368D01*
X48149Y-34129D01*
X48149Y-33871D01*
X48050Y-33632D01*
X47918Y-33500D01*
X48050Y-33368D01*
X48149Y-33129D01*
X48149Y-32871D01*
X48050Y-32632D01*
X47918Y-32500D01*
X48050Y-32368D01*
X48149Y-32129D01*
X48149Y-31871D01*
X48050Y-31632D01*
X47918Y-31500D01*
X48050Y-31368D01*
X48149Y-31129D01*
X48149Y-30871D01*
X48050Y-30632D01*
X47918Y-30500D01*
X48050Y-30368D01*
X48149Y-30129D01*
X48149Y-29871D01*
X48050Y-29632D01*
X47918Y-29500D01*
X48050Y-29368D01*
X48149Y-29129D01*
X48149Y-28871D01*
X48050Y-28632D01*
X47918Y-28500D01*
X48050Y-28368D01*
X48149Y-28129D01*
X48149Y-27871D01*
X48050Y-27632D01*
X47918Y-27500D01*
X48050Y-27368D01*
X48149Y-27129D01*
X48149Y-26871D01*
X48050Y-26632D01*
X47918Y-26500D01*
X48050Y-26368D01*
X48149Y-26129D01*
X48149Y-25871D01*
X48050Y-25632D01*
X47918Y-25500D01*
X48050Y-25368D01*
X48149Y-25129D01*
X48149Y-24871D01*
X48050Y-24632D01*
X47918Y-24500D01*
X48050Y-24368D01*
X48149Y-24129D01*
X48149Y-23871D01*
X48050Y-23632D01*
X47918Y-23500D01*
X48050Y-23368D01*
X48149Y-23129D01*
X48149Y-22871D01*
X48050Y-22632D01*
X47918Y-22500D01*
X48050Y-22368D01*
X48149Y-22129D01*
X48149Y-21871D01*
X48050Y-21632D01*
X47918Y-21500D01*
X48050Y-21368D01*
X48149Y-21129D01*
X48149Y-20871D01*
X48050Y-20632D01*
X47918Y-20500D01*
X48050Y-20368D01*
X48149Y-20129D01*
X48149Y-19871D01*
X48050Y-19632D01*
X47918Y-19500D01*
X48050Y-19368D01*
X48149Y-19129D01*
X48149Y-18871D01*
X48050Y-18632D01*
X47946Y-18528D01*
X47946Y-18056D01*
X47946Y-17056D01*
X47946Y-16056D01*
X47946Y-15056D01*
X47946Y-14056D01*
X47933Y-13880D01*
X47891Y-13777D01*
X47825Y-13746D01*
X47754Y-13817D01*
X47754Y-13675D01*
X47723Y-13609D01*
X47556Y-13554D01*
X47380Y-13567D01*
X47277Y-13609D01*
X47246Y-13675D01*
X47500Y-13929D01*
X47754Y-13675D01*
X47754Y-13817D01*
X47571Y-14000D01*
X47825Y-14254D01*
X47891Y-14223D01*
X47946Y-14056D01*
X47946Y-15056D01*
X47933Y-14880D01*
X47891Y-14777D01*
X47825Y-14746D01*
X47754Y-14817D01*
X47754Y-14675D01*
X47754Y-14325D01*
X47500Y-14071D01*
X47429Y-14142D01*
X47429Y-14000D01*
X47175Y-13746D01*
X47109Y-13777D01*
X47054Y-13944D01*
X47067Y-14120D01*
X47109Y-14223D01*
X47175Y-14254D01*
X47429Y-14000D01*
X47429Y-14142D01*
X47246Y-14325D01*
X47277Y-14391D01*
X47444Y-14446D01*
X47620Y-14433D01*
X47723Y-14391D01*
X47754Y-14325D01*
X47754Y-14675D01*
X47723Y-14609D01*
X47556Y-14554D01*
X47380Y-14567D01*
X47277Y-14609D01*
X47246Y-14675D01*
X47500Y-14929D01*
X47754Y-14675D01*
X47754Y-14817D01*
X47571Y-15000D01*
X47825Y-15254D01*
X47891Y-15223D01*
X47946Y-15056D01*
X47946Y-16056D01*
X47933Y-15880D01*
X47891Y-15777D01*
X47825Y-15746D01*
X47754Y-15817D01*
X47754Y-15675D01*
X47754Y-15325D01*
X47500Y-15071D01*
X47429Y-15142D01*
X47429Y-15000D01*
X47175Y-14746D01*
X47109Y-14777D01*
X47054Y-14944D01*
X47067Y-15120D01*
X47109Y-15223D01*
X47175Y-15254D01*
X47429Y-15000D01*
X47429Y-15142D01*
X47246Y-15325D01*
X47277Y-15391D01*
X47444Y-15446D01*
X47620Y-15433D01*
X47723Y-15391D01*
X47754Y-15325D01*
X47754Y-15675D01*
X47723Y-15609D01*
X47556Y-15554D01*
X47380Y-15567D01*
X47277Y-15609D01*
X47246Y-15675D01*
X47500Y-15929D01*
X47754Y-15675D01*
X47754Y-15817D01*
X47571Y-16000D01*
X47825Y-16254D01*
X47891Y-16223D01*
X47946Y-16056D01*
X47946Y-17056D01*
X47933Y-16880D01*
X47891Y-16777D01*
X47825Y-16746D01*
X47754Y-16817D01*
X47754Y-16675D01*
X47754Y-16325D01*
X47500Y-16071D01*
X47429Y-16142D01*
X47429Y-16000D01*
X47175Y-15746D01*
X47109Y-15777D01*
X47054Y-15944D01*
X47067Y-16120D01*
X47109Y-16223D01*
X47175Y-16254D01*
X47429Y-16000D01*
X47429Y-16142D01*
X47246Y-16325D01*
X47277Y-16391D01*
X47444Y-16446D01*
X47620Y-16433D01*
X47723Y-16391D01*
X47754Y-16325D01*
X47754Y-16675D01*
X47723Y-16609D01*
X47556Y-16554D01*
X47380Y-16567D01*
X47277Y-16609D01*
X47246Y-16675D01*
X47500Y-16929D01*
X47754Y-16675D01*
X47754Y-16817D01*
X47571Y-17000D01*
X47825Y-17254D01*
X47891Y-17223D01*
X47946Y-17056D01*
X47946Y-18056D01*
X47933Y-17880D01*
X47891Y-17777D01*
X47825Y-17746D01*
X47754Y-17817D01*
X47754Y-17675D01*
X47754Y-17325D01*
X47500Y-17071D01*
X47429Y-17142D01*
X47429Y-17000D01*
X47175Y-16746D01*
X47109Y-16777D01*
X47054Y-16944D01*
X47067Y-17120D01*
X47109Y-17223D01*
X47175Y-17254D01*
X47429Y-17000D01*
X47429Y-17142D01*
X47246Y-17325D01*
X47277Y-17391D01*
X47444Y-17446D01*
X47620Y-17433D01*
X47723Y-17391D01*
X47754Y-17325D01*
X47754Y-17675D01*
X47723Y-17609D01*
X47556Y-17554D01*
X47380Y-17567D01*
X47277Y-17609D01*
X47246Y-17675D01*
X47500Y-17929D01*
X47754Y-17675D01*
X47754Y-17817D01*
X47571Y-18000D01*
X47825Y-18254D01*
X47891Y-18223D01*
X47946Y-18056D01*
X47946Y-18528D01*
X47868Y-18450D01*
X47723Y-18390D01*
X47754Y-18325D01*
X47535Y-18106D01*
X47500Y-18071D01*
X47429Y-18000D01*
X47394Y-17965D01*
X47175Y-17746D01*
X47109Y-17777D01*
X47054Y-17944D01*
X47067Y-18120D01*
X47070Y-18128D01*
X47000Y-18115D01*
X46926Y-18115D01*
X46946Y-18056D01*
X46946Y-17056D01*
X46946Y-16056D01*
X46946Y-15056D01*
X46946Y-14056D01*
X46933Y-13880D01*
X46891Y-13777D01*
X46825Y-13746D01*
X46754Y-13817D01*
X46754Y-13675D01*
X46723Y-13609D01*
X46556Y-13554D01*
X46380Y-13567D01*
X46277Y-13609D01*
X46246Y-13675D01*
X46500Y-13929D01*
X46754Y-13675D01*
X46754Y-13817D01*
X46571Y-14000D01*
X46825Y-14254D01*
X46891Y-14223D01*
X46946Y-14056D01*
X46946Y-15056D01*
X46933Y-14880D01*
X46891Y-14777D01*
X46825Y-14746D01*
X46754Y-14817D01*
X46754Y-14675D01*
X46754Y-14325D01*
X46500Y-14071D01*
X46429Y-14142D01*
X46429Y-14000D01*
X46175Y-13746D01*
X46109Y-13777D01*
X46054Y-13944D01*
X46067Y-14120D01*
X46109Y-14223D01*
X46175Y-14254D01*
X46429Y-14000D01*
X46429Y-14142D01*
X46246Y-14325D01*
X46277Y-14391D01*
X46444Y-14446D01*
X46620Y-14433D01*
X46723Y-14391D01*
X46754Y-14325D01*
X46754Y-14675D01*
X46723Y-14609D01*
X46556Y-14554D01*
X46380Y-14567D01*
X46277Y-14609D01*
X46246Y-14675D01*
X46500Y-14929D01*
X46754Y-14675D01*
X46754Y-14817D01*
X46571Y-15000D01*
X46825Y-15254D01*
X46891Y-15223D01*
X46946Y-15056D01*
X46946Y-16056D01*
X46933Y-15880D01*
X46891Y-15777D01*
X46825Y-15746D01*
X46754Y-15817D01*
X46754Y-15675D01*
X46754Y-15325D01*
X46500Y-15071D01*
X46429Y-15142D01*
X46429Y-15000D01*
X46175Y-14746D01*
X46109Y-14777D01*
X46054Y-14944D01*
X46067Y-15120D01*
X46109Y-15223D01*
X46175Y-15254D01*
X46429Y-15000D01*
X46429Y-15142D01*
X46246Y-15325D01*
X46277Y-15391D01*
X46444Y-15446D01*
X46620Y-15433D01*
X46723Y-15391D01*
X46754Y-15325D01*
X46754Y-15675D01*
X46723Y-15609D01*
X46556Y-15554D01*
X46380Y-15567D01*
X46277Y-15609D01*
X46246Y-15675D01*
X46500Y-15929D01*
X46754Y-15675D01*
X46754Y-15817D01*
X46571Y-16000D01*
X46825Y-16254D01*
X46891Y-16223D01*
X46946Y-16056D01*
X46946Y-17056D01*
X46933Y-16880D01*
X46891Y-16777D01*
X46825Y-16746D01*
X46754Y-16817D01*
X46754Y-16675D01*
X46754Y-16325D01*
X46500Y-16071D01*
X46429Y-16142D01*
X46429Y-16000D01*
X46175Y-15746D01*
X46109Y-15777D01*
X46054Y-15944D01*
X46067Y-16120D01*
X46109Y-16223D01*
X46175Y-16254D01*
X46429Y-16000D01*
X46429Y-16142D01*
X46246Y-16325D01*
X46277Y-16391D01*
X46444Y-16446D01*
X46620Y-16433D01*
X46723Y-16391D01*
X46754Y-16325D01*
X46754Y-16675D01*
X46723Y-16609D01*
X46556Y-16554D01*
X46380Y-16567D01*
X46277Y-16609D01*
X46246Y-16675D01*
X46500Y-16929D01*
X46754Y-16675D01*
X46754Y-16817D01*
X46571Y-17000D01*
X46825Y-17254D01*
X46891Y-17223D01*
X46946Y-17056D01*
X46946Y-18056D01*
X46933Y-17880D01*
X46891Y-17777D01*
X46825Y-17746D01*
X46754Y-17817D01*
X46754Y-17675D01*
X46754Y-17325D01*
X46500Y-17071D01*
X46429Y-17142D01*
X46429Y-17000D01*
X46175Y-16746D01*
X46109Y-16777D01*
X46054Y-16944D01*
X46067Y-17120D01*
X46109Y-17223D01*
X46175Y-17254D01*
X46429Y-17000D01*
X46429Y-17142D01*
X46246Y-17325D01*
X46277Y-17391D01*
X46444Y-17446D01*
X46620Y-17433D01*
X46723Y-17391D01*
X46754Y-17325D01*
X46754Y-17675D01*
X46723Y-17609D01*
X46556Y-17554D01*
X46380Y-17567D01*
X46277Y-17609D01*
X46246Y-17675D01*
X46500Y-17929D01*
X46754Y-17675D01*
X46754Y-17817D01*
X46606Y-17965D01*
X46571Y-18000D01*
X46500Y-18071D01*
X46429Y-18000D01*
X46394Y-17965D01*
X46175Y-17746D01*
X46109Y-17777D01*
X46054Y-17944D01*
X46066Y-18115D01*
X44150Y-18115D01*
X44150Y-13229D01*
X44150Y-12772D01*
X43975Y-12349D01*
X43652Y-12026D01*
X43229Y-11850D01*
X42772Y-11850D01*
X42349Y-12025D01*
X42026Y-12348D01*
X41850Y-12771D01*
X41850Y-13228D01*
X42025Y-13651D01*
X42348Y-13974D01*
X42771Y-14150D01*
X43228Y-14150D01*
X43651Y-13975D01*
X43974Y-13652D01*
X44150Y-13229D01*
X44150Y-18115D01*
X40500Y-18115D01*
X40352Y-18144D01*
X40228Y-18228D01*
X40105Y-18351D01*
X39871Y-18351D01*
X39632Y-18450D01*
X39500Y-18582D01*
X39368Y-18450D01*
X39129Y-18351D01*
X38871Y-18351D01*
X38632Y-18450D01*
X38450Y-18632D01*
X38425Y-18692D01*
X38425Y-09425D01*
X46161Y-09425D01*
X45894Y-09692D01*
X45676Y-10216D01*
X45676Y-10782D01*
X45892Y-11305D01*
X46292Y-11706D01*
X46816Y-11924D01*
X47382Y-11924D01*
X47905Y-11708D01*
X48306Y-11308D01*
X48524Y-10784D01*
X48524Y-10218D01*
X48308Y-09695D01*
X48038Y-09425D01*
X49575Y-09425D01*
X49575Y-42575D01*
X49575Y-42575D01*
G37*
G54D16*
X49575Y-42575D02*
X48038Y-42575D01*
X48306Y-42308D01*
X48524Y-41784D01*
X48524Y-41218D01*
X48308Y-40695D01*
X47908Y-40294D01*
X47384Y-40076D01*
X46818Y-40076D01*
X46295Y-40292D01*
X45894Y-40692D01*
X45676Y-41216D01*
X45676Y-41782D01*
X45892Y-42305D01*
X46161Y-42575D01*
X44924Y-42575D01*
X44924Y-40884D01*
X44924Y-40318D01*
X44708Y-39795D01*
X44308Y-39394D01*
X43784Y-39176D01*
X43218Y-39176D01*
X42695Y-39392D01*
X42294Y-39792D01*
X42076Y-40316D01*
X42076Y-40882D01*
X42292Y-41405D01*
X42692Y-41806D01*
X43216Y-42024D01*
X43782Y-42024D01*
X44305Y-41808D01*
X44706Y-41408D01*
X44924Y-40884D01*
X44924Y-42575D01*
X40446Y-42575D01*
X40446Y-41056D01*
X40446Y-40056D01*
X40433Y-39880D01*
X40391Y-39777D01*
X40325Y-39746D01*
X40071Y-40000D01*
X40325Y-40254D01*
X40391Y-40223D01*
X40446Y-40056D01*
X40446Y-41056D01*
X40433Y-40880D01*
X40391Y-40777D01*
X40325Y-40746D01*
X40254Y-40817D01*
X40254Y-40675D01*
X40254Y-40325D01*
X40000Y-40071D01*
X39746Y-40325D01*
X39777Y-40391D01*
X39944Y-40446D01*
X40120Y-40433D01*
X40223Y-40391D01*
X40254Y-40325D01*
X40254Y-40675D01*
X40223Y-40609D01*
X40056Y-40554D01*
X39880Y-40567D01*
X39777Y-40609D01*
X39746Y-40675D01*
X40000Y-40929D01*
X40254Y-40675D01*
X40254Y-40817D01*
X40071Y-41000D01*
X40325Y-41254D01*
X40391Y-41223D01*
X40446Y-41056D01*
X40446Y-42575D01*
X40254Y-42575D01*
X40254Y-41325D01*
X40000Y-41071D01*
X39929Y-41142D01*
X39929Y-41000D01*
X39675Y-40746D01*
X39609Y-40777D01*
X39554Y-40944D01*
X39567Y-41120D01*
X39609Y-41223D01*
X39675Y-41254D01*
X39929Y-41000D01*
X39929Y-41142D01*
X39746Y-41325D01*
X39777Y-41391D01*
X39944Y-41446D01*
X40120Y-41433D01*
X40223Y-41391D01*
X40254Y-41325D01*
X40254Y-42575D01*
X39446Y-42575D01*
X39446Y-41056D01*
X39433Y-40880D01*
X39391Y-40777D01*
X39325Y-40746D01*
X39254Y-40817D01*
X39254Y-40675D01*
X39254Y-40325D01*
X39000Y-40071D01*
X38746Y-40325D01*
X38777Y-40391D01*
X38944Y-40446D01*
X39120Y-40433D01*
X39223Y-40391D01*
X39254Y-40325D01*
X39254Y-40675D01*
X39223Y-40609D01*
X39056Y-40554D01*
X38880Y-40567D01*
X38777Y-40609D01*
X38746Y-40675D01*
X39000Y-40929D01*
X39254Y-40675D01*
X39254Y-40817D01*
X39071Y-41000D01*
X39325Y-41254D01*
X39391Y-41223D01*
X39446Y-41056D01*
X39446Y-42575D01*
X39254Y-42575D01*
X39254Y-41325D01*
X39000Y-41071D01*
X38929Y-41142D01*
X38929Y-41000D01*
X38675Y-40746D01*
X38609Y-40777D01*
X38554Y-40944D01*
X38567Y-41120D01*
X38609Y-41223D01*
X38675Y-41254D01*
X38929Y-41000D01*
X38929Y-41142D01*
X38746Y-41325D01*
X38777Y-41391D01*
X38944Y-41446D01*
X39120Y-41433D01*
X39223Y-41391D01*
X39254Y-41325D01*
X39254Y-42575D01*
X38446Y-42575D01*
X38446Y-41056D01*
X38433Y-40880D01*
X38391Y-40777D01*
X38325Y-40746D01*
X38254Y-40817D01*
X38254Y-40675D01*
X38254Y-40325D01*
X38000Y-40071D01*
X37746Y-40325D01*
X37777Y-40391D01*
X37944Y-40446D01*
X38120Y-40433D01*
X38223Y-40391D01*
X38254Y-40325D01*
X38254Y-40675D01*
X38223Y-40609D01*
X38056Y-40554D01*
X37880Y-40567D01*
X37777Y-40609D01*
X37746Y-40675D01*
X38000Y-40929D01*
X38254Y-40675D01*
X38254Y-40817D01*
X38071Y-41000D01*
X38325Y-41254D01*
X38391Y-41223D01*
X38446Y-41056D01*
X38446Y-42575D01*
X38254Y-42575D01*
X38254Y-41325D01*
X38000Y-41071D01*
X37929Y-41142D01*
X37929Y-41000D01*
X37675Y-40746D01*
X37609Y-40777D01*
X37554Y-40944D01*
X37567Y-41120D01*
X37609Y-41223D01*
X37675Y-41254D01*
X37929Y-41000D01*
X37929Y-41142D01*
X37746Y-41325D01*
X37777Y-41391D01*
X37944Y-41446D01*
X38120Y-41433D01*
X38223Y-41391D01*
X38254Y-41325D01*
X38254Y-42575D01*
X37446Y-42575D01*
X37446Y-41056D01*
X37433Y-40880D01*
X37391Y-40777D01*
X37325Y-40746D01*
X37254Y-40817D01*
X37254Y-40675D01*
X37254Y-40325D01*
X37000Y-40071D01*
X36746Y-40325D01*
X36777Y-40391D01*
X36944Y-40446D01*
X37120Y-40433D01*
X37223Y-40391D01*
X37254Y-40325D01*
X37254Y-40675D01*
X37223Y-40609D01*
X37056Y-40554D01*
X36880Y-40567D01*
X36777Y-40609D01*
X36746Y-40675D01*
X37000Y-40929D01*
X37254Y-40675D01*
X37254Y-40817D01*
X37071Y-41000D01*
X37325Y-41254D01*
X37391Y-41223D01*
X37446Y-41056D01*
X37446Y-42575D01*
X37254Y-42575D01*
X37254Y-41325D01*
X37000Y-41071D01*
X36929Y-41142D01*
X36929Y-41000D01*
X36675Y-40746D01*
X36609Y-40777D01*
X36554Y-40944D01*
X36567Y-41120D01*
X36609Y-41223D01*
X36675Y-41254D01*
X36929Y-41000D01*
X36929Y-41142D01*
X36746Y-41325D01*
X36777Y-41391D01*
X36944Y-41446D01*
X37120Y-41433D01*
X37223Y-41391D01*
X37254Y-41325D01*
X37254Y-42575D01*
X36446Y-42575D01*
X36446Y-41056D01*
X36433Y-40880D01*
X36391Y-40777D01*
X36325Y-40746D01*
X36071Y-41000D01*
X36325Y-41254D01*
X36391Y-41223D01*
X36446Y-41056D01*
X36446Y-42575D01*
X36254Y-42575D01*
X36254Y-41325D01*
X36000Y-41071D01*
X35746Y-41325D01*
X35777Y-41391D01*
X35944Y-41446D01*
X36120Y-41433D01*
X36223Y-41391D01*
X36254Y-41325D01*
X36254Y-42575D01*
X13924Y-42575D01*
X13924Y-40884D01*
X13924Y-40318D01*
X13708Y-39795D01*
X13308Y-39394D01*
X12784Y-39176D01*
X12218Y-39176D01*
X11695Y-39392D01*
X11294Y-39792D01*
X11076Y-40316D01*
X11076Y-40882D01*
X11292Y-41405D01*
X11692Y-41806D01*
X12216Y-42024D01*
X12782Y-42024D01*
X13305Y-41808D01*
X13706Y-41408D01*
X13924Y-40884D01*
X13924Y-42575D01*
X09838Y-42575D01*
X10106Y-42308D01*
X10324Y-41784D01*
X10324Y-41218D01*
X10108Y-40695D01*
X09946Y-40532D01*
X09946Y-38056D01*
X09946Y-37056D01*
X09946Y-36056D01*
X09946Y-35056D01*
X09946Y-34056D01*
X09933Y-33880D01*
X09891Y-33777D01*
X09825Y-33746D01*
X09571Y-34000D01*
X09825Y-34254D01*
X09891Y-34223D01*
X09946Y-34056D01*
X09946Y-35056D01*
X09933Y-34880D01*
X09891Y-34777D01*
X09825Y-34746D01*
X09754Y-34817D01*
X09754Y-34675D01*
X09754Y-34325D01*
X09500Y-34071D01*
X09429Y-34142D01*
X09429Y-34000D01*
X09175Y-33746D01*
X09109Y-33777D01*
X09054Y-33944D01*
X09067Y-34120D01*
X09109Y-34223D01*
X09175Y-34254D01*
X09429Y-34000D01*
X09429Y-34142D01*
X09246Y-34325D01*
X09277Y-34391D01*
X09444Y-34446D01*
X09620Y-34433D01*
X09723Y-34391D01*
X09754Y-34325D01*
X09754Y-34675D01*
X09723Y-34609D01*
X09556Y-34554D01*
X09380Y-34567D01*
X09277Y-34609D01*
X09246Y-34675D01*
X09500Y-34929D01*
X09754Y-34675D01*
X09754Y-34817D01*
X09571Y-35000D01*
X09825Y-35254D01*
X09891Y-35223D01*
X09946Y-35056D01*
X09946Y-36056D01*
X09933Y-35880D01*
X09891Y-35777D01*
X09825Y-35746D01*
X09754Y-35817D01*
X09754Y-35675D01*
X09754Y-35325D01*
X09500Y-35071D01*
X09429Y-35142D01*
X09429Y-35000D01*
X09175Y-34746D01*
X09109Y-34777D01*
X09054Y-34944D01*
X09067Y-35120D01*
X09109Y-35223D01*
X09175Y-35254D01*
X09429Y-35000D01*
X09429Y-35142D01*
X09246Y-35325D01*
X09277Y-35391D01*
X09444Y-35446D01*
X09620Y-35433D01*
X09723Y-35391D01*
X09754Y-35325D01*
X09754Y-35675D01*
X09723Y-35609D01*
X09556Y-35554D01*
X09380Y-35567D01*
X09277Y-35609D01*
X09246Y-35675D01*
X09500Y-35929D01*
X09754Y-35675D01*
X09754Y-35817D01*
X09571Y-36000D01*
X09825Y-36254D01*
X09891Y-36223D01*
X09946Y-36056D01*
X09946Y-37056D01*
X09933Y-36880D01*
X09891Y-36777D01*
X09825Y-36746D01*
X09754Y-36817D01*
X09754Y-36675D01*
X09754Y-36325D01*
X09500Y-36071D01*
X09429Y-36142D01*
X09429Y-36000D01*
X09175Y-35746D01*
X09109Y-35777D01*
X09054Y-35944D01*
X09067Y-36120D01*
X09109Y-36223D01*
X09175Y-36254D01*
X09429Y-36000D01*
X09429Y-36142D01*
X09246Y-36325D01*
X09277Y-36391D01*
X09444Y-36446D01*
X09620Y-36433D01*
X09723Y-36391D01*
X09754Y-36325D01*
X09754Y-36675D01*
X09723Y-36609D01*
X09556Y-36554D01*
X09380Y-36567D01*
X09277Y-36609D01*
X09246Y-36675D01*
X09500Y-36929D01*
X09754Y-36675D01*
X09754Y-36817D01*
X09571Y-37000D01*
X09825Y-37254D01*
X09891Y-37223D01*
X09946Y-37056D01*
X09946Y-38056D01*
X09933Y-37880D01*
X09891Y-37777D01*
X09825Y-37746D01*
X09754Y-37817D01*
X09754Y-37675D01*
X09754Y-37325D01*
X09500Y-37071D01*
X09429Y-37142D01*
X09429Y-37000D01*
X09175Y-36746D01*
X09109Y-36777D01*
X09054Y-36944D01*
X09067Y-37120D01*
X09109Y-37223D01*
X09175Y-37254D01*
X09429Y-37000D01*
X09429Y-37142D01*
X09246Y-37325D01*
X09277Y-37391D01*
X09444Y-37446D01*
X09620Y-37433D01*
X09723Y-37391D01*
X09754Y-37325D01*
X09754Y-37675D01*
X09723Y-37609D01*
X09556Y-37554D01*
X09380Y-37567D01*
X09277Y-37609D01*
X09246Y-37675D01*
X09500Y-37929D01*
X09754Y-37675D01*
X09754Y-37817D01*
X09571Y-38000D01*
X09825Y-38254D01*
X09891Y-38223D01*
X09946Y-38056D01*
X09946Y-40532D01*
X09754Y-40340D01*
X09754Y-38325D01*
X09500Y-38071D01*
X09429Y-38142D01*
X09429Y-38000D01*
X09175Y-37746D01*
X09109Y-37777D01*
X09054Y-37944D01*
X09067Y-38120D01*
X09109Y-38223D01*
X09175Y-38254D01*
X09429Y-38000D01*
X09429Y-38142D01*
X09246Y-38325D01*
X09277Y-38391D01*
X09444Y-38446D01*
X09620Y-38433D01*
X09723Y-38391D01*
X09754Y-38325D01*
X09754Y-40340D01*
X09708Y-40294D01*
X09184Y-40076D01*
X08946Y-40076D01*
X08946Y-38056D01*
X08946Y-37056D01*
X08946Y-36056D01*
X08946Y-35056D01*
X08946Y-34056D01*
X08933Y-33880D01*
X08891Y-33777D01*
X08825Y-33746D01*
X08571Y-34000D01*
X08825Y-34254D01*
X08891Y-34223D01*
X08946Y-34056D01*
X08946Y-35056D01*
X08933Y-34880D01*
X08891Y-34777D01*
X08825Y-34746D01*
X08754Y-34817D01*
X08754Y-34675D01*
X08754Y-34325D01*
X08500Y-34071D01*
X08429Y-34142D01*
X08429Y-34000D01*
X08175Y-33746D01*
X08109Y-33777D01*
X08054Y-33944D01*
X08067Y-34120D01*
X08109Y-34223D01*
X08175Y-34254D01*
X08429Y-34000D01*
X08429Y-34142D01*
X08246Y-34325D01*
X08277Y-34391D01*
X08444Y-34446D01*
X08620Y-34433D01*
X08723Y-34391D01*
X08754Y-34325D01*
X08754Y-34675D01*
X08723Y-34609D01*
X08556Y-34554D01*
X08380Y-34567D01*
X08277Y-34609D01*
X08246Y-34675D01*
X08500Y-34929D01*
X08754Y-34675D01*
X08754Y-34817D01*
X08571Y-35000D01*
X08825Y-35254D01*
X08891Y-35223D01*
X08946Y-35056D01*
X08946Y-36056D01*
X08933Y-35880D01*
X08891Y-35777D01*
X08825Y-35746D01*
X08754Y-35817D01*
X08754Y-35675D01*
X08754Y-35325D01*
X08500Y-35071D01*
X08429Y-35142D01*
X08429Y-35000D01*
X08175Y-34746D01*
X08109Y-34777D01*
X08054Y-34944D01*
X08067Y-35120D01*
X08109Y-35223D01*
X08175Y-35254D01*
X08429Y-35000D01*
X08429Y-35142D01*
X08246Y-35325D01*
X08277Y-35391D01*
X08444Y-35446D01*
X08620Y-35433D01*
X08723Y-35391D01*
X08754Y-35325D01*
X08754Y-35675D01*
X08723Y-35609D01*
X08556Y-35554D01*
X08380Y-35567D01*
X08277Y-35609D01*
X08246Y-35675D01*
X08500Y-35929D01*
X08754Y-35675D01*
X08754Y-35817D01*
X08571Y-36000D01*
X08825Y-36254D01*
X08891Y-36223D01*
X08946Y-36056D01*
X08946Y-37056D01*
X08933Y-36880D01*
X08891Y-36777D01*
X08825Y-36746D01*
X08754Y-36817D01*
X08754Y-36675D01*
X08754Y-36325D01*
X08500Y-36071D01*
X08429Y-36142D01*
X08429Y-36000D01*
X08175Y-35746D01*
X08109Y-35777D01*
X08054Y-35944D01*
X08067Y-36120D01*
X08109Y-36223D01*
X08175Y-36254D01*
X08429Y-36000D01*
X08429Y-36142D01*
X08246Y-36325D01*
X08277Y-36391D01*
X08444Y-36446D01*
X08620Y-36433D01*
X08723Y-36391D01*
X08754Y-36325D01*
X08754Y-36675D01*
X08723Y-36609D01*
X08556Y-36554D01*
X08380Y-36567D01*
X08277Y-36609D01*
X08246Y-36675D01*
X08500Y-36929D01*
X08754Y-36675D01*
X08754Y-36817D01*
X08571Y-37000D01*
X08825Y-37254D01*
X08891Y-37223D01*
X08946Y-37056D01*
X08946Y-38056D01*
X08933Y-37880D01*
X08891Y-37777D01*
X08825Y-37746D01*
X08754Y-37817D01*
X08754Y-37675D01*
X08754Y-37325D01*
X08500Y-37071D01*
X08429Y-37142D01*
X08429Y-37000D01*
X08175Y-36746D01*
X08109Y-36777D01*
X08054Y-36944D01*
X08067Y-37120D01*
X08109Y-37223D01*
X08175Y-37254D01*
X08429Y-37000D01*
X08429Y-37142D01*
X08246Y-37325D01*
X08277Y-37391D01*
X08444Y-37446D01*
X08620Y-37433D01*
X08723Y-37391D01*
X08754Y-37325D01*
X08754Y-37675D01*
X08723Y-37609D01*
X08556Y-37554D01*
X08380Y-37567D01*
X08277Y-37609D01*
X08246Y-37675D01*
X08500Y-37929D01*
X08754Y-37675D01*
X08754Y-37817D01*
X08571Y-38000D01*
X08825Y-38254D01*
X08891Y-38223D01*
X08946Y-38056D01*
X08946Y-40076D01*
X08754Y-40076D01*
X08754Y-38325D01*
X08500Y-38071D01*
X08429Y-38142D01*
X08429Y-38000D01*
X08175Y-37746D01*
X08109Y-37777D01*
X08054Y-37944D01*
X08067Y-38120D01*
X08109Y-38223D01*
X08175Y-38254D01*
X08429Y-38000D01*
X08429Y-38142D01*
X08246Y-38325D01*
X08277Y-38391D01*
X08444Y-38446D01*
X08620Y-38433D01*
X08723Y-38391D01*
X08754Y-38325D01*
X08754Y-40076D01*
X08618Y-40076D01*
X08095Y-40292D01*
X07694Y-40692D01*
X07476Y-41216D01*
X07476Y-41782D01*
X07692Y-42305D01*
X07961Y-42575D01*
X07425Y-42575D01*
X07425Y-09425D01*
X07961Y-09425D01*
X07694Y-09692D01*
X07476Y-10216D01*
X07476Y-10782D01*
X07692Y-11305D01*
X08092Y-11706D01*
X08616Y-11924D01*
X09182Y-11924D01*
X09705Y-11708D01*
X10106Y-11308D01*
X10324Y-10784D01*
X10324Y-10218D01*
X10108Y-09695D01*
X09838Y-09425D01*
X17575Y-09425D01*
X17575Y-18692D01*
X17550Y-18632D01*
X17368Y-18450D01*
X17129Y-18351D01*
X16871Y-18351D01*
X16632Y-18450D01*
X16500Y-18582D01*
X16368Y-18450D01*
X16129Y-18351D01*
X15895Y-18351D01*
X14150Y-16606D01*
X14150Y-13229D01*
X14150Y-12772D01*
X13975Y-12349D01*
X13652Y-12026D01*
X13229Y-11850D01*
X12772Y-11850D01*
X12349Y-12025D01*
X12026Y-12348D01*
X11850Y-12771D01*
X11850Y-13228D01*
X12025Y-13651D01*
X12348Y-13974D01*
X12771Y-14150D01*
X13228Y-14150D01*
X13651Y-13975D01*
X13974Y-13652D01*
X14150Y-13229D01*
X14150Y-16606D01*
X11272Y-13728D01*
X11148Y-13644D01*
X11000Y-13615D01*
X10033Y-13615D01*
X09868Y-13450D01*
X09629Y-13351D01*
X09371Y-13351D01*
X09132Y-13450D01*
X09087Y-13494D01*
X08998Y-13404D01*
X08870Y-13351D01*
X08731Y-13351D01*
X08131Y-13351D01*
X08003Y-13404D01*
X07904Y-13502D01*
X07851Y-13630D01*
X07851Y-13769D01*
X07851Y-14369D01*
X07904Y-14497D01*
X07994Y-14587D01*
X07950Y-14632D01*
X07851Y-14871D01*
X07851Y-15129D01*
X07950Y-15368D01*
X08082Y-15500D01*
X07950Y-15632D01*
X07851Y-15871D01*
X07851Y-16129D01*
X07950Y-16368D01*
X08082Y-16500D01*
X07950Y-16632D01*
X07851Y-16871D01*
X07851Y-17129D01*
X07950Y-17368D01*
X08082Y-17500D01*
X07950Y-17632D01*
X07851Y-17871D01*
X07851Y-18129D01*
X07950Y-18368D01*
X08082Y-18500D01*
X07950Y-18632D01*
X07851Y-18871D01*
X07851Y-19129D01*
X07950Y-19368D01*
X08082Y-19500D01*
X07950Y-19632D01*
X07851Y-19871D01*
X07851Y-20129D01*
X07950Y-20368D01*
X08082Y-20500D01*
X07950Y-20632D01*
X07851Y-20871D01*
X07851Y-21129D01*
X07950Y-21368D01*
X08082Y-21500D01*
X07950Y-21632D01*
X07851Y-21871D01*
X07851Y-22129D01*
X07950Y-22368D01*
X08082Y-22500D01*
X07950Y-22632D01*
X07851Y-22871D01*
X07851Y-23129D01*
X07950Y-23368D01*
X08082Y-23500D01*
X07950Y-23632D01*
X07851Y-23871D01*
X07851Y-24129D01*
X07950Y-24368D01*
X08082Y-24500D01*
X07950Y-24632D01*
X07851Y-24871D01*
X07851Y-25129D01*
X07950Y-25368D01*
X08082Y-25500D01*
X07950Y-25632D01*
X07851Y-25871D01*
X07851Y-26129D01*
X07950Y-26368D01*
X08082Y-26500D01*
X07950Y-26632D01*
X07851Y-26871D01*
X07851Y-27129D01*
X07950Y-27368D01*
X08082Y-27500D01*
X07950Y-27632D01*
X07851Y-27871D01*
X07851Y-28129D01*
X07950Y-28368D01*
X08082Y-28500D01*
X07950Y-28632D01*
X07851Y-28871D01*
X07851Y-29129D01*
X07950Y-29368D01*
X08082Y-29500D01*
X07950Y-29632D01*
X07851Y-29871D01*
X07851Y-30129D01*
X07950Y-30368D01*
X08082Y-30500D01*
X07950Y-30632D01*
X07851Y-30871D01*
X07851Y-31129D01*
X07950Y-31368D01*
X08082Y-31500D01*
X07950Y-31632D01*
X07851Y-31871D01*
X07851Y-32129D01*
X07950Y-32368D01*
X08082Y-32500D01*
X07950Y-32632D01*
X07851Y-32871D01*
X07851Y-33129D01*
X07950Y-33368D01*
X08132Y-33550D01*
X08276Y-33609D01*
X08246Y-33675D01*
X08500Y-33929D01*
X08754Y-33675D01*
X08723Y-33609D01*
X08868Y-33550D01*
X09000Y-33418D01*
X09132Y-33550D01*
X09276Y-33609D01*
X09246Y-33675D01*
X09500Y-33929D01*
X09754Y-33675D01*
X09723Y-33609D01*
X09868Y-33550D01*
X10050Y-33368D01*
X10149Y-33129D01*
X10149Y-32871D01*
X10050Y-32632D01*
X09918Y-32500D01*
X10033Y-32385D01*
X10250Y-32385D01*
X10397Y-32356D01*
X10398Y-32356D01*
X10522Y-32272D01*
X11240Y-31554D01*
X11240Y-34325D01*
X11269Y-34473D01*
X11353Y-34597D01*
X13105Y-36350D01*
X12772Y-36350D01*
X12349Y-36525D01*
X12026Y-36848D01*
X11850Y-37271D01*
X11850Y-37728D01*
X12025Y-38151D01*
X12348Y-38474D01*
X12771Y-38650D01*
X13228Y-38650D01*
X13651Y-38475D01*
X13974Y-38152D01*
X14150Y-37729D01*
X14150Y-37394D01*
X16106Y-39351D01*
X15871Y-39351D01*
X15632Y-39450D01*
X15450Y-39632D01*
X15351Y-39871D01*
X15351Y-40129D01*
X15450Y-40368D01*
X15494Y-40412D01*
X15404Y-40502D01*
X15351Y-40630D01*
X15351Y-40769D01*
X15351Y-41369D01*
X15404Y-41497D01*
X15502Y-41596D01*
X15630Y-41649D01*
X15769Y-41649D01*
X16369Y-41649D01*
X16497Y-41596D01*
X16587Y-41505D01*
X16632Y-41550D01*
X16871Y-41649D01*
X17129Y-41649D01*
X17368Y-41550D01*
X17500Y-41418D01*
X17632Y-41550D01*
X17871Y-41649D01*
X18129Y-41649D01*
X18368Y-41550D01*
X18500Y-41418D01*
X18632Y-41550D01*
X18871Y-41649D01*
X19129Y-41649D01*
X19368Y-41550D01*
X19500Y-41418D01*
X19632Y-41550D01*
X19871Y-41649D01*
X20129Y-41649D01*
X20368Y-41550D01*
X20500Y-41418D01*
X20632Y-41550D01*
X20871Y-41649D01*
X21129Y-41649D01*
X21368Y-41550D01*
X21500Y-41418D01*
X21632Y-41550D01*
X21871Y-41649D01*
X22129Y-41649D01*
X22368Y-41550D01*
X22500Y-41418D01*
X22632Y-41550D01*
X22871Y-41649D01*
X23129Y-41649D01*
X23368Y-41550D01*
X23500Y-41418D01*
X23632Y-41550D01*
X23871Y-41649D01*
X24129Y-41649D01*
X24368Y-41550D01*
X24500Y-41418D01*
X24632Y-41550D01*
X24871Y-41649D01*
X25129Y-41649D01*
X25368Y-41550D01*
X25500Y-41418D01*
X25632Y-41550D01*
X25871Y-41649D01*
X26129Y-41649D01*
X26368Y-41550D01*
X26500Y-41418D01*
X26632Y-41550D01*
X26871Y-41649D01*
X27129Y-41649D01*
X27368Y-41550D01*
X27500Y-41418D01*
X27632Y-41550D01*
X27871Y-41649D01*
X28129Y-41649D01*
X28368Y-41550D01*
X28500Y-41418D01*
X28632Y-41550D01*
X28871Y-41649D01*
X29129Y-41649D01*
X29368Y-41550D01*
X29500Y-41418D01*
X29632Y-41550D01*
X29871Y-41649D01*
X30129Y-41649D01*
X30368Y-41550D01*
X30500Y-41418D01*
X30632Y-41550D01*
X30871Y-41649D01*
X31129Y-41649D01*
X31368Y-41550D01*
X31500Y-41418D01*
X31632Y-41550D01*
X31871Y-41649D01*
X32129Y-41649D01*
X32368Y-41550D01*
X32500Y-41418D01*
X32632Y-41550D01*
X32871Y-41649D01*
X33129Y-41649D01*
X33368Y-41550D01*
X33500Y-41418D01*
X33632Y-41550D01*
X33871Y-41649D01*
X34129Y-41649D01*
X34368Y-41550D01*
X34500Y-41418D01*
X34632Y-41550D01*
X34871Y-41649D01*
X35129Y-41649D01*
X35368Y-41550D01*
X35550Y-41368D01*
X35609Y-41223D01*
X35675Y-41254D01*
X35894Y-41035D01*
X35929Y-41000D01*
X36000Y-40929D01*
X36035Y-40894D01*
X36254Y-40675D01*
X36223Y-40609D01*
X36056Y-40554D01*
X35880Y-40567D01*
X35849Y-40579D01*
X35859Y-40526D01*
X35860Y-40525D01*
X35860Y-40418D01*
X35944Y-40446D01*
X36120Y-40433D01*
X36223Y-40391D01*
X36254Y-40325D01*
X36035Y-40106D01*
X36000Y-40071D01*
X35929Y-40000D01*
X35994Y-39935D01*
X36006Y-39935D01*
X36071Y-40000D01*
X36106Y-40035D01*
X36325Y-40254D01*
X36391Y-40223D01*
X36446Y-40056D01*
X36437Y-39935D01*
X36556Y-39935D01*
X36554Y-39944D01*
X36567Y-40120D01*
X36609Y-40223D01*
X36675Y-40254D01*
X36894Y-40035D01*
X36929Y-40000D01*
X36994Y-39935D01*
X37006Y-39935D01*
X37071Y-40000D01*
X37106Y-40035D01*
X37325Y-40254D01*
X37391Y-40223D01*
X37446Y-40056D01*
X37437Y-39935D01*
X37556Y-39935D01*
X37554Y-39944D01*
X37567Y-40120D01*
X37609Y-40223D01*
X37675Y-40254D01*
X37894Y-40035D01*
X37929Y-40000D01*
X37994Y-39935D01*
X38006Y-39935D01*
X38071Y-40000D01*
X38106Y-40035D01*
X38325Y-40254D01*
X38391Y-40223D01*
X38446Y-40056D01*
X38437Y-39935D01*
X38556Y-39935D01*
X38554Y-39944D01*
X38567Y-40120D01*
X38609Y-40223D01*
X38675Y-40254D01*
X38894Y-40035D01*
X38929Y-40000D01*
X38994Y-39935D01*
X39006Y-39935D01*
X39071Y-40000D01*
X39106Y-40035D01*
X39325Y-40254D01*
X39391Y-40223D01*
X39446Y-40056D01*
X39437Y-39935D01*
X39475Y-39935D01*
X39562Y-39917D01*
X39554Y-39944D01*
X39567Y-40120D01*
X39609Y-40223D01*
X39675Y-40254D01*
X39894Y-40035D01*
X39929Y-40000D01*
X40000Y-39929D01*
X40035Y-39894D01*
X40254Y-39675D01*
X40223Y-39609D01*
X40056Y-39554D01*
X40011Y-39557D01*
X41850Y-37719D01*
X41850Y-37728D01*
X42025Y-38151D01*
X42348Y-38474D01*
X42771Y-38650D01*
X43228Y-38650D01*
X43651Y-38475D01*
X43974Y-38152D01*
X44150Y-37729D01*
X44150Y-37272D01*
X43975Y-36849D01*
X43652Y-36526D01*
X43229Y-36350D01*
X43219Y-36350D01*
X43762Y-35806D01*
X45727Y-37772D01*
X45728Y-37772D01*
X45811Y-37827D01*
X45852Y-37855D01*
X45853Y-37856D01*
X45856Y-37856D01*
X45851Y-37871D01*
X45851Y-38129D01*
X45950Y-38368D01*
X46132Y-38550D01*
X46371Y-38649D01*
X46629Y-38649D01*
X46868Y-38550D01*
X46912Y-38505D01*
X47002Y-38596D01*
X47130Y-38649D01*
X47269Y-38649D01*
X47869Y-38649D01*
X47997Y-38596D01*
X48096Y-38498D01*
X48149Y-38370D01*
X48149Y-38231D01*
X48149Y-37631D01*
X48096Y-37503D01*
X48005Y-37412D01*
X48050Y-37368D01*
X48149Y-37129D01*
X48149Y-36871D01*
X48050Y-36632D01*
X47918Y-36500D01*
X48050Y-36368D01*
X48149Y-36129D01*
X48149Y-35871D01*
X48050Y-35632D01*
X47918Y-35500D01*
X48050Y-35368D01*
X48149Y-35129D01*
X48149Y-34871D01*
X48050Y-34632D01*
X47918Y-34500D01*
X48050Y-34368D01*
X48149Y-34129D01*
X48149Y-33871D01*
X48050Y-33632D01*
X47918Y-33500D01*
X48050Y-33368D01*
X48149Y-33129D01*
X48149Y-32871D01*
X48050Y-32632D01*
X47918Y-32500D01*
X48050Y-32368D01*
X48149Y-32129D01*
X48149Y-31871D01*
X48050Y-31632D01*
X47918Y-31500D01*
X48050Y-31368D01*
X48149Y-31129D01*
X48149Y-30871D01*
X48050Y-30632D01*
X47918Y-30500D01*
X48050Y-30368D01*
X48149Y-30129D01*
X48149Y-29871D01*
X48050Y-29632D01*
X47918Y-29500D01*
X48050Y-29368D01*
X48149Y-29129D01*
X48149Y-28871D01*
X48050Y-28632D01*
X47918Y-28500D01*
X48050Y-28368D01*
X48149Y-28129D01*
X48149Y-27871D01*
X48050Y-27632D01*
X47918Y-27500D01*
X48050Y-27368D01*
X48149Y-27129D01*
X48149Y-26871D01*
X48050Y-26632D01*
X47918Y-26500D01*
X48050Y-26368D01*
X48149Y-26129D01*
X48149Y-25871D01*
X48050Y-25632D01*
X47918Y-25500D01*
X48050Y-25368D01*
X48149Y-25129D01*
X48149Y-24871D01*
X48050Y-24632D01*
X47918Y-24500D01*
X48050Y-24368D01*
X48149Y-24129D01*
X48149Y-23871D01*
X48050Y-23632D01*
X47918Y-23500D01*
X48050Y-23368D01*
X48149Y-23129D01*
X48149Y-22871D01*
X48050Y-22632D01*
X47918Y-22500D01*
X48050Y-22368D01*
X48149Y-22129D01*
X48149Y-21871D01*
X48050Y-21632D01*
X47918Y-21500D01*
X48050Y-21368D01*
X48149Y-21129D01*
X48149Y-20871D01*
X48050Y-20632D01*
X47918Y-20500D01*
X48050Y-20368D01*
X48149Y-20129D01*
X48149Y-19871D01*
X48050Y-19632D01*
X47918Y-19500D01*
X48050Y-19368D01*
X48149Y-19129D01*
X48149Y-18871D01*
X48050Y-18632D01*
X47946Y-18528D01*
X47946Y-18056D01*
X47946Y-17056D01*
X47946Y-16056D01*
X47946Y-15056D01*
X47946Y-14056D01*
X47933Y-13880D01*
X47891Y-13777D01*
X47825Y-13746D01*
X47754Y-13817D01*
X47754Y-13675D01*
X47723Y-13609D01*
X47556Y-13554D01*
X47380Y-13567D01*
X47277Y-13609D01*
X47246Y-13675D01*
X47500Y-13929D01*
X47754Y-13675D01*
X47754Y-13817D01*
X47571Y-14000D01*
X47825Y-14254D01*
X47891Y-14223D01*
X47946Y-14056D01*
X47946Y-15056D01*
X47933Y-14880D01*
X47891Y-14777D01*
X47825Y-14746D01*
X47754Y-14817D01*
X47754Y-14675D01*
X47754Y-14325D01*
X47500Y-14071D01*
X47429Y-14142D01*
X47429Y-14000D01*
X47175Y-13746D01*
X47109Y-13777D01*
X47054Y-13944D01*
X47067Y-14120D01*
X47109Y-14223D01*
X47175Y-14254D01*
X47429Y-14000D01*
X47429Y-14142D01*
X47246Y-14325D01*
X47277Y-14391D01*
X47444Y-14446D01*
X47620Y-14433D01*
X47723Y-14391D01*
X47754Y-14325D01*
X47754Y-14675D01*
X47723Y-14609D01*
X47556Y-14554D01*
X47380Y-14567D01*
X47277Y-14609D01*
X47246Y-14675D01*
X47500Y-14929D01*
X47754Y-14675D01*
X47754Y-14817D01*
X47571Y-15000D01*
X47825Y-15254D01*
X47891Y-15223D01*
X47946Y-15056D01*
X47946Y-16056D01*
X47933Y-15880D01*
X47891Y-15777D01*
X47825Y-15746D01*
X47754Y-15817D01*
X47754Y-15675D01*
X47754Y-15325D01*
X47500Y-15071D01*
X47429Y-15142D01*
X47429Y-15000D01*
X47175Y-14746D01*
X47109Y-14777D01*
X47054Y-14944D01*
X47067Y-15120D01*
X47109Y-15223D01*
X47175Y-15254D01*
X47429Y-15000D01*
X47429Y-15142D01*
X47246Y-15325D01*
X47277Y-15391D01*
X47444Y-15446D01*
X47620Y-15433D01*
X47723Y-15391D01*
X47754Y-15325D01*
X47754Y-15675D01*
X47723Y-15609D01*
X47556Y-15554D01*
X47380Y-15567D01*
X47277Y-15609D01*
X47246Y-15675D01*
X47500Y-15929D01*
X47754Y-15675D01*
X47754Y-15817D01*
X47571Y-16000D01*
X47825Y-16254D01*
X47891Y-16223D01*
X47946Y-16056D01*
X47946Y-17056D01*
X47933Y-16880D01*
X47891Y-16777D01*
X47825Y-16746D01*
X47754Y-16817D01*
X47754Y-16675D01*
X47754Y-16325D01*
X47500Y-16071D01*
X47429Y-16142D01*
X47429Y-16000D01*
X47175Y-15746D01*
X47109Y-15777D01*
X47054Y-15944D01*
X47067Y-16120D01*
X47109Y-16223D01*
X47175Y-16254D01*
X47429Y-16000D01*
X47429Y-16142D01*
X47246Y-16325D01*
X47277Y-16391D01*
X47444Y-16446D01*
X47620Y-16433D01*
X47723Y-16391D01*
X47754Y-16325D01*
X47754Y-16675D01*
X47723Y-16609D01*
X47556Y-16554D01*
X47380Y-16567D01*
X47277Y-16609D01*
X47246Y-16675D01*
X47500Y-16929D01*
X47754Y-16675D01*
X47754Y-16817D01*
X47571Y-17000D01*
X47825Y-17254D01*
X47891Y-17223D01*
X47946Y-17056D01*
X47946Y-18056D01*
X47933Y-17880D01*
X47891Y-17777D01*
X47825Y-17746D01*
X47754Y-17817D01*
X47754Y-17675D01*
X47754Y-17325D01*
X47500Y-17071D01*
X47429Y-17142D01*
X47429Y-17000D01*
X47175Y-16746D01*
X47109Y-16777D01*
X47054Y-16944D01*
X47067Y-17120D01*
X47109Y-17223D01*
X47175Y-17254D01*
X47429Y-17000D01*
X47429Y-17142D01*
X47246Y-17325D01*
X47277Y-17391D01*
X47444Y-17446D01*
X47620Y-17433D01*
X47723Y-17391D01*
X47754Y-17325D01*
X47754Y-17675D01*
X47723Y-17609D01*
X47556Y-17554D01*
X47380Y-17567D01*
X47277Y-17609D01*
X47246Y-17675D01*
X47500Y-17929D01*
X47754Y-17675D01*
X47754Y-17817D01*
X47571Y-18000D01*
X47825Y-18254D01*
X47891Y-18223D01*
X47946Y-18056D01*
X47946Y-18528D01*
X47868Y-18450D01*
X47723Y-18390D01*
X47754Y-18325D01*
X47535Y-18106D01*
X47500Y-18071D01*
X47429Y-18000D01*
X47394Y-17965D01*
X47175Y-17746D01*
X47109Y-17777D01*
X47054Y-17944D01*
X47067Y-18120D01*
X47070Y-18128D01*
X47000Y-18115D01*
X46926Y-18115D01*
X46946Y-18056D01*
X46946Y-17056D01*
X46946Y-16056D01*
X46946Y-15056D01*
X46946Y-14056D01*
X46933Y-13880D01*
X46891Y-13777D01*
X46825Y-13746D01*
X46754Y-13817D01*
X46754Y-13675D01*
X46723Y-13609D01*
X46556Y-13554D01*
X46380Y-13567D01*
X46277Y-13609D01*
X46246Y-13675D01*
X46500Y-13929D01*
X46754Y-13675D01*
X46754Y-13817D01*
X46571Y-14000D01*
X46825Y-14254D01*
X46891Y-14223D01*
X46946Y-14056D01*
X46946Y-15056D01*
X46933Y-14880D01*
X46891Y-14777D01*
X46825Y-14746D01*
X46754Y-14817D01*
X46754Y-14675D01*
X46754Y-14325D01*
X46500Y-14071D01*
X46429Y-14142D01*
X46429Y-14000D01*
X46175Y-13746D01*
X46109Y-13777D01*
X46054Y-13944D01*
X46067Y-14120D01*
X46109Y-14223D01*
X46175Y-14254D01*
X46429Y-14000D01*
X46429Y-14142D01*
X46246Y-14325D01*
X46277Y-14391D01*
X46444Y-14446D01*
X46620Y-14433D01*
X46723Y-14391D01*
X46754Y-14325D01*
X46754Y-14675D01*
X46723Y-14609D01*
X46556Y-14554D01*
X46380Y-14567D01*
X46277Y-14609D01*
X46246Y-14675D01*
X46500Y-14929D01*
X46754Y-14675D01*
X46754Y-14817D01*
X46571Y-15000D01*
X46825Y-15254D01*
X46891Y-15223D01*
X46946Y-15056D01*
X46946Y-16056D01*
X46933Y-15880D01*
X46891Y-15777D01*
X46825Y-15746D01*
X46754Y-15817D01*
X46754Y-15675D01*
X46754Y-15325D01*
X46500Y-15071D01*
X46429Y-15142D01*
X46429Y-15000D01*
X46175Y-14746D01*
X46109Y-14777D01*
X46054Y-14944D01*
X46067Y-15120D01*
X46109Y-15223D01*
X46175Y-15254D01*
X46429Y-15000D01*
X46429Y-15142D01*
X46246Y-15325D01*
X46277Y-15391D01*
X46444Y-15446D01*
X46620Y-15433D01*
X46723Y-15391D01*
X46754Y-15325D01*
X46754Y-15675D01*
X46723Y-15609D01*
X46556Y-15554D01*
X46380Y-15567D01*
X46277Y-15609D01*
X46246Y-15675D01*
X46500Y-15929D01*
X46754Y-15675D01*
X46754Y-15817D01*
X46571Y-16000D01*
X46825Y-16254D01*
X46891Y-16223D01*
X46946Y-16056D01*
X46946Y-17056D01*
X46933Y-16880D01*
X46891Y-16777D01*
X46825Y-16746D01*
X46754Y-16817D01*
X46754Y-16675D01*
X46754Y-16325D01*
X46500Y-16071D01*
X46429Y-16142D01*
X46429Y-16000D01*
X46175Y-15746D01*
X46109Y-15777D01*
X46054Y-15944D01*
X46067Y-16120D01*
X46109Y-16223D01*
X46175Y-16254D01*
X46429Y-16000D01*
X46429Y-16142D01*
X46246Y-16325D01*
X46277Y-16391D01*
X46444Y-16446D01*
X46620Y-16433D01*
X46723Y-16391D01*
X46754Y-16325D01*
X46754Y-16675D01*
X46723Y-16609D01*
X46556Y-16554D01*
X46380Y-16567D01*
X46277Y-16609D01*
X46246Y-16675D01*
X46500Y-16929D01*
X46754Y-16675D01*
X46754Y-16817D01*
X46571Y-17000D01*
X46825Y-17254D01*
X46891Y-17223D01*
X46946Y-17056D01*
X46946Y-18056D01*
X46933Y-17880D01*
X46891Y-17777D01*
X46825Y-17746D01*
X46754Y-17817D01*
X46754Y-17675D01*
X46754Y-17325D01*
X46500Y-17071D01*
X46429Y-17142D01*
X46429Y-17000D01*
X46175Y-16746D01*
X46109Y-16777D01*
X46054Y-16944D01*
X46067Y-17120D01*
X46109Y-17223D01*
X46175Y-17254D01*
X46429Y-17000D01*
X46429Y-17142D01*
X46246Y-17325D01*
X46277Y-17391D01*
X46444Y-17446D01*
X46620Y-17433D01*
X46723Y-17391D01*
X46754Y-17325D01*
X46754Y-17675D01*
X46723Y-17609D01*
X46556Y-17554D01*
X46380Y-17567D01*
X46277Y-17609D01*
X46246Y-17675D01*
X46500Y-17929D01*
X46754Y-17675D01*
X46754Y-17817D01*
X46606Y-17965D01*
X46571Y-18000D01*
X46500Y-18071D01*
X46429Y-18000D01*
X46394Y-17965D01*
X46175Y-17746D01*
X46109Y-17777D01*
X46054Y-17944D01*
X46066Y-18115D01*
X44150Y-18115D01*
X44150Y-13229D01*
X44150Y-12772D01*
X43975Y-12349D01*
X43652Y-12026D01*
X43229Y-11850D01*
X42772Y-11850D01*
X42349Y-12025D01*
X42026Y-12348D01*
X41850Y-12771D01*
X41850Y-13228D01*
X42025Y-13651D01*
X42348Y-13974D01*
X42771Y-14150D01*
X43228Y-14150D01*
X43651Y-13975D01*
X43974Y-13652D01*
X44150Y-13229D01*
X44150Y-18115D01*
X40500Y-18115D01*
X40352Y-18144D01*
X40228Y-18228D01*
X40105Y-18351D01*
X39871Y-18351D01*
X39632Y-18450D01*
X39500Y-18582D01*
X39368Y-18450D01*
X39129Y-18351D01*
X38871Y-18351D01*
X38632Y-18450D01*
X38450Y-18632D01*
X38425Y-18692D01*
X38425Y-09425D01*
X46161Y-09425D01*
X45894Y-09692D01*
X45676Y-10216D01*
X45676Y-10782D01*
X45892Y-11305D01*
X46292Y-11706D01*
X46816Y-11924D01*
X47382Y-11924D01*
X47905Y-11708D01*
X48306Y-11308D01*
X48524Y-10784D01*
X48524Y-10218D01*
X48308Y-09695D01*
X48038Y-09425D01*
X49575Y-09425D01*
X49575Y-42575D01*
M02*
