M48
INCH,TZ
T1C0.015
T2C0.022
T3C0.025
T4C0.050
T5C0.120
%
G90
G05
T1
X11225Y-26500
X11350Y-17500
X11350Y-26000
X11500Y-18000
X11500Y-25500
X11650Y-18500
X11650Y-25000
X11775Y-24500
X11800Y-19000
X11925Y-24000
X11950Y-19500
X12050Y-15025
X12075Y-23500
X12100Y-20025
X12225Y-23000
X12250Y-20550
X12375Y-22500
X12400Y-20975
X25250Y-37950
X25750Y-37950
X26250Y-37625
X26750Y-37625
X27250Y-37325
X27750Y-37325
X28250Y-37025
X28750Y-37025
X31250Y-37025
X31750Y-37025
X32250Y-37300
X32750Y-37300
X33250Y-37575
X33750Y-37575
X34250Y-37875
X34750Y-37875
X47600Y-21000
X47625Y-22500
X47725Y-20500
X47750Y-28675
X47775Y-23000
X47900Y-20000
X47925Y-23500
X48025Y-19500
X48075Y-24000
X48175Y-19000
X48225Y-24500
X48325Y-18500
X48350Y-25025
X48450Y-18000
X48500Y-25500
X48600Y-17500
X48650Y-26000
X48725Y-17000
T2
X16000Y-17000
X16000Y-18000
X16000Y-19000
X16000Y-20000
X16000Y-21000
X16000Y-22000
X16000Y-23000
X16000Y-24000
X16000Y-25000
X16000Y-26000
X16000Y-27000
X16000Y-28000
X16000Y-29000
X16000Y-30000
X16000Y-31000
X17000Y-17000
X17000Y-18000
X17000Y-19000
X17000Y-20000
X17000Y-21000
X17000Y-22000
X17000Y-23000
X17000Y-24000
X17000Y-25000
X17000Y-26000
X17000Y-27000
X17000Y-28000
X17000Y-29000
X17000Y-30000
X17000Y-31000
X18000Y-17000
X18000Y-18000
X18000Y-19000
X18000Y-20000
X18000Y-21000
X18000Y-22000
X18000Y-23000
X18000Y-24000
X18000Y-25000
X18000Y-26000
X18000Y-27000
X18000Y-28000
X18000Y-29000
X18000Y-30000
X18000Y-31000
X19000Y-17000
X19000Y-18000
X19000Y-19000
X19000Y-20000
X19000Y-21000
X19000Y-22000
X19000Y-23000
X19000Y-24000
X19000Y-25000
X19000Y-26000
X19000Y-27000
X19000Y-28000
X19000Y-29000
X19000Y-30000
X19000Y-31000
X41000Y-17000
X41000Y-18000
X41000Y-19000
X41000Y-20000
X41000Y-21000
X41000Y-22000
X41000Y-23000
X41000Y-24000
X41000Y-25000
X41000Y-26000
X41000Y-27000
X41000Y-28000
X41000Y-29000
X41000Y-30000
X41000Y-31000
X42000Y-17000
X42000Y-18000
X42000Y-19000
X42000Y-20000
X42000Y-21000
X42000Y-22000
X42000Y-23000
X42000Y-24000
X42000Y-25000
X42000Y-26000
X42000Y-27000
X42000Y-28000
X42000Y-29000
X42000Y-30000
X42000Y-31000
X43000Y-17000
X43000Y-18000
X43000Y-19000
X43000Y-20000
X43000Y-21000
X43000Y-22000
X43000Y-23000
X43000Y-24000
X43000Y-25000
X43000Y-26000
X43000Y-27000
X43000Y-28000
X43000Y-29000
X43000Y-30000
X43000Y-31000
X44000Y-17000
X44000Y-18000
X44000Y-19000
X44000Y-20000
X44000Y-21000
X44000Y-22000
X44000Y-23000
X44000Y-24000
X44000Y-25000
X44000Y-26000
X44000Y-27000
X44000Y-28000
X44000Y-29000
X44000Y-30000
X44000Y-31000
T3
X13000Y-17000
X13000Y-17500
X13000Y-18000
X13000Y-18500
X13000Y-19000
X13000Y-19500
X13000Y-20000
X13000Y-20500
X13000Y-21000
X13000Y-21500
X13000Y-22000
X13000Y-22500
X13000Y-23000
X13000Y-23500
X13000Y-24000
X13000Y-24500
X13000Y-25000
X13000Y-25500
X13000Y-26000
X13000Y-26500
X13500Y-17000
X13500Y-17500
X13500Y-18000
X13500Y-18500
X13500Y-19000
X13500Y-19500
X13500Y-20000
X13500Y-20500
X13500Y-21000
X13500Y-21500
X13500Y-22000
X13500Y-22500
X13500Y-23000
X13500Y-23500
X13500Y-24000
X13500Y-24500
X13500Y-25000
X13500Y-25500
X13500Y-26000
X13500Y-26500
X25250Y-35750
X25250Y-36250
X25750Y-35750
X25750Y-36250
X26250Y-35750
X26250Y-36250
X26750Y-35750
X26750Y-36250
X27250Y-35750
X27250Y-36250
X27750Y-35750
X27750Y-36250
X28250Y-35750
X28250Y-36250
X28750Y-35750
X28750Y-36250
X29250Y-35750
X29250Y-36250
X29750Y-35750
X29750Y-36250
X30250Y-35750
X30250Y-36250
X30750Y-35750
X30750Y-36250
X31250Y-35750
X31250Y-36250
X31750Y-35750
X31750Y-36250
X32250Y-35750
X32250Y-36250
X32750Y-35750
X32750Y-36250
X33250Y-35750
X33250Y-36250
X33750Y-35750
X33750Y-36250
X34250Y-35750
X34250Y-36250
X34750Y-35750
X34750Y-36250
X46500Y-17000
X46500Y-17500
X46500Y-18000
X46500Y-18500
X46500Y-19000
X46500Y-19500
X46500Y-20000
X46500Y-20500
X46500Y-21000
X46500Y-21500
X46500Y-22000
X46500Y-22500
X46500Y-23000
X46500Y-23500
X46500Y-24000
X46500Y-24500
X46500Y-25000
X46500Y-25500
X46500Y-26000
X46500Y-26500
X47000Y-17000
X47000Y-17500
X47000Y-18000
X47000Y-18500
X47000Y-19000
X47000Y-19500
X47000Y-20000
X47000Y-20500
X47000Y-21000
X47000Y-21500
X47000Y-22000
X47000Y-22500
X47000Y-23000
X47000Y-23500
X47000Y-24000
X47000Y-24500
X47000Y-25000
X47000Y-25500
X47000Y-26000
X47000Y-26500
T4
X13250Y-16375
X13250Y-27125
X24625Y-36000
X35375Y-36000
X46750Y-16375
X46750Y-27125
T5
X16000Y-14000
X16000Y-35500
X44000Y-14000
X44000Y-35500
T0
M30
