G04 (created by PCBNEW (2013-03-31 BZR 4008)-stable) date 11/07/2013 1:56:24 PM*
%MOIN*%
G04 Gerber Fmt 3.4, Leading zero omitted, Abs format*
%FSLAX34Y34*%
G01*
G70*
G90*
G04 APERTURE LIST*
%ADD10C,2.3622e-006*%
%ADD11C,0.00787402*%
%ADD12C,0.015*%
%ADD13C,0.0039*%
%ADD14C,0.0001*%
%ADD15C,0.008*%
%ADD16C,0.01*%
G04 APERTURE END LIST*
G54D10*
G54D11*
X20118Y-35159D02*
X20118Y-34765D01*
X20253Y-35159D02*
X20253Y-34953D01*
X20238Y-34915D01*
X20208Y-34896D01*
X20163Y-34896D01*
X20133Y-34915D01*
X20118Y-34934D01*
X20358Y-34896D02*
X20478Y-34896D01*
X20403Y-34765D02*
X20403Y-35103D01*
X20418Y-35140D01*
X20448Y-35159D01*
X20478Y-35159D01*
X20538Y-34896D02*
X20658Y-34896D01*
X20583Y-34765D02*
X20583Y-35103D01*
X20598Y-35140D01*
X20628Y-35159D01*
X20658Y-35159D01*
X20763Y-34896D02*
X20763Y-35290D01*
X20763Y-34915D02*
X20793Y-34896D01*
X20853Y-34896D01*
X20883Y-34915D01*
X20898Y-34934D01*
X20913Y-34971D01*
X20913Y-35084D01*
X20898Y-35121D01*
X20883Y-35140D01*
X20853Y-35159D01*
X20793Y-35159D01*
X20763Y-35140D01*
X21047Y-35121D02*
X21062Y-35140D01*
X21047Y-35159D01*
X21032Y-35140D01*
X21047Y-35121D01*
X21047Y-35159D01*
X21047Y-34915D02*
X21062Y-34934D01*
X21047Y-34953D01*
X21032Y-34934D01*
X21047Y-34915D01*
X21047Y-34953D01*
X21422Y-34746D02*
X21152Y-35253D01*
X21752Y-34746D02*
X21482Y-35253D01*
X21857Y-35159D02*
X21857Y-34896D01*
X21857Y-34934D02*
X21872Y-34915D01*
X21902Y-34896D01*
X21947Y-34896D01*
X21977Y-34915D01*
X21992Y-34953D01*
X21992Y-35159D01*
X21992Y-34953D02*
X22007Y-34915D01*
X22037Y-34896D01*
X22082Y-34896D01*
X22112Y-34915D01*
X22127Y-34953D01*
X22127Y-35159D01*
X22277Y-35159D02*
X22277Y-34896D01*
X22277Y-34765D02*
X22262Y-34784D01*
X22277Y-34803D01*
X22292Y-34784D01*
X22277Y-34765D01*
X22277Y-34803D01*
X22562Y-35140D02*
X22532Y-35159D01*
X22472Y-35159D01*
X22442Y-35140D01*
X22427Y-35121D01*
X22412Y-35084D01*
X22412Y-34971D01*
X22427Y-34934D01*
X22442Y-34915D01*
X22472Y-34896D01*
X22532Y-34896D01*
X22562Y-34915D01*
X22697Y-35159D02*
X22697Y-34896D01*
X22697Y-34971D02*
X22712Y-34934D01*
X22727Y-34915D01*
X22757Y-34896D01*
X22787Y-34896D01*
X22937Y-35159D02*
X22907Y-35140D01*
X22892Y-35121D01*
X22877Y-35084D01*
X22877Y-34971D01*
X22892Y-34934D01*
X22907Y-34915D01*
X22937Y-34896D01*
X22982Y-34896D01*
X23012Y-34915D01*
X23027Y-34934D01*
X23042Y-34971D01*
X23042Y-35084D01*
X23027Y-35121D01*
X23012Y-35140D01*
X22982Y-35159D01*
X22937Y-35159D01*
X23132Y-34896D02*
X23252Y-34896D01*
X23177Y-35159D02*
X23177Y-34821D01*
X23192Y-34784D01*
X23222Y-34765D01*
X23252Y-34765D01*
X23402Y-35159D02*
X23372Y-35140D01*
X23357Y-35103D01*
X23357Y-34765D01*
X23657Y-34896D02*
X23657Y-35159D01*
X23522Y-34896D02*
X23522Y-35103D01*
X23537Y-35140D01*
X23567Y-35159D01*
X23612Y-35159D01*
X23642Y-35140D01*
X23657Y-35121D01*
X23807Y-35159D02*
X23807Y-34896D01*
X23807Y-34765D02*
X23792Y-34784D01*
X23807Y-34803D01*
X23822Y-34784D01*
X23807Y-34765D01*
X23807Y-34803D01*
X24092Y-35159D02*
X24092Y-34765D01*
X24092Y-35140D02*
X24062Y-35159D01*
X24002Y-35159D01*
X23972Y-35140D01*
X23957Y-35121D01*
X23942Y-35084D01*
X23942Y-34971D01*
X23957Y-34934D01*
X23972Y-34915D01*
X24002Y-34896D01*
X24062Y-34896D01*
X24092Y-34915D01*
X24242Y-35159D02*
X24242Y-34896D01*
X24242Y-34765D02*
X24227Y-34784D01*
X24242Y-34803D01*
X24257Y-34784D01*
X24242Y-34765D01*
X24242Y-34803D01*
X24527Y-35140D02*
X24497Y-35159D01*
X24437Y-35159D01*
X24407Y-35140D01*
X24392Y-35121D01*
X24377Y-35084D01*
X24377Y-34971D01*
X24392Y-34934D01*
X24407Y-34915D01*
X24437Y-34896D01*
X24497Y-34896D01*
X24527Y-34915D01*
X24647Y-35140D02*
X24677Y-35159D01*
X24737Y-35159D01*
X24767Y-35140D01*
X24782Y-35103D01*
X24782Y-35084D01*
X24767Y-35046D01*
X24737Y-35028D01*
X24692Y-35028D01*
X24662Y-35009D01*
X24647Y-34971D01*
X24647Y-34953D01*
X24662Y-34915D01*
X24692Y-34896D01*
X24737Y-34896D01*
X24767Y-34915D01*
X24917Y-35121D02*
X24932Y-35140D01*
X24917Y-35159D01*
X24902Y-35140D01*
X24917Y-35121D01*
X24917Y-35159D01*
X25202Y-34896D02*
X25202Y-35159D01*
X25067Y-34896D02*
X25067Y-35103D01*
X25082Y-35140D01*
X25112Y-35159D01*
X25157Y-35159D01*
X25187Y-35140D01*
X25202Y-35121D01*
X25307Y-34896D02*
X25427Y-34896D01*
X25352Y-34765D02*
X25352Y-35103D01*
X25367Y-35140D01*
X25397Y-35159D01*
X25427Y-35159D01*
X25577Y-35159D02*
X25547Y-35140D01*
X25532Y-35121D01*
X25517Y-35084D01*
X25517Y-34971D01*
X25532Y-34934D01*
X25547Y-34915D01*
X25577Y-34896D01*
X25622Y-34896D01*
X25652Y-34915D01*
X25667Y-34934D01*
X25682Y-34971D01*
X25682Y-35084D01*
X25667Y-35121D01*
X25652Y-35140D01*
X25622Y-35159D01*
X25577Y-35159D01*
X25817Y-35159D02*
X25817Y-34896D01*
X25817Y-34971D02*
X25832Y-34934D01*
X25847Y-34915D01*
X25877Y-34896D01*
X25907Y-34896D01*
X26057Y-35159D02*
X26027Y-35140D01*
X26012Y-35121D01*
X25997Y-35084D01*
X25997Y-34971D01*
X26012Y-34934D01*
X26027Y-34915D01*
X26057Y-34896D01*
X26102Y-34896D01*
X26132Y-34915D01*
X26147Y-34934D01*
X26162Y-34971D01*
X26162Y-35084D01*
X26147Y-35121D01*
X26132Y-35140D01*
X26102Y-35159D01*
X26057Y-35159D01*
X26297Y-34896D02*
X26297Y-35159D01*
X26297Y-34934D02*
X26312Y-34915D01*
X26342Y-34896D01*
X26387Y-34896D01*
X26417Y-34915D01*
X26432Y-34953D01*
X26432Y-35159D01*
X26537Y-34896D02*
X26657Y-34896D01*
X26582Y-34765D02*
X26582Y-35103D01*
X26597Y-35140D01*
X26627Y-35159D01*
X26657Y-35159D01*
X26807Y-35159D02*
X26777Y-35140D01*
X26762Y-35121D01*
X26747Y-35084D01*
X26747Y-34971D01*
X26762Y-34934D01*
X26777Y-34915D01*
X26807Y-34896D01*
X26852Y-34896D01*
X26882Y-34915D01*
X26897Y-34934D01*
X26912Y-34971D01*
X26912Y-35084D01*
X26897Y-35121D01*
X26882Y-35140D01*
X26852Y-35159D01*
X26807Y-35159D01*
X27047Y-35121D02*
X27062Y-35140D01*
X27047Y-35159D01*
X27032Y-35140D01*
X27047Y-35121D01*
X27047Y-35159D01*
X27332Y-35140D02*
X27302Y-35159D01*
X27242Y-35159D01*
X27212Y-35140D01*
X27197Y-35121D01*
X27182Y-35084D01*
X27182Y-34971D01*
X27197Y-34934D01*
X27212Y-34915D01*
X27242Y-34896D01*
X27302Y-34896D01*
X27332Y-34915D01*
X27602Y-35159D02*
X27602Y-34953D01*
X27587Y-34915D01*
X27557Y-34896D01*
X27497Y-34896D01*
X27467Y-34915D01*
X27602Y-35140D02*
X27572Y-35159D01*
X27497Y-35159D01*
X27467Y-35140D01*
X27452Y-35103D01*
X27452Y-35065D01*
X27467Y-35028D01*
X27497Y-35009D01*
X27572Y-35009D01*
X27602Y-34990D01*
X27977Y-34746D02*
X27707Y-35253D01*
X28217Y-35159D02*
X28217Y-34765D01*
X28217Y-35140D02*
X28187Y-35159D01*
X28127Y-35159D01*
X28097Y-35140D01*
X28082Y-35121D01*
X28067Y-35084D01*
X28067Y-34971D01*
X28082Y-34934D01*
X28097Y-34915D01*
X28127Y-34896D01*
X28187Y-34896D01*
X28217Y-34915D01*
X28367Y-35159D02*
X28367Y-34896D01*
X28367Y-34971D02*
X28382Y-34934D01*
X28397Y-34915D01*
X28427Y-34896D01*
X28457Y-34896D01*
X28607Y-35159D02*
X28577Y-35140D01*
X28562Y-35121D01*
X28547Y-35084D01*
X28547Y-34971D01*
X28562Y-34934D01*
X28577Y-34915D01*
X28607Y-34896D01*
X28652Y-34896D01*
X28682Y-34915D01*
X28697Y-34934D01*
X28712Y-34971D01*
X28712Y-35084D01*
X28697Y-35121D01*
X28682Y-35140D01*
X28652Y-35159D01*
X28607Y-35159D01*
X28847Y-34896D02*
X28847Y-35290D01*
X28847Y-34915D02*
X28877Y-34896D01*
X28936Y-34896D01*
X28966Y-34915D01*
X28981Y-34934D01*
X28996Y-34971D01*
X28996Y-35084D01*
X28981Y-35121D01*
X28966Y-35140D01*
X28936Y-35159D01*
X28877Y-35159D01*
X28847Y-35140D01*
X29131Y-35159D02*
X29131Y-34765D01*
X29131Y-34915D02*
X29161Y-34896D01*
X29221Y-34896D01*
X29251Y-34915D01*
X29266Y-34934D01*
X29281Y-34971D01*
X29281Y-35084D01*
X29266Y-35121D01*
X29251Y-35140D01*
X29221Y-35159D01*
X29161Y-35159D01*
X29131Y-35140D01*
X29461Y-35159D02*
X29431Y-35140D01*
X29416Y-35121D01*
X29401Y-35084D01*
X29401Y-34971D01*
X29416Y-34934D01*
X29431Y-34915D01*
X29461Y-34896D01*
X29506Y-34896D01*
X29536Y-34915D01*
X29551Y-34934D01*
X29566Y-34971D01*
X29566Y-35084D01*
X29551Y-35121D01*
X29536Y-35140D01*
X29506Y-35159D01*
X29461Y-35159D01*
X29656Y-34896D02*
X29776Y-34896D01*
X29701Y-34765D02*
X29701Y-35103D01*
X29716Y-35140D01*
X29746Y-35159D01*
X29776Y-35159D01*
X11074Y-33034D02*
X10924Y-33034D01*
X10924Y-32640D01*
X11179Y-33034D02*
X11179Y-32771D01*
X11179Y-32640D02*
X11164Y-32659D01*
X11179Y-32678D01*
X11194Y-32659D01*
X11179Y-32640D01*
X11179Y-32678D01*
X11464Y-33015D02*
X11434Y-33034D01*
X11374Y-33034D01*
X11344Y-33015D01*
X11329Y-32996D01*
X11314Y-32959D01*
X11314Y-32846D01*
X11329Y-32809D01*
X11344Y-32790D01*
X11374Y-32771D01*
X11434Y-32771D01*
X11464Y-32790D01*
X11719Y-33015D02*
X11689Y-33034D01*
X11629Y-33034D01*
X11599Y-33015D01*
X11584Y-32978D01*
X11584Y-32828D01*
X11599Y-32790D01*
X11629Y-32771D01*
X11689Y-32771D01*
X11719Y-32790D01*
X11734Y-32828D01*
X11734Y-32865D01*
X11584Y-32903D01*
X11869Y-32771D02*
X11869Y-33034D01*
X11869Y-32809D02*
X11884Y-32790D01*
X11914Y-32771D01*
X11959Y-32771D01*
X11989Y-32790D01*
X12004Y-32828D01*
X12004Y-33034D01*
X12139Y-33015D02*
X12169Y-33034D01*
X12229Y-33034D01*
X12259Y-33015D01*
X12274Y-32978D01*
X12274Y-32959D01*
X12259Y-32921D01*
X12229Y-32903D01*
X12184Y-32903D01*
X12154Y-32884D01*
X12139Y-32846D01*
X12139Y-32828D01*
X12154Y-32790D01*
X12184Y-32771D01*
X12229Y-32771D01*
X12259Y-32790D01*
X12529Y-33015D02*
X12499Y-33034D01*
X12439Y-33034D01*
X12409Y-33015D01*
X12394Y-32978D01*
X12394Y-32828D01*
X12409Y-32790D01*
X12439Y-32771D01*
X12499Y-32771D01*
X12529Y-32790D01*
X12544Y-32828D01*
X12544Y-32865D01*
X12394Y-32903D01*
X12814Y-33034D02*
X12814Y-32640D01*
X12814Y-33015D02*
X12784Y-33034D01*
X12724Y-33034D01*
X12694Y-33015D01*
X12679Y-32996D01*
X12664Y-32959D01*
X12664Y-32846D01*
X12679Y-32809D01*
X12694Y-32790D01*
X12724Y-32771D01*
X12784Y-32771D01*
X12814Y-32790D01*
X13339Y-32771D02*
X13339Y-33034D01*
X13204Y-32771D02*
X13204Y-32978D01*
X13219Y-33015D01*
X13249Y-33034D01*
X13294Y-33034D01*
X13324Y-33015D01*
X13339Y-32996D01*
X13489Y-32771D02*
X13489Y-33034D01*
X13489Y-32809D02*
X13504Y-32790D01*
X13534Y-32771D01*
X13579Y-32771D01*
X13609Y-32790D01*
X13624Y-32828D01*
X13624Y-33034D01*
X13909Y-33034D02*
X13909Y-32640D01*
X13909Y-33015D02*
X13879Y-33034D01*
X13819Y-33034D01*
X13789Y-33015D01*
X13774Y-32996D01*
X13759Y-32959D01*
X13759Y-32846D01*
X13774Y-32809D01*
X13789Y-32790D01*
X13819Y-32771D01*
X13879Y-32771D01*
X13909Y-32790D01*
X14179Y-33015D02*
X14149Y-33034D01*
X14089Y-33034D01*
X14059Y-33015D01*
X14044Y-32978D01*
X14044Y-32828D01*
X14059Y-32790D01*
X14089Y-32771D01*
X14149Y-32771D01*
X14179Y-32790D01*
X14194Y-32828D01*
X14194Y-32865D01*
X14044Y-32903D01*
X14329Y-33034D02*
X14329Y-32771D01*
X14329Y-32846D02*
X14344Y-32809D01*
X14359Y-32790D01*
X14389Y-32771D01*
X14419Y-32771D01*
X14899Y-33034D02*
X14899Y-32828D01*
X14884Y-32790D01*
X14854Y-32771D01*
X14794Y-32771D01*
X14764Y-32790D01*
X14899Y-33015D02*
X14869Y-33034D01*
X14794Y-33034D01*
X14764Y-33015D01*
X14749Y-32978D01*
X14749Y-32940D01*
X14764Y-32903D01*
X14794Y-32884D01*
X14869Y-32884D01*
X14899Y-32865D01*
X11104Y-33626D02*
X11089Y-33645D01*
X11044Y-33664D01*
X11014Y-33664D01*
X10969Y-33645D01*
X10939Y-33608D01*
X10924Y-33570D01*
X10909Y-33495D01*
X10909Y-33439D01*
X10924Y-33364D01*
X10939Y-33326D01*
X10969Y-33289D01*
X11014Y-33270D01*
X11044Y-33270D01*
X11089Y-33289D01*
X11104Y-33308D01*
X11239Y-33664D02*
X11239Y-33401D01*
X11239Y-33476D02*
X11254Y-33439D01*
X11269Y-33420D01*
X11299Y-33401D01*
X11329Y-33401D01*
X11554Y-33645D02*
X11524Y-33664D01*
X11464Y-33664D01*
X11434Y-33645D01*
X11419Y-33608D01*
X11419Y-33458D01*
X11434Y-33420D01*
X11464Y-33401D01*
X11524Y-33401D01*
X11554Y-33420D01*
X11569Y-33458D01*
X11569Y-33495D01*
X11419Y-33533D01*
X11839Y-33664D02*
X11839Y-33458D01*
X11824Y-33420D01*
X11794Y-33401D01*
X11734Y-33401D01*
X11704Y-33420D01*
X11839Y-33645D02*
X11809Y-33664D01*
X11734Y-33664D01*
X11704Y-33645D01*
X11689Y-33608D01*
X11689Y-33570D01*
X11704Y-33533D01*
X11734Y-33514D01*
X11809Y-33514D01*
X11839Y-33495D01*
X11944Y-33401D02*
X12064Y-33401D01*
X11989Y-33270D02*
X11989Y-33608D01*
X12004Y-33645D01*
X12034Y-33664D01*
X12064Y-33664D01*
X12169Y-33664D02*
X12169Y-33401D01*
X12169Y-33270D02*
X12154Y-33289D01*
X12169Y-33308D01*
X12184Y-33289D01*
X12169Y-33270D01*
X12169Y-33308D01*
X12289Y-33401D02*
X12364Y-33664D01*
X12439Y-33401D01*
X12679Y-33645D02*
X12649Y-33664D01*
X12589Y-33664D01*
X12559Y-33645D01*
X12544Y-33608D01*
X12544Y-33458D01*
X12559Y-33420D01*
X12589Y-33401D01*
X12649Y-33401D01*
X12679Y-33420D01*
X12694Y-33458D01*
X12694Y-33495D01*
X12544Y-33533D01*
X13249Y-33626D02*
X13234Y-33645D01*
X13189Y-33664D01*
X13159Y-33664D01*
X13114Y-33645D01*
X13084Y-33608D01*
X13069Y-33570D01*
X13054Y-33495D01*
X13054Y-33439D01*
X13069Y-33364D01*
X13084Y-33326D01*
X13114Y-33289D01*
X13159Y-33270D01*
X13189Y-33270D01*
X13234Y-33289D01*
X13249Y-33308D01*
X13429Y-33664D02*
X13399Y-33645D01*
X13384Y-33626D01*
X13369Y-33589D01*
X13369Y-33476D01*
X13384Y-33439D01*
X13399Y-33420D01*
X13429Y-33401D01*
X13474Y-33401D01*
X13504Y-33420D01*
X13519Y-33439D01*
X13534Y-33476D01*
X13534Y-33589D01*
X13519Y-33626D01*
X13504Y-33645D01*
X13474Y-33664D01*
X13429Y-33664D01*
X13669Y-33664D02*
X13669Y-33401D01*
X13669Y-33439D02*
X13684Y-33420D01*
X13714Y-33401D01*
X13759Y-33401D01*
X13789Y-33420D01*
X13804Y-33458D01*
X13804Y-33664D01*
X13804Y-33458D02*
X13819Y-33420D01*
X13849Y-33401D01*
X13894Y-33401D01*
X13924Y-33420D01*
X13939Y-33458D01*
X13939Y-33664D01*
X14089Y-33664D02*
X14089Y-33401D01*
X14089Y-33439D02*
X14104Y-33420D01*
X14134Y-33401D01*
X14179Y-33401D01*
X14209Y-33420D01*
X14224Y-33458D01*
X14224Y-33664D01*
X14224Y-33458D02*
X14239Y-33420D01*
X14269Y-33401D01*
X14314Y-33401D01*
X14344Y-33420D01*
X14359Y-33458D01*
X14359Y-33664D01*
X14554Y-33664D02*
X14524Y-33645D01*
X14509Y-33626D01*
X14494Y-33589D01*
X14494Y-33476D01*
X14509Y-33439D01*
X14524Y-33420D01*
X14554Y-33401D01*
X14599Y-33401D01*
X14629Y-33420D01*
X14644Y-33439D01*
X14659Y-33476D01*
X14659Y-33589D01*
X14644Y-33626D01*
X14629Y-33645D01*
X14599Y-33664D01*
X14554Y-33664D01*
X14794Y-33401D02*
X14794Y-33664D01*
X14794Y-33439D02*
X14809Y-33420D01*
X14839Y-33401D01*
X14884Y-33401D01*
X14914Y-33420D01*
X14929Y-33458D01*
X14929Y-33664D01*
X15064Y-33645D02*
X15094Y-33664D01*
X15154Y-33664D01*
X15184Y-33645D01*
X15199Y-33608D01*
X15199Y-33589D01*
X15184Y-33551D01*
X15154Y-33533D01*
X15109Y-33533D01*
X15079Y-33514D01*
X15064Y-33476D01*
X15064Y-33458D01*
X15079Y-33420D01*
X15109Y-33401D01*
X15154Y-33401D01*
X15184Y-33420D01*
X10909Y-34181D02*
X11059Y-34181D01*
X10879Y-34294D02*
X10984Y-33900D01*
X11089Y-34294D01*
X11149Y-34031D02*
X11269Y-34031D01*
X11194Y-33900D02*
X11194Y-34237D01*
X11209Y-34275D01*
X11239Y-34294D01*
X11269Y-34294D01*
X11329Y-34031D02*
X11449Y-34031D01*
X11374Y-33900D02*
X11374Y-34237D01*
X11389Y-34275D01*
X11419Y-34294D01*
X11449Y-34294D01*
X11554Y-34294D02*
X11554Y-34031D01*
X11554Y-34106D02*
X11569Y-34069D01*
X11584Y-34050D01*
X11614Y-34031D01*
X11644Y-34031D01*
X11749Y-34294D02*
X11749Y-34031D01*
X11749Y-33900D02*
X11734Y-33919D01*
X11749Y-33937D01*
X11764Y-33919D01*
X11749Y-33900D01*
X11749Y-33937D01*
X11899Y-34294D02*
X11899Y-33900D01*
X11899Y-34050D02*
X11929Y-34031D01*
X11989Y-34031D01*
X12019Y-34050D01*
X12034Y-34069D01*
X12049Y-34106D01*
X12049Y-34219D01*
X12034Y-34256D01*
X12019Y-34275D01*
X11989Y-34294D01*
X11929Y-34294D01*
X11899Y-34275D01*
X12319Y-34031D02*
X12319Y-34294D01*
X12184Y-34031D02*
X12184Y-34237D01*
X12199Y-34275D01*
X12229Y-34294D01*
X12274Y-34294D01*
X12304Y-34275D01*
X12319Y-34256D01*
X12424Y-34031D02*
X12544Y-34031D01*
X12469Y-33900D02*
X12469Y-34237D01*
X12484Y-34275D01*
X12514Y-34294D01*
X12544Y-34294D01*
X12769Y-34275D02*
X12739Y-34294D01*
X12679Y-34294D01*
X12649Y-34275D01*
X12634Y-34237D01*
X12634Y-34087D01*
X12649Y-34050D01*
X12679Y-34031D01*
X12739Y-34031D01*
X12769Y-34050D01*
X12784Y-34087D01*
X12784Y-34125D01*
X12634Y-34162D01*
X12919Y-34144D02*
X13159Y-34144D01*
X13294Y-34275D02*
X13339Y-34294D01*
X13414Y-34294D01*
X13444Y-34275D01*
X13459Y-34256D01*
X13474Y-34219D01*
X13474Y-34181D01*
X13459Y-34144D01*
X13444Y-34125D01*
X13414Y-34106D01*
X13354Y-34087D01*
X13324Y-34069D01*
X13309Y-34050D01*
X13294Y-34012D01*
X13294Y-33975D01*
X13309Y-33937D01*
X13324Y-33919D01*
X13354Y-33900D01*
X13429Y-33900D01*
X13474Y-33919D01*
X13609Y-34294D02*
X13609Y-33900D01*
X13744Y-34294D02*
X13744Y-34087D01*
X13729Y-34050D01*
X13699Y-34031D01*
X13654Y-34031D01*
X13624Y-34050D01*
X13609Y-34069D01*
X14029Y-34294D02*
X14029Y-34087D01*
X14014Y-34050D01*
X13984Y-34031D01*
X13924Y-34031D01*
X13894Y-34050D01*
X14029Y-34275D02*
X13999Y-34294D01*
X13924Y-34294D01*
X13894Y-34275D01*
X13879Y-34237D01*
X13879Y-34200D01*
X13894Y-34162D01*
X13924Y-34144D01*
X13999Y-34144D01*
X14029Y-34125D01*
X14179Y-34294D02*
X14179Y-34031D01*
X14179Y-34106D02*
X14194Y-34069D01*
X14209Y-34050D01*
X14239Y-34031D01*
X14269Y-34031D01*
X14494Y-34275D02*
X14464Y-34294D01*
X14404Y-34294D01*
X14374Y-34275D01*
X14359Y-34237D01*
X14359Y-34087D01*
X14374Y-34050D01*
X14404Y-34031D01*
X14464Y-34031D01*
X14494Y-34050D01*
X14509Y-34087D01*
X14509Y-34125D01*
X14359Y-34162D01*
X14629Y-34181D02*
X14779Y-34181D01*
X14599Y-34294D02*
X14704Y-33900D01*
X14809Y-34294D01*
X14959Y-34294D02*
X14929Y-34275D01*
X14914Y-34237D01*
X14914Y-33900D01*
X15079Y-34294D02*
X15079Y-34031D01*
X15079Y-33900D02*
X15064Y-33919D01*
X15079Y-33937D01*
X15094Y-33919D01*
X15079Y-33900D01*
X15079Y-33937D01*
X15229Y-34294D02*
X15229Y-33900D01*
X15259Y-34144D02*
X15349Y-34294D01*
X15349Y-34031D02*
X15229Y-34181D01*
X15604Y-34275D02*
X15574Y-34294D01*
X15514Y-34294D01*
X15484Y-34275D01*
X15469Y-34237D01*
X15469Y-34087D01*
X15484Y-34050D01*
X15514Y-34031D01*
X15574Y-34031D01*
X15604Y-34050D01*
X15619Y-34087D01*
X15619Y-34125D01*
X15469Y-34162D01*
X10894Y-34530D02*
X11089Y-34530D01*
X10984Y-34680D01*
X11029Y-34680D01*
X11059Y-34699D01*
X11074Y-34717D01*
X11089Y-34755D01*
X11089Y-34849D01*
X11074Y-34886D01*
X11059Y-34905D01*
X11029Y-34924D01*
X10939Y-34924D01*
X10909Y-34905D01*
X10894Y-34886D01*
X11224Y-34886D02*
X11239Y-34905D01*
X11224Y-34924D01*
X11209Y-34905D01*
X11224Y-34886D01*
X11224Y-34924D01*
X11434Y-34530D02*
X11464Y-34530D01*
X11494Y-34549D01*
X11509Y-34567D01*
X11524Y-34605D01*
X11539Y-34680D01*
X11539Y-34774D01*
X11524Y-34849D01*
X11509Y-34886D01*
X11494Y-34905D01*
X11464Y-34924D01*
X11434Y-34924D01*
X11404Y-34905D01*
X11389Y-34886D01*
X11374Y-34849D01*
X11359Y-34774D01*
X11359Y-34680D01*
X11374Y-34605D01*
X11389Y-34567D01*
X11404Y-34549D01*
X11434Y-34530D01*
X12064Y-34924D02*
X11914Y-34924D01*
X11914Y-34530D01*
X12169Y-34924D02*
X12169Y-34661D01*
X12169Y-34530D02*
X12154Y-34549D01*
X12169Y-34567D01*
X12184Y-34549D01*
X12169Y-34530D01*
X12169Y-34567D01*
X12454Y-34905D02*
X12424Y-34924D01*
X12364Y-34924D01*
X12334Y-34905D01*
X12319Y-34886D01*
X12304Y-34849D01*
X12304Y-34736D01*
X12319Y-34699D01*
X12334Y-34680D01*
X12364Y-34661D01*
X12424Y-34661D01*
X12454Y-34680D01*
X12709Y-34905D02*
X12679Y-34924D01*
X12619Y-34924D01*
X12589Y-34905D01*
X12574Y-34867D01*
X12574Y-34717D01*
X12589Y-34680D01*
X12619Y-34661D01*
X12679Y-34661D01*
X12709Y-34680D01*
X12724Y-34717D01*
X12724Y-34755D01*
X12574Y-34792D01*
X12859Y-34661D02*
X12859Y-34924D01*
X12859Y-34699D02*
X12874Y-34680D01*
X12904Y-34661D01*
X12949Y-34661D01*
X12979Y-34680D01*
X12994Y-34717D01*
X12994Y-34924D01*
X13129Y-34905D02*
X13159Y-34924D01*
X13219Y-34924D01*
X13249Y-34905D01*
X13264Y-34867D01*
X13264Y-34849D01*
X13249Y-34811D01*
X13219Y-34792D01*
X13174Y-34792D01*
X13144Y-34774D01*
X13129Y-34736D01*
X13129Y-34717D01*
X13144Y-34680D01*
X13174Y-34661D01*
X13219Y-34661D01*
X13249Y-34680D01*
X13519Y-34905D02*
X13489Y-34924D01*
X13429Y-34924D01*
X13399Y-34905D01*
X13384Y-34867D01*
X13384Y-34717D01*
X13399Y-34680D01*
X13429Y-34661D01*
X13489Y-34661D01*
X13519Y-34680D01*
X13534Y-34717D01*
X13534Y-34755D01*
X13384Y-34792D01*
X34810Y-34265D02*
X34885Y-34659D01*
X34945Y-34378D01*
X35005Y-34659D01*
X35080Y-34265D01*
X35200Y-34659D02*
X35200Y-34265D01*
X35335Y-34659D02*
X35335Y-34453D01*
X35320Y-34415D01*
X35290Y-34396D01*
X35245Y-34396D01*
X35215Y-34415D01*
X35200Y-34434D01*
X35605Y-34640D02*
X35575Y-34659D01*
X35515Y-34659D01*
X35485Y-34640D01*
X35470Y-34603D01*
X35470Y-34453D01*
X35485Y-34415D01*
X35515Y-34396D01*
X35575Y-34396D01*
X35605Y-34415D01*
X35620Y-34453D01*
X35620Y-34490D01*
X35470Y-34528D01*
X35875Y-34640D02*
X35845Y-34659D01*
X35785Y-34659D01*
X35755Y-34640D01*
X35740Y-34603D01*
X35740Y-34453D01*
X35755Y-34415D01*
X35785Y-34396D01*
X35845Y-34396D01*
X35875Y-34415D01*
X35890Y-34453D01*
X35890Y-34490D01*
X35740Y-34528D01*
X36070Y-34659D02*
X36040Y-34640D01*
X36025Y-34603D01*
X36025Y-34265D01*
X36310Y-34640D02*
X36280Y-34659D01*
X36220Y-34659D01*
X36190Y-34640D01*
X36175Y-34603D01*
X36175Y-34453D01*
X36190Y-34415D01*
X36220Y-34396D01*
X36280Y-34396D01*
X36310Y-34415D01*
X36325Y-34453D01*
X36325Y-34490D01*
X36175Y-34528D01*
X36460Y-34659D02*
X36460Y-34396D01*
X36460Y-34471D02*
X36475Y-34434D01*
X36490Y-34415D01*
X36520Y-34396D01*
X36550Y-34396D01*
X37044Y-34659D02*
X36895Y-34659D01*
X36895Y-34265D01*
X37284Y-34659D02*
X37284Y-34453D01*
X37269Y-34415D01*
X37239Y-34396D01*
X37179Y-34396D01*
X37149Y-34415D01*
X37284Y-34640D02*
X37254Y-34659D01*
X37179Y-34659D01*
X37149Y-34640D01*
X37134Y-34603D01*
X37134Y-34565D01*
X37149Y-34528D01*
X37179Y-34509D01*
X37254Y-34509D01*
X37284Y-34490D01*
X37434Y-34659D02*
X37434Y-34265D01*
X37434Y-34415D02*
X37464Y-34396D01*
X37524Y-34396D01*
X37554Y-34415D01*
X37569Y-34434D01*
X37584Y-34471D01*
X37584Y-34584D01*
X37569Y-34621D01*
X37554Y-34640D01*
X37524Y-34659D01*
X37464Y-34659D01*
X37434Y-34640D01*
X37734Y-34640D02*
X37734Y-34659D01*
X37719Y-34696D01*
X37704Y-34715D01*
X38094Y-34303D02*
X38109Y-34284D01*
X38139Y-34265D01*
X38214Y-34265D01*
X38244Y-34284D01*
X38259Y-34303D01*
X38274Y-34340D01*
X38274Y-34378D01*
X38259Y-34434D01*
X38079Y-34659D01*
X38274Y-34659D01*
X38469Y-34265D02*
X38499Y-34265D01*
X38529Y-34284D01*
X38544Y-34303D01*
X38559Y-34340D01*
X38574Y-34415D01*
X38574Y-34509D01*
X38559Y-34584D01*
X38544Y-34621D01*
X38529Y-34640D01*
X38499Y-34659D01*
X38469Y-34659D01*
X38439Y-34640D01*
X38424Y-34621D01*
X38409Y-34584D01*
X38394Y-34509D01*
X38394Y-34415D01*
X38409Y-34340D01*
X38424Y-34303D01*
X38439Y-34284D01*
X38469Y-34265D01*
X38874Y-34659D02*
X38694Y-34659D01*
X38784Y-34659D02*
X38784Y-34265D01*
X38754Y-34321D01*
X38724Y-34359D01*
X38694Y-34378D01*
X38979Y-34265D02*
X39174Y-34265D01*
X39069Y-34415D01*
X39114Y-34415D01*
X39144Y-34434D01*
X39159Y-34453D01*
X39174Y-34490D01*
X39174Y-34584D01*
X39159Y-34621D01*
X39144Y-34640D01*
X39114Y-34659D01*
X39024Y-34659D01*
X38994Y-34640D01*
X38979Y-34621D01*
X20300Y-34609D02*
X20120Y-34609D01*
X20210Y-34609D02*
X20210Y-34215D01*
X20180Y-34271D01*
X20150Y-34309D01*
X20120Y-34328D01*
X20420Y-34253D02*
X20435Y-34234D01*
X20465Y-34215D01*
X20540Y-34215D01*
X20570Y-34234D01*
X20585Y-34253D01*
X20600Y-34290D01*
X20600Y-34328D01*
X20585Y-34384D01*
X20405Y-34609D01*
X20600Y-34609D01*
X20795Y-34215D02*
X20825Y-34215D01*
X20855Y-34234D01*
X20870Y-34253D01*
X20885Y-34290D01*
X20900Y-34365D01*
X20900Y-34459D01*
X20885Y-34534D01*
X20870Y-34571D01*
X20855Y-34590D01*
X20825Y-34609D01*
X20795Y-34609D01*
X20765Y-34590D01*
X20750Y-34571D01*
X20735Y-34534D01*
X20720Y-34459D01*
X20720Y-34365D01*
X20735Y-34290D01*
X20750Y-34253D01*
X20765Y-34234D01*
X20795Y-34215D01*
X21035Y-34459D02*
X21275Y-34459D01*
X21560Y-34590D02*
X21530Y-34609D01*
X21470Y-34609D01*
X21440Y-34590D01*
X21425Y-34571D01*
X21410Y-34534D01*
X21410Y-34421D01*
X21425Y-34384D01*
X21440Y-34365D01*
X21470Y-34346D01*
X21530Y-34346D01*
X21560Y-34365D01*
X21695Y-34609D02*
X21695Y-34215D01*
X21830Y-34609D02*
X21830Y-34403D01*
X21815Y-34365D01*
X21785Y-34346D01*
X21740Y-34346D01*
X21710Y-34365D01*
X21695Y-34384D01*
X22115Y-34609D02*
X22115Y-34403D01*
X22100Y-34365D01*
X22070Y-34346D01*
X22010Y-34346D01*
X21980Y-34365D01*
X22115Y-34590D02*
X22085Y-34609D01*
X22010Y-34609D01*
X21980Y-34590D01*
X21965Y-34553D01*
X21965Y-34515D01*
X21980Y-34478D01*
X22010Y-34459D01*
X22085Y-34459D01*
X22115Y-34440D01*
X22265Y-34346D02*
X22265Y-34609D01*
X22265Y-34384D02*
X22280Y-34365D01*
X22310Y-34346D01*
X22355Y-34346D01*
X22385Y-34365D01*
X22400Y-34403D01*
X22400Y-34609D01*
X22550Y-34346D02*
X22550Y-34609D01*
X22550Y-34384D02*
X22565Y-34365D01*
X22595Y-34346D01*
X22640Y-34346D01*
X22670Y-34365D01*
X22685Y-34403D01*
X22685Y-34609D01*
X22955Y-34590D02*
X22925Y-34609D01*
X22865Y-34609D01*
X22835Y-34590D01*
X22820Y-34553D01*
X22820Y-34403D01*
X22835Y-34365D01*
X22865Y-34346D01*
X22925Y-34346D01*
X22955Y-34365D01*
X22970Y-34403D01*
X22970Y-34440D01*
X22820Y-34478D01*
X23150Y-34609D02*
X23120Y-34590D01*
X23105Y-34553D01*
X23105Y-34215D01*
X23510Y-34346D02*
X23510Y-34740D01*
X23510Y-34365D02*
X23540Y-34346D01*
X23600Y-34346D01*
X23630Y-34365D01*
X23645Y-34384D01*
X23660Y-34421D01*
X23660Y-34534D01*
X23645Y-34571D01*
X23630Y-34590D01*
X23600Y-34609D01*
X23540Y-34609D01*
X23510Y-34590D01*
X23840Y-34609D02*
X23810Y-34590D01*
X23795Y-34571D01*
X23780Y-34534D01*
X23780Y-34421D01*
X23795Y-34384D01*
X23810Y-34365D01*
X23840Y-34346D01*
X23885Y-34346D01*
X23915Y-34365D01*
X23930Y-34384D01*
X23945Y-34421D01*
X23945Y-34534D01*
X23930Y-34571D01*
X23915Y-34590D01*
X23885Y-34609D01*
X23840Y-34609D01*
X24214Y-34346D02*
X24214Y-34665D01*
X24200Y-34703D01*
X24185Y-34721D01*
X24155Y-34740D01*
X24110Y-34740D01*
X24080Y-34721D01*
X24214Y-34590D02*
X24185Y-34609D01*
X24125Y-34609D01*
X24095Y-34590D01*
X24080Y-34571D01*
X24065Y-34534D01*
X24065Y-34421D01*
X24080Y-34384D01*
X24095Y-34365D01*
X24125Y-34346D01*
X24185Y-34346D01*
X24214Y-34365D01*
X24409Y-34609D02*
X24379Y-34590D01*
X24364Y-34571D01*
X24349Y-34534D01*
X24349Y-34421D01*
X24364Y-34384D01*
X24379Y-34365D01*
X24409Y-34346D01*
X24454Y-34346D01*
X24484Y-34365D01*
X24499Y-34384D01*
X24514Y-34421D01*
X24514Y-34534D01*
X24499Y-34571D01*
X24484Y-34590D01*
X24454Y-34609D01*
X24409Y-34609D01*
X24889Y-34346D02*
X24889Y-34740D01*
X24889Y-34365D02*
X24919Y-34346D01*
X24979Y-34346D01*
X25009Y-34365D01*
X25024Y-34384D01*
X25039Y-34421D01*
X25039Y-34534D01*
X25024Y-34571D01*
X25009Y-34590D01*
X24979Y-34609D01*
X24919Y-34609D01*
X24889Y-34590D01*
X25174Y-34609D02*
X25174Y-34346D01*
X25174Y-34215D02*
X25159Y-34234D01*
X25174Y-34253D01*
X25189Y-34234D01*
X25174Y-34215D01*
X25174Y-34253D01*
X25324Y-34346D02*
X25324Y-34609D01*
X25324Y-34384D02*
X25339Y-34365D01*
X25369Y-34346D01*
X25414Y-34346D01*
X25444Y-34365D01*
X25459Y-34403D01*
X25459Y-34609D01*
X25849Y-34609D02*
X25849Y-34215D01*
X25849Y-34365D02*
X25879Y-34346D01*
X25939Y-34346D01*
X25969Y-34365D01*
X25984Y-34384D01*
X25999Y-34421D01*
X25999Y-34534D01*
X25984Y-34571D01*
X25969Y-34590D01*
X25939Y-34609D01*
X25879Y-34609D01*
X25849Y-34590D01*
X26179Y-34609D02*
X26149Y-34590D01*
X26134Y-34571D01*
X26119Y-34534D01*
X26119Y-34421D01*
X26134Y-34384D01*
X26149Y-34365D01*
X26179Y-34346D01*
X26224Y-34346D01*
X26254Y-34365D01*
X26269Y-34384D01*
X26284Y-34421D01*
X26284Y-34534D01*
X26269Y-34571D01*
X26254Y-34590D01*
X26224Y-34609D01*
X26179Y-34609D01*
X26554Y-34609D02*
X26554Y-34403D01*
X26539Y-34365D01*
X26509Y-34346D01*
X26449Y-34346D01*
X26419Y-34365D01*
X26554Y-34590D02*
X26524Y-34609D01*
X26449Y-34609D01*
X26419Y-34590D01*
X26404Y-34553D01*
X26404Y-34515D01*
X26419Y-34478D01*
X26449Y-34459D01*
X26524Y-34459D01*
X26554Y-34440D01*
X26704Y-34609D02*
X26704Y-34346D01*
X26704Y-34421D02*
X26719Y-34384D01*
X26734Y-34365D01*
X26764Y-34346D01*
X26794Y-34346D01*
X27034Y-34609D02*
X27034Y-34215D01*
X27034Y-34590D02*
X27004Y-34609D01*
X26944Y-34609D01*
X26914Y-34590D01*
X26899Y-34571D01*
X26884Y-34534D01*
X26884Y-34421D01*
X26899Y-34384D01*
X26914Y-34365D01*
X26944Y-34346D01*
X27004Y-34346D01*
X27034Y-34365D01*
X27394Y-34346D02*
X27469Y-34609D01*
X27544Y-34346D01*
X27649Y-34253D02*
X27664Y-34234D01*
X27694Y-34215D01*
X27769Y-34215D01*
X27799Y-34234D01*
X27814Y-34253D01*
X27829Y-34290D01*
X27829Y-34328D01*
X27814Y-34384D01*
X27634Y-34609D01*
X27829Y-34609D01*
X27964Y-34571D02*
X27979Y-34590D01*
X27964Y-34609D01*
X27949Y-34590D01*
X27964Y-34571D01*
X27964Y-34609D01*
X28174Y-34215D02*
X28204Y-34215D01*
X28234Y-34234D01*
X28249Y-34253D01*
X28264Y-34290D01*
X28279Y-34365D01*
X28279Y-34459D01*
X28264Y-34534D01*
X28249Y-34571D01*
X28234Y-34590D01*
X28204Y-34609D01*
X28174Y-34609D01*
X28144Y-34590D01*
X28129Y-34571D01*
X28114Y-34534D01*
X28099Y-34459D01*
X28099Y-34365D01*
X28114Y-34290D01*
X28129Y-34253D01*
X28144Y-34234D01*
X28174Y-34215D01*
G54D12*
X16900Y-35500D02*
G75*
G03X16900Y-35500I-900J0D01*
G74*
G01*
X44900Y-35500D02*
G75*
G03X44900Y-35500I-900J0D01*
G74*
G01*
X16900Y-14000D02*
G75*
G03X16900Y-14000I-900J0D01*
G74*
G01*
X44900Y-14000D02*
G75*
G03X44900Y-14000I-900J0D01*
G74*
G01*
G54D13*
X10533Y-16081D02*
X10533Y-27419D01*
X13801Y-16081D02*
X10533Y-16081D01*
X13801Y-27419D02*
X10533Y-27419D01*
X12699Y-16081D02*
X12699Y-27419D01*
X13801Y-27419D02*
X13801Y-16081D01*
X49467Y-27419D02*
X49467Y-16081D01*
X46199Y-27419D02*
X49467Y-27419D01*
X46199Y-16081D02*
X49467Y-16081D01*
X47301Y-27419D02*
X47301Y-16081D01*
X46199Y-16081D02*
X46199Y-27419D01*
X24331Y-38717D02*
X35669Y-38717D01*
X24331Y-35449D02*
X24331Y-38717D01*
X35669Y-35449D02*
X35669Y-38717D01*
X24331Y-36551D02*
X35669Y-36551D01*
X35669Y-35449D02*
X24331Y-35449D01*
G54D14*
G36*
X13243Y-37467D02*
X13224Y-37705D01*
X13165Y-37917D01*
X13153Y-37945D01*
X13051Y-38113D01*
X13051Y-37395D01*
X13004Y-37142D01*
X12904Y-36920D01*
X12756Y-36736D01*
X12567Y-36596D01*
X12345Y-36507D01*
X12095Y-36475D01*
X12089Y-36475D01*
X11822Y-36504D01*
X11588Y-36590D01*
X11389Y-36731D01*
X11229Y-36926D01*
X11168Y-37034D01*
X11097Y-37240D01*
X11070Y-37463D01*
X11088Y-37680D01*
X11152Y-37870D01*
X11154Y-37875D01*
X11303Y-38097D01*
X11487Y-38269D01*
X11698Y-38388D01*
X11929Y-38452D01*
X12170Y-38456D01*
X12414Y-38399D01*
X12515Y-38356D01*
X12727Y-38218D01*
X12889Y-38038D01*
X12997Y-37822D01*
X13049Y-37576D01*
X13051Y-37395D01*
X13051Y-38113D01*
X13005Y-38189D01*
X12809Y-38386D01*
X12568Y-38536D01*
X12313Y-38628D01*
X12135Y-38664D01*
X11977Y-38665D01*
X11805Y-38631D01*
X11792Y-38627D01*
X11599Y-38559D01*
X11432Y-38464D01*
X11264Y-38326D01*
X11250Y-38313D01*
X11075Y-38112D01*
X10953Y-37878D01*
X10892Y-37682D01*
X10868Y-37438D01*
X10903Y-37192D01*
X10993Y-36956D01*
X11133Y-36739D01*
X11316Y-36553D01*
X11538Y-36407D01*
X11550Y-36401D01*
X11667Y-36347D01*
X11762Y-36314D01*
X11861Y-36298D01*
X11990Y-36292D01*
X12074Y-36292D01*
X12234Y-36295D01*
X12352Y-36308D01*
X12453Y-36334D01*
X12561Y-36379D01*
X12567Y-36382D01*
X12772Y-36507D01*
X12954Y-36675D01*
X13098Y-36869D01*
X13162Y-36999D01*
X13223Y-37224D01*
X13243Y-37467D01*
X13243Y-37467D01*
X13243Y-37467D01*
G37*
G36*
X15792Y-37467D02*
X15775Y-37713D01*
X15719Y-37919D01*
X15617Y-38103D01*
X15617Y-37503D01*
X15595Y-37254D01*
X15511Y-37020D01*
X15371Y-36811D01*
X15275Y-36715D01*
X15070Y-36576D01*
X14843Y-36495D01*
X14605Y-36470D01*
X14368Y-36502D01*
X14143Y-36590D01*
X13941Y-36734D01*
X13912Y-36762D01*
X13758Y-36960D01*
X13662Y-37182D01*
X13623Y-37419D01*
X13641Y-37659D01*
X13718Y-37893D01*
X13853Y-38110D01*
X13871Y-38131D01*
X14044Y-38287D01*
X14253Y-38395D01*
X14484Y-38453D01*
X14723Y-38458D01*
X14956Y-38407D01*
X15036Y-38374D01*
X15208Y-38264D01*
X15367Y-38112D01*
X15495Y-37937D01*
X15576Y-37758D01*
X15577Y-37756D01*
X15617Y-37503D01*
X15617Y-38103D01*
X15512Y-38232D01*
X15304Y-38424D01*
X15081Y-38557D01*
X14884Y-38627D01*
X14720Y-38662D01*
X14578Y-38668D01*
X14424Y-38645D01*
X14326Y-38621D01*
X14069Y-38519D01*
X13842Y-38360D01*
X13653Y-38153D01*
X13518Y-37922D01*
X13478Y-37817D01*
X13455Y-37706D01*
X13444Y-37565D01*
X13442Y-37458D01*
X13445Y-37303D01*
X13455Y-37191D01*
X13479Y-37097D01*
X13521Y-36997D01*
X13539Y-36960D01*
X13686Y-36728D01*
X13877Y-36534D01*
X14100Y-36390D01*
X14118Y-36381D01*
X14233Y-36334D01*
X14341Y-36307D01*
X14470Y-36295D01*
X14592Y-36292D01*
X14833Y-36305D01*
X15032Y-36348D01*
X15207Y-36431D01*
X15376Y-36560D01*
X15444Y-36625D01*
X15606Y-36809D01*
X15713Y-36997D01*
X15773Y-37208D01*
X15792Y-37458D01*
X15792Y-37467D01*
X15792Y-37467D01*
X15792Y-37467D01*
G37*
G36*
X18338Y-37458D02*
X18319Y-37708D01*
X18250Y-37928D01*
X18148Y-38096D01*
X18148Y-37516D01*
X18128Y-37277D01*
X18056Y-37051D01*
X17936Y-36848D01*
X17774Y-36680D01*
X17576Y-36557D01*
X17500Y-36527D01*
X17294Y-36482D01*
X17072Y-36477D01*
X16862Y-36510D01*
X16742Y-36553D01*
X16582Y-36654D01*
X16425Y-36797D01*
X16293Y-36962D01*
X16223Y-37085D01*
X16182Y-37225D01*
X16161Y-37401D01*
X16162Y-37583D01*
X16186Y-37742D01*
X16197Y-37778D01*
X16305Y-38000D01*
X16460Y-38184D01*
X16650Y-38326D01*
X16866Y-38420D01*
X17098Y-38462D01*
X17335Y-38449D01*
X17567Y-38374D01*
X17570Y-38374D01*
X17742Y-38264D01*
X17900Y-38112D01*
X18029Y-37937D01*
X18110Y-37758D01*
X18110Y-37756D01*
X18148Y-37516D01*
X18148Y-38096D01*
X18126Y-38133D01*
X18028Y-38250D01*
X17853Y-38415D01*
X17673Y-38532D01*
X17464Y-38613D01*
X17408Y-38629D01*
X17248Y-38663D01*
X17106Y-38668D01*
X16949Y-38644D01*
X16859Y-38621D01*
X16606Y-38521D01*
X16388Y-38372D01*
X16209Y-38182D01*
X16075Y-37961D01*
X15992Y-37717D01*
X15963Y-37459D01*
X15995Y-37196D01*
X16006Y-37156D01*
X16081Y-36963D01*
X16190Y-36774D01*
X16317Y-36611D01*
X16412Y-36524D01*
X16587Y-36409D01*
X16762Y-36337D01*
X16960Y-36300D01*
X17142Y-36292D01*
X17295Y-36294D01*
X17406Y-36304D01*
X17500Y-36328D01*
X17601Y-36370D01*
X17665Y-36401D01*
X17907Y-36554D01*
X18098Y-36749D01*
X18236Y-36980D01*
X18317Y-37242D01*
X18338Y-37458D01*
X18338Y-37458D01*
X18338Y-37458D01*
G37*
G36*
X12038Y-37266D02*
X11961Y-37290D01*
X11885Y-37295D01*
X11848Y-37278D01*
X11775Y-37244D01*
X11690Y-37253D01*
X11628Y-37302D01*
X11626Y-37306D01*
X11599Y-37395D01*
X11593Y-37501D01*
X11609Y-37594D01*
X11632Y-37635D01*
X11700Y-37667D01*
X11791Y-37672D01*
X11867Y-37650D01*
X11879Y-37640D01*
X11930Y-37623D01*
X11989Y-37635D01*
X12024Y-37667D01*
X12025Y-37674D01*
X11995Y-37728D01*
X11919Y-37774D01*
X11816Y-37805D01*
X11709Y-37814D01*
X11646Y-37804D01*
X11514Y-37738D01*
X11430Y-37631D01*
X11398Y-37492D01*
X11423Y-37331D01*
X11424Y-37326D01*
X11494Y-37211D01*
X11601Y-37137D01*
X11728Y-37109D01*
X11858Y-37133D01*
X11946Y-37187D01*
X12038Y-37266D01*
X12038Y-37266D01*
X12038Y-37266D01*
G37*
G36*
X12738Y-37266D02*
X12661Y-37290D01*
X12585Y-37295D01*
X12548Y-37278D01*
X12474Y-37244D01*
X12385Y-37253D01*
X12322Y-37294D01*
X12291Y-37364D01*
X12278Y-37458D01*
X12291Y-37551D01*
X12322Y-37621D01*
X12392Y-37663D01*
X12485Y-37673D01*
X12566Y-37650D01*
X12582Y-37638D01*
X12641Y-37620D01*
X12675Y-37633D01*
X12711Y-37660D01*
X12700Y-37692D01*
X12659Y-37733D01*
X12553Y-37800D01*
X12419Y-37819D01*
X12351Y-37814D01*
X12241Y-37771D01*
X12157Y-37680D01*
X12107Y-37558D01*
X12097Y-37420D01*
X12131Y-37290D01*
X12211Y-37189D01*
X12326Y-37128D01*
X12457Y-37113D01*
X12585Y-37146D01*
X12646Y-37187D01*
X12738Y-37266D01*
X12738Y-37266D01*
X12738Y-37266D01*
G37*
G36*
X14922Y-37513D02*
X14918Y-37590D01*
X14905Y-37628D01*
X14878Y-37640D01*
X14860Y-37641D01*
X14826Y-37646D01*
X14806Y-37670D01*
X14796Y-37725D01*
X14792Y-37825D01*
X14792Y-37925D01*
X14792Y-38208D01*
X14625Y-38208D01*
X14458Y-38208D01*
X14458Y-37938D01*
X14457Y-37803D01*
X14449Y-37720D01*
X14434Y-37676D01*
X14406Y-37655D01*
X14392Y-37651D01*
X14358Y-37635D01*
X14338Y-37601D01*
X14328Y-37533D01*
X14325Y-37417D01*
X14325Y-37369D01*
X14325Y-37105D01*
X14617Y-37115D01*
X14908Y-37125D01*
X14918Y-37383D01*
X14922Y-37513D01*
X14922Y-37513D01*
X14922Y-37513D01*
G37*
G36*
X14752Y-36818D02*
X14741Y-36925D01*
X14681Y-36991D01*
X14603Y-37008D01*
X14522Y-36978D01*
X14487Y-36929D01*
X14469Y-36828D01*
X14505Y-36752D01*
X14587Y-36715D01*
X14635Y-36714D01*
X14712Y-36732D01*
X14745Y-36778D01*
X14752Y-36818D01*
X14752Y-36818D01*
X14752Y-36818D01*
G37*
G36*
X17744Y-37482D02*
X17721Y-37658D01*
X17655Y-37820D01*
X17547Y-37955D01*
X17411Y-38044D01*
X17225Y-38098D01*
X17038Y-38096D01*
X16892Y-38049D01*
X16803Y-37986D01*
X16717Y-37897D01*
X16652Y-37802D01*
X16625Y-37723D01*
X16625Y-37720D01*
X16655Y-37687D01*
X16747Y-37675D01*
X16758Y-37675D01*
X16842Y-37682D01*
X16888Y-37700D01*
X16892Y-37708D01*
X16921Y-37775D01*
X16996Y-37833D01*
X17096Y-37869D01*
X17150Y-37874D01*
X17256Y-37866D01*
X17326Y-37834D01*
X17389Y-37761D01*
X17402Y-37742D01*
X17445Y-37638D01*
X17460Y-37507D01*
X17449Y-37367D01*
X17417Y-37239D01*
X17364Y-37141D01*
X17307Y-37095D01*
X17193Y-37074D01*
X17080Y-37090D01*
X16983Y-37135D01*
X16918Y-37201D01*
X16901Y-37280D01*
X16905Y-37299D01*
X16896Y-37374D01*
X16842Y-37441D01*
X16758Y-37520D01*
X16658Y-37424D01*
X16602Y-37361D01*
X16580Y-37318D01*
X16583Y-37310D01*
X16611Y-37271D01*
X16656Y-37193D01*
X16687Y-37134D01*
X16795Y-36986D01*
X16939Y-36889D01*
X17108Y-36847D01*
X17292Y-36863D01*
X17411Y-36905D01*
X17558Y-37005D01*
X17663Y-37143D01*
X17725Y-37306D01*
X17744Y-37482D01*
X17744Y-37482D01*
X17744Y-37482D01*
G37*
G36*
X42034Y-38250D02*
X41934Y-38250D01*
X41834Y-38250D01*
X41834Y-38017D01*
X41830Y-37889D01*
X41819Y-37812D01*
X41795Y-37769D01*
X41772Y-37752D01*
X41708Y-37737D01*
X41665Y-37775D01*
X41641Y-37869D01*
X41634Y-38023D01*
X41634Y-38250D01*
X41533Y-38250D01*
X41432Y-38250D01*
X41441Y-37391D01*
X41450Y-36533D01*
X41656Y-36525D01*
X41815Y-36529D01*
X41921Y-36561D01*
X41983Y-36631D01*
X42011Y-36747D01*
X42016Y-36859D01*
X42005Y-37023D01*
X41966Y-37132D01*
X41894Y-37194D01*
X41817Y-37209D01*
X41817Y-36866D01*
X41814Y-36767D01*
X41800Y-36718D01*
X41767Y-36701D01*
X41734Y-36700D01*
X41678Y-36708D01*
X41651Y-36748D01*
X41640Y-36828D01*
X41638Y-36953D01*
X41662Y-37022D01*
X41715Y-37045D01*
X41742Y-37044D01*
X41787Y-37029D01*
X41809Y-36991D01*
X41816Y-36912D01*
X41817Y-36866D01*
X41817Y-37209D01*
X41783Y-37216D01*
X41762Y-37216D01*
X41634Y-37216D01*
X41634Y-37396D01*
X41634Y-37576D01*
X41754Y-37573D01*
X41859Y-37586D01*
X41940Y-37645D01*
X41954Y-37661D01*
X41997Y-37720D01*
X42021Y-37786D01*
X42031Y-37882D01*
X42034Y-38001D01*
X42034Y-38250D01*
X42034Y-38250D01*
X42034Y-38250D01*
G37*
G36*
X42634Y-38250D02*
X42461Y-38250D01*
X42461Y-38041D01*
X42453Y-37999D01*
X42399Y-37984D01*
X42371Y-37983D01*
X42281Y-37998D01*
X42241Y-38038D01*
X42251Y-38085D01*
X42301Y-38111D01*
X42374Y-38106D01*
X42438Y-38076D01*
X42461Y-38041D01*
X42461Y-38250D01*
X42405Y-38250D01*
X42271Y-38245D01*
X42186Y-38230D01*
X42133Y-38199D01*
X42122Y-38189D01*
X42072Y-38090D01*
X42086Y-37981D01*
X42119Y-37924D01*
X42172Y-37873D01*
X42253Y-37852D01*
X42319Y-37850D01*
X42416Y-37843D01*
X42461Y-37821D01*
X42467Y-37798D01*
X42440Y-37743D01*
X42373Y-37722D01*
X42288Y-37741D01*
X42213Y-37754D01*
X42149Y-37734D01*
X42115Y-37691D01*
X42129Y-37638D01*
X42205Y-37591D01*
X42315Y-37570D01*
X42435Y-37576D01*
X42541Y-37606D01*
X42606Y-37657D01*
X42618Y-37709D01*
X42628Y-37808D01*
X42633Y-37936D01*
X42633Y-37975D01*
X42634Y-38250D01*
X42634Y-38250D01*
X42634Y-38250D01*
G37*
G36*
X43767Y-38250D02*
X43595Y-38250D01*
X43595Y-37910D01*
X43579Y-37814D01*
X43536Y-37748D01*
X43518Y-37738D01*
X43454Y-37744D01*
X43399Y-37797D01*
X43368Y-37880D01*
X43367Y-37904D01*
X43384Y-38012D01*
X43426Y-38082D01*
X43482Y-38107D01*
X43539Y-38082D01*
X43579Y-38012D01*
X43595Y-37910D01*
X43595Y-38250D01*
X43534Y-38250D01*
X43409Y-38247D01*
X43332Y-38237D01*
X43285Y-38213D01*
X43250Y-38171D01*
X43248Y-38167D01*
X43213Y-38081D01*
X43203Y-37956D01*
X43205Y-37887D01*
X43209Y-37776D01*
X43201Y-37722D01*
X43182Y-37718D01*
X43177Y-37721D01*
X43112Y-37745D01*
X43077Y-37744D01*
X43008Y-37745D01*
X42964Y-37781D01*
X42941Y-37862D01*
X42934Y-37998D01*
X42934Y-38018D01*
X42934Y-38250D01*
X42834Y-38250D01*
X42734Y-38250D01*
X42734Y-37920D01*
X42734Y-37591D01*
X42925Y-37574D01*
X43071Y-37571D01*
X43168Y-37590D01*
X43181Y-37597D01*
X43245Y-37621D01*
X43318Y-37602D01*
X43336Y-37593D01*
X43438Y-37566D01*
X43513Y-37581D01*
X43567Y-37598D01*
X43592Y-37585D01*
X43600Y-37528D01*
X43600Y-37465D01*
X43604Y-37373D01*
X43621Y-37330D01*
X43662Y-37317D01*
X43684Y-37316D01*
X43767Y-37316D01*
X43767Y-37783D01*
X43767Y-38250D01*
X43767Y-38250D01*
X43767Y-38250D01*
G37*
G36*
X45334Y-38250D02*
X45127Y-38250D01*
X45127Y-38041D01*
X45118Y-37996D01*
X45057Y-37983D01*
X45055Y-37983D01*
X44974Y-38000D01*
X44940Y-38043D01*
X44951Y-38085D01*
X45000Y-38111D01*
X45067Y-38102D01*
X45118Y-38063D01*
X45127Y-38041D01*
X45127Y-38250D01*
X45085Y-38250D01*
X44954Y-38247D01*
X44872Y-38237D01*
X44823Y-38216D01*
X44787Y-38178D01*
X44785Y-38175D01*
X44740Y-38067D01*
X44755Y-37971D01*
X44822Y-37896D01*
X44934Y-37855D01*
X45000Y-37850D01*
X45092Y-37842D01*
X45131Y-37815D01*
X45134Y-37798D01*
X45107Y-37744D01*
X45043Y-37721D01*
X44969Y-37741D01*
X44967Y-37742D01*
X44903Y-37759D01*
X44835Y-37727D01*
X44779Y-37693D01*
X44753Y-37688D01*
X44740Y-37723D01*
X44712Y-37806D01*
X44676Y-37922D01*
X44663Y-37966D01*
X44621Y-38098D01*
X44587Y-38179D01*
X44555Y-38222D01*
X44515Y-38240D01*
X44492Y-38243D01*
X44441Y-38244D01*
X44407Y-38221D01*
X44378Y-38160D01*
X44346Y-38060D01*
X44289Y-37866D01*
X44235Y-38050D01*
X44199Y-38156D01*
X44164Y-38214D01*
X44119Y-38239D01*
X44093Y-38243D01*
X44049Y-38244D01*
X44016Y-38227D01*
X43987Y-38179D01*
X43954Y-38090D01*
X43918Y-37977D01*
X43876Y-37843D01*
X43841Y-37730D01*
X43818Y-37655D01*
X43813Y-37641D01*
X43814Y-37599D01*
X43861Y-37584D01*
X43894Y-37583D01*
X43951Y-37588D01*
X43987Y-37613D01*
X44014Y-37674D01*
X44041Y-37775D01*
X44089Y-37966D01*
X44151Y-37775D01*
X44190Y-37665D01*
X44226Y-37606D01*
X44267Y-37584D01*
X44288Y-37583D01*
X44335Y-37594D01*
X44371Y-37636D01*
X44407Y-37723D01*
X44423Y-37772D01*
X44483Y-37961D01*
X44537Y-37780D01*
X44573Y-37674D01*
X44609Y-37617D01*
X44656Y-37593D01*
X44679Y-37589D01*
X44743Y-37592D01*
X44767Y-37612D01*
X44794Y-37624D01*
X44864Y-37605D01*
X44885Y-37597D01*
X45018Y-37565D01*
X45147Y-37576D01*
X45251Y-37625D01*
X45284Y-37661D01*
X45316Y-37747D01*
X45332Y-37895D01*
X45334Y-37990D01*
X45334Y-38250D01*
X45334Y-38250D01*
X45334Y-38250D01*
G37*
G36*
X45899Y-37641D02*
X45862Y-37691D01*
X45800Y-37728D01*
X45760Y-37736D01*
X45681Y-37746D01*
X45633Y-37779D01*
X45609Y-37846D01*
X45601Y-37961D01*
X45600Y-38018D01*
X45599Y-38139D01*
X45592Y-38209D01*
X45573Y-38240D01*
X45538Y-38249D01*
X45517Y-38250D01*
X45434Y-38250D01*
X45434Y-37915D01*
X45434Y-37581D01*
X45542Y-37580D01*
X45660Y-37578D01*
X45759Y-37576D01*
X45841Y-37581D01*
X45890Y-37595D01*
X45891Y-37596D01*
X45899Y-37641D01*
X45899Y-37641D01*
X45899Y-37641D01*
G37*
G36*
X46467Y-37983D02*
X46267Y-37983D01*
X46267Y-37803D01*
X46240Y-37752D01*
X46180Y-37731D01*
X46116Y-37751D01*
X46113Y-37753D01*
X46070Y-37806D01*
X46090Y-37839D01*
X46167Y-37850D01*
X46244Y-37836D01*
X46267Y-37803D01*
X46267Y-37983D01*
X46264Y-37983D01*
X46139Y-37990D01*
X46079Y-38012D01*
X46083Y-38048D01*
X46144Y-38097D01*
X46211Y-38113D01*
X46271Y-38088D01*
X46332Y-38061D01*
X46379Y-38082D01*
X46393Y-38095D01*
X46426Y-38156D01*
X46399Y-38204D01*
X46317Y-38237D01*
X46185Y-38249D01*
X46179Y-38250D01*
X46072Y-38246D01*
X46008Y-38229D01*
X45964Y-38188D01*
X45933Y-38141D01*
X45879Y-38003D01*
X45873Y-37861D01*
X45912Y-37732D01*
X45992Y-37632D01*
X46075Y-37585D01*
X46215Y-37569D01*
X46334Y-37610D01*
X46421Y-37700D01*
X46464Y-37829D01*
X46467Y-37874D01*
X46467Y-37983D01*
X46467Y-37983D01*
X46467Y-37983D01*
G37*
G36*
X41367Y-36854D02*
X41354Y-36983D01*
X41320Y-37093D01*
X41298Y-37128D01*
X41205Y-37197D01*
X41197Y-37198D01*
X41197Y-36845D01*
X41168Y-36747D01*
X41128Y-36705D01*
X41059Y-36691D01*
X41004Y-36733D01*
X40971Y-36822D01*
X40967Y-36881D01*
X40973Y-36982D01*
X41001Y-37032D01*
X41061Y-37049D01*
X41088Y-37050D01*
X41158Y-37025D01*
X41186Y-36970D01*
X41197Y-36845D01*
X41197Y-37198D01*
X41087Y-37221D01*
X40966Y-37201D01*
X40873Y-37139D01*
X40817Y-37037D01*
X40794Y-36904D01*
X40805Y-36764D01*
X40847Y-36644D01*
X40882Y-36598D01*
X40990Y-36533D01*
X41113Y-36523D01*
X41234Y-36565D01*
X41324Y-36647D01*
X41358Y-36733D01*
X41367Y-36854D01*
X41367Y-36854D01*
X41367Y-36854D01*
G37*
G36*
X42676Y-36950D02*
X42459Y-36950D01*
X42459Y-36741D01*
X42418Y-36709D01*
X42367Y-36700D01*
X42301Y-36715D01*
X42275Y-36741D01*
X42293Y-36773D01*
X42367Y-36783D01*
X42443Y-36772D01*
X42459Y-36741D01*
X42459Y-36950D01*
X42456Y-36950D01*
X42336Y-36952D01*
X42272Y-36962D01*
X42251Y-36982D01*
X42254Y-36997D01*
X42307Y-37055D01*
X42393Y-37062D01*
X42452Y-37043D01*
X42523Y-37022D01*
X42577Y-37047D01*
X42593Y-37062D01*
X42631Y-37109D01*
X42617Y-37143D01*
X42585Y-37168D01*
X42489Y-37206D01*
X42364Y-37215D01*
X42242Y-37194D01*
X42165Y-37155D01*
X42116Y-37096D01*
X42087Y-37006D01*
X42074Y-36906D01*
X42068Y-36795D01*
X42079Y-36724D01*
X42114Y-36666D01*
X42160Y-36618D01*
X42277Y-36539D01*
X42397Y-36520D01*
X42507Y-36555D01*
X42596Y-36641D01*
X42650Y-36772D01*
X42657Y-36808D01*
X42676Y-36950D01*
X42676Y-36950D01*
X42676Y-36950D01*
G37*
G36*
X43300Y-36948D02*
X43299Y-37081D01*
X43294Y-37160D01*
X43280Y-37200D01*
X43252Y-37214D01*
X43217Y-37216D01*
X43172Y-37212D01*
X43147Y-37190D01*
X43136Y-37135D01*
X43134Y-37031D01*
X43134Y-37006D01*
X43123Y-36846D01*
X43092Y-36740D01*
X43043Y-36691D01*
X42978Y-36703D01*
X42977Y-36703D01*
X42943Y-36739D01*
X42922Y-36805D01*
X42910Y-36917D01*
X42907Y-36978D01*
X42901Y-37102D01*
X42890Y-37173D01*
X42871Y-37206D01*
X42836Y-37216D01*
X42815Y-37216D01*
X42779Y-37214D01*
X42755Y-37200D01*
X42742Y-37162D01*
X42735Y-37088D01*
X42734Y-36966D01*
X42734Y-36870D01*
X42734Y-36523D01*
X42938Y-36523D01*
X43062Y-36527D01*
X43142Y-36545D01*
X43202Y-36583D01*
X43222Y-36601D01*
X43262Y-36649D01*
X43285Y-36705D01*
X43297Y-36787D01*
X43300Y-36913D01*
X43300Y-36948D01*
X43300Y-36948D01*
X43300Y-36948D01*
G37*
G36*
X44227Y-36994D02*
X44210Y-37090D01*
X44167Y-37150D01*
X44080Y-37196D01*
X43957Y-37215D01*
X43823Y-37206D01*
X43700Y-37168D01*
X43688Y-37162D01*
X43624Y-37124D01*
X43614Y-37094D01*
X43650Y-37051D01*
X43656Y-37045D01*
X43705Y-37005D01*
X43752Y-37002D01*
X43823Y-37033D01*
X43920Y-37064D01*
X43996Y-37055D01*
X44032Y-37010D01*
X44034Y-36996D01*
X44003Y-36960D01*
X43924Y-36950D01*
X43792Y-36926D01*
X43704Y-36859D01*
X43668Y-36753D01*
X43667Y-36733D01*
X43694Y-36622D01*
X43769Y-36549D01*
X43884Y-36518D01*
X44031Y-36534D01*
X44095Y-36553D01*
X44178Y-36599D01*
X44196Y-36654D01*
X44150Y-36716D01*
X44096Y-36741D01*
X44052Y-36718D01*
X43992Y-36693D01*
X43920Y-36690D01*
X43864Y-36708D01*
X43850Y-36732D01*
X43880Y-36758D01*
X43953Y-36781D01*
X43981Y-36786D01*
X44107Y-36829D01*
X44191Y-36903D01*
X44227Y-36994D01*
X44227Y-36994D01*
X44227Y-36994D01*
G37*
G36*
X44834Y-36876D02*
X44829Y-36997D01*
X44809Y-37074D01*
X44769Y-37131D01*
X44756Y-37144D01*
X44668Y-37192D01*
X44668Y-36891D01*
X44657Y-36795D01*
X44620Y-36723D01*
X44565Y-36690D01*
X44506Y-36705D01*
X44452Y-36775D01*
X44436Y-36884D01*
X44448Y-36970D01*
X44489Y-37028D01*
X44554Y-37051D01*
X44618Y-37034D01*
X44647Y-36997D01*
X44668Y-36891D01*
X44668Y-37192D01*
X44650Y-37203D01*
X44525Y-37218D01*
X44406Y-37187D01*
X44339Y-37139D01*
X44294Y-37074D01*
X44272Y-36988D01*
X44267Y-36871D01*
X44287Y-36705D01*
X44349Y-36591D01*
X44452Y-36529D01*
X44550Y-36516D01*
X44682Y-36541D01*
X44773Y-36617D01*
X44822Y-36745D01*
X44834Y-36876D01*
X44834Y-36876D01*
X44834Y-36876D01*
G37*
G36*
X45500Y-37216D02*
X45272Y-37216D01*
X45142Y-37213D01*
X45060Y-37199D01*
X45005Y-37170D01*
X44980Y-37146D01*
X44947Y-37096D01*
X44927Y-37026D01*
X44918Y-36919D01*
X44917Y-36804D01*
X44918Y-36671D01*
X44923Y-36589D01*
X44937Y-36547D01*
X44965Y-36529D01*
X45007Y-36522D01*
X45097Y-36512D01*
X45107Y-36772D01*
X45113Y-36903D01*
X45122Y-36980D01*
X45139Y-37019D01*
X45169Y-37032D01*
X45200Y-37033D01*
X45243Y-37029D01*
X45269Y-37008D01*
X45284Y-36957D01*
X45295Y-36860D01*
X45300Y-36783D01*
X45310Y-36656D01*
X45322Y-36580D01*
X45342Y-36542D01*
X45377Y-36527D01*
X45409Y-36522D01*
X45500Y-36512D01*
X45500Y-36864D01*
X45500Y-37216D01*
X45500Y-37216D01*
X45500Y-37216D01*
G37*
G36*
X46063Y-36589D02*
X46045Y-36640D01*
X45983Y-36686D01*
X45933Y-36691D01*
X45854Y-36695D01*
X45803Y-36737D01*
X45776Y-36825D01*
X45767Y-36968D01*
X45767Y-36987D01*
X45766Y-37108D01*
X45758Y-37176D01*
X45739Y-37207D01*
X45704Y-37216D01*
X45684Y-37216D01*
X45600Y-37216D01*
X45600Y-36870D01*
X45600Y-36523D01*
X45795Y-36523D01*
X45944Y-36529D01*
X46032Y-36551D01*
X46063Y-36589D01*
X46063Y-36589D01*
X46063Y-36589D01*
G37*
G36*
X46597Y-36643D02*
X46580Y-36683D01*
X46561Y-36703D01*
X46503Y-36738D01*
X46440Y-36719D01*
X46356Y-36686D01*
X46294Y-36700D01*
X46253Y-36735D01*
X46211Y-36813D01*
X46203Y-36911D01*
X46228Y-36994D01*
X46240Y-37010D01*
X46305Y-37042D01*
X46384Y-37047D01*
X46444Y-37023D01*
X46452Y-37014D01*
X46490Y-37004D01*
X46537Y-37036D01*
X46580Y-37083D01*
X46573Y-37122D01*
X46545Y-37155D01*
X46459Y-37205D01*
X46344Y-37219D01*
X46223Y-37198D01*
X46124Y-37142D01*
X46115Y-37134D01*
X46063Y-37066D01*
X46038Y-36981D01*
X46034Y-36882D01*
X46040Y-36769D01*
X46067Y-36691D01*
X46126Y-36618D01*
X46135Y-36609D01*
X46210Y-36544D01*
X46278Y-36521D01*
X46373Y-36526D01*
X46473Y-36550D01*
X46550Y-36587D01*
X46562Y-36597D01*
X46597Y-36643D01*
X46597Y-36643D01*
X46597Y-36643D01*
G37*
G36*
X47167Y-36950D02*
X46993Y-36950D01*
X46993Y-36746D01*
X46992Y-36741D01*
X46949Y-36699D01*
X46879Y-36692D01*
X46812Y-36720D01*
X46802Y-36731D01*
X46782Y-36765D01*
X46806Y-36780D01*
X46882Y-36783D01*
X46969Y-36774D01*
X46993Y-36746D01*
X46993Y-36950D01*
X46968Y-36950D01*
X46856Y-36953D01*
X46798Y-36964D01*
X46784Y-36987D01*
X46787Y-36997D01*
X46840Y-37055D01*
X46926Y-37062D01*
X46985Y-37043D01*
X47057Y-37022D01*
X47110Y-37047D01*
X47126Y-37062D01*
X47164Y-37109D01*
X47150Y-37143D01*
X47119Y-37168D01*
X47012Y-37211D01*
X46882Y-37216D01*
X46758Y-37184D01*
X46682Y-37134D01*
X46629Y-37066D01*
X46605Y-36981D01*
X46600Y-36882D01*
X46607Y-36768D01*
X46634Y-36690D01*
X46693Y-36618D01*
X46698Y-36614D01*
X46812Y-36537D01*
X46929Y-36519D01*
X47036Y-36553D01*
X47118Y-36635D01*
X47163Y-36757D01*
X47167Y-36815D01*
X47167Y-36950D01*
X47167Y-36950D01*
X47167Y-36950D01*
G37*
G36*
X46467Y-34413D02*
X46342Y-34435D01*
X46237Y-34455D01*
X46104Y-34480D01*
X46021Y-34496D01*
X45826Y-34534D01*
X45728Y-34779D01*
X45631Y-35023D01*
X45816Y-35294D01*
X46001Y-35564D01*
X45760Y-35807D01*
X45657Y-35908D01*
X45569Y-35989D01*
X45510Y-36038D01*
X45490Y-36050D01*
X45452Y-36032D01*
X45373Y-35983D01*
X45268Y-35914D01*
X45213Y-35876D01*
X45096Y-35795D01*
X45018Y-35747D01*
X44966Y-35727D01*
X44925Y-35731D01*
X44881Y-35753D01*
X44869Y-35759D01*
X44789Y-35799D01*
X44726Y-35816D01*
X44725Y-35816D01*
X44693Y-35785D01*
X44640Y-35694D01*
X44570Y-35547D01*
X44482Y-35347D01*
X44455Y-35282D01*
X44383Y-35106D01*
X44320Y-34951D01*
X44272Y-34828D01*
X44242Y-34746D01*
X44234Y-34718D01*
X44259Y-34684D01*
X44324Y-34633D01*
X44350Y-34616D01*
X44491Y-34493D01*
X44585Y-34336D01*
X44631Y-34158D01*
X44629Y-33972D01*
X44580Y-33792D01*
X44483Y-33630D01*
X44363Y-33517D01*
X44186Y-33426D01*
X44003Y-33393D01*
X43822Y-33414D01*
X43656Y-33483D01*
X43514Y-33595D01*
X43407Y-33744D01*
X43345Y-33925D01*
X43334Y-34049D01*
X43352Y-34232D01*
X43412Y-34383D01*
X43525Y-34522D01*
X43579Y-34572D01*
X43660Y-34647D01*
X43716Y-34705D01*
X43734Y-34731D01*
X43721Y-34782D01*
X43686Y-34877D01*
X43634Y-35005D01*
X43570Y-35154D01*
X43501Y-35312D01*
X43430Y-35467D01*
X43364Y-35607D01*
X43308Y-35719D01*
X43268Y-35793D01*
X43249Y-35816D01*
X43192Y-35801D01*
X43112Y-35763D01*
X43107Y-35759D01*
X43008Y-35703D01*
X42757Y-35876D01*
X42643Y-35952D01*
X42550Y-36012D01*
X42490Y-36045D01*
X42477Y-36050D01*
X42443Y-36027D01*
X42374Y-35967D01*
X42282Y-35881D01*
X42224Y-35824D01*
X42127Y-35722D01*
X42051Y-35634D01*
X42007Y-35572D01*
X42000Y-35554D01*
X42018Y-35509D01*
X42067Y-35425D01*
X42136Y-35317D01*
X42169Y-35270D01*
X42337Y-35028D01*
X42239Y-34781D01*
X42141Y-34534D01*
X41946Y-34496D01*
X41813Y-34470D01*
X41685Y-34446D01*
X41624Y-34435D01*
X41498Y-34413D01*
X41507Y-34057D01*
X41517Y-33701D01*
X41838Y-33638D01*
X42160Y-33576D01*
X42247Y-33371D01*
X42291Y-33259D01*
X42323Y-33168D01*
X42334Y-33120D01*
X42315Y-33073D01*
X42267Y-32989D01*
X42197Y-32884D01*
X42183Y-32864D01*
X42108Y-32756D01*
X42048Y-32663D01*
X42014Y-32604D01*
X42012Y-32599D01*
X42020Y-32551D01*
X42072Y-32474D01*
X42171Y-32363D01*
X42220Y-32313D01*
X42322Y-32215D01*
X42409Y-32137D01*
X42470Y-32091D01*
X42489Y-32083D01*
X42532Y-32101D01*
X42615Y-32149D01*
X42724Y-32219D01*
X42787Y-32261D01*
X43046Y-32440D01*
X43248Y-32358D01*
X43356Y-32313D01*
X43439Y-32274D01*
X43476Y-32252D01*
X43493Y-32210D01*
X43518Y-32119D01*
X43545Y-31993D01*
X43560Y-31913D01*
X43619Y-31600D01*
X43983Y-31600D01*
X44347Y-31600D01*
X44415Y-31931D01*
X44484Y-32262D01*
X44700Y-32351D01*
X44917Y-32440D01*
X45178Y-32261D01*
X45295Y-32184D01*
X45394Y-32124D01*
X45460Y-32089D01*
X45478Y-32084D01*
X45523Y-32108D01*
X45598Y-32167D01*
X45691Y-32250D01*
X45787Y-32343D01*
X45874Y-32434D01*
X45939Y-32508D01*
X45967Y-32555D01*
X45967Y-32557D01*
X45949Y-32605D01*
X45900Y-32691D01*
X45830Y-32800D01*
X45800Y-32843D01*
X45725Y-32954D01*
X45667Y-33046D01*
X45636Y-33104D01*
X45634Y-33114D01*
X45645Y-33160D01*
X45677Y-33249D01*
X45721Y-33361D01*
X45722Y-33364D01*
X45810Y-33579D01*
X46139Y-33639D01*
X46467Y-33698D01*
X46467Y-34056D01*
X46467Y-34413D01*
X46467Y-34413D01*
X46467Y-34413D01*
G37*
G54D15*
X10761Y-15633D02*
X11047Y-15633D01*
X11104Y-15652D01*
X11142Y-15690D01*
X11161Y-15747D01*
X11161Y-15785D01*
X10761Y-15480D02*
X10761Y-15233D01*
X10914Y-15366D01*
X10914Y-15309D01*
X10933Y-15271D01*
X10952Y-15252D01*
X10990Y-15233D01*
X11085Y-15233D01*
X11123Y-15252D01*
X11142Y-15271D01*
X11161Y-15309D01*
X11161Y-15423D01*
X11142Y-15461D01*
X11123Y-15480D01*
X48761Y-28133D02*
X49047Y-28133D01*
X49104Y-28152D01*
X49142Y-28190D01*
X49161Y-28247D01*
X49161Y-28285D01*
X49161Y-27733D02*
X49161Y-27961D01*
X49161Y-27847D02*
X48761Y-27847D01*
X48819Y-27885D01*
X48857Y-27923D01*
X48876Y-27961D01*
X23366Y-38261D02*
X23366Y-38547D01*
X23347Y-38604D01*
X23309Y-38642D01*
X23252Y-38661D01*
X23214Y-38661D01*
X23538Y-38300D02*
X23557Y-38280D01*
X23595Y-38261D01*
X23690Y-38261D01*
X23728Y-38280D01*
X23747Y-38300D01*
X23766Y-38338D01*
X23766Y-38376D01*
X23747Y-38433D01*
X23519Y-38661D01*
X23766Y-38661D01*
G54D16*
X40704Y-15961D02*
X40704Y-15561D01*
X40857Y-15561D01*
X40895Y-15580D01*
X40914Y-15600D01*
X40933Y-15638D01*
X40933Y-15695D01*
X40914Y-15733D01*
X40895Y-15752D01*
X40857Y-15771D01*
X40704Y-15771D01*
X41314Y-15961D02*
X41085Y-15961D01*
X41200Y-15961D02*
X41200Y-15561D01*
X41161Y-15619D01*
X41123Y-15657D01*
X41085Y-15676D01*
X41704Y-15961D02*
X41704Y-15561D01*
X41857Y-15561D01*
X41895Y-15580D01*
X41914Y-15600D01*
X41933Y-15638D01*
X41933Y-15695D01*
X41914Y-15733D01*
X41895Y-15752D01*
X41857Y-15771D01*
X41704Y-15771D01*
X42085Y-15600D02*
X42104Y-15580D01*
X42142Y-15561D01*
X42238Y-15561D01*
X42276Y-15580D01*
X42295Y-15600D01*
X42314Y-15638D01*
X42314Y-15676D01*
X42295Y-15733D01*
X42066Y-15961D01*
X42314Y-15961D01*
X42704Y-15961D02*
X42704Y-15561D01*
X42857Y-15561D01*
X42895Y-15580D01*
X42914Y-15600D01*
X42933Y-15638D01*
X42933Y-15695D01*
X42914Y-15733D01*
X42895Y-15752D01*
X42857Y-15771D01*
X42704Y-15771D01*
X43066Y-15561D02*
X43314Y-15561D01*
X43180Y-15714D01*
X43238Y-15714D01*
X43276Y-15733D01*
X43295Y-15752D01*
X43314Y-15790D01*
X43314Y-15885D01*
X43295Y-15923D01*
X43276Y-15942D01*
X43238Y-15961D01*
X43123Y-15961D01*
X43085Y-15942D01*
X43066Y-15923D01*
X43704Y-15961D02*
X43704Y-15561D01*
X43857Y-15561D01*
X43895Y-15580D01*
X43914Y-15600D01*
X43933Y-15638D01*
X43933Y-15695D01*
X43914Y-15733D01*
X43895Y-15752D01*
X43857Y-15771D01*
X43704Y-15771D01*
X44276Y-15695D02*
X44276Y-15961D01*
X44180Y-15542D02*
X44085Y-15828D01*
X44333Y-15828D01*
X40704Y-19361D02*
X40704Y-18961D01*
X40857Y-18961D01*
X40895Y-18980D01*
X40914Y-19000D01*
X40933Y-19038D01*
X40933Y-19095D01*
X40914Y-19133D01*
X40895Y-19152D01*
X40857Y-19171D01*
X40704Y-19171D01*
X41295Y-18961D02*
X41104Y-18961D01*
X41085Y-19152D01*
X41104Y-19133D01*
X41142Y-19114D01*
X41238Y-19114D01*
X41276Y-19133D01*
X41295Y-19152D01*
X41314Y-19190D01*
X41314Y-19285D01*
X41295Y-19323D01*
X41276Y-19342D01*
X41238Y-19361D01*
X41142Y-19361D01*
X41104Y-19342D01*
X41085Y-19323D01*
X41704Y-19361D02*
X41704Y-18961D01*
X41857Y-18961D01*
X41895Y-18980D01*
X41914Y-19000D01*
X41933Y-19038D01*
X41933Y-19095D01*
X41914Y-19133D01*
X41895Y-19152D01*
X41857Y-19171D01*
X41704Y-19171D01*
X42276Y-18961D02*
X42200Y-18961D01*
X42161Y-18980D01*
X42142Y-19000D01*
X42104Y-19057D01*
X42085Y-19133D01*
X42085Y-19285D01*
X42104Y-19323D01*
X42123Y-19342D01*
X42161Y-19361D01*
X42238Y-19361D01*
X42276Y-19342D01*
X42295Y-19323D01*
X42314Y-19285D01*
X42314Y-19190D01*
X42295Y-19152D01*
X42276Y-19133D01*
X42238Y-19114D01*
X42161Y-19114D01*
X42123Y-19133D01*
X42104Y-19152D01*
X42085Y-19190D01*
X42704Y-19361D02*
X42704Y-18961D01*
X42857Y-18961D01*
X42895Y-18980D01*
X42914Y-19000D01*
X42933Y-19038D01*
X42933Y-19095D01*
X42914Y-19133D01*
X42895Y-19152D01*
X42857Y-19171D01*
X42704Y-19171D01*
X43066Y-18961D02*
X43333Y-18961D01*
X43161Y-19361D01*
X43704Y-19361D02*
X43704Y-18961D01*
X43857Y-18961D01*
X43895Y-18980D01*
X43914Y-19000D01*
X43933Y-19038D01*
X43933Y-19095D01*
X43914Y-19133D01*
X43895Y-19152D01*
X43857Y-19171D01*
X43704Y-19171D01*
X44161Y-19133D02*
X44123Y-19114D01*
X44104Y-19095D01*
X44085Y-19057D01*
X44085Y-19038D01*
X44104Y-19000D01*
X44123Y-18980D01*
X44161Y-18961D01*
X44238Y-18961D01*
X44276Y-18980D01*
X44295Y-19000D01*
X44314Y-19038D01*
X44314Y-19057D01*
X44295Y-19095D01*
X44276Y-19114D01*
X44238Y-19133D01*
X44161Y-19133D01*
X44123Y-19152D01*
X44104Y-19171D01*
X44085Y-19209D01*
X44085Y-19285D01*
X44104Y-19323D01*
X44123Y-19342D01*
X44161Y-19361D01*
X44238Y-19361D01*
X44276Y-19342D01*
X44295Y-19323D01*
X44314Y-19285D01*
X44314Y-19209D01*
X44295Y-19171D01*
X44276Y-19152D01*
X44238Y-19133D01*
X40704Y-20361D02*
X40704Y-19961D01*
X40857Y-19961D01*
X40895Y-19980D01*
X40914Y-20000D01*
X40933Y-20038D01*
X40933Y-20095D01*
X40914Y-20133D01*
X40895Y-20152D01*
X40857Y-20171D01*
X40704Y-20171D01*
X41123Y-20361D02*
X41200Y-20361D01*
X41238Y-20342D01*
X41257Y-20323D01*
X41295Y-20266D01*
X41314Y-20190D01*
X41314Y-20038D01*
X41295Y-20000D01*
X41276Y-19980D01*
X41238Y-19961D01*
X41161Y-19961D01*
X41123Y-19980D01*
X41104Y-20000D01*
X41085Y-20038D01*
X41085Y-20133D01*
X41104Y-20171D01*
X41123Y-20190D01*
X41161Y-20209D01*
X41238Y-20209D01*
X41276Y-20190D01*
X41295Y-20171D01*
X41314Y-20133D01*
X41514Y-17961D02*
X41514Y-17561D01*
X41666Y-17561D01*
X41704Y-17580D01*
X41723Y-17600D01*
X41742Y-17638D01*
X41742Y-17695D01*
X41723Y-17733D01*
X41704Y-17752D01*
X41666Y-17771D01*
X41514Y-17771D01*
X42123Y-17961D02*
X41895Y-17961D01*
X42009Y-17961D02*
X42009Y-17561D01*
X41971Y-17619D01*
X41933Y-17657D01*
X41895Y-17676D01*
X42371Y-17561D02*
X42409Y-17561D01*
X42447Y-17580D01*
X42466Y-17600D01*
X42485Y-17638D01*
X42504Y-17714D01*
X42504Y-17809D01*
X42485Y-17885D01*
X42466Y-17923D01*
X42447Y-17942D01*
X42409Y-17961D01*
X42371Y-17961D01*
X42333Y-17942D01*
X42314Y-17923D01*
X42295Y-17885D01*
X42276Y-17809D01*
X42276Y-17714D01*
X42295Y-17638D01*
X42314Y-17600D01*
X42333Y-17580D01*
X42371Y-17561D01*
X42514Y-17961D02*
X42514Y-17561D01*
X42666Y-17561D01*
X42704Y-17580D01*
X42723Y-17600D01*
X42742Y-17638D01*
X42742Y-17695D01*
X42723Y-17733D01*
X42704Y-17752D01*
X42666Y-17771D01*
X42514Y-17771D01*
X43123Y-17961D02*
X42895Y-17961D01*
X43009Y-17961D02*
X43009Y-17561D01*
X42971Y-17619D01*
X42933Y-17657D01*
X42895Y-17676D01*
X43504Y-17961D02*
X43276Y-17961D01*
X43390Y-17961D02*
X43390Y-17561D01*
X43352Y-17619D01*
X43314Y-17657D01*
X43276Y-17676D01*
X43514Y-17961D02*
X43514Y-17561D01*
X43666Y-17561D01*
X43704Y-17580D01*
X43723Y-17600D01*
X43742Y-17638D01*
X43742Y-17695D01*
X43723Y-17733D01*
X43704Y-17752D01*
X43666Y-17771D01*
X43514Y-17771D01*
X44123Y-17961D02*
X43895Y-17961D01*
X44009Y-17961D02*
X44009Y-17561D01*
X43971Y-17619D01*
X43933Y-17657D01*
X43895Y-17676D01*
X44276Y-17600D02*
X44295Y-17580D01*
X44333Y-17561D01*
X44428Y-17561D01*
X44466Y-17580D01*
X44485Y-17600D01*
X44504Y-17638D01*
X44504Y-17676D01*
X44485Y-17733D01*
X44257Y-17961D01*
X44504Y-17961D01*
X40514Y-18961D02*
X40514Y-18561D01*
X40666Y-18561D01*
X40704Y-18580D01*
X40723Y-18600D01*
X40742Y-18638D01*
X40742Y-18695D01*
X40723Y-18733D01*
X40704Y-18752D01*
X40666Y-18771D01*
X40514Y-18771D01*
X41123Y-18961D02*
X40895Y-18961D01*
X41009Y-18961D02*
X41009Y-18561D01*
X40971Y-18619D01*
X40933Y-18657D01*
X40895Y-18676D01*
X41257Y-18561D02*
X41504Y-18561D01*
X41371Y-18714D01*
X41428Y-18714D01*
X41466Y-18733D01*
X41485Y-18752D01*
X41504Y-18790D01*
X41504Y-18885D01*
X41485Y-18923D01*
X41466Y-18942D01*
X41428Y-18961D01*
X41314Y-18961D01*
X41276Y-18942D01*
X41257Y-18923D01*
X41514Y-18961D02*
X41514Y-18561D01*
X41666Y-18561D01*
X41704Y-18580D01*
X41723Y-18600D01*
X41742Y-18638D01*
X41742Y-18695D01*
X41723Y-18733D01*
X41704Y-18752D01*
X41666Y-18771D01*
X41514Y-18771D01*
X42123Y-18961D02*
X41895Y-18961D01*
X42009Y-18961D02*
X42009Y-18561D01*
X41971Y-18619D01*
X41933Y-18657D01*
X41895Y-18676D01*
X42466Y-18695D02*
X42466Y-18961D01*
X42371Y-18542D02*
X42276Y-18828D01*
X42523Y-18828D01*
X42514Y-18961D02*
X42514Y-18561D01*
X42666Y-18561D01*
X42704Y-18580D01*
X42723Y-18600D01*
X42742Y-18638D01*
X42742Y-18695D01*
X42723Y-18733D01*
X42704Y-18752D01*
X42666Y-18771D01*
X42514Y-18771D01*
X43123Y-18961D02*
X42895Y-18961D01*
X43009Y-18961D02*
X43009Y-18561D01*
X42971Y-18619D01*
X42933Y-18657D01*
X42895Y-18676D01*
X43485Y-18561D02*
X43295Y-18561D01*
X43276Y-18752D01*
X43295Y-18733D01*
X43333Y-18714D01*
X43428Y-18714D01*
X43466Y-18733D01*
X43485Y-18752D01*
X43504Y-18790D01*
X43504Y-18885D01*
X43485Y-18923D01*
X43466Y-18942D01*
X43428Y-18961D01*
X43333Y-18961D01*
X43295Y-18942D01*
X43276Y-18923D01*
X43514Y-18961D02*
X43514Y-18561D01*
X43666Y-18561D01*
X43704Y-18580D01*
X43723Y-18600D01*
X43742Y-18638D01*
X43742Y-18695D01*
X43723Y-18733D01*
X43704Y-18752D01*
X43666Y-18771D01*
X43514Y-18771D01*
X44123Y-18961D02*
X43895Y-18961D01*
X44009Y-18961D02*
X44009Y-18561D01*
X43971Y-18619D01*
X43933Y-18657D01*
X43895Y-18676D01*
X44466Y-18561D02*
X44390Y-18561D01*
X44352Y-18580D01*
X44333Y-18600D01*
X44295Y-18657D01*
X44276Y-18733D01*
X44276Y-18885D01*
X44295Y-18923D01*
X44314Y-18942D01*
X44352Y-18961D01*
X44428Y-18961D01*
X44466Y-18942D01*
X44485Y-18923D01*
X44504Y-18885D01*
X44504Y-18790D01*
X44485Y-18752D01*
X44466Y-18733D01*
X44428Y-18714D01*
X44352Y-18714D01*
X44314Y-18733D01*
X44295Y-18752D01*
X44276Y-18790D01*
X40514Y-19961D02*
X40514Y-19561D01*
X40666Y-19561D01*
X40704Y-19580D01*
X40723Y-19600D01*
X40742Y-19638D01*
X40742Y-19695D01*
X40723Y-19733D01*
X40704Y-19752D01*
X40666Y-19771D01*
X40514Y-19771D01*
X41123Y-19961D02*
X40895Y-19961D01*
X41009Y-19961D02*
X41009Y-19561D01*
X40971Y-19619D01*
X40933Y-19657D01*
X40895Y-19676D01*
X41257Y-19561D02*
X41523Y-19561D01*
X41352Y-19961D01*
X41514Y-19961D02*
X41514Y-19561D01*
X41666Y-19561D01*
X41704Y-19580D01*
X41723Y-19600D01*
X41742Y-19638D01*
X41742Y-19695D01*
X41723Y-19733D01*
X41704Y-19752D01*
X41666Y-19771D01*
X41514Y-19771D01*
X42123Y-19961D02*
X41895Y-19961D01*
X42009Y-19961D02*
X42009Y-19561D01*
X41971Y-19619D01*
X41933Y-19657D01*
X41895Y-19676D01*
X42352Y-19733D02*
X42314Y-19714D01*
X42295Y-19695D01*
X42276Y-19657D01*
X42276Y-19638D01*
X42295Y-19600D01*
X42314Y-19580D01*
X42352Y-19561D01*
X42428Y-19561D01*
X42466Y-19580D01*
X42485Y-19600D01*
X42504Y-19638D01*
X42504Y-19657D01*
X42485Y-19695D01*
X42466Y-19714D01*
X42428Y-19733D01*
X42352Y-19733D01*
X42314Y-19752D01*
X42295Y-19771D01*
X42276Y-19809D01*
X42276Y-19885D01*
X42295Y-19923D01*
X42314Y-19942D01*
X42352Y-19961D01*
X42428Y-19961D01*
X42466Y-19942D01*
X42485Y-19923D01*
X42504Y-19885D01*
X42504Y-19809D01*
X42485Y-19771D01*
X42466Y-19752D01*
X42428Y-19733D01*
X42514Y-19961D02*
X42514Y-19561D01*
X42666Y-19561D01*
X42704Y-19580D01*
X42723Y-19600D01*
X42742Y-19638D01*
X42742Y-19695D01*
X42723Y-19733D01*
X42704Y-19752D01*
X42666Y-19771D01*
X42514Y-19771D01*
X43123Y-19961D02*
X42895Y-19961D01*
X43009Y-19961D02*
X43009Y-19561D01*
X42971Y-19619D01*
X42933Y-19657D01*
X42895Y-19676D01*
X43314Y-19961D02*
X43390Y-19961D01*
X43428Y-19942D01*
X43447Y-19923D01*
X43485Y-19866D01*
X43504Y-19790D01*
X43504Y-19638D01*
X43485Y-19600D01*
X43466Y-19580D01*
X43428Y-19561D01*
X43352Y-19561D01*
X43314Y-19580D01*
X43295Y-19600D01*
X43276Y-19638D01*
X43276Y-19733D01*
X43295Y-19771D01*
X43314Y-19790D01*
X43352Y-19809D01*
X43428Y-19809D01*
X43466Y-19790D01*
X43485Y-19771D01*
X43504Y-19733D01*
X43514Y-19961D02*
X43514Y-19561D01*
X43666Y-19561D01*
X43704Y-19580D01*
X43723Y-19600D01*
X43742Y-19638D01*
X43742Y-19695D01*
X43723Y-19733D01*
X43704Y-19752D01*
X43666Y-19771D01*
X43514Y-19771D01*
X43895Y-19600D02*
X43914Y-19580D01*
X43952Y-19561D01*
X44047Y-19561D01*
X44085Y-19580D01*
X44104Y-19600D01*
X44123Y-19638D01*
X44123Y-19676D01*
X44104Y-19733D01*
X43876Y-19961D01*
X44123Y-19961D01*
X44371Y-19561D02*
X44409Y-19561D01*
X44447Y-19580D01*
X44466Y-19600D01*
X44485Y-19638D01*
X44504Y-19714D01*
X44504Y-19809D01*
X44485Y-19885D01*
X44466Y-19923D01*
X44447Y-19942D01*
X44409Y-19961D01*
X44371Y-19961D01*
X44333Y-19942D01*
X44314Y-19923D01*
X44295Y-19885D01*
X44276Y-19809D01*
X44276Y-19714D01*
X44295Y-19638D01*
X44314Y-19600D01*
X44333Y-19580D01*
X44371Y-19561D01*
X40514Y-20961D02*
X40514Y-20561D01*
X40666Y-20561D01*
X40704Y-20580D01*
X40723Y-20600D01*
X40742Y-20638D01*
X40742Y-20695D01*
X40723Y-20733D01*
X40704Y-20752D01*
X40666Y-20771D01*
X40514Y-20771D01*
X40895Y-20600D02*
X40914Y-20580D01*
X40952Y-20561D01*
X41047Y-20561D01*
X41085Y-20580D01*
X41104Y-20600D01*
X41123Y-20638D01*
X41123Y-20676D01*
X41104Y-20733D01*
X40876Y-20961D01*
X41123Y-20961D01*
X41504Y-20961D02*
X41276Y-20961D01*
X41390Y-20961D02*
X41390Y-20561D01*
X41352Y-20619D01*
X41314Y-20657D01*
X41276Y-20676D01*
X41514Y-20961D02*
X41514Y-20561D01*
X41666Y-20561D01*
X41704Y-20580D01*
X41723Y-20600D01*
X41742Y-20638D01*
X41742Y-20695D01*
X41723Y-20733D01*
X41704Y-20752D01*
X41666Y-20771D01*
X41514Y-20771D01*
X41895Y-20600D02*
X41914Y-20580D01*
X41952Y-20561D01*
X42047Y-20561D01*
X42085Y-20580D01*
X42104Y-20600D01*
X42123Y-20638D01*
X42123Y-20676D01*
X42104Y-20733D01*
X41876Y-20961D01*
X42123Y-20961D01*
X42276Y-20600D02*
X42295Y-20580D01*
X42333Y-20561D01*
X42428Y-20561D01*
X42466Y-20580D01*
X42485Y-20600D01*
X42504Y-20638D01*
X42504Y-20676D01*
X42485Y-20733D01*
X42257Y-20961D01*
X42504Y-20961D01*
X42514Y-20961D02*
X42514Y-20561D01*
X42666Y-20561D01*
X42704Y-20580D01*
X42723Y-20600D01*
X42742Y-20638D01*
X42742Y-20695D01*
X42723Y-20733D01*
X42704Y-20752D01*
X42666Y-20771D01*
X42514Y-20771D01*
X42895Y-20600D02*
X42914Y-20580D01*
X42952Y-20561D01*
X43047Y-20561D01*
X43085Y-20580D01*
X43104Y-20600D01*
X43123Y-20638D01*
X43123Y-20676D01*
X43104Y-20733D01*
X42876Y-20961D01*
X43123Y-20961D01*
X43257Y-20561D02*
X43504Y-20561D01*
X43371Y-20714D01*
X43428Y-20714D01*
X43466Y-20733D01*
X43485Y-20752D01*
X43504Y-20790D01*
X43504Y-20885D01*
X43485Y-20923D01*
X43466Y-20942D01*
X43428Y-20961D01*
X43314Y-20961D01*
X43276Y-20942D01*
X43257Y-20923D01*
X43514Y-20961D02*
X43514Y-20561D01*
X43666Y-20561D01*
X43704Y-20580D01*
X43723Y-20600D01*
X43742Y-20638D01*
X43742Y-20695D01*
X43723Y-20733D01*
X43704Y-20752D01*
X43666Y-20771D01*
X43514Y-20771D01*
X43895Y-20600D02*
X43914Y-20580D01*
X43952Y-20561D01*
X44047Y-20561D01*
X44085Y-20580D01*
X44104Y-20600D01*
X44123Y-20638D01*
X44123Y-20676D01*
X44104Y-20733D01*
X43876Y-20961D01*
X44123Y-20961D01*
X44466Y-20695D02*
X44466Y-20961D01*
X44371Y-20542D02*
X44276Y-20828D01*
X44523Y-20828D01*
X40514Y-21961D02*
X40514Y-21561D01*
X40666Y-21561D01*
X40704Y-21580D01*
X40723Y-21600D01*
X40742Y-21638D01*
X40742Y-21695D01*
X40723Y-21733D01*
X40704Y-21752D01*
X40666Y-21771D01*
X40514Y-21771D01*
X40895Y-21600D02*
X40914Y-21580D01*
X40952Y-21561D01*
X41047Y-21561D01*
X41085Y-21580D01*
X41104Y-21600D01*
X41123Y-21638D01*
X41123Y-21676D01*
X41104Y-21733D01*
X40876Y-21961D01*
X41123Y-21961D01*
X41485Y-21561D02*
X41295Y-21561D01*
X41276Y-21752D01*
X41295Y-21733D01*
X41333Y-21714D01*
X41428Y-21714D01*
X41466Y-21733D01*
X41485Y-21752D01*
X41504Y-21790D01*
X41504Y-21885D01*
X41485Y-21923D01*
X41466Y-21942D01*
X41428Y-21961D01*
X41333Y-21961D01*
X41295Y-21942D01*
X41276Y-21923D01*
X41514Y-21961D02*
X41514Y-21561D01*
X41666Y-21561D01*
X41704Y-21580D01*
X41723Y-21600D01*
X41742Y-21638D01*
X41742Y-21695D01*
X41723Y-21733D01*
X41704Y-21752D01*
X41666Y-21771D01*
X41514Y-21771D01*
X41895Y-21600D02*
X41914Y-21580D01*
X41952Y-21561D01*
X42047Y-21561D01*
X42085Y-21580D01*
X42104Y-21600D01*
X42123Y-21638D01*
X42123Y-21676D01*
X42104Y-21733D01*
X41876Y-21961D01*
X42123Y-21961D01*
X42466Y-21561D02*
X42390Y-21561D01*
X42352Y-21580D01*
X42333Y-21600D01*
X42295Y-21657D01*
X42276Y-21733D01*
X42276Y-21885D01*
X42295Y-21923D01*
X42314Y-21942D01*
X42352Y-21961D01*
X42428Y-21961D01*
X42466Y-21942D01*
X42485Y-21923D01*
X42504Y-21885D01*
X42504Y-21790D01*
X42485Y-21752D01*
X42466Y-21733D01*
X42428Y-21714D01*
X42352Y-21714D01*
X42314Y-21733D01*
X42295Y-21752D01*
X42276Y-21790D01*
X42514Y-21961D02*
X42514Y-21561D01*
X42666Y-21561D01*
X42704Y-21580D01*
X42723Y-21600D01*
X42742Y-21638D01*
X42742Y-21695D01*
X42723Y-21733D01*
X42704Y-21752D01*
X42666Y-21771D01*
X42514Y-21771D01*
X42895Y-21600D02*
X42914Y-21580D01*
X42952Y-21561D01*
X43047Y-21561D01*
X43085Y-21580D01*
X43104Y-21600D01*
X43123Y-21638D01*
X43123Y-21676D01*
X43104Y-21733D01*
X42876Y-21961D01*
X43123Y-21961D01*
X43257Y-21561D02*
X43523Y-21561D01*
X43352Y-21961D01*
X43514Y-21961D02*
X43514Y-21561D01*
X43666Y-21561D01*
X43704Y-21580D01*
X43723Y-21600D01*
X43742Y-21638D01*
X43742Y-21695D01*
X43723Y-21733D01*
X43704Y-21752D01*
X43666Y-21771D01*
X43514Y-21771D01*
X43895Y-21600D02*
X43914Y-21580D01*
X43952Y-21561D01*
X44047Y-21561D01*
X44085Y-21580D01*
X44104Y-21600D01*
X44123Y-21638D01*
X44123Y-21676D01*
X44104Y-21733D01*
X43876Y-21961D01*
X44123Y-21961D01*
X44352Y-21733D02*
X44314Y-21714D01*
X44295Y-21695D01*
X44276Y-21657D01*
X44276Y-21638D01*
X44295Y-21600D01*
X44314Y-21580D01*
X44352Y-21561D01*
X44428Y-21561D01*
X44466Y-21580D01*
X44485Y-21600D01*
X44504Y-21638D01*
X44504Y-21657D01*
X44485Y-21695D01*
X44466Y-21714D01*
X44428Y-21733D01*
X44352Y-21733D01*
X44314Y-21752D01*
X44295Y-21771D01*
X44276Y-21809D01*
X44276Y-21885D01*
X44295Y-21923D01*
X44314Y-21942D01*
X44352Y-21961D01*
X44428Y-21961D01*
X44466Y-21942D01*
X44485Y-21923D01*
X44504Y-21885D01*
X44504Y-21809D01*
X44485Y-21771D01*
X44466Y-21752D01*
X44428Y-21733D01*
X40514Y-22961D02*
X40514Y-22561D01*
X40666Y-22561D01*
X40704Y-22580D01*
X40723Y-22600D01*
X40742Y-22638D01*
X40742Y-22695D01*
X40723Y-22733D01*
X40704Y-22752D01*
X40666Y-22771D01*
X40514Y-22771D01*
X40895Y-22600D02*
X40914Y-22580D01*
X40952Y-22561D01*
X41047Y-22561D01*
X41085Y-22580D01*
X41104Y-22600D01*
X41123Y-22638D01*
X41123Y-22676D01*
X41104Y-22733D01*
X40876Y-22961D01*
X41123Y-22961D01*
X41314Y-22961D02*
X41390Y-22961D01*
X41428Y-22942D01*
X41447Y-22923D01*
X41485Y-22866D01*
X41504Y-22790D01*
X41504Y-22638D01*
X41485Y-22600D01*
X41466Y-22580D01*
X41428Y-22561D01*
X41352Y-22561D01*
X41314Y-22580D01*
X41295Y-22600D01*
X41276Y-22638D01*
X41276Y-22733D01*
X41295Y-22771D01*
X41314Y-22790D01*
X41352Y-22809D01*
X41428Y-22809D01*
X41466Y-22790D01*
X41485Y-22771D01*
X41504Y-22733D01*
X41514Y-22961D02*
X41514Y-22561D01*
X41666Y-22561D01*
X41704Y-22580D01*
X41723Y-22600D01*
X41742Y-22638D01*
X41742Y-22695D01*
X41723Y-22733D01*
X41704Y-22752D01*
X41666Y-22771D01*
X41514Y-22771D01*
X41876Y-22561D02*
X42123Y-22561D01*
X41990Y-22714D01*
X42047Y-22714D01*
X42085Y-22733D01*
X42104Y-22752D01*
X42123Y-22790D01*
X42123Y-22885D01*
X42104Y-22923D01*
X42085Y-22942D01*
X42047Y-22961D01*
X41933Y-22961D01*
X41895Y-22942D01*
X41876Y-22923D01*
X42371Y-22561D02*
X42409Y-22561D01*
X42447Y-22580D01*
X42466Y-22600D01*
X42485Y-22638D01*
X42504Y-22714D01*
X42504Y-22809D01*
X42485Y-22885D01*
X42466Y-22923D01*
X42447Y-22942D01*
X42409Y-22961D01*
X42371Y-22961D01*
X42333Y-22942D01*
X42314Y-22923D01*
X42295Y-22885D01*
X42276Y-22809D01*
X42276Y-22714D01*
X42295Y-22638D01*
X42314Y-22600D01*
X42333Y-22580D01*
X42371Y-22561D01*
X42514Y-22961D02*
X42514Y-22561D01*
X42666Y-22561D01*
X42704Y-22580D01*
X42723Y-22600D01*
X42742Y-22638D01*
X42742Y-22695D01*
X42723Y-22733D01*
X42704Y-22752D01*
X42666Y-22771D01*
X42514Y-22771D01*
X42876Y-22561D02*
X43123Y-22561D01*
X42990Y-22714D01*
X43047Y-22714D01*
X43085Y-22733D01*
X43104Y-22752D01*
X43123Y-22790D01*
X43123Y-22885D01*
X43104Y-22923D01*
X43085Y-22942D01*
X43047Y-22961D01*
X42933Y-22961D01*
X42895Y-22942D01*
X42876Y-22923D01*
X43504Y-22961D02*
X43276Y-22961D01*
X43390Y-22961D02*
X43390Y-22561D01*
X43352Y-22619D01*
X43314Y-22657D01*
X43276Y-22676D01*
X43514Y-22961D02*
X43514Y-22561D01*
X43666Y-22561D01*
X43704Y-22580D01*
X43723Y-22600D01*
X43742Y-22638D01*
X43742Y-22695D01*
X43723Y-22733D01*
X43704Y-22752D01*
X43666Y-22771D01*
X43514Y-22771D01*
X43876Y-22561D02*
X44123Y-22561D01*
X43990Y-22714D01*
X44047Y-22714D01*
X44085Y-22733D01*
X44104Y-22752D01*
X44123Y-22790D01*
X44123Y-22885D01*
X44104Y-22923D01*
X44085Y-22942D01*
X44047Y-22961D01*
X43933Y-22961D01*
X43895Y-22942D01*
X43876Y-22923D01*
X44276Y-22600D02*
X44295Y-22580D01*
X44333Y-22561D01*
X44428Y-22561D01*
X44466Y-22580D01*
X44485Y-22600D01*
X44504Y-22638D01*
X44504Y-22676D01*
X44485Y-22733D01*
X44257Y-22961D01*
X44504Y-22961D01*
X40514Y-23961D02*
X40514Y-23561D01*
X40666Y-23561D01*
X40704Y-23580D01*
X40723Y-23600D01*
X40742Y-23638D01*
X40742Y-23695D01*
X40723Y-23733D01*
X40704Y-23752D01*
X40666Y-23771D01*
X40514Y-23771D01*
X40876Y-23561D02*
X41123Y-23561D01*
X40990Y-23714D01*
X41047Y-23714D01*
X41085Y-23733D01*
X41104Y-23752D01*
X41123Y-23790D01*
X41123Y-23885D01*
X41104Y-23923D01*
X41085Y-23942D01*
X41047Y-23961D01*
X40933Y-23961D01*
X40895Y-23942D01*
X40876Y-23923D01*
X41257Y-23561D02*
X41504Y-23561D01*
X41371Y-23714D01*
X41428Y-23714D01*
X41466Y-23733D01*
X41485Y-23752D01*
X41504Y-23790D01*
X41504Y-23885D01*
X41485Y-23923D01*
X41466Y-23942D01*
X41428Y-23961D01*
X41314Y-23961D01*
X41276Y-23942D01*
X41257Y-23923D01*
X41514Y-23961D02*
X41514Y-23561D01*
X41666Y-23561D01*
X41704Y-23580D01*
X41723Y-23600D01*
X41742Y-23638D01*
X41742Y-23695D01*
X41723Y-23733D01*
X41704Y-23752D01*
X41666Y-23771D01*
X41514Y-23771D01*
X41876Y-23561D02*
X42123Y-23561D01*
X41990Y-23714D01*
X42047Y-23714D01*
X42085Y-23733D01*
X42104Y-23752D01*
X42123Y-23790D01*
X42123Y-23885D01*
X42104Y-23923D01*
X42085Y-23942D01*
X42047Y-23961D01*
X41933Y-23961D01*
X41895Y-23942D01*
X41876Y-23923D01*
X42466Y-23695D02*
X42466Y-23961D01*
X42371Y-23542D02*
X42276Y-23828D01*
X42523Y-23828D01*
X42514Y-23961D02*
X42514Y-23561D01*
X42666Y-23561D01*
X42704Y-23580D01*
X42723Y-23600D01*
X42742Y-23638D01*
X42742Y-23695D01*
X42723Y-23733D01*
X42704Y-23752D01*
X42666Y-23771D01*
X42514Y-23771D01*
X42876Y-23561D02*
X43123Y-23561D01*
X42990Y-23714D01*
X43047Y-23714D01*
X43085Y-23733D01*
X43104Y-23752D01*
X43123Y-23790D01*
X43123Y-23885D01*
X43104Y-23923D01*
X43085Y-23942D01*
X43047Y-23961D01*
X42933Y-23961D01*
X42895Y-23942D01*
X42876Y-23923D01*
X43485Y-23561D02*
X43295Y-23561D01*
X43276Y-23752D01*
X43295Y-23733D01*
X43333Y-23714D01*
X43428Y-23714D01*
X43466Y-23733D01*
X43485Y-23752D01*
X43504Y-23790D01*
X43504Y-23885D01*
X43485Y-23923D01*
X43466Y-23942D01*
X43428Y-23961D01*
X43333Y-23961D01*
X43295Y-23942D01*
X43276Y-23923D01*
X43514Y-23961D02*
X43514Y-23561D01*
X43666Y-23561D01*
X43704Y-23580D01*
X43723Y-23600D01*
X43742Y-23638D01*
X43742Y-23695D01*
X43723Y-23733D01*
X43704Y-23752D01*
X43666Y-23771D01*
X43514Y-23771D01*
X43876Y-23561D02*
X44123Y-23561D01*
X43990Y-23714D01*
X44047Y-23714D01*
X44085Y-23733D01*
X44104Y-23752D01*
X44123Y-23790D01*
X44123Y-23885D01*
X44104Y-23923D01*
X44085Y-23942D01*
X44047Y-23961D01*
X43933Y-23961D01*
X43895Y-23942D01*
X43876Y-23923D01*
X44466Y-23561D02*
X44390Y-23561D01*
X44352Y-23580D01*
X44333Y-23600D01*
X44295Y-23657D01*
X44276Y-23733D01*
X44276Y-23885D01*
X44295Y-23923D01*
X44314Y-23942D01*
X44352Y-23961D01*
X44428Y-23961D01*
X44466Y-23942D01*
X44485Y-23923D01*
X44504Y-23885D01*
X44504Y-23790D01*
X44485Y-23752D01*
X44466Y-23733D01*
X44428Y-23714D01*
X44352Y-23714D01*
X44314Y-23733D01*
X44295Y-23752D01*
X44276Y-23790D01*
X40514Y-24961D02*
X40514Y-24561D01*
X40666Y-24561D01*
X40704Y-24580D01*
X40723Y-24600D01*
X40742Y-24638D01*
X40742Y-24695D01*
X40723Y-24733D01*
X40704Y-24752D01*
X40666Y-24771D01*
X40514Y-24771D01*
X40876Y-24561D02*
X41123Y-24561D01*
X40990Y-24714D01*
X41047Y-24714D01*
X41085Y-24733D01*
X41104Y-24752D01*
X41123Y-24790D01*
X41123Y-24885D01*
X41104Y-24923D01*
X41085Y-24942D01*
X41047Y-24961D01*
X40933Y-24961D01*
X40895Y-24942D01*
X40876Y-24923D01*
X41257Y-24561D02*
X41523Y-24561D01*
X41352Y-24961D01*
X41514Y-24961D02*
X41514Y-24561D01*
X41666Y-24561D01*
X41704Y-24580D01*
X41723Y-24600D01*
X41742Y-24638D01*
X41742Y-24695D01*
X41723Y-24733D01*
X41704Y-24752D01*
X41666Y-24771D01*
X41514Y-24771D01*
X41876Y-24561D02*
X42123Y-24561D01*
X41990Y-24714D01*
X42047Y-24714D01*
X42085Y-24733D01*
X42104Y-24752D01*
X42123Y-24790D01*
X42123Y-24885D01*
X42104Y-24923D01*
X42085Y-24942D01*
X42047Y-24961D01*
X41933Y-24961D01*
X41895Y-24942D01*
X41876Y-24923D01*
X42352Y-24733D02*
X42314Y-24714D01*
X42295Y-24695D01*
X42276Y-24657D01*
X42276Y-24638D01*
X42295Y-24600D01*
X42314Y-24580D01*
X42352Y-24561D01*
X42428Y-24561D01*
X42466Y-24580D01*
X42485Y-24600D01*
X42504Y-24638D01*
X42504Y-24657D01*
X42485Y-24695D01*
X42466Y-24714D01*
X42428Y-24733D01*
X42352Y-24733D01*
X42314Y-24752D01*
X42295Y-24771D01*
X42276Y-24809D01*
X42276Y-24885D01*
X42295Y-24923D01*
X42314Y-24942D01*
X42352Y-24961D01*
X42428Y-24961D01*
X42466Y-24942D01*
X42485Y-24923D01*
X42504Y-24885D01*
X42504Y-24809D01*
X42485Y-24771D01*
X42466Y-24752D01*
X42428Y-24733D01*
X42514Y-24961D02*
X42514Y-24561D01*
X42666Y-24561D01*
X42704Y-24580D01*
X42723Y-24600D01*
X42742Y-24638D01*
X42742Y-24695D01*
X42723Y-24733D01*
X42704Y-24752D01*
X42666Y-24771D01*
X42514Y-24771D01*
X42876Y-24561D02*
X43123Y-24561D01*
X42990Y-24714D01*
X43047Y-24714D01*
X43085Y-24733D01*
X43104Y-24752D01*
X43123Y-24790D01*
X43123Y-24885D01*
X43104Y-24923D01*
X43085Y-24942D01*
X43047Y-24961D01*
X42933Y-24961D01*
X42895Y-24942D01*
X42876Y-24923D01*
X43314Y-24961D02*
X43390Y-24961D01*
X43428Y-24942D01*
X43447Y-24923D01*
X43485Y-24866D01*
X43504Y-24790D01*
X43504Y-24638D01*
X43485Y-24600D01*
X43466Y-24580D01*
X43428Y-24561D01*
X43352Y-24561D01*
X43314Y-24580D01*
X43295Y-24600D01*
X43276Y-24638D01*
X43276Y-24733D01*
X43295Y-24771D01*
X43314Y-24790D01*
X43352Y-24809D01*
X43428Y-24809D01*
X43466Y-24790D01*
X43485Y-24771D01*
X43504Y-24733D01*
X43514Y-24961D02*
X43514Y-24561D01*
X43666Y-24561D01*
X43704Y-24580D01*
X43723Y-24600D01*
X43742Y-24638D01*
X43742Y-24695D01*
X43723Y-24733D01*
X43704Y-24752D01*
X43666Y-24771D01*
X43514Y-24771D01*
X44085Y-24695D02*
X44085Y-24961D01*
X43990Y-24542D02*
X43895Y-24828D01*
X44142Y-24828D01*
X44371Y-24561D02*
X44409Y-24561D01*
X44447Y-24580D01*
X44466Y-24600D01*
X44485Y-24638D01*
X44504Y-24714D01*
X44504Y-24809D01*
X44485Y-24885D01*
X44466Y-24923D01*
X44447Y-24942D01*
X44409Y-24961D01*
X44371Y-24961D01*
X44333Y-24942D01*
X44314Y-24923D01*
X44295Y-24885D01*
X44276Y-24809D01*
X44276Y-24714D01*
X44295Y-24638D01*
X44314Y-24600D01*
X44333Y-24580D01*
X44371Y-24561D01*
X40514Y-25961D02*
X40514Y-25561D01*
X40666Y-25561D01*
X40704Y-25580D01*
X40723Y-25600D01*
X40742Y-25638D01*
X40742Y-25695D01*
X40723Y-25733D01*
X40704Y-25752D01*
X40666Y-25771D01*
X40514Y-25771D01*
X41085Y-25695D02*
X41085Y-25961D01*
X40990Y-25542D02*
X40895Y-25828D01*
X41142Y-25828D01*
X41504Y-25961D02*
X41276Y-25961D01*
X41390Y-25961D02*
X41390Y-25561D01*
X41352Y-25619D01*
X41314Y-25657D01*
X41276Y-25676D01*
X41514Y-25961D02*
X41514Y-25561D01*
X41666Y-25561D01*
X41704Y-25580D01*
X41723Y-25600D01*
X41742Y-25638D01*
X41742Y-25695D01*
X41723Y-25733D01*
X41704Y-25752D01*
X41666Y-25771D01*
X41514Y-25771D01*
X42085Y-25695D02*
X42085Y-25961D01*
X41990Y-25542D02*
X41895Y-25828D01*
X42142Y-25828D01*
X42276Y-25600D02*
X42295Y-25580D01*
X42333Y-25561D01*
X42428Y-25561D01*
X42466Y-25580D01*
X42485Y-25600D01*
X42504Y-25638D01*
X42504Y-25676D01*
X42485Y-25733D01*
X42257Y-25961D01*
X42504Y-25961D01*
X42514Y-25961D02*
X42514Y-25561D01*
X42666Y-25561D01*
X42704Y-25580D01*
X42723Y-25600D01*
X42742Y-25638D01*
X42742Y-25695D01*
X42723Y-25733D01*
X42704Y-25752D01*
X42666Y-25771D01*
X42514Y-25771D01*
X43085Y-25695D02*
X43085Y-25961D01*
X42990Y-25542D02*
X42895Y-25828D01*
X43142Y-25828D01*
X43257Y-25561D02*
X43504Y-25561D01*
X43371Y-25714D01*
X43428Y-25714D01*
X43466Y-25733D01*
X43485Y-25752D01*
X43504Y-25790D01*
X43504Y-25885D01*
X43485Y-25923D01*
X43466Y-25942D01*
X43428Y-25961D01*
X43314Y-25961D01*
X43276Y-25942D01*
X43257Y-25923D01*
X43514Y-25961D02*
X43514Y-25561D01*
X43666Y-25561D01*
X43704Y-25580D01*
X43723Y-25600D01*
X43742Y-25638D01*
X43742Y-25695D01*
X43723Y-25733D01*
X43704Y-25752D01*
X43666Y-25771D01*
X43514Y-25771D01*
X44085Y-25695D02*
X44085Y-25961D01*
X43990Y-25542D02*
X43895Y-25828D01*
X44142Y-25828D01*
X44466Y-25695D02*
X44466Y-25961D01*
X44371Y-25542D02*
X44276Y-25828D01*
X44523Y-25828D01*
X40514Y-26961D02*
X40514Y-26561D01*
X40666Y-26561D01*
X40704Y-26580D01*
X40723Y-26600D01*
X40742Y-26638D01*
X40742Y-26695D01*
X40723Y-26733D01*
X40704Y-26752D01*
X40666Y-26771D01*
X40514Y-26771D01*
X41085Y-26695D02*
X41085Y-26961D01*
X40990Y-26542D02*
X40895Y-26828D01*
X41142Y-26828D01*
X41485Y-26561D02*
X41295Y-26561D01*
X41276Y-26752D01*
X41295Y-26733D01*
X41333Y-26714D01*
X41428Y-26714D01*
X41466Y-26733D01*
X41485Y-26752D01*
X41504Y-26790D01*
X41504Y-26885D01*
X41485Y-26923D01*
X41466Y-26942D01*
X41428Y-26961D01*
X41333Y-26961D01*
X41295Y-26942D01*
X41276Y-26923D01*
X41514Y-26961D02*
X41514Y-26561D01*
X41666Y-26561D01*
X41704Y-26580D01*
X41723Y-26600D01*
X41742Y-26638D01*
X41742Y-26695D01*
X41723Y-26733D01*
X41704Y-26752D01*
X41666Y-26771D01*
X41514Y-26771D01*
X42085Y-26695D02*
X42085Y-26961D01*
X41990Y-26542D02*
X41895Y-26828D01*
X42142Y-26828D01*
X42466Y-26561D02*
X42390Y-26561D01*
X42352Y-26580D01*
X42333Y-26600D01*
X42295Y-26657D01*
X42276Y-26733D01*
X42276Y-26885D01*
X42295Y-26923D01*
X42314Y-26942D01*
X42352Y-26961D01*
X42428Y-26961D01*
X42466Y-26942D01*
X42485Y-26923D01*
X42504Y-26885D01*
X42504Y-26790D01*
X42485Y-26752D01*
X42466Y-26733D01*
X42428Y-26714D01*
X42352Y-26714D01*
X42314Y-26733D01*
X42295Y-26752D01*
X42276Y-26790D01*
X42514Y-26961D02*
X42514Y-26561D01*
X42666Y-26561D01*
X42704Y-26580D01*
X42723Y-26600D01*
X42742Y-26638D01*
X42742Y-26695D01*
X42723Y-26733D01*
X42704Y-26752D01*
X42666Y-26771D01*
X42514Y-26771D01*
X43085Y-26695D02*
X43085Y-26961D01*
X42990Y-26542D02*
X42895Y-26828D01*
X43142Y-26828D01*
X43257Y-26561D02*
X43523Y-26561D01*
X43352Y-26961D01*
X43514Y-26961D02*
X43514Y-26561D01*
X43666Y-26561D01*
X43704Y-26580D01*
X43723Y-26600D01*
X43742Y-26638D01*
X43742Y-26695D01*
X43723Y-26733D01*
X43704Y-26752D01*
X43666Y-26771D01*
X43514Y-26771D01*
X44085Y-26695D02*
X44085Y-26961D01*
X43990Y-26542D02*
X43895Y-26828D01*
X44142Y-26828D01*
X44352Y-26733D02*
X44314Y-26714D01*
X44295Y-26695D01*
X44276Y-26657D01*
X44276Y-26638D01*
X44295Y-26600D01*
X44314Y-26580D01*
X44352Y-26561D01*
X44428Y-26561D01*
X44466Y-26580D01*
X44485Y-26600D01*
X44504Y-26638D01*
X44504Y-26657D01*
X44485Y-26695D01*
X44466Y-26714D01*
X44428Y-26733D01*
X44352Y-26733D01*
X44314Y-26752D01*
X44295Y-26771D01*
X44276Y-26809D01*
X44276Y-26885D01*
X44295Y-26923D01*
X44314Y-26942D01*
X44352Y-26961D01*
X44428Y-26961D01*
X44466Y-26942D01*
X44485Y-26923D01*
X44504Y-26885D01*
X44504Y-26809D01*
X44485Y-26771D01*
X44466Y-26752D01*
X44428Y-26733D01*
X40514Y-27961D02*
X40514Y-27561D01*
X40666Y-27561D01*
X40704Y-27580D01*
X40723Y-27600D01*
X40742Y-27638D01*
X40742Y-27695D01*
X40723Y-27733D01*
X40704Y-27752D01*
X40666Y-27771D01*
X40514Y-27771D01*
X41085Y-27695D02*
X41085Y-27961D01*
X40990Y-27542D02*
X40895Y-27828D01*
X41142Y-27828D01*
X41314Y-27961D02*
X41390Y-27961D01*
X41428Y-27942D01*
X41447Y-27923D01*
X41485Y-27866D01*
X41504Y-27790D01*
X41504Y-27638D01*
X41485Y-27600D01*
X41466Y-27580D01*
X41428Y-27561D01*
X41352Y-27561D01*
X41314Y-27580D01*
X41295Y-27600D01*
X41276Y-27638D01*
X41276Y-27733D01*
X41295Y-27771D01*
X41314Y-27790D01*
X41352Y-27809D01*
X41428Y-27809D01*
X41466Y-27790D01*
X41485Y-27771D01*
X41504Y-27733D01*
X41514Y-27961D02*
X41514Y-27561D01*
X41666Y-27561D01*
X41704Y-27580D01*
X41723Y-27600D01*
X41742Y-27638D01*
X41742Y-27695D01*
X41723Y-27733D01*
X41704Y-27752D01*
X41666Y-27771D01*
X41514Y-27771D01*
X42104Y-27561D02*
X41914Y-27561D01*
X41895Y-27752D01*
X41914Y-27733D01*
X41952Y-27714D01*
X42047Y-27714D01*
X42085Y-27733D01*
X42104Y-27752D01*
X42123Y-27790D01*
X42123Y-27885D01*
X42104Y-27923D01*
X42085Y-27942D01*
X42047Y-27961D01*
X41952Y-27961D01*
X41914Y-27942D01*
X41895Y-27923D01*
X42371Y-27561D02*
X42409Y-27561D01*
X42447Y-27580D01*
X42466Y-27600D01*
X42485Y-27638D01*
X42504Y-27714D01*
X42504Y-27809D01*
X42485Y-27885D01*
X42466Y-27923D01*
X42447Y-27942D01*
X42409Y-27961D01*
X42371Y-27961D01*
X42333Y-27942D01*
X42314Y-27923D01*
X42295Y-27885D01*
X42276Y-27809D01*
X42276Y-27714D01*
X42295Y-27638D01*
X42314Y-27600D01*
X42333Y-27580D01*
X42371Y-27561D01*
X42514Y-27961D02*
X42514Y-27561D01*
X42666Y-27561D01*
X42704Y-27580D01*
X42723Y-27600D01*
X42742Y-27638D01*
X42742Y-27695D01*
X42723Y-27733D01*
X42704Y-27752D01*
X42666Y-27771D01*
X42514Y-27771D01*
X43104Y-27561D02*
X42914Y-27561D01*
X42895Y-27752D01*
X42914Y-27733D01*
X42952Y-27714D01*
X43047Y-27714D01*
X43085Y-27733D01*
X43104Y-27752D01*
X43123Y-27790D01*
X43123Y-27885D01*
X43104Y-27923D01*
X43085Y-27942D01*
X43047Y-27961D01*
X42952Y-27961D01*
X42914Y-27942D01*
X42895Y-27923D01*
X43504Y-27961D02*
X43276Y-27961D01*
X43390Y-27961D02*
X43390Y-27561D01*
X43352Y-27619D01*
X43314Y-27657D01*
X43276Y-27676D01*
X43514Y-27961D02*
X43514Y-27561D01*
X43666Y-27561D01*
X43704Y-27580D01*
X43723Y-27600D01*
X43742Y-27638D01*
X43742Y-27695D01*
X43723Y-27733D01*
X43704Y-27752D01*
X43666Y-27771D01*
X43514Y-27771D01*
X44104Y-27561D02*
X43914Y-27561D01*
X43895Y-27752D01*
X43914Y-27733D01*
X43952Y-27714D01*
X44047Y-27714D01*
X44085Y-27733D01*
X44104Y-27752D01*
X44123Y-27790D01*
X44123Y-27885D01*
X44104Y-27923D01*
X44085Y-27942D01*
X44047Y-27961D01*
X43952Y-27961D01*
X43914Y-27942D01*
X43895Y-27923D01*
X44276Y-27600D02*
X44295Y-27580D01*
X44333Y-27561D01*
X44428Y-27561D01*
X44466Y-27580D01*
X44485Y-27600D01*
X44504Y-27638D01*
X44504Y-27676D01*
X44485Y-27733D01*
X44257Y-27961D01*
X44504Y-27961D01*
X40514Y-28961D02*
X40514Y-28561D01*
X40666Y-28561D01*
X40704Y-28580D01*
X40723Y-28600D01*
X40742Y-28638D01*
X40742Y-28695D01*
X40723Y-28733D01*
X40704Y-28752D01*
X40666Y-28771D01*
X40514Y-28771D01*
X41104Y-28561D02*
X40914Y-28561D01*
X40895Y-28752D01*
X40914Y-28733D01*
X40952Y-28714D01*
X41047Y-28714D01*
X41085Y-28733D01*
X41104Y-28752D01*
X41123Y-28790D01*
X41123Y-28885D01*
X41104Y-28923D01*
X41085Y-28942D01*
X41047Y-28961D01*
X40952Y-28961D01*
X40914Y-28942D01*
X40895Y-28923D01*
X41257Y-28561D02*
X41504Y-28561D01*
X41371Y-28714D01*
X41428Y-28714D01*
X41466Y-28733D01*
X41485Y-28752D01*
X41504Y-28790D01*
X41504Y-28885D01*
X41485Y-28923D01*
X41466Y-28942D01*
X41428Y-28961D01*
X41314Y-28961D01*
X41276Y-28942D01*
X41257Y-28923D01*
X41514Y-28961D02*
X41514Y-28561D01*
X41666Y-28561D01*
X41704Y-28580D01*
X41723Y-28600D01*
X41742Y-28638D01*
X41742Y-28695D01*
X41723Y-28733D01*
X41704Y-28752D01*
X41666Y-28771D01*
X41514Y-28771D01*
X42104Y-28561D02*
X41914Y-28561D01*
X41895Y-28752D01*
X41914Y-28733D01*
X41952Y-28714D01*
X42047Y-28714D01*
X42085Y-28733D01*
X42104Y-28752D01*
X42123Y-28790D01*
X42123Y-28885D01*
X42104Y-28923D01*
X42085Y-28942D01*
X42047Y-28961D01*
X41952Y-28961D01*
X41914Y-28942D01*
X41895Y-28923D01*
X42466Y-28695D02*
X42466Y-28961D01*
X42371Y-28542D02*
X42276Y-28828D01*
X42523Y-28828D01*
X42514Y-28961D02*
X42514Y-28561D01*
X42666Y-28561D01*
X42704Y-28580D01*
X42723Y-28600D01*
X42742Y-28638D01*
X42742Y-28695D01*
X42723Y-28733D01*
X42704Y-28752D01*
X42666Y-28771D01*
X42514Y-28771D01*
X43104Y-28561D02*
X42914Y-28561D01*
X42895Y-28752D01*
X42914Y-28733D01*
X42952Y-28714D01*
X43047Y-28714D01*
X43085Y-28733D01*
X43104Y-28752D01*
X43123Y-28790D01*
X43123Y-28885D01*
X43104Y-28923D01*
X43085Y-28942D01*
X43047Y-28961D01*
X42952Y-28961D01*
X42914Y-28942D01*
X42895Y-28923D01*
X43485Y-28561D02*
X43295Y-28561D01*
X43276Y-28752D01*
X43295Y-28733D01*
X43333Y-28714D01*
X43428Y-28714D01*
X43466Y-28733D01*
X43485Y-28752D01*
X43504Y-28790D01*
X43504Y-28885D01*
X43485Y-28923D01*
X43466Y-28942D01*
X43428Y-28961D01*
X43333Y-28961D01*
X43295Y-28942D01*
X43276Y-28923D01*
X43514Y-28961D02*
X43514Y-28561D01*
X43666Y-28561D01*
X43704Y-28580D01*
X43723Y-28600D01*
X43742Y-28638D01*
X43742Y-28695D01*
X43723Y-28733D01*
X43704Y-28752D01*
X43666Y-28771D01*
X43514Y-28771D01*
X44104Y-28561D02*
X43914Y-28561D01*
X43895Y-28752D01*
X43914Y-28733D01*
X43952Y-28714D01*
X44047Y-28714D01*
X44085Y-28733D01*
X44104Y-28752D01*
X44123Y-28790D01*
X44123Y-28885D01*
X44104Y-28923D01*
X44085Y-28942D01*
X44047Y-28961D01*
X43952Y-28961D01*
X43914Y-28942D01*
X43895Y-28923D01*
X44466Y-28561D02*
X44390Y-28561D01*
X44352Y-28580D01*
X44333Y-28600D01*
X44295Y-28657D01*
X44276Y-28733D01*
X44276Y-28885D01*
X44295Y-28923D01*
X44314Y-28942D01*
X44352Y-28961D01*
X44428Y-28961D01*
X44466Y-28942D01*
X44485Y-28923D01*
X44504Y-28885D01*
X44504Y-28790D01*
X44485Y-28752D01*
X44466Y-28733D01*
X44428Y-28714D01*
X44352Y-28714D01*
X44314Y-28733D01*
X44295Y-28752D01*
X44276Y-28790D01*
X40514Y-29961D02*
X40514Y-29561D01*
X40666Y-29561D01*
X40704Y-29580D01*
X40723Y-29600D01*
X40742Y-29638D01*
X40742Y-29695D01*
X40723Y-29733D01*
X40704Y-29752D01*
X40666Y-29771D01*
X40514Y-29771D01*
X41104Y-29561D02*
X40914Y-29561D01*
X40895Y-29752D01*
X40914Y-29733D01*
X40952Y-29714D01*
X41047Y-29714D01*
X41085Y-29733D01*
X41104Y-29752D01*
X41123Y-29790D01*
X41123Y-29885D01*
X41104Y-29923D01*
X41085Y-29942D01*
X41047Y-29961D01*
X40952Y-29961D01*
X40914Y-29942D01*
X40895Y-29923D01*
X41257Y-29561D02*
X41523Y-29561D01*
X41352Y-29961D01*
X41514Y-29961D02*
X41514Y-29561D01*
X41666Y-29561D01*
X41704Y-29580D01*
X41723Y-29600D01*
X41742Y-29638D01*
X41742Y-29695D01*
X41723Y-29733D01*
X41704Y-29752D01*
X41666Y-29771D01*
X41514Y-29771D01*
X42104Y-29561D02*
X41914Y-29561D01*
X41895Y-29752D01*
X41914Y-29733D01*
X41952Y-29714D01*
X42047Y-29714D01*
X42085Y-29733D01*
X42104Y-29752D01*
X42123Y-29790D01*
X42123Y-29885D01*
X42104Y-29923D01*
X42085Y-29942D01*
X42047Y-29961D01*
X41952Y-29961D01*
X41914Y-29942D01*
X41895Y-29923D01*
X42352Y-29733D02*
X42314Y-29714D01*
X42295Y-29695D01*
X42276Y-29657D01*
X42276Y-29638D01*
X42295Y-29600D01*
X42314Y-29580D01*
X42352Y-29561D01*
X42428Y-29561D01*
X42466Y-29580D01*
X42485Y-29600D01*
X42504Y-29638D01*
X42504Y-29657D01*
X42485Y-29695D01*
X42466Y-29714D01*
X42428Y-29733D01*
X42352Y-29733D01*
X42314Y-29752D01*
X42295Y-29771D01*
X42276Y-29809D01*
X42276Y-29885D01*
X42295Y-29923D01*
X42314Y-29942D01*
X42352Y-29961D01*
X42428Y-29961D01*
X42466Y-29942D01*
X42485Y-29923D01*
X42504Y-29885D01*
X42504Y-29809D01*
X42485Y-29771D01*
X42466Y-29752D01*
X42428Y-29733D01*
X42514Y-29961D02*
X42514Y-29561D01*
X42666Y-29561D01*
X42704Y-29580D01*
X42723Y-29600D01*
X42742Y-29638D01*
X42742Y-29695D01*
X42723Y-29733D01*
X42704Y-29752D01*
X42666Y-29771D01*
X42514Y-29771D01*
X43104Y-29561D02*
X42914Y-29561D01*
X42895Y-29752D01*
X42914Y-29733D01*
X42952Y-29714D01*
X43047Y-29714D01*
X43085Y-29733D01*
X43104Y-29752D01*
X43123Y-29790D01*
X43123Y-29885D01*
X43104Y-29923D01*
X43085Y-29942D01*
X43047Y-29961D01*
X42952Y-29961D01*
X42914Y-29942D01*
X42895Y-29923D01*
X43314Y-29961D02*
X43390Y-29961D01*
X43428Y-29942D01*
X43447Y-29923D01*
X43485Y-29866D01*
X43504Y-29790D01*
X43504Y-29638D01*
X43485Y-29600D01*
X43466Y-29580D01*
X43428Y-29561D01*
X43352Y-29561D01*
X43314Y-29580D01*
X43295Y-29600D01*
X43276Y-29638D01*
X43276Y-29733D01*
X43295Y-29771D01*
X43314Y-29790D01*
X43352Y-29809D01*
X43428Y-29809D01*
X43466Y-29790D01*
X43485Y-29771D01*
X43504Y-29733D01*
X43514Y-29961D02*
X43514Y-29561D01*
X43666Y-29561D01*
X43704Y-29580D01*
X43723Y-29600D01*
X43742Y-29638D01*
X43742Y-29695D01*
X43723Y-29733D01*
X43704Y-29752D01*
X43666Y-29771D01*
X43514Y-29771D01*
X44085Y-29561D02*
X44009Y-29561D01*
X43971Y-29580D01*
X43952Y-29600D01*
X43914Y-29657D01*
X43895Y-29733D01*
X43895Y-29885D01*
X43914Y-29923D01*
X43933Y-29942D01*
X43971Y-29961D01*
X44047Y-29961D01*
X44085Y-29942D01*
X44104Y-29923D01*
X44123Y-29885D01*
X44123Y-29790D01*
X44104Y-29752D01*
X44085Y-29733D01*
X44047Y-29714D01*
X43971Y-29714D01*
X43933Y-29733D01*
X43914Y-29752D01*
X43895Y-29790D01*
X44371Y-29561D02*
X44409Y-29561D01*
X44447Y-29580D01*
X44466Y-29600D01*
X44485Y-29638D01*
X44504Y-29714D01*
X44504Y-29809D01*
X44485Y-29885D01*
X44466Y-29923D01*
X44447Y-29942D01*
X44409Y-29961D01*
X44371Y-29961D01*
X44333Y-29942D01*
X44314Y-29923D01*
X44295Y-29885D01*
X44276Y-29809D01*
X44276Y-29714D01*
X44295Y-29638D01*
X44314Y-29600D01*
X44333Y-29580D01*
X44371Y-29561D01*
X15514Y-29961D02*
X15514Y-29561D01*
X15666Y-29561D01*
X15704Y-29580D01*
X15723Y-29600D01*
X15742Y-29638D01*
X15742Y-29695D01*
X15723Y-29733D01*
X15704Y-29752D01*
X15666Y-29771D01*
X15514Y-29771D01*
X16085Y-29561D02*
X16009Y-29561D01*
X15971Y-29580D01*
X15952Y-29600D01*
X15914Y-29657D01*
X15895Y-29733D01*
X15895Y-29885D01*
X15914Y-29923D01*
X15933Y-29942D01*
X15971Y-29961D01*
X16047Y-29961D01*
X16085Y-29942D01*
X16104Y-29923D01*
X16123Y-29885D01*
X16123Y-29790D01*
X16104Y-29752D01*
X16085Y-29733D01*
X16047Y-29714D01*
X15971Y-29714D01*
X15933Y-29733D01*
X15914Y-29752D01*
X15895Y-29790D01*
X16504Y-29961D02*
X16276Y-29961D01*
X16390Y-29961D02*
X16390Y-29561D01*
X16352Y-29619D01*
X16314Y-29657D01*
X16276Y-29676D01*
X16514Y-29961D02*
X16514Y-29561D01*
X16666Y-29561D01*
X16704Y-29580D01*
X16723Y-29600D01*
X16742Y-29638D01*
X16742Y-29695D01*
X16723Y-29733D01*
X16704Y-29752D01*
X16666Y-29771D01*
X16514Y-29771D01*
X17085Y-29561D02*
X17009Y-29561D01*
X16971Y-29580D01*
X16952Y-29600D01*
X16914Y-29657D01*
X16895Y-29733D01*
X16895Y-29885D01*
X16914Y-29923D01*
X16933Y-29942D01*
X16971Y-29961D01*
X17047Y-29961D01*
X17085Y-29942D01*
X17104Y-29923D01*
X17123Y-29885D01*
X17123Y-29790D01*
X17104Y-29752D01*
X17085Y-29733D01*
X17047Y-29714D01*
X16971Y-29714D01*
X16933Y-29733D01*
X16914Y-29752D01*
X16895Y-29790D01*
X17276Y-29600D02*
X17295Y-29580D01*
X17333Y-29561D01*
X17428Y-29561D01*
X17466Y-29580D01*
X17485Y-29600D01*
X17504Y-29638D01*
X17504Y-29676D01*
X17485Y-29733D01*
X17257Y-29961D01*
X17504Y-29961D01*
X17514Y-29961D02*
X17514Y-29561D01*
X17666Y-29561D01*
X17704Y-29580D01*
X17723Y-29600D01*
X17742Y-29638D01*
X17742Y-29695D01*
X17723Y-29733D01*
X17704Y-29752D01*
X17666Y-29771D01*
X17514Y-29771D01*
X18085Y-29561D02*
X18009Y-29561D01*
X17971Y-29580D01*
X17952Y-29600D01*
X17914Y-29657D01*
X17895Y-29733D01*
X17895Y-29885D01*
X17914Y-29923D01*
X17933Y-29942D01*
X17971Y-29961D01*
X18047Y-29961D01*
X18085Y-29942D01*
X18104Y-29923D01*
X18123Y-29885D01*
X18123Y-29790D01*
X18104Y-29752D01*
X18085Y-29733D01*
X18047Y-29714D01*
X17971Y-29714D01*
X17933Y-29733D01*
X17914Y-29752D01*
X17895Y-29790D01*
X18257Y-29561D02*
X18504Y-29561D01*
X18371Y-29714D01*
X18428Y-29714D01*
X18466Y-29733D01*
X18485Y-29752D01*
X18504Y-29790D01*
X18504Y-29885D01*
X18485Y-29923D01*
X18466Y-29942D01*
X18428Y-29961D01*
X18314Y-29961D01*
X18276Y-29942D01*
X18257Y-29923D01*
X18514Y-29961D02*
X18514Y-29561D01*
X18666Y-29561D01*
X18704Y-29580D01*
X18723Y-29600D01*
X18742Y-29638D01*
X18742Y-29695D01*
X18723Y-29733D01*
X18704Y-29752D01*
X18666Y-29771D01*
X18514Y-29771D01*
X19085Y-29561D02*
X19009Y-29561D01*
X18971Y-29580D01*
X18952Y-29600D01*
X18914Y-29657D01*
X18895Y-29733D01*
X18895Y-29885D01*
X18914Y-29923D01*
X18933Y-29942D01*
X18971Y-29961D01*
X19047Y-29961D01*
X19085Y-29942D01*
X19104Y-29923D01*
X19123Y-29885D01*
X19123Y-29790D01*
X19104Y-29752D01*
X19085Y-29733D01*
X19047Y-29714D01*
X18971Y-29714D01*
X18933Y-29733D01*
X18914Y-29752D01*
X18895Y-29790D01*
X19466Y-29695D02*
X19466Y-29961D01*
X19371Y-29542D02*
X19276Y-29828D01*
X19523Y-29828D01*
X15514Y-28961D02*
X15514Y-28561D01*
X15666Y-28561D01*
X15704Y-28580D01*
X15723Y-28600D01*
X15742Y-28638D01*
X15742Y-28695D01*
X15723Y-28733D01*
X15704Y-28752D01*
X15666Y-28771D01*
X15514Y-28771D01*
X16085Y-28561D02*
X16009Y-28561D01*
X15971Y-28580D01*
X15952Y-28600D01*
X15914Y-28657D01*
X15895Y-28733D01*
X15895Y-28885D01*
X15914Y-28923D01*
X15933Y-28942D01*
X15971Y-28961D01*
X16047Y-28961D01*
X16085Y-28942D01*
X16104Y-28923D01*
X16123Y-28885D01*
X16123Y-28790D01*
X16104Y-28752D01*
X16085Y-28733D01*
X16047Y-28714D01*
X15971Y-28714D01*
X15933Y-28733D01*
X15914Y-28752D01*
X15895Y-28790D01*
X16485Y-28561D02*
X16295Y-28561D01*
X16276Y-28752D01*
X16295Y-28733D01*
X16333Y-28714D01*
X16428Y-28714D01*
X16466Y-28733D01*
X16485Y-28752D01*
X16504Y-28790D01*
X16504Y-28885D01*
X16485Y-28923D01*
X16466Y-28942D01*
X16428Y-28961D01*
X16333Y-28961D01*
X16295Y-28942D01*
X16276Y-28923D01*
X16514Y-28961D02*
X16514Y-28561D01*
X16666Y-28561D01*
X16704Y-28580D01*
X16723Y-28600D01*
X16742Y-28638D01*
X16742Y-28695D01*
X16723Y-28733D01*
X16704Y-28752D01*
X16666Y-28771D01*
X16514Y-28771D01*
X17085Y-28561D02*
X17009Y-28561D01*
X16971Y-28580D01*
X16952Y-28600D01*
X16914Y-28657D01*
X16895Y-28733D01*
X16895Y-28885D01*
X16914Y-28923D01*
X16933Y-28942D01*
X16971Y-28961D01*
X17047Y-28961D01*
X17085Y-28942D01*
X17104Y-28923D01*
X17123Y-28885D01*
X17123Y-28790D01*
X17104Y-28752D01*
X17085Y-28733D01*
X17047Y-28714D01*
X16971Y-28714D01*
X16933Y-28733D01*
X16914Y-28752D01*
X16895Y-28790D01*
X17466Y-28561D02*
X17390Y-28561D01*
X17352Y-28580D01*
X17333Y-28600D01*
X17295Y-28657D01*
X17276Y-28733D01*
X17276Y-28885D01*
X17295Y-28923D01*
X17314Y-28942D01*
X17352Y-28961D01*
X17428Y-28961D01*
X17466Y-28942D01*
X17485Y-28923D01*
X17504Y-28885D01*
X17504Y-28790D01*
X17485Y-28752D01*
X17466Y-28733D01*
X17428Y-28714D01*
X17352Y-28714D01*
X17314Y-28733D01*
X17295Y-28752D01*
X17276Y-28790D01*
X17514Y-28961D02*
X17514Y-28561D01*
X17666Y-28561D01*
X17704Y-28580D01*
X17723Y-28600D01*
X17742Y-28638D01*
X17742Y-28695D01*
X17723Y-28733D01*
X17704Y-28752D01*
X17666Y-28771D01*
X17514Y-28771D01*
X18085Y-28561D02*
X18009Y-28561D01*
X17971Y-28580D01*
X17952Y-28600D01*
X17914Y-28657D01*
X17895Y-28733D01*
X17895Y-28885D01*
X17914Y-28923D01*
X17933Y-28942D01*
X17971Y-28961D01*
X18047Y-28961D01*
X18085Y-28942D01*
X18104Y-28923D01*
X18123Y-28885D01*
X18123Y-28790D01*
X18104Y-28752D01*
X18085Y-28733D01*
X18047Y-28714D01*
X17971Y-28714D01*
X17933Y-28733D01*
X17914Y-28752D01*
X17895Y-28790D01*
X18257Y-28561D02*
X18523Y-28561D01*
X18352Y-28961D01*
X18514Y-28961D02*
X18514Y-28561D01*
X18666Y-28561D01*
X18704Y-28580D01*
X18723Y-28600D01*
X18742Y-28638D01*
X18742Y-28695D01*
X18723Y-28733D01*
X18704Y-28752D01*
X18666Y-28771D01*
X18514Y-28771D01*
X19085Y-28561D02*
X19009Y-28561D01*
X18971Y-28580D01*
X18952Y-28600D01*
X18914Y-28657D01*
X18895Y-28733D01*
X18895Y-28885D01*
X18914Y-28923D01*
X18933Y-28942D01*
X18971Y-28961D01*
X19047Y-28961D01*
X19085Y-28942D01*
X19104Y-28923D01*
X19123Y-28885D01*
X19123Y-28790D01*
X19104Y-28752D01*
X19085Y-28733D01*
X19047Y-28714D01*
X18971Y-28714D01*
X18933Y-28733D01*
X18914Y-28752D01*
X18895Y-28790D01*
X19352Y-28733D02*
X19314Y-28714D01*
X19295Y-28695D01*
X19276Y-28657D01*
X19276Y-28638D01*
X19295Y-28600D01*
X19314Y-28580D01*
X19352Y-28561D01*
X19428Y-28561D01*
X19466Y-28580D01*
X19485Y-28600D01*
X19504Y-28638D01*
X19504Y-28657D01*
X19485Y-28695D01*
X19466Y-28714D01*
X19428Y-28733D01*
X19352Y-28733D01*
X19314Y-28752D01*
X19295Y-28771D01*
X19276Y-28809D01*
X19276Y-28885D01*
X19295Y-28923D01*
X19314Y-28942D01*
X19352Y-28961D01*
X19428Y-28961D01*
X19466Y-28942D01*
X19485Y-28923D01*
X19504Y-28885D01*
X19504Y-28809D01*
X19485Y-28771D01*
X19466Y-28752D01*
X19428Y-28733D01*
X15514Y-27961D02*
X15514Y-27561D01*
X15666Y-27561D01*
X15704Y-27580D01*
X15723Y-27600D01*
X15742Y-27638D01*
X15742Y-27695D01*
X15723Y-27733D01*
X15704Y-27752D01*
X15666Y-27771D01*
X15514Y-27771D01*
X16085Y-27561D02*
X16009Y-27561D01*
X15971Y-27580D01*
X15952Y-27600D01*
X15914Y-27657D01*
X15895Y-27733D01*
X15895Y-27885D01*
X15914Y-27923D01*
X15933Y-27942D01*
X15971Y-27961D01*
X16047Y-27961D01*
X16085Y-27942D01*
X16104Y-27923D01*
X16123Y-27885D01*
X16123Y-27790D01*
X16104Y-27752D01*
X16085Y-27733D01*
X16047Y-27714D01*
X15971Y-27714D01*
X15933Y-27733D01*
X15914Y-27752D01*
X15895Y-27790D01*
X16314Y-27961D02*
X16390Y-27961D01*
X16428Y-27942D01*
X16447Y-27923D01*
X16485Y-27866D01*
X16504Y-27790D01*
X16504Y-27638D01*
X16485Y-27600D01*
X16466Y-27580D01*
X16428Y-27561D01*
X16352Y-27561D01*
X16314Y-27580D01*
X16295Y-27600D01*
X16276Y-27638D01*
X16276Y-27733D01*
X16295Y-27771D01*
X16314Y-27790D01*
X16352Y-27809D01*
X16428Y-27809D01*
X16466Y-27790D01*
X16485Y-27771D01*
X16504Y-27733D01*
X16514Y-27961D02*
X16514Y-27561D01*
X16666Y-27561D01*
X16704Y-27580D01*
X16723Y-27600D01*
X16742Y-27638D01*
X16742Y-27695D01*
X16723Y-27733D01*
X16704Y-27752D01*
X16666Y-27771D01*
X16514Y-27771D01*
X16876Y-27561D02*
X17142Y-27561D01*
X16971Y-27961D01*
X17371Y-27561D02*
X17409Y-27561D01*
X17447Y-27580D01*
X17466Y-27600D01*
X17485Y-27638D01*
X17504Y-27714D01*
X17504Y-27809D01*
X17485Y-27885D01*
X17466Y-27923D01*
X17447Y-27942D01*
X17409Y-27961D01*
X17371Y-27961D01*
X17333Y-27942D01*
X17314Y-27923D01*
X17295Y-27885D01*
X17276Y-27809D01*
X17276Y-27714D01*
X17295Y-27638D01*
X17314Y-27600D01*
X17333Y-27580D01*
X17371Y-27561D01*
X17514Y-27961D02*
X17514Y-27561D01*
X17666Y-27561D01*
X17704Y-27580D01*
X17723Y-27600D01*
X17742Y-27638D01*
X17742Y-27695D01*
X17723Y-27733D01*
X17704Y-27752D01*
X17666Y-27771D01*
X17514Y-27771D01*
X17876Y-27561D02*
X18142Y-27561D01*
X17971Y-27961D01*
X18504Y-27961D02*
X18276Y-27961D01*
X18390Y-27961D02*
X18390Y-27561D01*
X18352Y-27619D01*
X18314Y-27657D01*
X18276Y-27676D01*
X18514Y-27961D02*
X18514Y-27561D01*
X18666Y-27561D01*
X18704Y-27580D01*
X18723Y-27600D01*
X18742Y-27638D01*
X18742Y-27695D01*
X18723Y-27733D01*
X18704Y-27752D01*
X18666Y-27771D01*
X18514Y-27771D01*
X18876Y-27561D02*
X19142Y-27561D01*
X18971Y-27961D01*
X19276Y-27600D02*
X19295Y-27580D01*
X19333Y-27561D01*
X19428Y-27561D01*
X19466Y-27580D01*
X19485Y-27600D01*
X19504Y-27638D01*
X19504Y-27676D01*
X19485Y-27733D01*
X19257Y-27961D01*
X19504Y-27961D01*
X15514Y-26961D02*
X15514Y-26561D01*
X15666Y-26561D01*
X15704Y-26580D01*
X15723Y-26600D01*
X15742Y-26638D01*
X15742Y-26695D01*
X15723Y-26733D01*
X15704Y-26752D01*
X15666Y-26771D01*
X15514Y-26771D01*
X15876Y-26561D02*
X16142Y-26561D01*
X15971Y-26961D01*
X16257Y-26561D02*
X16504Y-26561D01*
X16371Y-26714D01*
X16428Y-26714D01*
X16466Y-26733D01*
X16485Y-26752D01*
X16504Y-26790D01*
X16504Y-26885D01*
X16485Y-26923D01*
X16466Y-26942D01*
X16428Y-26961D01*
X16314Y-26961D01*
X16276Y-26942D01*
X16257Y-26923D01*
X16514Y-26961D02*
X16514Y-26561D01*
X16666Y-26561D01*
X16704Y-26580D01*
X16723Y-26600D01*
X16742Y-26638D01*
X16742Y-26695D01*
X16723Y-26733D01*
X16704Y-26752D01*
X16666Y-26771D01*
X16514Y-26771D01*
X16876Y-26561D02*
X17142Y-26561D01*
X16971Y-26961D01*
X17466Y-26695D02*
X17466Y-26961D01*
X17371Y-26542D02*
X17276Y-26828D01*
X17523Y-26828D01*
X17514Y-26961D02*
X17514Y-26561D01*
X17666Y-26561D01*
X17704Y-26580D01*
X17723Y-26600D01*
X17742Y-26638D01*
X17742Y-26695D01*
X17723Y-26733D01*
X17704Y-26752D01*
X17666Y-26771D01*
X17514Y-26771D01*
X17876Y-26561D02*
X18142Y-26561D01*
X17971Y-26961D01*
X18485Y-26561D02*
X18295Y-26561D01*
X18276Y-26752D01*
X18295Y-26733D01*
X18333Y-26714D01*
X18428Y-26714D01*
X18466Y-26733D01*
X18485Y-26752D01*
X18504Y-26790D01*
X18504Y-26885D01*
X18485Y-26923D01*
X18466Y-26942D01*
X18428Y-26961D01*
X18333Y-26961D01*
X18295Y-26942D01*
X18276Y-26923D01*
X18514Y-26961D02*
X18514Y-26561D01*
X18666Y-26561D01*
X18704Y-26580D01*
X18723Y-26600D01*
X18742Y-26638D01*
X18742Y-26695D01*
X18723Y-26733D01*
X18704Y-26752D01*
X18666Y-26771D01*
X18514Y-26771D01*
X18876Y-26561D02*
X19142Y-26561D01*
X18971Y-26961D01*
X19466Y-26561D02*
X19390Y-26561D01*
X19352Y-26580D01*
X19333Y-26600D01*
X19295Y-26657D01*
X19276Y-26733D01*
X19276Y-26885D01*
X19295Y-26923D01*
X19314Y-26942D01*
X19352Y-26961D01*
X19428Y-26961D01*
X19466Y-26942D01*
X19485Y-26923D01*
X19504Y-26885D01*
X19504Y-26790D01*
X19485Y-26752D01*
X19466Y-26733D01*
X19428Y-26714D01*
X19352Y-26714D01*
X19314Y-26733D01*
X19295Y-26752D01*
X19276Y-26790D01*
X15514Y-25961D02*
X15514Y-25561D01*
X15666Y-25561D01*
X15704Y-25580D01*
X15723Y-25600D01*
X15742Y-25638D01*
X15742Y-25695D01*
X15723Y-25733D01*
X15704Y-25752D01*
X15666Y-25771D01*
X15514Y-25771D01*
X15876Y-25561D02*
X16142Y-25561D01*
X15971Y-25961D01*
X16257Y-25561D02*
X16523Y-25561D01*
X16352Y-25961D01*
X16514Y-25961D02*
X16514Y-25561D01*
X16666Y-25561D01*
X16704Y-25580D01*
X16723Y-25600D01*
X16742Y-25638D01*
X16742Y-25695D01*
X16723Y-25733D01*
X16704Y-25752D01*
X16666Y-25771D01*
X16514Y-25771D01*
X16876Y-25561D02*
X17142Y-25561D01*
X16971Y-25961D01*
X17352Y-25733D02*
X17314Y-25714D01*
X17295Y-25695D01*
X17276Y-25657D01*
X17276Y-25638D01*
X17295Y-25600D01*
X17314Y-25580D01*
X17352Y-25561D01*
X17428Y-25561D01*
X17466Y-25580D01*
X17485Y-25600D01*
X17504Y-25638D01*
X17504Y-25657D01*
X17485Y-25695D01*
X17466Y-25714D01*
X17428Y-25733D01*
X17352Y-25733D01*
X17314Y-25752D01*
X17295Y-25771D01*
X17276Y-25809D01*
X17276Y-25885D01*
X17295Y-25923D01*
X17314Y-25942D01*
X17352Y-25961D01*
X17428Y-25961D01*
X17466Y-25942D01*
X17485Y-25923D01*
X17504Y-25885D01*
X17504Y-25809D01*
X17485Y-25771D01*
X17466Y-25752D01*
X17428Y-25733D01*
X17514Y-25961D02*
X17514Y-25561D01*
X17666Y-25561D01*
X17704Y-25580D01*
X17723Y-25600D01*
X17742Y-25638D01*
X17742Y-25695D01*
X17723Y-25733D01*
X17704Y-25752D01*
X17666Y-25771D01*
X17514Y-25771D01*
X17876Y-25561D02*
X18142Y-25561D01*
X17971Y-25961D01*
X18314Y-25961D02*
X18390Y-25961D01*
X18428Y-25942D01*
X18447Y-25923D01*
X18485Y-25866D01*
X18504Y-25790D01*
X18504Y-25638D01*
X18485Y-25600D01*
X18466Y-25580D01*
X18428Y-25561D01*
X18352Y-25561D01*
X18314Y-25580D01*
X18295Y-25600D01*
X18276Y-25638D01*
X18276Y-25733D01*
X18295Y-25771D01*
X18314Y-25790D01*
X18352Y-25809D01*
X18428Y-25809D01*
X18466Y-25790D01*
X18485Y-25771D01*
X18504Y-25733D01*
X18514Y-25961D02*
X18514Y-25561D01*
X18666Y-25561D01*
X18704Y-25580D01*
X18723Y-25600D01*
X18742Y-25638D01*
X18742Y-25695D01*
X18723Y-25733D01*
X18704Y-25752D01*
X18666Y-25771D01*
X18514Y-25771D01*
X18971Y-25733D02*
X18933Y-25714D01*
X18914Y-25695D01*
X18895Y-25657D01*
X18895Y-25638D01*
X18914Y-25600D01*
X18933Y-25580D01*
X18971Y-25561D01*
X19047Y-25561D01*
X19085Y-25580D01*
X19104Y-25600D01*
X19123Y-25638D01*
X19123Y-25657D01*
X19104Y-25695D01*
X19085Y-25714D01*
X19047Y-25733D01*
X18971Y-25733D01*
X18933Y-25752D01*
X18914Y-25771D01*
X18895Y-25809D01*
X18895Y-25885D01*
X18914Y-25923D01*
X18933Y-25942D01*
X18971Y-25961D01*
X19047Y-25961D01*
X19085Y-25942D01*
X19104Y-25923D01*
X19123Y-25885D01*
X19123Y-25809D01*
X19104Y-25771D01*
X19085Y-25752D01*
X19047Y-25733D01*
X19371Y-25561D02*
X19409Y-25561D01*
X19447Y-25580D01*
X19466Y-25600D01*
X19485Y-25638D01*
X19504Y-25714D01*
X19504Y-25809D01*
X19485Y-25885D01*
X19466Y-25923D01*
X19447Y-25942D01*
X19409Y-25961D01*
X19371Y-25961D01*
X19333Y-25942D01*
X19314Y-25923D01*
X19295Y-25885D01*
X19276Y-25809D01*
X19276Y-25714D01*
X19295Y-25638D01*
X19314Y-25600D01*
X19333Y-25580D01*
X19371Y-25561D01*
X15514Y-24961D02*
X15514Y-24561D01*
X15666Y-24561D01*
X15704Y-24580D01*
X15723Y-24600D01*
X15742Y-24638D01*
X15742Y-24695D01*
X15723Y-24733D01*
X15704Y-24752D01*
X15666Y-24771D01*
X15514Y-24771D01*
X15971Y-24733D02*
X15933Y-24714D01*
X15914Y-24695D01*
X15895Y-24657D01*
X15895Y-24638D01*
X15914Y-24600D01*
X15933Y-24580D01*
X15971Y-24561D01*
X16047Y-24561D01*
X16085Y-24580D01*
X16104Y-24600D01*
X16123Y-24638D01*
X16123Y-24657D01*
X16104Y-24695D01*
X16085Y-24714D01*
X16047Y-24733D01*
X15971Y-24733D01*
X15933Y-24752D01*
X15914Y-24771D01*
X15895Y-24809D01*
X15895Y-24885D01*
X15914Y-24923D01*
X15933Y-24942D01*
X15971Y-24961D01*
X16047Y-24961D01*
X16085Y-24942D01*
X16104Y-24923D01*
X16123Y-24885D01*
X16123Y-24809D01*
X16104Y-24771D01*
X16085Y-24752D01*
X16047Y-24733D01*
X16504Y-24961D02*
X16276Y-24961D01*
X16390Y-24961D02*
X16390Y-24561D01*
X16352Y-24619D01*
X16314Y-24657D01*
X16276Y-24676D01*
X16514Y-24961D02*
X16514Y-24561D01*
X16666Y-24561D01*
X16704Y-24580D01*
X16723Y-24600D01*
X16742Y-24638D01*
X16742Y-24695D01*
X16723Y-24733D01*
X16704Y-24752D01*
X16666Y-24771D01*
X16514Y-24771D01*
X16971Y-24733D02*
X16933Y-24714D01*
X16914Y-24695D01*
X16895Y-24657D01*
X16895Y-24638D01*
X16914Y-24600D01*
X16933Y-24580D01*
X16971Y-24561D01*
X17047Y-24561D01*
X17085Y-24580D01*
X17104Y-24600D01*
X17123Y-24638D01*
X17123Y-24657D01*
X17104Y-24695D01*
X17085Y-24714D01*
X17047Y-24733D01*
X16971Y-24733D01*
X16933Y-24752D01*
X16914Y-24771D01*
X16895Y-24809D01*
X16895Y-24885D01*
X16914Y-24923D01*
X16933Y-24942D01*
X16971Y-24961D01*
X17047Y-24961D01*
X17085Y-24942D01*
X17104Y-24923D01*
X17123Y-24885D01*
X17123Y-24809D01*
X17104Y-24771D01*
X17085Y-24752D01*
X17047Y-24733D01*
X17276Y-24600D02*
X17295Y-24580D01*
X17333Y-24561D01*
X17428Y-24561D01*
X17466Y-24580D01*
X17485Y-24600D01*
X17504Y-24638D01*
X17504Y-24676D01*
X17485Y-24733D01*
X17257Y-24961D01*
X17504Y-24961D01*
X17514Y-24961D02*
X17514Y-24561D01*
X17666Y-24561D01*
X17704Y-24580D01*
X17723Y-24600D01*
X17742Y-24638D01*
X17742Y-24695D01*
X17723Y-24733D01*
X17704Y-24752D01*
X17666Y-24771D01*
X17514Y-24771D01*
X17971Y-24733D02*
X17933Y-24714D01*
X17914Y-24695D01*
X17895Y-24657D01*
X17895Y-24638D01*
X17914Y-24600D01*
X17933Y-24580D01*
X17971Y-24561D01*
X18047Y-24561D01*
X18085Y-24580D01*
X18104Y-24600D01*
X18123Y-24638D01*
X18123Y-24657D01*
X18104Y-24695D01*
X18085Y-24714D01*
X18047Y-24733D01*
X17971Y-24733D01*
X17933Y-24752D01*
X17914Y-24771D01*
X17895Y-24809D01*
X17895Y-24885D01*
X17914Y-24923D01*
X17933Y-24942D01*
X17971Y-24961D01*
X18047Y-24961D01*
X18085Y-24942D01*
X18104Y-24923D01*
X18123Y-24885D01*
X18123Y-24809D01*
X18104Y-24771D01*
X18085Y-24752D01*
X18047Y-24733D01*
X18257Y-24561D02*
X18504Y-24561D01*
X18371Y-24714D01*
X18428Y-24714D01*
X18466Y-24733D01*
X18485Y-24752D01*
X18504Y-24790D01*
X18504Y-24885D01*
X18485Y-24923D01*
X18466Y-24942D01*
X18428Y-24961D01*
X18314Y-24961D01*
X18276Y-24942D01*
X18257Y-24923D01*
X18514Y-24961D02*
X18514Y-24561D01*
X18666Y-24561D01*
X18704Y-24580D01*
X18723Y-24600D01*
X18742Y-24638D01*
X18742Y-24695D01*
X18723Y-24733D01*
X18704Y-24752D01*
X18666Y-24771D01*
X18514Y-24771D01*
X18971Y-24733D02*
X18933Y-24714D01*
X18914Y-24695D01*
X18895Y-24657D01*
X18895Y-24638D01*
X18914Y-24600D01*
X18933Y-24580D01*
X18971Y-24561D01*
X19047Y-24561D01*
X19085Y-24580D01*
X19104Y-24600D01*
X19123Y-24638D01*
X19123Y-24657D01*
X19104Y-24695D01*
X19085Y-24714D01*
X19047Y-24733D01*
X18971Y-24733D01*
X18933Y-24752D01*
X18914Y-24771D01*
X18895Y-24809D01*
X18895Y-24885D01*
X18914Y-24923D01*
X18933Y-24942D01*
X18971Y-24961D01*
X19047Y-24961D01*
X19085Y-24942D01*
X19104Y-24923D01*
X19123Y-24885D01*
X19123Y-24809D01*
X19104Y-24771D01*
X19085Y-24752D01*
X19047Y-24733D01*
X19466Y-24695D02*
X19466Y-24961D01*
X19371Y-24542D02*
X19276Y-24828D01*
X19523Y-24828D01*
X15514Y-23961D02*
X15514Y-23561D01*
X15666Y-23561D01*
X15704Y-23580D01*
X15723Y-23600D01*
X15742Y-23638D01*
X15742Y-23695D01*
X15723Y-23733D01*
X15704Y-23752D01*
X15666Y-23771D01*
X15514Y-23771D01*
X15971Y-23733D02*
X15933Y-23714D01*
X15914Y-23695D01*
X15895Y-23657D01*
X15895Y-23638D01*
X15914Y-23600D01*
X15933Y-23580D01*
X15971Y-23561D01*
X16047Y-23561D01*
X16085Y-23580D01*
X16104Y-23600D01*
X16123Y-23638D01*
X16123Y-23657D01*
X16104Y-23695D01*
X16085Y-23714D01*
X16047Y-23733D01*
X15971Y-23733D01*
X15933Y-23752D01*
X15914Y-23771D01*
X15895Y-23809D01*
X15895Y-23885D01*
X15914Y-23923D01*
X15933Y-23942D01*
X15971Y-23961D01*
X16047Y-23961D01*
X16085Y-23942D01*
X16104Y-23923D01*
X16123Y-23885D01*
X16123Y-23809D01*
X16104Y-23771D01*
X16085Y-23752D01*
X16047Y-23733D01*
X16485Y-23561D02*
X16295Y-23561D01*
X16276Y-23752D01*
X16295Y-23733D01*
X16333Y-23714D01*
X16428Y-23714D01*
X16466Y-23733D01*
X16485Y-23752D01*
X16504Y-23790D01*
X16504Y-23885D01*
X16485Y-23923D01*
X16466Y-23942D01*
X16428Y-23961D01*
X16333Y-23961D01*
X16295Y-23942D01*
X16276Y-23923D01*
X16514Y-23961D02*
X16514Y-23561D01*
X16666Y-23561D01*
X16704Y-23580D01*
X16723Y-23600D01*
X16742Y-23638D01*
X16742Y-23695D01*
X16723Y-23733D01*
X16704Y-23752D01*
X16666Y-23771D01*
X16514Y-23771D01*
X16971Y-23733D02*
X16933Y-23714D01*
X16914Y-23695D01*
X16895Y-23657D01*
X16895Y-23638D01*
X16914Y-23600D01*
X16933Y-23580D01*
X16971Y-23561D01*
X17047Y-23561D01*
X17085Y-23580D01*
X17104Y-23600D01*
X17123Y-23638D01*
X17123Y-23657D01*
X17104Y-23695D01*
X17085Y-23714D01*
X17047Y-23733D01*
X16971Y-23733D01*
X16933Y-23752D01*
X16914Y-23771D01*
X16895Y-23809D01*
X16895Y-23885D01*
X16914Y-23923D01*
X16933Y-23942D01*
X16971Y-23961D01*
X17047Y-23961D01*
X17085Y-23942D01*
X17104Y-23923D01*
X17123Y-23885D01*
X17123Y-23809D01*
X17104Y-23771D01*
X17085Y-23752D01*
X17047Y-23733D01*
X17466Y-23561D02*
X17390Y-23561D01*
X17352Y-23580D01*
X17333Y-23600D01*
X17295Y-23657D01*
X17276Y-23733D01*
X17276Y-23885D01*
X17295Y-23923D01*
X17314Y-23942D01*
X17352Y-23961D01*
X17428Y-23961D01*
X17466Y-23942D01*
X17485Y-23923D01*
X17504Y-23885D01*
X17504Y-23790D01*
X17485Y-23752D01*
X17466Y-23733D01*
X17428Y-23714D01*
X17352Y-23714D01*
X17314Y-23733D01*
X17295Y-23752D01*
X17276Y-23790D01*
X17514Y-23961D02*
X17514Y-23561D01*
X17666Y-23561D01*
X17704Y-23580D01*
X17723Y-23600D01*
X17742Y-23638D01*
X17742Y-23695D01*
X17723Y-23733D01*
X17704Y-23752D01*
X17666Y-23771D01*
X17514Y-23771D01*
X17971Y-23733D02*
X17933Y-23714D01*
X17914Y-23695D01*
X17895Y-23657D01*
X17895Y-23638D01*
X17914Y-23600D01*
X17933Y-23580D01*
X17971Y-23561D01*
X18047Y-23561D01*
X18085Y-23580D01*
X18104Y-23600D01*
X18123Y-23638D01*
X18123Y-23657D01*
X18104Y-23695D01*
X18085Y-23714D01*
X18047Y-23733D01*
X17971Y-23733D01*
X17933Y-23752D01*
X17914Y-23771D01*
X17895Y-23809D01*
X17895Y-23885D01*
X17914Y-23923D01*
X17933Y-23942D01*
X17971Y-23961D01*
X18047Y-23961D01*
X18085Y-23942D01*
X18104Y-23923D01*
X18123Y-23885D01*
X18123Y-23809D01*
X18104Y-23771D01*
X18085Y-23752D01*
X18047Y-23733D01*
X18257Y-23561D02*
X18523Y-23561D01*
X18352Y-23961D01*
X18514Y-23961D02*
X18514Y-23561D01*
X18666Y-23561D01*
X18704Y-23580D01*
X18723Y-23600D01*
X18742Y-23638D01*
X18742Y-23695D01*
X18723Y-23733D01*
X18704Y-23752D01*
X18666Y-23771D01*
X18514Y-23771D01*
X18971Y-23733D02*
X18933Y-23714D01*
X18914Y-23695D01*
X18895Y-23657D01*
X18895Y-23638D01*
X18914Y-23600D01*
X18933Y-23580D01*
X18971Y-23561D01*
X19047Y-23561D01*
X19085Y-23580D01*
X19104Y-23600D01*
X19123Y-23638D01*
X19123Y-23657D01*
X19104Y-23695D01*
X19085Y-23714D01*
X19047Y-23733D01*
X18971Y-23733D01*
X18933Y-23752D01*
X18914Y-23771D01*
X18895Y-23809D01*
X18895Y-23885D01*
X18914Y-23923D01*
X18933Y-23942D01*
X18971Y-23961D01*
X19047Y-23961D01*
X19085Y-23942D01*
X19104Y-23923D01*
X19123Y-23885D01*
X19123Y-23809D01*
X19104Y-23771D01*
X19085Y-23752D01*
X19047Y-23733D01*
X19352Y-23733D02*
X19314Y-23714D01*
X19295Y-23695D01*
X19276Y-23657D01*
X19276Y-23638D01*
X19295Y-23600D01*
X19314Y-23580D01*
X19352Y-23561D01*
X19428Y-23561D01*
X19466Y-23580D01*
X19485Y-23600D01*
X19504Y-23638D01*
X19504Y-23657D01*
X19485Y-23695D01*
X19466Y-23714D01*
X19428Y-23733D01*
X19352Y-23733D01*
X19314Y-23752D01*
X19295Y-23771D01*
X19276Y-23809D01*
X19276Y-23885D01*
X19295Y-23923D01*
X19314Y-23942D01*
X19352Y-23961D01*
X19428Y-23961D01*
X19466Y-23942D01*
X19485Y-23923D01*
X19504Y-23885D01*
X19504Y-23809D01*
X19485Y-23771D01*
X19466Y-23752D01*
X19428Y-23733D01*
X15514Y-22961D02*
X15514Y-22561D01*
X15666Y-22561D01*
X15704Y-22580D01*
X15723Y-22600D01*
X15742Y-22638D01*
X15742Y-22695D01*
X15723Y-22733D01*
X15704Y-22752D01*
X15666Y-22771D01*
X15514Y-22771D01*
X15971Y-22733D02*
X15933Y-22714D01*
X15914Y-22695D01*
X15895Y-22657D01*
X15895Y-22638D01*
X15914Y-22600D01*
X15933Y-22580D01*
X15971Y-22561D01*
X16047Y-22561D01*
X16085Y-22580D01*
X16104Y-22600D01*
X16123Y-22638D01*
X16123Y-22657D01*
X16104Y-22695D01*
X16085Y-22714D01*
X16047Y-22733D01*
X15971Y-22733D01*
X15933Y-22752D01*
X15914Y-22771D01*
X15895Y-22809D01*
X15895Y-22885D01*
X15914Y-22923D01*
X15933Y-22942D01*
X15971Y-22961D01*
X16047Y-22961D01*
X16085Y-22942D01*
X16104Y-22923D01*
X16123Y-22885D01*
X16123Y-22809D01*
X16104Y-22771D01*
X16085Y-22752D01*
X16047Y-22733D01*
X16314Y-22961D02*
X16390Y-22961D01*
X16428Y-22942D01*
X16447Y-22923D01*
X16485Y-22866D01*
X16504Y-22790D01*
X16504Y-22638D01*
X16485Y-22600D01*
X16466Y-22580D01*
X16428Y-22561D01*
X16352Y-22561D01*
X16314Y-22580D01*
X16295Y-22600D01*
X16276Y-22638D01*
X16276Y-22733D01*
X16295Y-22771D01*
X16314Y-22790D01*
X16352Y-22809D01*
X16428Y-22809D01*
X16466Y-22790D01*
X16485Y-22771D01*
X16504Y-22733D01*
X16514Y-22961D02*
X16514Y-22561D01*
X16666Y-22561D01*
X16704Y-22580D01*
X16723Y-22600D01*
X16742Y-22638D01*
X16742Y-22695D01*
X16723Y-22733D01*
X16704Y-22752D01*
X16666Y-22771D01*
X16514Y-22771D01*
X16933Y-22961D02*
X17009Y-22961D01*
X17047Y-22942D01*
X17066Y-22923D01*
X17104Y-22866D01*
X17123Y-22790D01*
X17123Y-22638D01*
X17104Y-22600D01*
X17085Y-22580D01*
X17047Y-22561D01*
X16971Y-22561D01*
X16933Y-22580D01*
X16914Y-22600D01*
X16895Y-22638D01*
X16895Y-22733D01*
X16914Y-22771D01*
X16933Y-22790D01*
X16971Y-22809D01*
X17047Y-22809D01*
X17085Y-22790D01*
X17104Y-22771D01*
X17123Y-22733D01*
X17371Y-22561D02*
X17409Y-22561D01*
X17447Y-22580D01*
X17466Y-22600D01*
X17485Y-22638D01*
X17504Y-22714D01*
X17504Y-22809D01*
X17485Y-22885D01*
X17466Y-22923D01*
X17447Y-22942D01*
X17409Y-22961D01*
X17371Y-22961D01*
X17333Y-22942D01*
X17314Y-22923D01*
X17295Y-22885D01*
X17276Y-22809D01*
X17276Y-22714D01*
X17295Y-22638D01*
X17314Y-22600D01*
X17333Y-22580D01*
X17371Y-22561D01*
X17514Y-22961D02*
X17514Y-22561D01*
X17666Y-22561D01*
X17704Y-22580D01*
X17723Y-22600D01*
X17742Y-22638D01*
X17742Y-22695D01*
X17723Y-22733D01*
X17704Y-22752D01*
X17666Y-22771D01*
X17514Y-22771D01*
X17933Y-22961D02*
X18009Y-22961D01*
X18047Y-22942D01*
X18066Y-22923D01*
X18104Y-22866D01*
X18123Y-22790D01*
X18123Y-22638D01*
X18104Y-22600D01*
X18085Y-22580D01*
X18047Y-22561D01*
X17971Y-22561D01*
X17933Y-22580D01*
X17914Y-22600D01*
X17895Y-22638D01*
X17895Y-22733D01*
X17914Y-22771D01*
X17933Y-22790D01*
X17971Y-22809D01*
X18047Y-22809D01*
X18085Y-22790D01*
X18104Y-22771D01*
X18123Y-22733D01*
X18504Y-22961D02*
X18276Y-22961D01*
X18390Y-22961D02*
X18390Y-22561D01*
X18352Y-22619D01*
X18314Y-22657D01*
X18276Y-22676D01*
X18514Y-22961D02*
X18514Y-22561D01*
X18666Y-22561D01*
X18704Y-22580D01*
X18723Y-22600D01*
X18742Y-22638D01*
X18742Y-22695D01*
X18723Y-22733D01*
X18704Y-22752D01*
X18666Y-22771D01*
X18514Y-22771D01*
X18933Y-22961D02*
X19009Y-22961D01*
X19047Y-22942D01*
X19066Y-22923D01*
X19104Y-22866D01*
X19123Y-22790D01*
X19123Y-22638D01*
X19104Y-22600D01*
X19085Y-22580D01*
X19047Y-22561D01*
X18971Y-22561D01*
X18933Y-22580D01*
X18914Y-22600D01*
X18895Y-22638D01*
X18895Y-22733D01*
X18914Y-22771D01*
X18933Y-22790D01*
X18971Y-22809D01*
X19047Y-22809D01*
X19085Y-22790D01*
X19104Y-22771D01*
X19123Y-22733D01*
X19276Y-22600D02*
X19295Y-22580D01*
X19333Y-22561D01*
X19428Y-22561D01*
X19466Y-22580D01*
X19485Y-22600D01*
X19504Y-22638D01*
X19504Y-22676D01*
X19485Y-22733D01*
X19257Y-22961D01*
X19504Y-22961D01*
X15514Y-21961D02*
X15514Y-21561D01*
X15666Y-21561D01*
X15704Y-21580D01*
X15723Y-21600D01*
X15742Y-21638D01*
X15742Y-21695D01*
X15723Y-21733D01*
X15704Y-21752D01*
X15666Y-21771D01*
X15514Y-21771D01*
X15933Y-21961D02*
X16009Y-21961D01*
X16047Y-21942D01*
X16066Y-21923D01*
X16104Y-21866D01*
X16123Y-21790D01*
X16123Y-21638D01*
X16104Y-21600D01*
X16085Y-21580D01*
X16047Y-21561D01*
X15971Y-21561D01*
X15933Y-21580D01*
X15914Y-21600D01*
X15895Y-21638D01*
X15895Y-21733D01*
X15914Y-21771D01*
X15933Y-21790D01*
X15971Y-21809D01*
X16047Y-21809D01*
X16085Y-21790D01*
X16104Y-21771D01*
X16123Y-21733D01*
X16257Y-21561D02*
X16504Y-21561D01*
X16371Y-21714D01*
X16428Y-21714D01*
X16466Y-21733D01*
X16485Y-21752D01*
X16504Y-21790D01*
X16504Y-21885D01*
X16485Y-21923D01*
X16466Y-21942D01*
X16428Y-21961D01*
X16314Y-21961D01*
X16276Y-21942D01*
X16257Y-21923D01*
X16514Y-21961D02*
X16514Y-21561D01*
X16666Y-21561D01*
X16704Y-21580D01*
X16723Y-21600D01*
X16742Y-21638D01*
X16742Y-21695D01*
X16723Y-21733D01*
X16704Y-21752D01*
X16666Y-21771D01*
X16514Y-21771D01*
X16933Y-21961D02*
X17009Y-21961D01*
X17047Y-21942D01*
X17066Y-21923D01*
X17104Y-21866D01*
X17123Y-21790D01*
X17123Y-21638D01*
X17104Y-21600D01*
X17085Y-21580D01*
X17047Y-21561D01*
X16971Y-21561D01*
X16933Y-21580D01*
X16914Y-21600D01*
X16895Y-21638D01*
X16895Y-21733D01*
X16914Y-21771D01*
X16933Y-21790D01*
X16971Y-21809D01*
X17047Y-21809D01*
X17085Y-21790D01*
X17104Y-21771D01*
X17123Y-21733D01*
X17466Y-21695D02*
X17466Y-21961D01*
X17371Y-21542D02*
X17276Y-21828D01*
X17523Y-21828D01*
X17514Y-21961D02*
X17514Y-21561D01*
X17666Y-21561D01*
X17704Y-21580D01*
X17723Y-21600D01*
X17742Y-21638D01*
X17742Y-21695D01*
X17723Y-21733D01*
X17704Y-21752D01*
X17666Y-21771D01*
X17514Y-21771D01*
X17933Y-21961D02*
X18009Y-21961D01*
X18047Y-21942D01*
X18066Y-21923D01*
X18104Y-21866D01*
X18123Y-21790D01*
X18123Y-21638D01*
X18104Y-21600D01*
X18085Y-21580D01*
X18047Y-21561D01*
X17971Y-21561D01*
X17933Y-21580D01*
X17914Y-21600D01*
X17895Y-21638D01*
X17895Y-21733D01*
X17914Y-21771D01*
X17933Y-21790D01*
X17971Y-21809D01*
X18047Y-21809D01*
X18085Y-21790D01*
X18104Y-21771D01*
X18123Y-21733D01*
X18485Y-21561D02*
X18295Y-21561D01*
X18276Y-21752D01*
X18295Y-21733D01*
X18333Y-21714D01*
X18428Y-21714D01*
X18466Y-21733D01*
X18485Y-21752D01*
X18504Y-21790D01*
X18504Y-21885D01*
X18485Y-21923D01*
X18466Y-21942D01*
X18428Y-21961D01*
X18333Y-21961D01*
X18295Y-21942D01*
X18276Y-21923D01*
X18514Y-21961D02*
X18514Y-21561D01*
X18666Y-21561D01*
X18704Y-21580D01*
X18723Y-21600D01*
X18742Y-21638D01*
X18742Y-21695D01*
X18723Y-21733D01*
X18704Y-21752D01*
X18666Y-21771D01*
X18514Y-21771D01*
X18933Y-21961D02*
X19009Y-21961D01*
X19047Y-21942D01*
X19066Y-21923D01*
X19104Y-21866D01*
X19123Y-21790D01*
X19123Y-21638D01*
X19104Y-21600D01*
X19085Y-21580D01*
X19047Y-21561D01*
X18971Y-21561D01*
X18933Y-21580D01*
X18914Y-21600D01*
X18895Y-21638D01*
X18895Y-21733D01*
X18914Y-21771D01*
X18933Y-21790D01*
X18971Y-21809D01*
X19047Y-21809D01*
X19085Y-21790D01*
X19104Y-21771D01*
X19123Y-21733D01*
X19466Y-21561D02*
X19390Y-21561D01*
X19352Y-21580D01*
X19333Y-21600D01*
X19295Y-21657D01*
X19276Y-21733D01*
X19276Y-21885D01*
X19295Y-21923D01*
X19314Y-21942D01*
X19352Y-21961D01*
X19428Y-21961D01*
X19466Y-21942D01*
X19485Y-21923D01*
X19504Y-21885D01*
X19504Y-21790D01*
X19485Y-21752D01*
X19466Y-21733D01*
X19428Y-21714D01*
X19352Y-21714D01*
X19314Y-21733D01*
X19295Y-21752D01*
X19276Y-21790D01*
X15514Y-20961D02*
X15514Y-20561D01*
X15666Y-20561D01*
X15704Y-20580D01*
X15723Y-20600D01*
X15742Y-20638D01*
X15742Y-20695D01*
X15723Y-20733D01*
X15704Y-20752D01*
X15666Y-20771D01*
X15514Y-20771D01*
X15933Y-20961D02*
X16009Y-20961D01*
X16047Y-20942D01*
X16066Y-20923D01*
X16104Y-20866D01*
X16123Y-20790D01*
X16123Y-20638D01*
X16104Y-20600D01*
X16085Y-20580D01*
X16047Y-20561D01*
X15971Y-20561D01*
X15933Y-20580D01*
X15914Y-20600D01*
X15895Y-20638D01*
X15895Y-20733D01*
X15914Y-20771D01*
X15933Y-20790D01*
X15971Y-20809D01*
X16047Y-20809D01*
X16085Y-20790D01*
X16104Y-20771D01*
X16123Y-20733D01*
X16257Y-20561D02*
X16523Y-20561D01*
X16352Y-20961D01*
X16514Y-20961D02*
X16514Y-20561D01*
X16666Y-20561D01*
X16704Y-20580D01*
X16723Y-20600D01*
X16742Y-20638D01*
X16742Y-20695D01*
X16723Y-20733D01*
X16704Y-20752D01*
X16666Y-20771D01*
X16514Y-20771D01*
X16933Y-20961D02*
X17009Y-20961D01*
X17047Y-20942D01*
X17066Y-20923D01*
X17104Y-20866D01*
X17123Y-20790D01*
X17123Y-20638D01*
X17104Y-20600D01*
X17085Y-20580D01*
X17047Y-20561D01*
X16971Y-20561D01*
X16933Y-20580D01*
X16914Y-20600D01*
X16895Y-20638D01*
X16895Y-20733D01*
X16914Y-20771D01*
X16933Y-20790D01*
X16971Y-20809D01*
X17047Y-20809D01*
X17085Y-20790D01*
X17104Y-20771D01*
X17123Y-20733D01*
X17352Y-20733D02*
X17314Y-20714D01*
X17295Y-20695D01*
X17276Y-20657D01*
X17276Y-20638D01*
X17295Y-20600D01*
X17314Y-20580D01*
X17352Y-20561D01*
X17428Y-20561D01*
X17466Y-20580D01*
X17485Y-20600D01*
X17504Y-20638D01*
X17504Y-20657D01*
X17485Y-20695D01*
X17466Y-20714D01*
X17428Y-20733D01*
X17352Y-20733D01*
X17314Y-20752D01*
X17295Y-20771D01*
X17276Y-20809D01*
X17276Y-20885D01*
X17295Y-20923D01*
X17314Y-20942D01*
X17352Y-20961D01*
X17428Y-20961D01*
X17466Y-20942D01*
X17485Y-20923D01*
X17504Y-20885D01*
X17504Y-20809D01*
X17485Y-20771D01*
X17466Y-20752D01*
X17428Y-20733D01*
X17514Y-20961D02*
X17514Y-20561D01*
X17666Y-20561D01*
X17704Y-20580D01*
X17723Y-20600D01*
X17742Y-20638D01*
X17742Y-20695D01*
X17723Y-20733D01*
X17704Y-20752D01*
X17666Y-20771D01*
X17514Y-20771D01*
X17933Y-20961D02*
X18009Y-20961D01*
X18047Y-20942D01*
X18066Y-20923D01*
X18104Y-20866D01*
X18123Y-20790D01*
X18123Y-20638D01*
X18104Y-20600D01*
X18085Y-20580D01*
X18047Y-20561D01*
X17971Y-20561D01*
X17933Y-20580D01*
X17914Y-20600D01*
X17895Y-20638D01*
X17895Y-20733D01*
X17914Y-20771D01*
X17933Y-20790D01*
X17971Y-20809D01*
X18047Y-20809D01*
X18085Y-20790D01*
X18104Y-20771D01*
X18123Y-20733D01*
X18314Y-20961D02*
X18390Y-20961D01*
X18428Y-20942D01*
X18447Y-20923D01*
X18485Y-20866D01*
X18504Y-20790D01*
X18504Y-20638D01*
X18485Y-20600D01*
X18466Y-20580D01*
X18428Y-20561D01*
X18352Y-20561D01*
X18314Y-20580D01*
X18295Y-20600D01*
X18276Y-20638D01*
X18276Y-20733D01*
X18295Y-20771D01*
X18314Y-20790D01*
X18352Y-20809D01*
X18428Y-20809D01*
X18466Y-20790D01*
X18485Y-20771D01*
X18504Y-20733D01*
X18323Y-20961D02*
X18323Y-20561D01*
X18476Y-20561D01*
X18514Y-20580D01*
X18533Y-20600D01*
X18552Y-20638D01*
X18552Y-20695D01*
X18533Y-20733D01*
X18514Y-20752D01*
X18476Y-20771D01*
X18323Y-20771D01*
X18933Y-20961D02*
X18704Y-20961D01*
X18819Y-20961D02*
X18819Y-20561D01*
X18780Y-20619D01*
X18742Y-20657D01*
X18704Y-20676D01*
X19180Y-20561D02*
X19219Y-20561D01*
X19257Y-20580D01*
X19276Y-20600D01*
X19295Y-20638D01*
X19314Y-20714D01*
X19314Y-20809D01*
X19295Y-20885D01*
X19276Y-20923D01*
X19257Y-20942D01*
X19219Y-20961D01*
X19180Y-20961D01*
X19142Y-20942D01*
X19123Y-20923D01*
X19104Y-20885D01*
X19085Y-20809D01*
X19085Y-20714D01*
X19104Y-20638D01*
X19123Y-20600D01*
X19142Y-20580D01*
X19180Y-20561D01*
X19561Y-20561D02*
X19600Y-20561D01*
X19638Y-20580D01*
X19657Y-20600D01*
X19676Y-20638D01*
X19695Y-20714D01*
X19695Y-20809D01*
X19676Y-20885D01*
X19657Y-20923D01*
X19638Y-20942D01*
X19600Y-20961D01*
X19561Y-20961D01*
X19523Y-20942D01*
X19504Y-20923D01*
X19485Y-20885D01*
X19466Y-20809D01*
X19466Y-20714D01*
X19485Y-20638D01*
X19504Y-20600D01*
X19523Y-20580D01*
X19561Y-20561D01*
X15323Y-19961D02*
X15323Y-19561D01*
X15476Y-19561D01*
X15514Y-19580D01*
X15533Y-19600D01*
X15552Y-19638D01*
X15552Y-19695D01*
X15533Y-19733D01*
X15514Y-19752D01*
X15476Y-19771D01*
X15323Y-19771D01*
X15933Y-19961D02*
X15704Y-19961D01*
X15819Y-19961D02*
X15819Y-19561D01*
X15780Y-19619D01*
X15742Y-19657D01*
X15704Y-19676D01*
X16180Y-19561D02*
X16219Y-19561D01*
X16257Y-19580D01*
X16276Y-19600D01*
X16295Y-19638D01*
X16314Y-19714D01*
X16314Y-19809D01*
X16295Y-19885D01*
X16276Y-19923D01*
X16257Y-19942D01*
X16219Y-19961D01*
X16180Y-19961D01*
X16142Y-19942D01*
X16123Y-19923D01*
X16104Y-19885D01*
X16085Y-19809D01*
X16085Y-19714D01*
X16104Y-19638D01*
X16123Y-19600D01*
X16142Y-19580D01*
X16180Y-19561D01*
X16695Y-19961D02*
X16466Y-19961D01*
X16580Y-19961D02*
X16580Y-19561D01*
X16542Y-19619D01*
X16504Y-19657D01*
X16466Y-19676D01*
X16323Y-19961D02*
X16323Y-19561D01*
X16476Y-19561D01*
X16514Y-19580D01*
X16533Y-19600D01*
X16552Y-19638D01*
X16552Y-19695D01*
X16533Y-19733D01*
X16514Y-19752D01*
X16476Y-19771D01*
X16323Y-19771D01*
X16933Y-19961D02*
X16704Y-19961D01*
X16819Y-19961D02*
X16819Y-19561D01*
X16780Y-19619D01*
X16742Y-19657D01*
X16704Y-19676D01*
X17180Y-19561D02*
X17219Y-19561D01*
X17257Y-19580D01*
X17276Y-19600D01*
X17295Y-19638D01*
X17314Y-19714D01*
X17314Y-19809D01*
X17295Y-19885D01*
X17276Y-19923D01*
X17257Y-19942D01*
X17219Y-19961D01*
X17180Y-19961D01*
X17142Y-19942D01*
X17123Y-19923D01*
X17104Y-19885D01*
X17085Y-19809D01*
X17085Y-19714D01*
X17104Y-19638D01*
X17123Y-19600D01*
X17142Y-19580D01*
X17180Y-19561D01*
X17466Y-19600D02*
X17485Y-19580D01*
X17523Y-19561D01*
X17619Y-19561D01*
X17657Y-19580D01*
X17676Y-19600D01*
X17695Y-19638D01*
X17695Y-19676D01*
X17676Y-19733D01*
X17447Y-19961D01*
X17695Y-19961D01*
X17323Y-19961D02*
X17323Y-19561D01*
X17476Y-19561D01*
X17514Y-19580D01*
X17533Y-19600D01*
X17552Y-19638D01*
X17552Y-19695D01*
X17533Y-19733D01*
X17514Y-19752D01*
X17476Y-19771D01*
X17323Y-19771D01*
X17933Y-19961D02*
X17704Y-19961D01*
X17819Y-19961D02*
X17819Y-19561D01*
X17780Y-19619D01*
X17742Y-19657D01*
X17704Y-19676D01*
X18180Y-19561D02*
X18219Y-19561D01*
X18257Y-19580D01*
X18276Y-19600D01*
X18295Y-19638D01*
X18314Y-19714D01*
X18314Y-19809D01*
X18295Y-19885D01*
X18276Y-19923D01*
X18257Y-19942D01*
X18219Y-19961D01*
X18180Y-19961D01*
X18142Y-19942D01*
X18123Y-19923D01*
X18104Y-19885D01*
X18085Y-19809D01*
X18085Y-19714D01*
X18104Y-19638D01*
X18123Y-19600D01*
X18142Y-19580D01*
X18180Y-19561D01*
X18447Y-19561D02*
X18695Y-19561D01*
X18561Y-19714D01*
X18619Y-19714D01*
X18657Y-19733D01*
X18676Y-19752D01*
X18695Y-19790D01*
X18695Y-19885D01*
X18676Y-19923D01*
X18657Y-19942D01*
X18619Y-19961D01*
X18504Y-19961D01*
X18466Y-19942D01*
X18447Y-19923D01*
X18323Y-19961D02*
X18323Y-19561D01*
X18476Y-19561D01*
X18514Y-19580D01*
X18533Y-19600D01*
X18552Y-19638D01*
X18552Y-19695D01*
X18533Y-19733D01*
X18514Y-19752D01*
X18476Y-19771D01*
X18323Y-19771D01*
X18933Y-19961D02*
X18704Y-19961D01*
X18819Y-19961D02*
X18819Y-19561D01*
X18780Y-19619D01*
X18742Y-19657D01*
X18704Y-19676D01*
X19180Y-19561D02*
X19219Y-19561D01*
X19257Y-19580D01*
X19276Y-19600D01*
X19295Y-19638D01*
X19314Y-19714D01*
X19314Y-19809D01*
X19295Y-19885D01*
X19276Y-19923D01*
X19257Y-19942D01*
X19219Y-19961D01*
X19180Y-19961D01*
X19142Y-19942D01*
X19123Y-19923D01*
X19104Y-19885D01*
X19085Y-19809D01*
X19085Y-19714D01*
X19104Y-19638D01*
X19123Y-19600D01*
X19142Y-19580D01*
X19180Y-19561D01*
X19657Y-19695D02*
X19657Y-19961D01*
X19561Y-19542D02*
X19466Y-19828D01*
X19714Y-19828D01*
X15323Y-18961D02*
X15323Y-18561D01*
X15476Y-18561D01*
X15514Y-18580D01*
X15533Y-18600D01*
X15552Y-18638D01*
X15552Y-18695D01*
X15533Y-18733D01*
X15514Y-18752D01*
X15476Y-18771D01*
X15323Y-18771D01*
X15933Y-18961D02*
X15704Y-18961D01*
X15819Y-18961D02*
X15819Y-18561D01*
X15780Y-18619D01*
X15742Y-18657D01*
X15704Y-18676D01*
X16180Y-18561D02*
X16219Y-18561D01*
X16257Y-18580D01*
X16276Y-18600D01*
X16295Y-18638D01*
X16314Y-18714D01*
X16314Y-18809D01*
X16295Y-18885D01*
X16276Y-18923D01*
X16257Y-18942D01*
X16219Y-18961D01*
X16180Y-18961D01*
X16142Y-18942D01*
X16123Y-18923D01*
X16104Y-18885D01*
X16085Y-18809D01*
X16085Y-18714D01*
X16104Y-18638D01*
X16123Y-18600D01*
X16142Y-18580D01*
X16180Y-18561D01*
X16676Y-18561D02*
X16485Y-18561D01*
X16466Y-18752D01*
X16485Y-18733D01*
X16523Y-18714D01*
X16619Y-18714D01*
X16657Y-18733D01*
X16676Y-18752D01*
X16695Y-18790D01*
X16695Y-18885D01*
X16676Y-18923D01*
X16657Y-18942D01*
X16619Y-18961D01*
X16523Y-18961D01*
X16485Y-18942D01*
X16466Y-18923D01*
X16323Y-18961D02*
X16323Y-18561D01*
X16476Y-18561D01*
X16514Y-18580D01*
X16533Y-18600D01*
X16552Y-18638D01*
X16552Y-18695D01*
X16533Y-18733D01*
X16514Y-18752D01*
X16476Y-18771D01*
X16323Y-18771D01*
X16933Y-18961D02*
X16704Y-18961D01*
X16819Y-18961D02*
X16819Y-18561D01*
X16780Y-18619D01*
X16742Y-18657D01*
X16704Y-18676D01*
X17180Y-18561D02*
X17219Y-18561D01*
X17257Y-18580D01*
X17276Y-18600D01*
X17295Y-18638D01*
X17314Y-18714D01*
X17314Y-18809D01*
X17295Y-18885D01*
X17276Y-18923D01*
X17257Y-18942D01*
X17219Y-18961D01*
X17180Y-18961D01*
X17142Y-18942D01*
X17123Y-18923D01*
X17104Y-18885D01*
X17085Y-18809D01*
X17085Y-18714D01*
X17104Y-18638D01*
X17123Y-18600D01*
X17142Y-18580D01*
X17180Y-18561D01*
X17657Y-18561D02*
X17580Y-18561D01*
X17542Y-18580D01*
X17523Y-18600D01*
X17485Y-18657D01*
X17466Y-18733D01*
X17466Y-18885D01*
X17485Y-18923D01*
X17504Y-18942D01*
X17542Y-18961D01*
X17619Y-18961D01*
X17657Y-18942D01*
X17676Y-18923D01*
X17695Y-18885D01*
X17695Y-18790D01*
X17676Y-18752D01*
X17657Y-18733D01*
X17619Y-18714D01*
X17542Y-18714D01*
X17504Y-18733D01*
X17485Y-18752D01*
X17466Y-18790D01*
X17323Y-18961D02*
X17323Y-18561D01*
X17476Y-18561D01*
X17514Y-18580D01*
X17533Y-18600D01*
X17552Y-18638D01*
X17552Y-18695D01*
X17533Y-18733D01*
X17514Y-18752D01*
X17476Y-18771D01*
X17323Y-18771D01*
X17933Y-18961D02*
X17704Y-18961D01*
X17819Y-18961D02*
X17819Y-18561D01*
X17780Y-18619D01*
X17742Y-18657D01*
X17704Y-18676D01*
X18180Y-18561D02*
X18219Y-18561D01*
X18257Y-18580D01*
X18276Y-18600D01*
X18295Y-18638D01*
X18314Y-18714D01*
X18314Y-18809D01*
X18295Y-18885D01*
X18276Y-18923D01*
X18257Y-18942D01*
X18219Y-18961D01*
X18180Y-18961D01*
X18142Y-18942D01*
X18123Y-18923D01*
X18104Y-18885D01*
X18085Y-18809D01*
X18085Y-18714D01*
X18104Y-18638D01*
X18123Y-18600D01*
X18142Y-18580D01*
X18180Y-18561D01*
X18447Y-18561D02*
X18714Y-18561D01*
X18542Y-18961D01*
X18323Y-18961D02*
X18323Y-18561D01*
X18476Y-18561D01*
X18514Y-18580D01*
X18533Y-18600D01*
X18552Y-18638D01*
X18552Y-18695D01*
X18533Y-18733D01*
X18514Y-18752D01*
X18476Y-18771D01*
X18323Y-18771D01*
X18933Y-18961D02*
X18704Y-18961D01*
X18819Y-18961D02*
X18819Y-18561D01*
X18780Y-18619D01*
X18742Y-18657D01*
X18704Y-18676D01*
X19180Y-18561D02*
X19219Y-18561D01*
X19257Y-18580D01*
X19276Y-18600D01*
X19295Y-18638D01*
X19314Y-18714D01*
X19314Y-18809D01*
X19295Y-18885D01*
X19276Y-18923D01*
X19257Y-18942D01*
X19219Y-18961D01*
X19180Y-18961D01*
X19142Y-18942D01*
X19123Y-18923D01*
X19104Y-18885D01*
X19085Y-18809D01*
X19085Y-18714D01*
X19104Y-18638D01*
X19123Y-18600D01*
X19142Y-18580D01*
X19180Y-18561D01*
X19542Y-18733D02*
X19504Y-18714D01*
X19485Y-18695D01*
X19466Y-18657D01*
X19466Y-18638D01*
X19485Y-18600D01*
X19504Y-18580D01*
X19542Y-18561D01*
X19619Y-18561D01*
X19657Y-18580D01*
X19676Y-18600D01*
X19695Y-18638D01*
X19695Y-18657D01*
X19676Y-18695D01*
X19657Y-18714D01*
X19619Y-18733D01*
X19542Y-18733D01*
X19504Y-18752D01*
X19485Y-18771D01*
X19466Y-18809D01*
X19466Y-18885D01*
X19485Y-18923D01*
X19504Y-18942D01*
X19542Y-18961D01*
X19619Y-18961D01*
X19657Y-18942D01*
X19676Y-18923D01*
X19695Y-18885D01*
X19695Y-18809D01*
X19676Y-18771D01*
X19657Y-18752D01*
X19619Y-18733D01*
X15323Y-17961D02*
X15323Y-17561D01*
X15476Y-17561D01*
X15514Y-17580D01*
X15533Y-17600D01*
X15552Y-17638D01*
X15552Y-17695D01*
X15533Y-17733D01*
X15514Y-17752D01*
X15476Y-17771D01*
X15323Y-17771D01*
X15933Y-17961D02*
X15704Y-17961D01*
X15819Y-17961D02*
X15819Y-17561D01*
X15780Y-17619D01*
X15742Y-17657D01*
X15704Y-17676D01*
X16180Y-17561D02*
X16219Y-17561D01*
X16257Y-17580D01*
X16276Y-17600D01*
X16295Y-17638D01*
X16314Y-17714D01*
X16314Y-17809D01*
X16295Y-17885D01*
X16276Y-17923D01*
X16257Y-17942D01*
X16219Y-17961D01*
X16180Y-17961D01*
X16142Y-17942D01*
X16123Y-17923D01*
X16104Y-17885D01*
X16085Y-17809D01*
X16085Y-17714D01*
X16104Y-17638D01*
X16123Y-17600D01*
X16142Y-17580D01*
X16180Y-17561D01*
X16504Y-17961D02*
X16580Y-17961D01*
X16619Y-17942D01*
X16638Y-17923D01*
X16676Y-17866D01*
X16695Y-17790D01*
X16695Y-17638D01*
X16676Y-17600D01*
X16657Y-17580D01*
X16619Y-17561D01*
X16542Y-17561D01*
X16504Y-17580D01*
X16485Y-17600D01*
X16466Y-17638D01*
X16466Y-17733D01*
X16485Y-17771D01*
X16504Y-17790D01*
X16542Y-17809D01*
X16619Y-17809D01*
X16657Y-17790D01*
X16676Y-17771D01*
X16695Y-17733D01*
X16323Y-17961D02*
X16323Y-17561D01*
X16476Y-17561D01*
X16514Y-17580D01*
X16533Y-17600D01*
X16552Y-17638D01*
X16552Y-17695D01*
X16533Y-17733D01*
X16514Y-17752D01*
X16476Y-17771D01*
X16323Y-17771D01*
X16933Y-17961D02*
X16704Y-17961D01*
X16819Y-17961D02*
X16819Y-17561D01*
X16780Y-17619D01*
X16742Y-17657D01*
X16704Y-17676D01*
X17314Y-17961D02*
X17085Y-17961D01*
X17200Y-17961D02*
X17200Y-17561D01*
X17161Y-17619D01*
X17123Y-17657D01*
X17085Y-17676D01*
X17561Y-17561D02*
X17600Y-17561D01*
X17638Y-17580D01*
X17657Y-17600D01*
X17676Y-17638D01*
X17695Y-17714D01*
X17695Y-17809D01*
X17676Y-17885D01*
X17657Y-17923D01*
X17638Y-17942D01*
X17600Y-17961D01*
X17561Y-17961D01*
X17523Y-17942D01*
X17504Y-17923D01*
X17485Y-17885D01*
X17466Y-17809D01*
X17466Y-17714D01*
X17485Y-17638D01*
X17504Y-17600D01*
X17523Y-17580D01*
X17561Y-17561D01*
X17323Y-17961D02*
X17323Y-17561D01*
X17476Y-17561D01*
X17514Y-17580D01*
X17533Y-17600D01*
X17552Y-17638D01*
X17552Y-17695D01*
X17533Y-17733D01*
X17514Y-17752D01*
X17476Y-17771D01*
X17323Y-17771D01*
X17933Y-17961D02*
X17704Y-17961D01*
X17819Y-17961D02*
X17819Y-17561D01*
X17780Y-17619D01*
X17742Y-17657D01*
X17704Y-17676D01*
X18314Y-17961D02*
X18085Y-17961D01*
X18200Y-17961D02*
X18200Y-17561D01*
X18161Y-17619D01*
X18123Y-17657D01*
X18085Y-17676D01*
X18695Y-17961D02*
X18466Y-17961D01*
X18580Y-17961D02*
X18580Y-17561D01*
X18542Y-17619D01*
X18504Y-17657D01*
X18466Y-17676D01*
X18323Y-17961D02*
X18323Y-17561D01*
X18476Y-17561D01*
X18514Y-17580D01*
X18533Y-17600D01*
X18552Y-17638D01*
X18552Y-17695D01*
X18533Y-17733D01*
X18514Y-17752D01*
X18476Y-17771D01*
X18323Y-17771D01*
X18933Y-17961D02*
X18704Y-17961D01*
X18819Y-17961D02*
X18819Y-17561D01*
X18780Y-17619D01*
X18742Y-17657D01*
X18704Y-17676D01*
X19314Y-17961D02*
X19085Y-17961D01*
X19200Y-17961D02*
X19200Y-17561D01*
X19161Y-17619D01*
X19123Y-17657D01*
X19085Y-17676D01*
X19466Y-17600D02*
X19485Y-17580D01*
X19523Y-17561D01*
X19619Y-17561D01*
X19657Y-17580D01*
X19676Y-17600D01*
X19695Y-17638D01*
X19695Y-17676D01*
X19676Y-17733D01*
X19447Y-17961D01*
X19695Y-17961D01*
X15323Y-16961D02*
X15323Y-16561D01*
X15476Y-16561D01*
X15514Y-16580D01*
X15533Y-16600D01*
X15552Y-16638D01*
X15552Y-16695D01*
X15533Y-16733D01*
X15514Y-16752D01*
X15476Y-16771D01*
X15323Y-16771D01*
X15933Y-16961D02*
X15704Y-16961D01*
X15819Y-16961D02*
X15819Y-16561D01*
X15780Y-16619D01*
X15742Y-16657D01*
X15704Y-16676D01*
X16314Y-16961D02*
X16085Y-16961D01*
X16200Y-16961D02*
X16200Y-16561D01*
X16161Y-16619D01*
X16123Y-16657D01*
X16085Y-16676D01*
X16447Y-16561D02*
X16695Y-16561D01*
X16561Y-16714D01*
X16619Y-16714D01*
X16657Y-16733D01*
X16676Y-16752D01*
X16695Y-16790D01*
X16695Y-16885D01*
X16676Y-16923D01*
X16657Y-16942D01*
X16619Y-16961D01*
X16504Y-16961D01*
X16466Y-16942D01*
X16447Y-16923D01*
X16323Y-16961D02*
X16323Y-16561D01*
X16476Y-16561D01*
X16514Y-16580D01*
X16533Y-16600D01*
X16552Y-16638D01*
X16552Y-16695D01*
X16533Y-16733D01*
X16514Y-16752D01*
X16476Y-16771D01*
X16323Y-16771D01*
X16933Y-16961D02*
X16704Y-16961D01*
X16819Y-16961D02*
X16819Y-16561D01*
X16780Y-16619D01*
X16742Y-16657D01*
X16704Y-16676D01*
X17314Y-16961D02*
X17085Y-16961D01*
X17200Y-16961D02*
X17200Y-16561D01*
X17161Y-16619D01*
X17123Y-16657D01*
X17085Y-16676D01*
X17657Y-16695D02*
X17657Y-16961D01*
X17561Y-16542D02*
X17466Y-16828D01*
X17714Y-16828D01*
X17323Y-16961D02*
X17323Y-16561D01*
X17476Y-16561D01*
X17514Y-16580D01*
X17533Y-16600D01*
X17552Y-16638D01*
X17552Y-16695D01*
X17533Y-16733D01*
X17514Y-16752D01*
X17476Y-16771D01*
X17323Y-16771D01*
X17933Y-16961D02*
X17704Y-16961D01*
X17819Y-16961D02*
X17819Y-16561D01*
X17780Y-16619D01*
X17742Y-16657D01*
X17704Y-16676D01*
X18314Y-16961D02*
X18085Y-16961D01*
X18200Y-16961D02*
X18200Y-16561D01*
X18161Y-16619D01*
X18123Y-16657D01*
X18085Y-16676D01*
X18676Y-16561D02*
X18485Y-16561D01*
X18466Y-16752D01*
X18485Y-16733D01*
X18523Y-16714D01*
X18619Y-16714D01*
X18657Y-16733D01*
X18676Y-16752D01*
X18695Y-16790D01*
X18695Y-16885D01*
X18676Y-16923D01*
X18657Y-16942D01*
X18619Y-16961D01*
X18523Y-16961D01*
X18485Y-16942D01*
X18466Y-16923D01*
X18323Y-16961D02*
X18323Y-16561D01*
X18476Y-16561D01*
X18514Y-16580D01*
X18533Y-16600D01*
X18552Y-16638D01*
X18552Y-16695D01*
X18533Y-16733D01*
X18514Y-16752D01*
X18476Y-16771D01*
X18323Y-16771D01*
X18933Y-16961D02*
X18704Y-16961D01*
X18819Y-16961D02*
X18819Y-16561D01*
X18780Y-16619D01*
X18742Y-16657D01*
X18704Y-16676D01*
X19314Y-16961D02*
X19085Y-16961D01*
X19200Y-16961D02*
X19200Y-16561D01*
X19161Y-16619D01*
X19123Y-16657D01*
X19085Y-16676D01*
X19657Y-16561D02*
X19580Y-16561D01*
X19542Y-16580D01*
X19523Y-16600D01*
X19485Y-16657D01*
X19466Y-16733D01*
X19466Y-16885D01*
X19485Y-16923D01*
X19504Y-16942D01*
X19542Y-16961D01*
X19619Y-16961D01*
X19657Y-16942D01*
X19676Y-16923D01*
X19695Y-16885D01*
X19695Y-16790D01*
X19676Y-16752D01*
X19657Y-16733D01*
X19619Y-16714D01*
X19542Y-16714D01*
X19504Y-16733D01*
X19485Y-16752D01*
X19466Y-16790D01*
X15323Y-15961D02*
X15323Y-15561D01*
X15476Y-15561D01*
X15514Y-15580D01*
X15533Y-15600D01*
X15552Y-15638D01*
X15552Y-15695D01*
X15533Y-15733D01*
X15514Y-15752D01*
X15476Y-15771D01*
X15323Y-15771D01*
X15933Y-15961D02*
X15704Y-15961D01*
X15819Y-15961D02*
X15819Y-15561D01*
X15780Y-15619D01*
X15742Y-15657D01*
X15704Y-15676D01*
X16314Y-15961D02*
X16085Y-15961D01*
X16200Y-15961D02*
X16200Y-15561D01*
X16161Y-15619D01*
X16123Y-15657D01*
X16085Y-15676D01*
X16447Y-15561D02*
X16714Y-15561D01*
X16542Y-15961D01*
X16323Y-15961D02*
X16323Y-15561D01*
X16476Y-15561D01*
X16514Y-15580D01*
X16533Y-15600D01*
X16552Y-15638D01*
X16552Y-15695D01*
X16533Y-15733D01*
X16514Y-15752D01*
X16476Y-15771D01*
X16323Y-15771D01*
X16933Y-15961D02*
X16704Y-15961D01*
X16819Y-15961D02*
X16819Y-15561D01*
X16780Y-15619D01*
X16742Y-15657D01*
X16704Y-15676D01*
X17314Y-15961D02*
X17085Y-15961D01*
X17200Y-15961D02*
X17200Y-15561D01*
X17161Y-15619D01*
X17123Y-15657D01*
X17085Y-15676D01*
X17542Y-15733D02*
X17504Y-15714D01*
X17485Y-15695D01*
X17466Y-15657D01*
X17466Y-15638D01*
X17485Y-15600D01*
X17504Y-15580D01*
X17542Y-15561D01*
X17619Y-15561D01*
X17657Y-15580D01*
X17676Y-15600D01*
X17695Y-15638D01*
X17695Y-15657D01*
X17676Y-15695D01*
X17657Y-15714D01*
X17619Y-15733D01*
X17542Y-15733D01*
X17504Y-15752D01*
X17485Y-15771D01*
X17466Y-15809D01*
X17466Y-15885D01*
X17485Y-15923D01*
X17504Y-15942D01*
X17542Y-15961D01*
X17619Y-15961D01*
X17657Y-15942D01*
X17676Y-15923D01*
X17695Y-15885D01*
X17695Y-15809D01*
X17676Y-15771D01*
X17657Y-15752D01*
X17619Y-15733D01*
X17323Y-15961D02*
X17323Y-15561D01*
X17476Y-15561D01*
X17514Y-15580D01*
X17533Y-15600D01*
X17552Y-15638D01*
X17552Y-15695D01*
X17533Y-15733D01*
X17514Y-15752D01*
X17476Y-15771D01*
X17323Y-15771D01*
X17933Y-15961D02*
X17704Y-15961D01*
X17819Y-15961D02*
X17819Y-15561D01*
X17780Y-15619D01*
X17742Y-15657D01*
X17704Y-15676D01*
X18314Y-15961D02*
X18085Y-15961D01*
X18200Y-15961D02*
X18200Y-15561D01*
X18161Y-15619D01*
X18123Y-15657D01*
X18085Y-15676D01*
X18504Y-15961D02*
X18580Y-15961D01*
X18619Y-15942D01*
X18638Y-15923D01*
X18676Y-15866D01*
X18695Y-15790D01*
X18695Y-15638D01*
X18676Y-15600D01*
X18657Y-15580D01*
X18619Y-15561D01*
X18542Y-15561D01*
X18504Y-15580D01*
X18485Y-15600D01*
X18466Y-15638D01*
X18466Y-15733D01*
X18485Y-15771D01*
X18504Y-15790D01*
X18542Y-15809D01*
X18619Y-15809D01*
X18657Y-15790D01*
X18676Y-15771D01*
X18695Y-15733D01*
X18323Y-15961D02*
X18323Y-15561D01*
X18476Y-15561D01*
X18514Y-15580D01*
X18533Y-15600D01*
X18552Y-15638D01*
X18552Y-15695D01*
X18533Y-15733D01*
X18514Y-15752D01*
X18476Y-15771D01*
X18323Y-15771D01*
X18933Y-15961D02*
X18704Y-15961D01*
X18819Y-15961D02*
X18819Y-15561D01*
X18780Y-15619D01*
X18742Y-15657D01*
X18704Y-15676D01*
X19085Y-15600D02*
X19104Y-15580D01*
X19142Y-15561D01*
X19238Y-15561D01*
X19276Y-15580D01*
X19295Y-15600D01*
X19314Y-15638D01*
X19314Y-15676D01*
X19295Y-15733D01*
X19066Y-15961D01*
X19314Y-15961D01*
X19561Y-15561D02*
X19600Y-15561D01*
X19638Y-15580D01*
X19657Y-15600D01*
X19676Y-15638D01*
X19695Y-15714D01*
X19695Y-15809D01*
X19676Y-15885D01*
X19657Y-15923D01*
X19638Y-15942D01*
X19600Y-15961D01*
X19561Y-15961D01*
X19523Y-15942D01*
X19504Y-15923D01*
X19485Y-15885D01*
X19466Y-15809D01*
X19466Y-15714D01*
X19485Y-15638D01*
X19504Y-15600D01*
X19523Y-15580D01*
X19561Y-15561D01*
M02*
