G04 (created by PCBNEW-RS274X (2011-11-27 BZR 3249)-stable) date 15/05/2012 4:52:55 PM*
G01*
G70*
G90*
%MOIN*%
G04 Gerber Fmt 3.4, Leading zero omitted, Abs format*
%FSLAX34Y34*%
G04 APERTURE LIST*
%ADD10C,0.006000*%
%ADD11C,0.010000*%
%ADD12C,0.015000*%
%ADD13C,0.012000*%
G04 APERTURE END LIST*
G54D10*
G54D11*
X17518Y-35943D02*
X17613Y-36543D01*
X17690Y-36114D01*
X17766Y-36543D01*
X17861Y-35943D01*
X18013Y-36543D02*
X18013Y-35943D01*
X18185Y-36543D02*
X18185Y-36229D01*
X18166Y-36171D01*
X18128Y-36143D01*
X18070Y-36143D01*
X18032Y-36171D01*
X18013Y-36200D01*
X18528Y-36514D02*
X18490Y-36543D01*
X18413Y-36543D01*
X18375Y-36514D01*
X18356Y-36457D01*
X18356Y-36229D01*
X18375Y-36171D01*
X18413Y-36143D01*
X18490Y-36143D01*
X18528Y-36171D01*
X18547Y-36229D01*
X18547Y-36286D01*
X18356Y-36343D01*
X18871Y-36514D02*
X18833Y-36543D01*
X18756Y-36543D01*
X18718Y-36514D01*
X18699Y-36457D01*
X18699Y-36229D01*
X18718Y-36171D01*
X18756Y-36143D01*
X18833Y-36143D01*
X18871Y-36171D01*
X18890Y-36229D01*
X18890Y-36286D01*
X18699Y-36343D01*
X19118Y-36543D02*
X19080Y-36514D01*
X19061Y-36457D01*
X19061Y-35943D01*
X19424Y-36514D02*
X19386Y-36543D01*
X19309Y-36543D01*
X19271Y-36514D01*
X19252Y-36457D01*
X19252Y-36229D01*
X19271Y-36171D01*
X19309Y-36143D01*
X19386Y-36143D01*
X19424Y-36171D01*
X19443Y-36229D01*
X19443Y-36286D01*
X19252Y-36343D01*
X19614Y-36543D02*
X19614Y-36143D01*
X19614Y-36257D02*
X19633Y-36200D01*
X19652Y-36171D01*
X19690Y-36143D01*
X19729Y-36143D01*
X20358Y-36543D02*
X20167Y-36543D01*
X20167Y-35943D01*
X20663Y-36543D02*
X20663Y-36229D01*
X20644Y-36171D01*
X20606Y-36143D01*
X20529Y-36143D01*
X20491Y-36171D01*
X20663Y-36514D02*
X20625Y-36543D01*
X20529Y-36543D01*
X20491Y-36514D01*
X20472Y-36457D01*
X20472Y-36400D01*
X20491Y-36343D01*
X20529Y-36314D01*
X20625Y-36314D01*
X20663Y-36286D01*
X20853Y-36543D02*
X20853Y-35943D01*
X20853Y-36171D02*
X20891Y-36143D01*
X20968Y-36143D01*
X21006Y-36171D01*
X21025Y-36200D01*
X21044Y-36257D01*
X21044Y-36429D01*
X21025Y-36486D01*
X21006Y-36514D01*
X20968Y-36543D01*
X20891Y-36543D01*
X20853Y-36514D01*
X21234Y-36514D02*
X21234Y-36543D01*
X21215Y-36600D01*
X21196Y-36629D01*
X21691Y-36000D02*
X21710Y-35971D01*
X21748Y-35943D01*
X21844Y-35943D01*
X21882Y-35971D01*
X21901Y-36000D01*
X21920Y-36057D01*
X21920Y-36114D01*
X21901Y-36200D01*
X21672Y-36543D01*
X21920Y-36543D01*
X22167Y-35943D02*
X22206Y-35943D01*
X22244Y-35971D01*
X22263Y-36000D01*
X22282Y-36057D01*
X22301Y-36171D01*
X22301Y-36314D01*
X22282Y-36429D01*
X22263Y-36486D01*
X22244Y-36514D01*
X22206Y-36543D01*
X22167Y-36543D01*
X22129Y-36514D01*
X22110Y-36486D01*
X22091Y-36429D01*
X22072Y-36314D01*
X22072Y-36171D01*
X22091Y-36057D01*
X22110Y-36000D01*
X22129Y-35971D01*
X22167Y-35943D01*
X22682Y-36543D02*
X22453Y-36543D01*
X22567Y-36543D02*
X22567Y-35943D01*
X22529Y-36029D01*
X22491Y-36086D01*
X22453Y-36114D01*
X22834Y-36000D02*
X22853Y-35971D01*
X22891Y-35943D01*
X22987Y-35943D01*
X23025Y-35971D01*
X23044Y-36000D01*
X23063Y-36057D01*
X23063Y-36114D01*
X23044Y-36200D01*
X22815Y-36543D01*
X23063Y-36543D01*
X17747Y-35643D02*
X17518Y-35643D01*
X17632Y-35643D02*
X17632Y-35043D01*
X17594Y-35129D01*
X17556Y-35186D01*
X17518Y-35214D01*
X17899Y-35100D02*
X17918Y-35071D01*
X17956Y-35043D01*
X18052Y-35043D01*
X18090Y-35071D01*
X18109Y-35100D01*
X18128Y-35157D01*
X18128Y-35214D01*
X18109Y-35300D01*
X17880Y-35643D01*
X18128Y-35643D01*
X18375Y-35043D02*
X18414Y-35043D01*
X18452Y-35071D01*
X18471Y-35100D01*
X18490Y-35157D01*
X18509Y-35271D01*
X18509Y-35414D01*
X18490Y-35529D01*
X18471Y-35586D01*
X18452Y-35614D01*
X18414Y-35643D01*
X18375Y-35643D01*
X18337Y-35614D01*
X18318Y-35586D01*
X18299Y-35529D01*
X18280Y-35414D01*
X18280Y-35271D01*
X18299Y-35157D01*
X18318Y-35100D01*
X18337Y-35071D01*
X18375Y-35043D01*
X18680Y-35414D02*
X18985Y-35414D01*
X19347Y-35614D02*
X19309Y-35643D01*
X19232Y-35643D01*
X19194Y-35614D01*
X19175Y-35586D01*
X19156Y-35529D01*
X19156Y-35357D01*
X19175Y-35300D01*
X19194Y-35271D01*
X19232Y-35243D01*
X19309Y-35243D01*
X19347Y-35271D01*
X19518Y-35643D02*
X19518Y-35043D01*
X19690Y-35643D02*
X19690Y-35329D01*
X19671Y-35271D01*
X19633Y-35243D01*
X19575Y-35243D01*
X19537Y-35271D01*
X19518Y-35300D01*
X20052Y-35643D02*
X20052Y-35329D01*
X20033Y-35271D01*
X19995Y-35243D01*
X19918Y-35243D01*
X19880Y-35271D01*
X20052Y-35614D02*
X20014Y-35643D01*
X19918Y-35643D01*
X19880Y-35614D01*
X19861Y-35557D01*
X19861Y-35500D01*
X19880Y-35443D01*
X19918Y-35414D01*
X20014Y-35414D01*
X20052Y-35386D01*
X20242Y-35243D02*
X20242Y-35643D01*
X20242Y-35300D02*
X20261Y-35271D01*
X20299Y-35243D01*
X20357Y-35243D01*
X20395Y-35271D01*
X20414Y-35329D01*
X20414Y-35643D01*
X20604Y-35243D02*
X20604Y-35643D01*
X20604Y-35300D02*
X20623Y-35271D01*
X20661Y-35243D01*
X20719Y-35243D01*
X20757Y-35271D01*
X20776Y-35329D01*
X20776Y-35643D01*
X21119Y-35614D02*
X21081Y-35643D01*
X21004Y-35643D01*
X20966Y-35614D01*
X20947Y-35557D01*
X20947Y-35329D01*
X20966Y-35271D01*
X21004Y-35243D01*
X21081Y-35243D01*
X21119Y-35271D01*
X21138Y-35329D01*
X21138Y-35386D01*
X20947Y-35443D01*
X21366Y-35643D02*
X21328Y-35614D01*
X21309Y-35557D01*
X21309Y-35043D01*
X21824Y-35243D02*
X21824Y-35843D01*
X21824Y-35271D02*
X21862Y-35243D01*
X21939Y-35243D01*
X21977Y-35271D01*
X21996Y-35300D01*
X22015Y-35357D01*
X22015Y-35529D01*
X21996Y-35586D01*
X21977Y-35614D01*
X21939Y-35643D01*
X21862Y-35643D01*
X21824Y-35614D01*
X22243Y-35643D02*
X22205Y-35614D01*
X22186Y-35586D01*
X22167Y-35529D01*
X22167Y-35357D01*
X22186Y-35300D01*
X22205Y-35271D01*
X22243Y-35243D01*
X22301Y-35243D01*
X22339Y-35271D01*
X22358Y-35300D01*
X22377Y-35357D01*
X22377Y-35529D01*
X22358Y-35586D01*
X22339Y-35614D01*
X22301Y-35643D01*
X22243Y-35643D01*
X22720Y-35243D02*
X22720Y-35729D01*
X22701Y-35786D01*
X22682Y-35814D01*
X22643Y-35843D01*
X22586Y-35843D01*
X22548Y-35814D01*
X22720Y-35614D02*
X22682Y-35643D01*
X22605Y-35643D01*
X22567Y-35614D01*
X22548Y-35586D01*
X22529Y-35529D01*
X22529Y-35357D01*
X22548Y-35300D01*
X22567Y-35271D01*
X22605Y-35243D01*
X22682Y-35243D01*
X22720Y-35271D01*
X22967Y-35643D02*
X22929Y-35614D01*
X22910Y-35586D01*
X22891Y-35529D01*
X22891Y-35357D01*
X22910Y-35300D01*
X22929Y-35271D01*
X22967Y-35243D01*
X23025Y-35243D01*
X23063Y-35271D01*
X23082Y-35300D01*
X23101Y-35357D01*
X23101Y-35529D01*
X23082Y-35586D01*
X23063Y-35614D01*
X23025Y-35643D01*
X22967Y-35643D01*
X23577Y-35243D02*
X23577Y-35843D01*
X23577Y-35271D02*
X23615Y-35243D01*
X23692Y-35243D01*
X23730Y-35271D01*
X23749Y-35300D01*
X23768Y-35357D01*
X23768Y-35529D01*
X23749Y-35586D01*
X23730Y-35614D01*
X23692Y-35643D01*
X23615Y-35643D01*
X23577Y-35614D01*
X23939Y-35643D02*
X23939Y-35243D01*
X23939Y-35043D02*
X23920Y-35071D01*
X23939Y-35100D01*
X23958Y-35071D01*
X23939Y-35043D01*
X23939Y-35100D01*
X24129Y-35243D02*
X24129Y-35643D01*
X24129Y-35300D02*
X24148Y-35271D01*
X24186Y-35243D01*
X24244Y-35243D01*
X24282Y-35271D01*
X24301Y-35329D01*
X24301Y-35643D01*
X24796Y-35643D02*
X24796Y-35043D01*
X24796Y-35271D02*
X24834Y-35243D01*
X24911Y-35243D01*
X24949Y-35271D01*
X24968Y-35300D01*
X24987Y-35357D01*
X24987Y-35529D01*
X24968Y-35586D01*
X24949Y-35614D01*
X24911Y-35643D01*
X24834Y-35643D01*
X24796Y-35614D01*
X25215Y-35643D02*
X25177Y-35614D01*
X25158Y-35586D01*
X25139Y-35529D01*
X25139Y-35357D01*
X25158Y-35300D01*
X25177Y-35271D01*
X25215Y-35243D01*
X25273Y-35243D01*
X25311Y-35271D01*
X25330Y-35300D01*
X25349Y-35357D01*
X25349Y-35529D01*
X25330Y-35586D01*
X25311Y-35614D01*
X25273Y-35643D01*
X25215Y-35643D01*
X25692Y-35643D02*
X25692Y-35329D01*
X25673Y-35271D01*
X25635Y-35243D01*
X25558Y-35243D01*
X25520Y-35271D01*
X25692Y-35614D02*
X25654Y-35643D01*
X25558Y-35643D01*
X25520Y-35614D01*
X25501Y-35557D01*
X25501Y-35500D01*
X25520Y-35443D01*
X25558Y-35414D01*
X25654Y-35414D01*
X25692Y-35386D01*
X25882Y-35643D02*
X25882Y-35243D01*
X25882Y-35357D02*
X25901Y-35300D01*
X25920Y-35271D01*
X25958Y-35243D01*
X25997Y-35243D01*
X26302Y-35643D02*
X26302Y-35043D01*
X26302Y-35614D02*
X26264Y-35643D01*
X26187Y-35643D01*
X26149Y-35614D01*
X26130Y-35586D01*
X26111Y-35529D01*
X26111Y-35357D01*
X26130Y-35300D01*
X26149Y-35271D01*
X26187Y-35243D01*
X26264Y-35243D01*
X26302Y-35271D01*
X26759Y-35243D02*
X26854Y-35643D01*
X26950Y-35243D01*
X27312Y-35643D02*
X27083Y-35643D01*
X27197Y-35643D02*
X27197Y-35043D01*
X27159Y-35129D01*
X27121Y-35186D01*
X27083Y-35214D01*
X27483Y-35586D02*
X27502Y-35614D01*
X27483Y-35643D01*
X27464Y-35614D01*
X27483Y-35586D01*
X27483Y-35643D01*
X27883Y-35643D02*
X27654Y-35643D01*
X27768Y-35643D02*
X27768Y-35043D01*
X27730Y-35129D01*
X27692Y-35186D01*
X27654Y-35214D01*
G54D12*
X40300Y-14300D02*
X45300Y-14300D01*
X15300Y-14300D02*
X20300Y-14300D01*
X15300Y-34300D02*
X15300Y-14300D01*
X45300Y-34300D02*
X15300Y-34300D01*
X45300Y-14300D02*
X45300Y-34300D01*
G54D13*
X11500Y-36600D02*
X11200Y-37100D01*
X11200Y-37100D02*
X11800Y-37100D01*
X11800Y-37100D02*
X11500Y-36600D01*
X09300Y-40300D02*
X12700Y-40300D01*
X12700Y-40300D02*
X12700Y-07700D01*
X12700Y-07700D02*
X09300Y-07700D01*
X09300Y-07700D02*
X09300Y-40300D01*
X12700Y-24700D02*
X12400Y-24700D01*
X12400Y-24700D02*
X12400Y-37500D01*
X12400Y-37500D02*
X09600Y-37500D01*
X09600Y-37500D02*
X09600Y-10500D01*
X09600Y-10500D02*
X12400Y-10500D01*
X12400Y-10500D02*
X12400Y-23300D01*
X12400Y-23300D02*
X12700Y-23300D01*
G54D12*
X15900Y-35500D02*
X15882Y-35674D01*
X15832Y-35842D01*
X15749Y-35998D01*
X15638Y-36134D01*
X15503Y-36246D01*
X15348Y-36329D01*
X15180Y-36381D01*
X15006Y-36399D01*
X14832Y-36384D01*
X14663Y-36334D01*
X14508Y-36253D01*
X14371Y-36143D01*
X14258Y-36008D01*
X14173Y-35854D01*
X14120Y-35687D01*
X14101Y-35512D01*
X14115Y-35338D01*
X14164Y-35169D01*
X14244Y-35013D01*
X14353Y-34875D01*
X14487Y-34761D01*
X14640Y-34676D01*
X14807Y-34621D01*
X14982Y-34601D01*
X15156Y-34614D01*
X15325Y-34661D01*
X15482Y-34741D01*
X15620Y-34849D01*
X15735Y-34982D01*
X15822Y-35134D01*
X15877Y-35301D01*
X15899Y-35475D01*
X15900Y-35500D01*
X45900Y-35500D02*
X45882Y-35674D01*
X45832Y-35842D01*
X45749Y-35998D01*
X45638Y-36134D01*
X45503Y-36246D01*
X45348Y-36329D01*
X45180Y-36381D01*
X45006Y-36399D01*
X44832Y-36384D01*
X44663Y-36334D01*
X44508Y-36253D01*
X44371Y-36143D01*
X44258Y-36008D01*
X44173Y-35854D01*
X44120Y-35687D01*
X44101Y-35512D01*
X44115Y-35338D01*
X44164Y-35169D01*
X44244Y-35013D01*
X44353Y-34875D01*
X44487Y-34761D01*
X44640Y-34676D01*
X44807Y-34621D01*
X44982Y-34601D01*
X45156Y-34614D01*
X45325Y-34661D01*
X45482Y-34741D01*
X45620Y-34849D01*
X45735Y-34982D01*
X45822Y-35134D01*
X45877Y-35301D01*
X45899Y-35475D01*
X45900Y-35500D01*
X15900Y-11000D02*
X15882Y-11174D01*
X15832Y-11342D01*
X15749Y-11498D01*
X15638Y-11634D01*
X15503Y-11746D01*
X15348Y-11829D01*
X15180Y-11881D01*
X15006Y-11899D01*
X14832Y-11884D01*
X14663Y-11834D01*
X14508Y-11753D01*
X14371Y-11643D01*
X14258Y-11508D01*
X14173Y-11354D01*
X14120Y-11187D01*
X14101Y-11012D01*
X14115Y-10838D01*
X14164Y-10669D01*
X14244Y-10513D01*
X14353Y-10375D01*
X14487Y-10261D01*
X14640Y-10176D01*
X14807Y-10121D01*
X14982Y-10101D01*
X15156Y-10114D01*
X15325Y-10161D01*
X15482Y-10241D01*
X15620Y-10349D01*
X15735Y-10482D01*
X15822Y-10634D01*
X15877Y-10801D01*
X15899Y-10975D01*
X15900Y-11000D01*
G54D13*
X48500Y-11400D02*
X48800Y-10900D01*
X48800Y-10900D02*
X48200Y-10900D01*
X48200Y-10900D02*
X48500Y-11400D01*
X50700Y-07700D02*
X47300Y-07700D01*
X47300Y-07700D02*
X47300Y-40300D01*
X47300Y-40300D02*
X50700Y-40300D01*
X50700Y-40300D02*
X50700Y-07700D01*
X47300Y-23300D02*
X47600Y-23300D01*
X47600Y-23300D02*
X47600Y-10500D01*
X47600Y-10500D02*
X50400Y-10500D01*
X50400Y-10500D02*
X50400Y-37500D01*
X50400Y-37500D02*
X47600Y-37500D01*
X47600Y-37500D02*
X47600Y-24700D01*
X47600Y-24700D02*
X47300Y-24700D01*
X42600Y-38000D02*
X43100Y-38300D01*
X43100Y-38300D02*
X43100Y-37700D01*
X43100Y-37700D02*
X42600Y-38000D01*
X46300Y-40200D02*
X46300Y-36800D01*
X46300Y-36800D02*
X13700Y-36800D01*
X13700Y-36800D02*
X13700Y-40200D01*
X13700Y-40200D02*
X46300Y-40200D01*
X30700Y-36800D02*
X30700Y-37100D01*
X30700Y-37100D02*
X43500Y-37100D01*
X43500Y-37100D02*
X43500Y-39900D01*
X43500Y-39900D02*
X16500Y-39900D01*
X16500Y-39900D02*
X16500Y-37100D01*
X16500Y-37100D02*
X29300Y-37100D01*
X29300Y-37100D02*
X29300Y-36800D01*
G54D12*
X45900Y-11000D02*
X45882Y-11174D01*
X45832Y-11342D01*
X45749Y-11498D01*
X45638Y-11634D01*
X45503Y-11746D01*
X45348Y-11829D01*
X45180Y-11881D01*
X45006Y-11899D01*
X44832Y-11884D01*
X44663Y-11834D01*
X44508Y-11753D01*
X44371Y-11643D01*
X44258Y-11508D01*
X44173Y-11354D01*
X44120Y-11187D01*
X44101Y-11012D01*
X44115Y-10838D01*
X44164Y-10669D01*
X44244Y-10513D01*
X44353Y-10375D01*
X44487Y-10261D01*
X44640Y-10176D01*
X44807Y-10121D01*
X44982Y-10101D01*
X45156Y-10114D01*
X45325Y-10161D01*
X45482Y-10241D01*
X45620Y-10349D01*
X45735Y-10482D01*
X45822Y-10634D01*
X45877Y-10801D01*
X45899Y-10975D01*
X45900Y-11000D01*
G54D11*
X13467Y-24068D02*
X13467Y-24496D01*
X13447Y-24582D01*
X13409Y-24639D01*
X13352Y-24668D01*
X13314Y-24668D01*
X13619Y-24068D02*
X13867Y-24068D01*
X13733Y-24296D01*
X13791Y-24296D01*
X13829Y-24325D01*
X13848Y-24354D01*
X13867Y-24411D01*
X13867Y-24554D01*
X13848Y-24611D01*
X13829Y-24639D01*
X13791Y-24668D01*
X13676Y-24668D01*
X13638Y-24639D01*
X13619Y-24611D01*
X46467Y-23518D02*
X46467Y-23946D01*
X46447Y-24032D01*
X46409Y-24089D01*
X46352Y-24118D01*
X46314Y-24118D01*
X46867Y-24118D02*
X46638Y-24118D01*
X46752Y-24118D02*
X46752Y-23518D01*
X46714Y-23604D01*
X46676Y-23661D01*
X46638Y-23689D01*
X30467Y-35968D02*
X30467Y-36396D01*
X30447Y-36482D01*
X30409Y-36539D01*
X30352Y-36568D01*
X30314Y-36568D01*
X30638Y-36025D02*
X30657Y-35996D01*
X30695Y-35968D01*
X30791Y-35968D01*
X30829Y-35996D01*
X30848Y-36025D01*
X30867Y-36082D01*
X30867Y-36139D01*
X30848Y-36225D01*
X30619Y-36568D01*
X30867Y-36568D01*
M02*
