M48
;DRILL file {Pcbnew (2011-11-27 BZR 3249)-stable} date 15/05/2012 4:52:59 PM
;FORMAT={-:-/ absolute / inch / decimal}
FMAT,2
INCH,TZ
T1C0.018
T2C0.036
T3C0.106
T4C0.120
%
G90
G05
M72
T1
X1.600Y1.700
X1.600Y1.800
X1.600Y1.900
X1.600Y2.000
X1.600Y2.100
X1.600Y2.200
X1.600Y2.300
X1.600Y2.400
X1.600Y2.500
X1.600Y2.600
X1.600Y2.700
X1.600Y2.800
X1.600Y2.900
X1.600Y3.000
X1.600Y3.100
X1.700Y1.700
X1.700Y1.800
X1.700Y1.900
X1.700Y2.000
X1.700Y2.100
X1.700Y2.200
X1.700Y2.300
X1.700Y2.400
X1.700Y2.500
X1.700Y2.600
X1.700Y2.700
X1.700Y2.800
X1.700Y2.900
X1.700Y3.000
X1.700Y3.100
X1.800Y1.700
X1.800Y1.800
X1.800Y1.900
X1.800Y2.000
X1.800Y2.100
X1.800Y2.200
X1.800Y2.300
X1.800Y2.400
X1.800Y2.500
X1.800Y2.600
X1.800Y2.700
X1.800Y2.800
X1.800Y2.900
X1.800Y3.000
X1.800Y3.100
X1.900Y1.700
X1.900Y1.800
X1.900Y1.900
X1.900Y2.000
X1.900Y2.100
X1.900Y2.200
X1.900Y2.300
X1.900Y2.400
X1.900Y2.500
X1.900Y2.600
X1.900Y2.700
X1.900Y2.800
X1.900Y2.900
X1.900Y3.000
X1.900Y3.100
X4.100Y1.700
X4.100Y1.800
X4.100Y1.900
X4.100Y2.000
X4.100Y2.100
X4.100Y2.200
X4.100Y2.300
X4.100Y2.400
X4.100Y2.500
X4.100Y2.600
X4.100Y2.700
X4.100Y2.800
X4.100Y2.900
X4.100Y3.000
X4.100Y3.100
X4.200Y1.700
X4.200Y1.800
X4.200Y1.900
X4.200Y2.000
X4.200Y2.100
X4.200Y2.200
X4.200Y2.300
X4.200Y2.400
X4.200Y2.500
X4.200Y2.600
X4.200Y2.700
X4.200Y2.800
X4.200Y2.900
X4.200Y3.000
X4.200Y3.100
X4.300Y1.700
X4.300Y1.800
X4.300Y1.900
X4.300Y2.000
X4.300Y2.100
X4.300Y2.200
X4.300Y2.300
X4.300Y2.400
X4.300Y2.500
X4.300Y2.600
X4.300Y2.700
X4.300Y2.800
X4.300Y2.900
X4.300Y3.000
X4.300Y3.100
X4.400Y1.700
X4.400Y1.800
X4.400Y1.900
X4.400Y2.000
X4.400Y2.100
X4.400Y2.200
X4.400Y2.300
X4.400Y2.400
X4.400Y2.500
X4.400Y2.600
X4.400Y2.700
X4.400Y2.800
X4.400Y2.900
X4.400Y3.000
X4.400Y3.100
T2
X1.050Y1.200
X1.050Y1.300
X1.050Y1.400
X1.050Y1.500
X1.050Y1.600
X1.050Y1.700
X1.050Y1.800
X1.050Y1.900
X1.050Y2.000
X1.050Y2.100
X1.050Y2.200
X1.050Y2.300
X1.050Y2.400
X1.050Y2.500
X1.050Y2.600
X1.050Y2.700
X1.050Y2.800
X1.050Y2.900
X1.050Y3.000
X1.050Y3.100
X1.050Y3.200
X1.050Y3.300
X1.050Y3.400
X1.050Y3.500
X1.050Y3.600
X1.150Y1.200
X1.150Y1.300
X1.150Y1.400
X1.150Y1.500
X1.150Y1.600
X1.150Y1.700
X1.150Y1.800
X1.150Y1.900
X1.150Y2.000
X1.150Y2.100
X1.150Y2.200
X1.150Y2.300
X1.150Y2.400
X1.150Y2.500
X1.150Y2.600
X1.150Y2.700
X1.150Y2.800
X1.150Y2.900
X1.150Y3.000
X1.150Y3.100
X1.150Y3.200
X1.150Y3.300
X1.150Y3.400
X1.150Y3.500
X1.150Y3.600
X1.800Y3.800
X1.800Y3.900
X1.900Y3.800
X1.900Y3.900
X2.000Y3.800
X2.000Y3.900
X2.100Y3.800
X2.100Y3.900
X2.200Y3.800
X2.200Y3.900
X2.300Y3.800
X2.300Y3.900
X2.400Y3.800
X2.400Y3.900
X2.500Y3.800
X2.500Y3.900
X2.600Y3.800
X2.600Y3.900
X2.700Y3.800
X2.700Y3.900
X2.800Y3.800
X2.800Y3.900
X2.900Y3.800
X2.900Y3.900
X3.000Y3.800
X3.000Y3.900
X3.100Y3.800
X3.100Y3.900
X3.200Y3.800
X3.200Y3.900
X3.300Y3.800
X3.300Y3.900
X3.400Y3.800
X3.400Y3.900
X3.500Y3.800
X3.500Y3.900
X3.600Y3.800
X3.600Y3.900
X3.700Y3.800
X3.700Y3.900
X3.800Y3.800
X3.800Y3.900
X3.900Y3.800
X3.900Y3.900
X4.000Y3.800
X4.000Y3.900
X4.100Y3.800
X4.100Y3.900
X4.200Y3.800
X4.200Y3.900
X4.850Y1.200
X4.850Y1.300
X4.850Y1.400
X4.850Y1.500
X4.850Y1.600
X4.850Y1.700
X4.850Y1.800
X4.850Y1.900
X4.850Y2.000
X4.850Y2.100
X4.850Y2.200
X4.850Y2.300
X4.850Y2.400
X4.850Y2.500
X4.850Y2.600
X4.850Y2.700
X4.850Y2.800
X4.850Y2.900
X4.850Y3.000
X4.850Y3.100
X4.850Y3.200
X4.850Y3.300
X4.850Y3.400
X4.850Y3.500
X4.850Y3.600
X4.950Y1.200
X4.950Y1.300
X4.950Y1.400
X4.950Y1.500
X4.950Y1.600
X4.950Y1.700
X4.950Y1.800
X4.950Y1.900
X4.950Y2.000
X4.950Y2.100
X4.950Y2.200
X4.950Y2.300
X4.950Y2.400
X4.950Y2.500
X4.950Y2.600
X4.950Y2.700
X4.950Y2.800
X4.950Y2.900
X4.950Y3.000
X4.950Y3.100
X4.950Y3.200
X4.950Y3.300
X4.950Y3.400
X4.950Y3.500
X4.950Y3.600
T3
X1.110Y0.850
X1.110Y3.950
X1.450Y3.840
X4.550Y3.840
X4.890Y0.850
X4.890Y3.950
T4
X1.500Y1.100
X1.500Y3.550
X4.500Y1.100
X4.500Y3.550
T0
M30
