G04 (created by PCBNEW-RS274X (2011-11-27 BZR 3249)-stable) date 15/05/2012 4:52:55 PM*
G01*
G70*
G90*
%MOIN*%
G04 Gerber Fmt 3.4, Leading zero omitted, Abs format*
%FSLAX34Y34*%
G04 APERTURE LIST*
%ADD10C,0.006000*%
%ADD11R,0.060000X0.060000*%
%ADD12C,0.060000*%
%ADD13C,0.215000*%
%ADD14C,0.160000*%
%ADD15C,0.007000*%
%ADD16C,0.010000*%
G04 APERTURE END LIST*
G54D10*
G54D11*
X11500Y-36000D03*
G54D12*
X10500Y-36000D03*
X11500Y-35000D03*
X10500Y-35000D03*
X11500Y-34000D03*
X10500Y-34000D03*
X11500Y-33000D03*
X10500Y-33000D03*
X11500Y-32000D03*
X10500Y-32000D03*
X11500Y-31000D03*
X10500Y-31000D03*
X11500Y-30000D03*
X10500Y-30000D03*
X11500Y-29000D03*
X10500Y-29000D03*
X11500Y-28000D03*
X10500Y-28000D03*
X11500Y-27000D03*
X10500Y-27000D03*
G54D13*
X11100Y-39500D03*
G54D12*
X11500Y-26000D03*
X10500Y-26000D03*
X11500Y-25000D03*
X10500Y-25000D03*
X11500Y-24000D03*
X10500Y-24000D03*
X11500Y-23000D03*
X10500Y-23000D03*
X11500Y-22000D03*
X10500Y-22000D03*
X11500Y-21000D03*
X10500Y-21000D03*
X11500Y-20000D03*
X10500Y-20000D03*
X11500Y-19000D03*
X10500Y-19000D03*
X11500Y-18000D03*
X10500Y-18000D03*
X11500Y-17000D03*
X10500Y-17000D03*
X11500Y-16000D03*
X10500Y-16000D03*
X11500Y-15000D03*
X10500Y-15000D03*
X11500Y-14000D03*
X10500Y-14000D03*
X11500Y-13000D03*
X10500Y-13000D03*
X11500Y-12000D03*
X10500Y-12000D03*
G54D13*
X11100Y-08500D03*
G54D14*
X15000Y-35500D03*
X45000Y-35500D03*
X15000Y-11000D03*
G54D11*
X48500Y-12000D03*
G54D12*
X49500Y-12000D03*
X48500Y-13000D03*
X49500Y-13000D03*
X48500Y-14000D03*
X49500Y-14000D03*
X48500Y-15000D03*
X49500Y-15000D03*
X48500Y-16000D03*
X49500Y-16000D03*
X48500Y-17000D03*
X49500Y-17000D03*
X48500Y-18000D03*
X49500Y-18000D03*
X48500Y-19000D03*
X49500Y-19000D03*
X48500Y-20000D03*
X49500Y-20000D03*
X48500Y-21000D03*
X49500Y-21000D03*
G54D13*
X48900Y-08500D03*
G54D12*
X48500Y-22000D03*
X49500Y-22000D03*
X48500Y-23000D03*
X49500Y-23000D03*
X48500Y-24000D03*
X49500Y-24000D03*
X48500Y-25000D03*
X49500Y-25000D03*
X48500Y-26000D03*
X49500Y-26000D03*
X48500Y-27000D03*
X49500Y-27000D03*
X48500Y-28000D03*
X49500Y-28000D03*
X48500Y-29000D03*
X49500Y-29000D03*
X48500Y-30000D03*
X49500Y-30000D03*
X48500Y-31000D03*
X49500Y-31000D03*
X48500Y-32000D03*
X49500Y-32000D03*
X48500Y-33000D03*
X49500Y-33000D03*
X48500Y-34000D03*
X49500Y-34000D03*
X48500Y-35000D03*
X49500Y-35000D03*
X48500Y-36000D03*
X49500Y-36000D03*
G54D13*
X48900Y-39500D03*
G54D11*
X42000Y-38000D03*
G54D12*
X42000Y-39000D03*
X41000Y-38000D03*
X41000Y-39000D03*
X40000Y-38000D03*
X40000Y-39000D03*
X39000Y-38000D03*
X39000Y-39000D03*
X38000Y-38000D03*
X38000Y-39000D03*
X37000Y-38000D03*
X37000Y-39000D03*
X36000Y-38000D03*
X36000Y-39000D03*
X35000Y-38000D03*
X35000Y-39000D03*
X34000Y-38000D03*
X34000Y-39000D03*
X33000Y-38000D03*
X33000Y-39000D03*
G54D13*
X45500Y-38400D03*
G54D12*
X32000Y-38000D03*
X32000Y-39000D03*
X31000Y-38000D03*
X31000Y-39000D03*
X30000Y-38000D03*
X30000Y-39000D03*
X29000Y-38000D03*
X29000Y-39000D03*
X28000Y-38000D03*
X28000Y-39000D03*
X27000Y-38000D03*
X27000Y-39000D03*
X26000Y-38000D03*
X26000Y-39000D03*
X25000Y-38000D03*
X25000Y-39000D03*
X24000Y-38000D03*
X24000Y-39000D03*
X23000Y-38000D03*
X23000Y-39000D03*
X22000Y-38000D03*
X22000Y-39000D03*
X21000Y-38000D03*
X21000Y-39000D03*
X20000Y-38000D03*
X20000Y-39000D03*
X19000Y-38000D03*
X19000Y-39000D03*
X18000Y-38000D03*
X18000Y-39000D03*
G54D13*
X14500Y-38400D03*
G54D14*
X45000Y-11000D03*
G54D12*
X41000Y-17000D03*
X42000Y-17000D03*
X43000Y-17000D03*
X44000Y-17000D03*
X41000Y-18000D03*
X42000Y-18000D03*
X43000Y-18000D03*
X44000Y-18000D03*
X41000Y-19000D03*
X42000Y-19000D03*
X43000Y-19000D03*
X44000Y-19000D03*
X41000Y-20000D03*
X42000Y-20000D03*
X43000Y-20000D03*
X44000Y-20000D03*
X41000Y-21000D03*
X42000Y-21000D03*
X43000Y-21000D03*
X44000Y-21000D03*
X41000Y-22000D03*
X42000Y-22000D03*
X43000Y-22000D03*
X44000Y-22000D03*
X41000Y-23000D03*
X42000Y-23000D03*
X43000Y-23000D03*
X44000Y-23000D03*
X41000Y-24000D03*
X42000Y-24000D03*
X43000Y-24000D03*
X44000Y-24000D03*
X41000Y-25000D03*
X42000Y-25000D03*
X43000Y-25000D03*
X44000Y-25000D03*
X41000Y-26000D03*
X42000Y-26000D03*
X43000Y-26000D03*
X44000Y-26000D03*
X41000Y-27000D03*
X42000Y-27000D03*
X43000Y-27000D03*
X44000Y-27000D03*
X41000Y-28000D03*
X42000Y-28000D03*
X43000Y-28000D03*
X44000Y-28000D03*
X41000Y-29000D03*
X42000Y-29000D03*
X43000Y-29000D03*
X44000Y-29000D03*
X41000Y-30000D03*
X42000Y-30000D03*
X43000Y-30000D03*
X44000Y-30000D03*
X41000Y-31000D03*
X42000Y-31000D03*
X43000Y-31000D03*
X44000Y-31000D03*
X16000Y-31000D03*
X17000Y-31000D03*
X18000Y-31000D03*
X19000Y-31000D03*
X16000Y-30000D03*
X17000Y-30000D03*
X18000Y-30000D03*
X19000Y-30000D03*
X16000Y-29000D03*
X17000Y-29000D03*
X18000Y-29000D03*
X19000Y-29000D03*
X16000Y-28000D03*
X17000Y-28000D03*
X18000Y-28000D03*
X19000Y-28000D03*
X16000Y-27000D03*
X17000Y-27000D03*
X18000Y-27000D03*
X19000Y-27000D03*
X16000Y-26000D03*
X17000Y-26000D03*
X18000Y-26000D03*
X19000Y-26000D03*
X16000Y-25000D03*
X17000Y-25000D03*
X18000Y-25000D03*
X19000Y-25000D03*
X16000Y-24000D03*
X17000Y-24000D03*
X18000Y-24000D03*
X19000Y-24000D03*
X16000Y-23000D03*
X17000Y-23000D03*
X18000Y-23000D03*
X19000Y-23000D03*
X16000Y-22000D03*
X17000Y-22000D03*
X18000Y-22000D03*
X19000Y-22000D03*
X16000Y-21000D03*
X17000Y-21000D03*
X18000Y-21000D03*
X19000Y-21000D03*
X16000Y-20000D03*
X17000Y-20000D03*
X18000Y-20000D03*
X19000Y-20000D03*
X16000Y-19000D03*
X17000Y-19000D03*
X18000Y-19000D03*
X19000Y-19000D03*
X16000Y-18000D03*
X17000Y-18000D03*
X18000Y-18000D03*
X19000Y-18000D03*
X16000Y-17000D03*
X17000Y-17000D03*
X18000Y-17000D03*
X19000Y-17000D03*
G54D15*
X17000Y-29000D02*
X17000Y-28875D01*
X27500Y-38500D02*
X28000Y-39000D01*
X27500Y-37825D02*
X27500Y-38500D01*
X26275Y-36600D02*
X27500Y-37825D01*
X18675Y-36600D02*
X26275Y-36600D01*
X14900Y-32825D02*
X18675Y-36600D01*
X14900Y-28842D02*
X14900Y-32825D01*
X15175Y-28567D02*
X14900Y-28842D01*
X16692Y-28567D02*
X15175Y-28567D01*
X17000Y-28875D02*
X16692Y-28567D01*
X18425Y-28425D02*
X15100Y-28425D01*
X15100Y-28425D02*
X14750Y-28775D01*
X14750Y-28775D02*
X14750Y-32900D01*
X14750Y-32900D02*
X18600Y-36750D01*
X18600Y-36750D02*
X25450Y-36750D01*
X25450Y-36750D02*
X26500Y-37800D01*
X26500Y-37800D02*
X26500Y-38500D01*
X26500Y-38500D02*
X27000Y-39000D01*
X19000Y-29000D02*
X18425Y-28425D01*
X19000Y-29925D02*
X18500Y-29425D01*
X18500Y-29425D02*
X15275Y-29425D01*
X15275Y-29425D02*
X15050Y-29650D01*
X15050Y-29650D02*
X15050Y-32750D01*
X15050Y-32750D02*
X18725Y-36425D01*
X18725Y-36425D02*
X27150Y-36425D01*
X27150Y-36425D02*
X28500Y-37775D01*
X28500Y-37775D02*
X28500Y-38500D01*
X28500Y-38500D02*
X29000Y-39000D01*
X19000Y-30000D02*
X19000Y-29925D01*
X17000Y-29892D02*
X16675Y-29567D01*
X16675Y-29567D02*
X15558Y-29567D01*
X15558Y-29567D02*
X15200Y-29925D01*
X15200Y-29925D02*
X15200Y-32700D01*
X15200Y-32700D02*
X18750Y-36250D01*
X18750Y-36250D02*
X28150Y-36250D01*
X28150Y-36250D02*
X29475Y-37575D01*
X29475Y-37575D02*
X29475Y-38475D01*
X29475Y-38475D02*
X30000Y-39000D01*
X17000Y-30000D02*
X17000Y-29892D01*
X42500Y-28500D02*
X44750Y-28500D01*
X44750Y-28500D02*
X46250Y-30000D01*
X46250Y-30000D02*
X46250Y-31500D01*
X46250Y-31500D02*
X41000Y-36750D01*
X41000Y-36750D02*
X39500Y-36750D01*
X39500Y-36750D02*
X38500Y-37750D01*
X38500Y-37750D02*
X38500Y-38500D01*
X38500Y-38500D02*
X38000Y-39000D01*
X42000Y-29000D02*
X42500Y-28500D01*
X44750Y-29000D02*
X46000Y-30250D01*
X46000Y-30250D02*
X46000Y-31250D01*
X46000Y-31250D02*
X40750Y-36500D01*
X40750Y-36500D02*
X38750Y-36500D01*
X38750Y-36500D02*
X37500Y-37750D01*
X37500Y-37750D02*
X37500Y-38500D01*
X37500Y-38500D02*
X37000Y-39000D01*
X44000Y-29000D02*
X44750Y-29000D01*
X45000Y-31250D02*
X45000Y-30250D01*
X45000Y-30250D02*
X44750Y-30000D01*
X44750Y-30000D02*
X44000Y-30000D01*
X35000Y-39000D02*
X35500Y-38500D01*
X35500Y-37500D02*
X35500Y-38500D01*
X37000Y-36000D02*
X35500Y-37500D01*
X40250Y-36000D02*
X37000Y-36000D01*
X40250Y-36000D02*
X45000Y-31250D01*
X42500Y-29500D02*
X44750Y-29500D01*
X44750Y-29500D02*
X45500Y-30250D01*
X45500Y-30250D02*
X45500Y-31250D01*
X45500Y-31250D02*
X40500Y-36250D01*
X40500Y-36250D02*
X38000Y-36250D01*
X38000Y-36250D02*
X36500Y-37750D01*
X36500Y-37750D02*
X36500Y-38500D01*
X36500Y-38500D02*
X36000Y-39000D01*
X42000Y-30000D02*
X42500Y-29500D01*
X46750Y-31750D02*
X41250Y-37250D01*
X41250Y-37250D02*
X41000Y-37250D01*
X41000Y-37250D02*
X40500Y-37750D01*
X42500Y-27500D02*
X42000Y-28000D01*
X40000Y-39000D02*
X40500Y-38500D01*
X40500Y-37750D02*
X40500Y-38500D01*
X46750Y-29500D02*
X46750Y-31500D01*
X44750Y-27500D02*
X46750Y-29500D01*
X42500Y-27500D02*
X44750Y-27500D01*
X46750Y-31500D02*
X46750Y-31750D01*
X40250Y-37000D02*
X41250Y-37000D01*
X41250Y-37000D02*
X46500Y-31750D01*
X46500Y-31750D02*
X46500Y-30750D01*
X44750Y-28000D02*
X44000Y-28000D01*
X39000Y-39000D02*
X39500Y-38500D01*
X39500Y-37750D02*
X39500Y-38500D01*
X46500Y-29750D02*
X46500Y-30750D01*
X44750Y-28000D02*
X46500Y-29750D01*
X39500Y-37750D02*
X40250Y-37000D01*
X44000Y-26000D02*
X44750Y-26000D01*
X49000Y-30500D02*
X49500Y-31000D01*
X48250Y-30500D02*
X49000Y-30500D01*
X47750Y-30000D02*
X48250Y-30500D01*
X47750Y-29000D02*
X47750Y-30000D01*
X44750Y-26000D02*
X47750Y-29000D01*
X44750Y-25000D02*
X48250Y-28500D01*
X48250Y-28500D02*
X49000Y-28500D01*
X49000Y-28500D02*
X49500Y-29000D01*
X44000Y-25000D02*
X44750Y-25000D01*
X42500Y-24500D02*
X45250Y-24500D01*
X45250Y-24500D02*
X48250Y-27500D01*
X48250Y-27500D02*
X49000Y-27500D01*
X49000Y-27500D02*
X49500Y-28000D01*
X42000Y-25000D02*
X42500Y-24500D01*
X48500Y-28000D02*
X48500Y-27975D01*
X16925Y-28000D02*
X16500Y-27575D01*
X16500Y-27575D02*
X15050Y-27575D01*
X15050Y-27575D02*
X14592Y-28033D01*
X14592Y-28033D02*
X14592Y-32967D01*
X14592Y-32967D02*
X18550Y-36925D01*
X18550Y-36925D02*
X24675Y-36925D01*
X24675Y-36925D02*
X25500Y-37750D01*
X25500Y-37750D02*
X25500Y-38500D01*
X25500Y-38500D02*
X26000Y-39000D01*
X17000Y-28000D02*
X16925Y-28000D01*
X18975Y-28000D02*
X18400Y-27425D01*
X18400Y-27425D02*
X14892Y-27425D01*
X14892Y-27425D02*
X14450Y-27867D01*
X14450Y-27867D02*
X14450Y-33075D01*
X14450Y-33075D02*
X18475Y-37100D01*
X18475Y-37100D02*
X23775Y-37100D01*
X23775Y-37100D02*
X24500Y-37825D01*
X24500Y-37825D02*
X24500Y-38500D01*
X24500Y-38500D02*
X25000Y-39000D01*
X19000Y-28000D02*
X18975Y-28000D01*
X19000Y-26975D02*
X18450Y-26425D01*
X18450Y-26425D02*
X15025Y-26425D01*
X15025Y-26425D02*
X14150Y-27300D01*
X14150Y-27300D02*
X14150Y-33225D01*
X14150Y-33225D02*
X18400Y-37475D01*
X18400Y-37475D02*
X22175Y-37475D01*
X22175Y-37475D02*
X22500Y-37800D01*
X22500Y-37800D02*
X22500Y-38500D01*
X22500Y-38500D02*
X23000Y-39000D01*
X19000Y-27000D02*
X19000Y-26975D01*
X17000Y-26942D02*
X16625Y-26567D01*
X16625Y-26567D02*
X15125Y-26567D01*
X15125Y-26567D02*
X14300Y-27392D01*
X14300Y-27392D02*
X14300Y-33150D01*
X14300Y-33150D02*
X18450Y-37300D01*
X18450Y-37300D02*
X23000Y-37300D01*
X23000Y-37300D02*
X23500Y-37800D01*
X23500Y-37800D02*
X23500Y-38500D01*
X23500Y-38500D02*
X24000Y-39000D01*
X17000Y-27000D02*
X17000Y-26942D01*
X42500Y-30500D02*
X44250Y-30500D01*
X44250Y-30500D02*
X44500Y-30750D01*
X44500Y-30750D02*
X44500Y-31250D01*
X44500Y-31250D02*
X40000Y-35750D01*
X40000Y-35750D02*
X36500Y-35750D01*
X36500Y-35750D02*
X34500Y-37750D01*
X34500Y-37750D02*
X34500Y-38500D01*
X34500Y-38500D02*
X34000Y-39000D01*
X42000Y-31000D02*
X42500Y-30500D01*
X44000Y-31000D02*
X39500Y-35500D01*
X39500Y-35500D02*
X35500Y-35500D01*
X35500Y-35500D02*
X33500Y-37500D01*
X33500Y-37500D02*
X33500Y-38500D01*
X33500Y-38500D02*
X33000Y-39000D01*
X44000Y-31000D02*
X44000Y-31000D01*
X19000Y-30950D02*
X18550Y-30500D01*
X18550Y-30500D02*
X15800Y-30500D01*
X15800Y-30500D02*
X15425Y-30875D01*
X15425Y-30875D02*
X15425Y-32700D01*
X15425Y-32700D02*
X18825Y-36100D01*
X18825Y-36100D02*
X28850Y-36100D01*
X28850Y-36100D02*
X30475Y-37725D01*
X30475Y-37725D02*
X30475Y-38475D01*
X30475Y-38475D02*
X31000Y-39000D01*
X19000Y-31000D02*
X19000Y-30950D01*
X17000Y-31000D02*
X17000Y-33875D01*
X31475Y-38475D02*
X32000Y-39000D01*
X31475Y-37725D02*
X31475Y-38475D01*
X29575Y-35825D02*
X31475Y-37725D01*
X18950Y-35825D02*
X29575Y-35825D01*
X17000Y-33875D02*
X18950Y-35825D01*
X44750Y-27000D02*
X47000Y-29250D01*
X47000Y-29250D02*
X47000Y-31750D01*
X41000Y-39000D02*
X41500Y-38500D01*
X44750Y-27000D02*
X44000Y-27000D01*
X43500Y-35250D02*
X47000Y-31750D01*
X43500Y-35750D02*
X43500Y-35250D01*
X41500Y-37750D02*
X43500Y-35750D01*
X41500Y-38500D02*
X41500Y-37750D01*
X42000Y-27000D02*
X42500Y-26500D01*
X43750Y-37250D02*
X42000Y-39000D01*
X43750Y-35250D02*
X43750Y-37250D01*
X47250Y-31750D02*
X43750Y-35250D01*
X47250Y-29000D02*
X47250Y-31750D01*
X44750Y-26500D02*
X47250Y-29000D01*
X42500Y-26500D02*
X44750Y-26500D01*
X47750Y-22000D02*
X48250Y-22500D01*
X48250Y-22500D02*
X49000Y-22500D01*
X49000Y-22500D02*
X49500Y-23000D01*
X44000Y-22000D02*
X47750Y-22000D01*
X42000Y-20000D02*
X42500Y-19500D01*
X49000Y-17500D02*
X49500Y-18000D01*
X46750Y-17500D02*
X49000Y-17500D01*
X44750Y-19500D02*
X46750Y-17500D01*
X42500Y-19500D02*
X44750Y-19500D01*
X44000Y-24000D02*
X45750Y-24000D01*
X49000Y-26500D02*
X49500Y-27000D01*
X48250Y-26500D02*
X49000Y-26500D01*
X45750Y-24000D02*
X48250Y-26500D01*
X42000Y-22000D02*
X42500Y-21500D01*
X49000Y-21500D02*
X49500Y-22000D01*
X42500Y-21500D02*
X49000Y-21500D01*
X44750Y-19000D02*
X47250Y-16500D01*
X47250Y-16500D02*
X49000Y-16500D01*
X49000Y-16500D02*
X49500Y-17000D01*
X44000Y-19000D02*
X44750Y-19000D01*
X42250Y-24000D02*
X42750Y-23500D01*
X42750Y-23500D02*
X46250Y-23500D01*
X46250Y-23500D02*
X48250Y-25500D01*
X48250Y-25500D02*
X49000Y-25500D01*
X49000Y-25500D02*
X49500Y-26000D01*
X42000Y-24000D02*
X42250Y-24000D01*
X45250Y-21000D02*
X45750Y-20500D01*
X45750Y-20500D02*
X49000Y-20500D01*
X49000Y-20500D02*
X49500Y-21000D01*
X44000Y-21000D02*
X45250Y-21000D01*
X42000Y-19000D02*
X42500Y-18500D01*
X49000Y-15500D02*
X49500Y-16000D01*
X47500Y-15500D02*
X49000Y-15500D01*
X44500Y-18500D02*
X47500Y-15500D01*
X42500Y-18500D02*
X44500Y-18500D01*
X42000Y-26000D02*
X42500Y-25500D01*
X49000Y-29500D02*
X49500Y-30000D01*
X48250Y-29500D02*
X49000Y-29500D01*
X48000Y-29250D02*
X48250Y-29500D01*
X48000Y-28750D02*
X48000Y-29250D01*
X44750Y-25500D02*
X48000Y-28750D01*
X42500Y-25500D02*
X44750Y-25500D01*
X46750Y-23000D02*
X48250Y-24500D01*
X48250Y-24500D02*
X49000Y-24500D01*
X49000Y-24500D02*
X49500Y-25000D01*
X44000Y-23000D02*
X46750Y-23000D01*
X42000Y-21000D02*
X42250Y-21000D01*
X49000Y-19500D02*
X49500Y-20000D01*
X46000Y-19500D02*
X49000Y-19500D01*
X45000Y-20500D02*
X46000Y-19500D01*
X42750Y-20500D02*
X45000Y-20500D01*
X42250Y-21000D02*
X42750Y-20500D01*
X42000Y-23000D02*
X42500Y-22500D01*
X49000Y-23500D02*
X49500Y-24000D01*
X48250Y-23500D02*
X49000Y-23500D01*
X47250Y-22500D02*
X48250Y-23500D01*
X42500Y-22500D02*
X47250Y-22500D01*
X44750Y-20000D02*
X46250Y-18500D01*
X46250Y-18500D02*
X49000Y-18500D01*
X49000Y-18500D02*
X49500Y-19000D01*
X44000Y-20000D02*
X44750Y-20000D01*
X44000Y-18000D02*
X44250Y-18000D01*
X49000Y-14500D02*
X49500Y-15000D01*
X47750Y-14500D02*
X49000Y-14500D01*
X44250Y-18000D02*
X47750Y-14500D01*
X42000Y-17750D02*
X42250Y-17500D01*
X42250Y-17500D02*
X44250Y-17500D01*
X44250Y-17500D02*
X48250Y-13500D01*
X48250Y-13500D02*
X49000Y-13500D01*
X49000Y-13500D02*
X49500Y-14000D01*
X42000Y-18000D02*
X42000Y-17750D01*
X47000Y-13000D02*
X48500Y-13000D01*
X43000Y-17000D02*
X47000Y-13000D01*
X48500Y-12000D02*
X46000Y-12000D01*
X46000Y-12000D02*
X41000Y-17000D01*
X19000Y-19000D02*
X18900Y-19000D01*
X11000Y-20500D02*
X10500Y-21000D01*
X11800Y-20500D02*
X11000Y-20500D01*
X13850Y-18450D02*
X11800Y-20500D01*
X18350Y-18450D02*
X13850Y-18450D01*
X18900Y-19000D02*
X18350Y-18450D01*
X17000Y-18950D02*
X16642Y-18592D01*
X16642Y-18592D02*
X14708Y-18592D01*
X14708Y-18592D02*
X11800Y-21500D01*
X11800Y-21500D02*
X11000Y-21500D01*
X11000Y-21500D02*
X10500Y-22000D01*
X17000Y-19000D02*
X17000Y-18950D01*
X17000Y-20992D02*
X16575Y-20567D01*
X16575Y-20567D02*
X14359Y-20567D01*
X14359Y-20567D02*
X12250Y-22676D01*
X12250Y-22676D02*
X12250Y-24950D01*
X12250Y-24950D02*
X11700Y-25500D01*
X11700Y-25500D02*
X11000Y-25500D01*
X11000Y-25500D02*
X10500Y-26000D01*
X17000Y-21000D02*
X17000Y-20992D01*
X18425Y-20425D02*
X14301Y-20425D01*
X19000Y-21000D02*
X18425Y-20425D01*
X11000Y-24500D02*
X10500Y-25000D01*
X11650Y-24500D02*
X11000Y-24500D01*
X12100Y-24050D02*
X11650Y-24500D01*
X12100Y-22626D02*
X12100Y-24050D01*
X14301Y-20425D02*
X12100Y-22626D01*
X19000Y-21950D02*
X18475Y-21425D01*
X18475Y-21425D02*
X13750Y-21425D01*
X13750Y-21425D02*
X12450Y-22725D01*
X12450Y-22725D02*
X12450Y-25725D01*
X12450Y-25725D02*
X11675Y-26500D01*
X11675Y-26500D02*
X11000Y-26500D01*
X11000Y-26500D02*
X10500Y-27000D01*
X19000Y-22000D02*
X19000Y-21950D01*
X17000Y-22000D02*
X16575Y-21575D01*
X11025Y-27475D02*
X10500Y-28000D01*
X11750Y-27475D02*
X11025Y-27475D01*
X12650Y-26575D02*
X11750Y-27475D01*
X12650Y-22775D02*
X12650Y-26575D01*
X13850Y-21575D02*
X12650Y-22775D01*
X16575Y-21575D02*
X13850Y-21575D01*
X17000Y-17000D02*
X17000Y-17000D01*
X11000Y-16500D02*
X12250Y-16500D01*
X12250Y-16500D02*
X12500Y-16250D01*
X12500Y-16250D02*
X18250Y-16250D01*
X18250Y-16250D02*
X19000Y-17000D01*
X10500Y-17000D02*
X11000Y-16500D01*
X19000Y-18000D02*
X18450Y-17450D01*
X11000Y-18500D02*
X10500Y-19000D01*
X12000Y-18500D02*
X11000Y-18500D01*
X13050Y-17450D02*
X12000Y-18500D01*
X18450Y-17450D02*
X13050Y-17450D01*
X17000Y-18000D02*
X16800Y-18000D01*
X11000Y-19500D02*
X10500Y-20000D01*
X11700Y-19500D02*
X11000Y-19500D01*
X13608Y-17592D02*
X11700Y-19500D01*
X16392Y-17592D02*
X13608Y-17592D01*
X16800Y-18000D02*
X16392Y-17592D01*
X15625Y-19575D02*
X14925Y-19575D01*
X11675Y-23500D02*
X11000Y-23500D01*
X11000Y-23500D02*
X10500Y-24000D01*
X11925Y-23250D02*
X11675Y-23500D01*
X11925Y-22575D02*
X11925Y-23250D01*
X14925Y-19575D02*
X11925Y-22575D01*
X17000Y-20000D02*
X16983Y-20000D01*
X16558Y-19575D02*
X15625Y-19575D01*
X15625Y-19575D02*
X15600Y-19575D01*
X16983Y-20000D02*
X16558Y-19575D01*
X18425Y-22425D02*
X14050Y-22425D01*
X14050Y-22425D02*
X12850Y-23625D01*
X12850Y-23625D02*
X12850Y-27500D01*
X12850Y-27500D02*
X11850Y-28500D01*
X11850Y-28500D02*
X11000Y-28500D01*
X11000Y-28500D02*
X10500Y-29000D01*
X19000Y-23000D02*
X18425Y-22425D01*
X17000Y-23000D02*
X17000Y-22992D01*
X11000Y-29500D02*
X10500Y-30000D01*
X11700Y-29500D02*
X11000Y-29500D01*
X13025Y-28175D02*
X11700Y-29500D01*
X13025Y-24075D02*
X13025Y-28175D01*
X14525Y-22575D02*
X13025Y-24075D01*
X16583Y-22575D02*
X14525Y-22575D01*
X17000Y-22992D02*
X16583Y-22575D01*
X19000Y-20000D02*
X18425Y-19425D01*
X11000Y-22500D02*
X10500Y-23000D01*
X11700Y-22500D02*
X11000Y-22500D01*
X14775Y-19425D02*
X11700Y-22500D01*
X18425Y-19425D02*
X14775Y-19425D01*
X16575Y-25575D02*
X14625Y-25575D01*
X14625Y-25575D02*
X14000Y-26200D01*
X14000Y-26200D02*
X14000Y-33250D01*
X14000Y-33250D02*
X11775Y-35475D01*
X11775Y-35475D02*
X11025Y-35475D01*
X11025Y-35475D02*
X10500Y-36000D01*
X17000Y-26000D02*
X16575Y-25575D01*
X19000Y-26000D02*
X18425Y-25425D01*
X11025Y-34475D02*
X10500Y-35000D01*
X11625Y-34475D02*
X11025Y-34475D01*
X13850Y-32250D02*
X11625Y-34475D01*
X13850Y-26025D02*
X13850Y-32250D01*
X14450Y-25425D02*
X13850Y-26025D01*
X18425Y-25425D02*
X14450Y-25425D01*
X19000Y-24975D02*
X18450Y-24425D01*
X18450Y-24425D02*
X14850Y-24425D01*
X14850Y-24425D02*
X13525Y-25750D01*
X13525Y-25750D02*
X13525Y-30775D01*
X13525Y-30775D02*
X11825Y-32475D01*
X11825Y-32475D02*
X11025Y-32475D01*
X11025Y-32475D02*
X10500Y-33000D01*
X19000Y-25000D02*
X19000Y-24975D01*
X17000Y-24950D02*
X16617Y-24567D01*
X16617Y-24567D02*
X15083Y-24567D01*
X15083Y-24567D02*
X13700Y-25950D01*
X13700Y-25950D02*
X13700Y-31500D01*
X13700Y-31500D02*
X11725Y-33475D01*
X11725Y-33475D02*
X11025Y-33475D01*
X11025Y-33475D02*
X10500Y-34000D01*
X17000Y-25000D02*
X17000Y-24950D01*
X19000Y-23975D02*
X18450Y-23425D01*
X18450Y-23425D02*
X14400Y-23425D01*
X14400Y-23425D02*
X13200Y-24625D01*
X13200Y-24625D02*
X13200Y-29000D01*
X13200Y-29000D02*
X11700Y-30500D01*
X11700Y-30500D02*
X11000Y-30500D01*
X11000Y-30500D02*
X10500Y-31000D01*
X19000Y-24000D02*
X19000Y-23975D01*
X17000Y-24000D02*
X17000Y-23975D01*
X11000Y-31500D02*
X10500Y-32000D01*
X11775Y-31500D02*
X11000Y-31500D01*
X13375Y-29900D02*
X11775Y-31500D01*
X13375Y-25067D02*
X13375Y-29900D01*
X14867Y-23575D02*
X13375Y-25067D01*
X16600Y-23575D02*
X14867Y-23575D01*
X17000Y-23975D02*
X16600Y-23575D01*
G54D10*
G36*
X50575Y-40575D02*
X49838Y-40575D01*
X50106Y-40308D01*
X50324Y-39784D01*
X50324Y-39218D01*
X50108Y-38695D01*
X49946Y-38532D01*
X49946Y-36056D01*
X49946Y-35056D01*
X49946Y-34056D01*
X49946Y-33056D01*
X49946Y-32056D01*
X49933Y-31880D01*
X49891Y-31777D01*
X49825Y-31746D01*
X49571Y-32000D01*
X49825Y-32254D01*
X49891Y-32223D01*
X49946Y-32056D01*
X49946Y-33056D01*
X49933Y-32880D01*
X49891Y-32777D01*
X49825Y-32746D01*
X49754Y-32817D01*
X49754Y-32675D01*
X49754Y-32325D01*
X49500Y-32071D01*
X49429Y-32142D01*
X49429Y-32000D01*
X49175Y-31746D01*
X49109Y-31777D01*
X49054Y-31944D01*
X49067Y-32120D01*
X49109Y-32223D01*
X49175Y-32254D01*
X49429Y-32000D01*
X49429Y-32142D01*
X49246Y-32325D01*
X49277Y-32391D01*
X49444Y-32446D01*
X49620Y-32433D01*
X49723Y-32391D01*
X49754Y-32325D01*
X49754Y-32675D01*
X49723Y-32609D01*
X49556Y-32554D01*
X49380Y-32567D01*
X49277Y-32609D01*
X49246Y-32675D01*
X49500Y-32929D01*
X49754Y-32675D01*
X49754Y-32817D01*
X49571Y-33000D01*
X49825Y-33254D01*
X49891Y-33223D01*
X49946Y-33056D01*
X49946Y-34056D01*
X49933Y-33880D01*
X49891Y-33777D01*
X49825Y-33746D01*
X49754Y-33817D01*
X49754Y-33675D01*
X49754Y-33325D01*
X49500Y-33071D01*
X49429Y-33142D01*
X49429Y-33000D01*
X49175Y-32746D01*
X49109Y-32777D01*
X49054Y-32944D01*
X49067Y-33120D01*
X49109Y-33223D01*
X49175Y-33254D01*
X49429Y-33000D01*
X49429Y-33142D01*
X49246Y-33325D01*
X49277Y-33391D01*
X49444Y-33446D01*
X49620Y-33433D01*
X49723Y-33391D01*
X49754Y-33325D01*
X49754Y-33675D01*
X49723Y-33609D01*
X49556Y-33554D01*
X49380Y-33567D01*
X49277Y-33609D01*
X49246Y-33675D01*
X49500Y-33929D01*
X49754Y-33675D01*
X49754Y-33817D01*
X49571Y-34000D01*
X49825Y-34254D01*
X49891Y-34223D01*
X49946Y-34056D01*
X49946Y-35056D01*
X49933Y-34880D01*
X49891Y-34777D01*
X49825Y-34746D01*
X49754Y-34817D01*
X49754Y-34675D01*
X49754Y-34325D01*
X49500Y-34071D01*
X49429Y-34142D01*
X49429Y-34000D01*
X49175Y-33746D01*
X49109Y-33777D01*
X49054Y-33944D01*
X49067Y-34120D01*
X49109Y-34223D01*
X49175Y-34254D01*
X49429Y-34000D01*
X49429Y-34142D01*
X49246Y-34325D01*
X49277Y-34391D01*
X49444Y-34446D01*
X49620Y-34433D01*
X49723Y-34391D01*
X49754Y-34325D01*
X49754Y-34675D01*
X49723Y-34609D01*
X49556Y-34554D01*
X49380Y-34567D01*
X49277Y-34609D01*
X49246Y-34675D01*
X49500Y-34929D01*
X49754Y-34675D01*
X49754Y-34817D01*
X49571Y-35000D01*
X49825Y-35254D01*
X49891Y-35223D01*
X49946Y-35056D01*
X49946Y-36056D01*
X49933Y-35880D01*
X49891Y-35777D01*
X49825Y-35746D01*
X49754Y-35817D01*
X49754Y-35675D01*
X49754Y-35325D01*
X49500Y-35071D01*
X49429Y-35142D01*
X49429Y-35000D01*
X49175Y-34746D01*
X49109Y-34777D01*
X49054Y-34944D01*
X49067Y-35120D01*
X49109Y-35223D01*
X49175Y-35254D01*
X49429Y-35000D01*
X49429Y-35142D01*
X49246Y-35325D01*
X49277Y-35391D01*
X49444Y-35446D01*
X49620Y-35433D01*
X49723Y-35391D01*
X49754Y-35325D01*
X49754Y-35675D01*
X49723Y-35609D01*
X49556Y-35554D01*
X49380Y-35567D01*
X49277Y-35609D01*
X49246Y-35675D01*
X49500Y-35929D01*
X49754Y-35675D01*
X49754Y-35817D01*
X49571Y-36000D01*
X49825Y-36254D01*
X49891Y-36223D01*
X49946Y-36056D01*
X49946Y-38532D01*
X49754Y-38340D01*
X49754Y-36325D01*
X49500Y-36071D01*
X49429Y-36142D01*
X49429Y-36000D01*
X49175Y-35746D01*
X49109Y-35777D01*
X49054Y-35944D01*
X49067Y-36120D01*
X49109Y-36223D01*
X49175Y-36254D01*
X49429Y-36000D01*
X49429Y-36142D01*
X49246Y-36325D01*
X49277Y-36391D01*
X49444Y-36446D01*
X49620Y-36433D01*
X49723Y-36391D01*
X49754Y-36325D01*
X49754Y-38340D01*
X49708Y-38294D01*
X49184Y-38076D01*
X48946Y-38076D01*
X48946Y-36056D01*
X48946Y-35056D01*
X48946Y-34056D01*
X48946Y-33056D01*
X48946Y-32056D01*
X48933Y-31880D01*
X48891Y-31777D01*
X48825Y-31746D01*
X48571Y-32000D01*
X48825Y-32254D01*
X48891Y-32223D01*
X48946Y-32056D01*
X48946Y-33056D01*
X48933Y-32880D01*
X48891Y-32777D01*
X48825Y-32746D01*
X48754Y-32817D01*
X48754Y-32675D01*
X48754Y-32325D01*
X48500Y-32071D01*
X48429Y-32142D01*
X48429Y-32000D01*
X48175Y-31746D01*
X48109Y-31777D01*
X48054Y-31944D01*
X48067Y-32120D01*
X48109Y-32223D01*
X48175Y-32254D01*
X48429Y-32000D01*
X48429Y-32142D01*
X48246Y-32325D01*
X48277Y-32391D01*
X48444Y-32446D01*
X48620Y-32433D01*
X48723Y-32391D01*
X48754Y-32325D01*
X48754Y-32675D01*
X48723Y-32609D01*
X48556Y-32554D01*
X48380Y-32567D01*
X48277Y-32609D01*
X48246Y-32675D01*
X48500Y-32929D01*
X48754Y-32675D01*
X48754Y-32817D01*
X48571Y-33000D01*
X48825Y-33254D01*
X48891Y-33223D01*
X48946Y-33056D01*
X48946Y-34056D01*
X48933Y-33880D01*
X48891Y-33777D01*
X48825Y-33746D01*
X48754Y-33817D01*
X48754Y-33675D01*
X48754Y-33325D01*
X48500Y-33071D01*
X48429Y-33142D01*
X48429Y-33000D01*
X48175Y-32746D01*
X48109Y-32777D01*
X48054Y-32944D01*
X48067Y-33120D01*
X48109Y-33223D01*
X48175Y-33254D01*
X48429Y-33000D01*
X48429Y-33142D01*
X48246Y-33325D01*
X48277Y-33391D01*
X48444Y-33446D01*
X48620Y-33433D01*
X48723Y-33391D01*
X48754Y-33325D01*
X48754Y-33675D01*
X48723Y-33609D01*
X48556Y-33554D01*
X48380Y-33567D01*
X48277Y-33609D01*
X48246Y-33675D01*
X48500Y-33929D01*
X48754Y-33675D01*
X48754Y-33817D01*
X48571Y-34000D01*
X48825Y-34254D01*
X48891Y-34223D01*
X48946Y-34056D01*
X48946Y-35056D01*
X48933Y-34880D01*
X48891Y-34777D01*
X48825Y-34746D01*
X48754Y-34817D01*
X48754Y-34675D01*
X48754Y-34325D01*
X48500Y-34071D01*
X48429Y-34142D01*
X48429Y-34000D01*
X48175Y-33746D01*
X48109Y-33777D01*
X48054Y-33944D01*
X48067Y-34120D01*
X48109Y-34223D01*
X48175Y-34254D01*
X48429Y-34000D01*
X48429Y-34142D01*
X48246Y-34325D01*
X48277Y-34391D01*
X48444Y-34446D01*
X48620Y-34433D01*
X48723Y-34391D01*
X48754Y-34325D01*
X48754Y-34675D01*
X48723Y-34609D01*
X48556Y-34554D01*
X48380Y-34567D01*
X48277Y-34609D01*
X48246Y-34675D01*
X48500Y-34929D01*
X48754Y-34675D01*
X48754Y-34817D01*
X48571Y-35000D01*
X48825Y-35254D01*
X48891Y-35223D01*
X48946Y-35056D01*
X48946Y-36056D01*
X48933Y-35880D01*
X48891Y-35777D01*
X48825Y-35746D01*
X48754Y-35817D01*
X48754Y-35675D01*
X48754Y-35325D01*
X48500Y-35071D01*
X48429Y-35142D01*
X48429Y-35000D01*
X48175Y-34746D01*
X48109Y-34777D01*
X48054Y-34944D01*
X48067Y-35120D01*
X48109Y-35223D01*
X48175Y-35254D01*
X48429Y-35000D01*
X48429Y-35142D01*
X48246Y-35325D01*
X48277Y-35391D01*
X48444Y-35446D01*
X48620Y-35433D01*
X48723Y-35391D01*
X48754Y-35325D01*
X48754Y-35675D01*
X48723Y-35609D01*
X48556Y-35554D01*
X48380Y-35567D01*
X48277Y-35609D01*
X48246Y-35675D01*
X48500Y-35929D01*
X48754Y-35675D01*
X48754Y-35817D01*
X48571Y-36000D01*
X48825Y-36254D01*
X48891Y-36223D01*
X48946Y-36056D01*
X48946Y-38076D01*
X48754Y-38076D01*
X48754Y-36325D01*
X48500Y-36071D01*
X48429Y-36142D01*
X48429Y-36000D01*
X48175Y-35746D01*
X48109Y-35777D01*
X48054Y-35944D01*
X48067Y-36120D01*
X48109Y-36223D01*
X48175Y-36254D01*
X48429Y-36000D01*
X48429Y-36142D01*
X48246Y-36325D01*
X48277Y-36391D01*
X48444Y-36446D01*
X48620Y-36433D01*
X48723Y-36391D01*
X48754Y-36325D01*
X48754Y-38076D01*
X48618Y-38076D01*
X48095Y-38292D01*
X47694Y-38692D01*
X47476Y-39216D01*
X47476Y-39782D01*
X47692Y-40305D01*
X47961Y-40575D01*
X46924Y-40575D01*
X46924Y-38684D01*
X46924Y-38118D01*
X46708Y-37595D01*
X46308Y-37194D01*
X45784Y-36976D01*
X45218Y-36976D01*
X44695Y-37192D01*
X44294Y-37592D01*
X44076Y-38116D01*
X44076Y-38682D01*
X44292Y-39205D01*
X44692Y-39606D01*
X45216Y-39824D01*
X45782Y-39824D01*
X46305Y-39608D01*
X46706Y-39208D01*
X46924Y-38684D01*
X46924Y-40575D01*
X22254Y-40575D01*
X22254Y-39325D01*
X22000Y-39071D01*
X21929Y-39142D01*
X21929Y-39000D01*
X21675Y-38746D01*
X21609Y-38777D01*
X21554Y-38944D01*
X21567Y-39120D01*
X21609Y-39223D01*
X21675Y-39254D01*
X21929Y-39000D01*
X21929Y-39142D01*
X21746Y-39325D01*
X21777Y-39391D01*
X21944Y-39446D01*
X22120Y-39433D01*
X22223Y-39391D01*
X22254Y-39325D01*
X22254Y-40575D01*
X21446Y-40575D01*
X21446Y-39056D01*
X21433Y-38880D01*
X21391Y-38777D01*
X21325Y-38746D01*
X21254Y-38817D01*
X21254Y-38675D01*
X21254Y-38325D01*
X21000Y-38071D01*
X20746Y-38325D01*
X20777Y-38391D01*
X20944Y-38446D01*
X21120Y-38433D01*
X21223Y-38391D01*
X21254Y-38325D01*
X21254Y-38675D01*
X21223Y-38609D01*
X21056Y-38554D01*
X20880Y-38567D01*
X20777Y-38609D01*
X20746Y-38675D01*
X21000Y-38929D01*
X21254Y-38675D01*
X21254Y-38817D01*
X21071Y-39000D01*
X21325Y-39254D01*
X21391Y-39223D01*
X21446Y-39056D01*
X21446Y-40575D01*
X21254Y-40575D01*
X21254Y-39325D01*
X21000Y-39071D01*
X20929Y-39142D01*
X20929Y-39000D01*
X20675Y-38746D01*
X20609Y-38777D01*
X20554Y-38944D01*
X20567Y-39120D01*
X20609Y-39223D01*
X20675Y-39254D01*
X20929Y-39000D01*
X20929Y-39142D01*
X20746Y-39325D01*
X20777Y-39391D01*
X20944Y-39446D01*
X21120Y-39433D01*
X21223Y-39391D01*
X21254Y-39325D01*
X21254Y-40575D01*
X20446Y-40575D01*
X20446Y-39056D01*
X20433Y-38880D01*
X20391Y-38777D01*
X20325Y-38746D01*
X20254Y-38817D01*
X20254Y-38675D01*
X20254Y-38325D01*
X20000Y-38071D01*
X19746Y-38325D01*
X19777Y-38391D01*
X19944Y-38446D01*
X20120Y-38433D01*
X20223Y-38391D01*
X20254Y-38325D01*
X20254Y-38675D01*
X20223Y-38609D01*
X20056Y-38554D01*
X19880Y-38567D01*
X19777Y-38609D01*
X19746Y-38675D01*
X20000Y-38929D01*
X20254Y-38675D01*
X20254Y-38817D01*
X20071Y-39000D01*
X20325Y-39254D01*
X20391Y-39223D01*
X20446Y-39056D01*
X20446Y-40575D01*
X20254Y-40575D01*
X20254Y-39325D01*
X20000Y-39071D01*
X19929Y-39142D01*
X19929Y-39000D01*
X19675Y-38746D01*
X19609Y-38777D01*
X19554Y-38944D01*
X19567Y-39120D01*
X19609Y-39223D01*
X19675Y-39254D01*
X19929Y-39000D01*
X19929Y-39142D01*
X19746Y-39325D01*
X19777Y-39391D01*
X19944Y-39446D01*
X20120Y-39433D01*
X20223Y-39391D01*
X20254Y-39325D01*
X20254Y-40575D01*
X19446Y-40575D01*
X19446Y-39056D01*
X19433Y-38880D01*
X19391Y-38777D01*
X19325Y-38746D01*
X19254Y-38817D01*
X19254Y-38675D01*
X19254Y-38325D01*
X19000Y-38071D01*
X18746Y-38325D01*
X18777Y-38391D01*
X18944Y-38446D01*
X19120Y-38433D01*
X19223Y-38391D01*
X19254Y-38325D01*
X19254Y-38675D01*
X19223Y-38609D01*
X19056Y-38554D01*
X18880Y-38567D01*
X18777Y-38609D01*
X18746Y-38675D01*
X19000Y-38929D01*
X19254Y-38675D01*
X19254Y-38817D01*
X19071Y-39000D01*
X19325Y-39254D01*
X19391Y-39223D01*
X19446Y-39056D01*
X19446Y-40575D01*
X19254Y-40575D01*
X19254Y-39325D01*
X19000Y-39071D01*
X18929Y-39142D01*
X18929Y-39000D01*
X18675Y-38746D01*
X18609Y-38777D01*
X18554Y-38944D01*
X18567Y-39120D01*
X18609Y-39223D01*
X18675Y-39254D01*
X18929Y-39000D01*
X18929Y-39142D01*
X18746Y-39325D01*
X18777Y-39391D01*
X18944Y-39446D01*
X19120Y-39433D01*
X19223Y-39391D01*
X19254Y-39325D01*
X19254Y-40575D01*
X18446Y-40575D01*
X18446Y-39056D01*
X18433Y-38880D01*
X18391Y-38777D01*
X18325Y-38746D01*
X18254Y-38817D01*
X18254Y-38675D01*
X18254Y-38325D01*
X18000Y-38071D01*
X17929Y-38142D01*
X17929Y-38000D01*
X17675Y-37746D01*
X17609Y-37777D01*
X17554Y-37944D01*
X17567Y-38120D01*
X17609Y-38223D01*
X17675Y-38254D01*
X17929Y-38000D01*
X17929Y-38142D01*
X17746Y-38325D01*
X17777Y-38391D01*
X17944Y-38446D01*
X18120Y-38433D01*
X18223Y-38391D01*
X18254Y-38325D01*
X18254Y-38675D01*
X18223Y-38609D01*
X18056Y-38554D01*
X17880Y-38567D01*
X17777Y-38609D01*
X17746Y-38675D01*
X18000Y-38929D01*
X18254Y-38675D01*
X18254Y-38817D01*
X18071Y-39000D01*
X18325Y-39254D01*
X18391Y-39223D01*
X18446Y-39056D01*
X18446Y-40575D01*
X18254Y-40575D01*
X18254Y-39325D01*
X18000Y-39071D01*
X17929Y-39142D01*
X17929Y-39000D01*
X17675Y-38746D01*
X17609Y-38777D01*
X17554Y-38944D01*
X17567Y-39120D01*
X17609Y-39223D01*
X17675Y-39254D01*
X17929Y-39000D01*
X17929Y-39142D01*
X17746Y-39325D01*
X17777Y-39391D01*
X17944Y-39446D01*
X18120Y-39433D01*
X18223Y-39391D01*
X18254Y-39325D01*
X18254Y-40575D01*
X15924Y-40575D01*
X15924Y-38684D01*
X15924Y-38118D01*
X15708Y-37595D01*
X15308Y-37194D01*
X14784Y-36976D01*
X14218Y-36976D01*
X13695Y-37192D01*
X13294Y-37592D01*
X13076Y-38116D01*
X13076Y-38682D01*
X13292Y-39205D01*
X13692Y-39606D01*
X14216Y-39824D01*
X14782Y-39824D01*
X15305Y-39608D01*
X15706Y-39208D01*
X15924Y-38684D01*
X15924Y-40575D01*
X12038Y-40575D01*
X12306Y-40308D01*
X12524Y-39784D01*
X12524Y-39218D01*
X12308Y-38695D01*
X11908Y-38294D01*
X11384Y-38076D01*
X10818Y-38076D01*
X10295Y-38292D01*
X09894Y-38692D01*
X09676Y-39216D01*
X09676Y-39782D01*
X09892Y-40305D01*
X10161Y-40575D01*
X09425Y-40575D01*
X09425Y-07425D01*
X10161Y-07425D01*
X09894Y-07692D01*
X09676Y-08216D01*
X09676Y-08782D01*
X09892Y-09305D01*
X10292Y-09706D01*
X10816Y-09924D01*
X11382Y-09924D01*
X11905Y-09708D01*
X12306Y-09308D01*
X12524Y-08784D01*
X12524Y-08218D01*
X12308Y-07695D01*
X12038Y-07425D01*
X19575Y-07425D01*
X19575Y-16692D01*
X19550Y-16632D01*
X19368Y-16450D01*
X19129Y-16351D01*
X18895Y-16351D01*
X18522Y-15978D01*
X18398Y-15894D01*
X18250Y-15865D01*
X16150Y-15865D01*
X16150Y-11229D01*
X16150Y-10772D01*
X15975Y-10349D01*
X15652Y-10026D01*
X15229Y-09850D01*
X14772Y-09850D01*
X14349Y-10025D01*
X14026Y-10348D01*
X13850Y-10771D01*
X13850Y-11228D01*
X14025Y-11651D01*
X14348Y-11974D01*
X14771Y-12150D01*
X15228Y-12150D01*
X15651Y-11975D01*
X15974Y-11652D01*
X16150Y-11229D01*
X16150Y-15865D01*
X12500Y-15865D01*
X12353Y-15894D01*
X12311Y-15922D01*
X12227Y-15978D01*
X12090Y-16115D01*
X11926Y-16115D01*
X11946Y-16056D01*
X11946Y-15056D01*
X11946Y-14056D01*
X11946Y-13056D01*
X11946Y-12056D01*
X11933Y-11880D01*
X11891Y-11777D01*
X11825Y-11746D01*
X11754Y-11817D01*
X11754Y-11675D01*
X11723Y-11609D01*
X11556Y-11554D01*
X11380Y-11567D01*
X11277Y-11609D01*
X11246Y-11675D01*
X11500Y-11929D01*
X11754Y-11675D01*
X11754Y-11817D01*
X11571Y-12000D01*
X11825Y-12254D01*
X11891Y-12223D01*
X11946Y-12056D01*
X11946Y-13056D01*
X11933Y-12880D01*
X11891Y-12777D01*
X11825Y-12746D01*
X11754Y-12817D01*
X11754Y-12675D01*
X11754Y-12325D01*
X11500Y-12071D01*
X11429Y-12142D01*
X11429Y-12000D01*
X11175Y-11746D01*
X11109Y-11777D01*
X11054Y-11944D01*
X11067Y-12120D01*
X11109Y-12223D01*
X11175Y-12254D01*
X11429Y-12000D01*
X11429Y-12142D01*
X11246Y-12325D01*
X11277Y-12391D01*
X11444Y-12446D01*
X11620Y-12433D01*
X11723Y-12391D01*
X11754Y-12325D01*
X11754Y-12675D01*
X11723Y-12609D01*
X11556Y-12554D01*
X11380Y-12567D01*
X11277Y-12609D01*
X11246Y-12675D01*
X11500Y-12929D01*
X11754Y-12675D01*
X11754Y-12817D01*
X11571Y-13000D01*
X11825Y-13254D01*
X11891Y-13223D01*
X11946Y-13056D01*
X11946Y-14056D01*
X11933Y-13880D01*
X11891Y-13777D01*
X11825Y-13746D01*
X11754Y-13817D01*
X11754Y-13675D01*
X11754Y-13325D01*
X11500Y-13071D01*
X11429Y-13142D01*
X11429Y-13000D01*
X11175Y-12746D01*
X11109Y-12777D01*
X11054Y-12944D01*
X11067Y-13120D01*
X11109Y-13223D01*
X11175Y-13254D01*
X11429Y-13000D01*
X11429Y-13142D01*
X11246Y-13325D01*
X11277Y-13391D01*
X11444Y-13446D01*
X11620Y-13433D01*
X11723Y-13391D01*
X11754Y-13325D01*
X11754Y-13675D01*
X11723Y-13609D01*
X11556Y-13554D01*
X11380Y-13567D01*
X11277Y-13609D01*
X11246Y-13675D01*
X11500Y-13929D01*
X11754Y-13675D01*
X11754Y-13817D01*
X11571Y-14000D01*
X11825Y-14254D01*
X11891Y-14223D01*
X11946Y-14056D01*
X11946Y-15056D01*
X11933Y-14880D01*
X11891Y-14777D01*
X11825Y-14746D01*
X11754Y-14817D01*
X11754Y-14675D01*
X11754Y-14325D01*
X11500Y-14071D01*
X11429Y-14142D01*
X11429Y-14000D01*
X11175Y-13746D01*
X11109Y-13777D01*
X11054Y-13944D01*
X11067Y-14120D01*
X11109Y-14223D01*
X11175Y-14254D01*
X11429Y-14000D01*
X11429Y-14142D01*
X11246Y-14325D01*
X11277Y-14391D01*
X11444Y-14446D01*
X11620Y-14433D01*
X11723Y-14391D01*
X11754Y-14325D01*
X11754Y-14675D01*
X11723Y-14609D01*
X11556Y-14554D01*
X11380Y-14567D01*
X11277Y-14609D01*
X11246Y-14675D01*
X11500Y-14929D01*
X11754Y-14675D01*
X11754Y-14817D01*
X11571Y-15000D01*
X11825Y-15254D01*
X11891Y-15223D01*
X11946Y-15056D01*
X11946Y-16056D01*
X11933Y-15880D01*
X11891Y-15777D01*
X11825Y-15746D01*
X11754Y-15817D01*
X11754Y-15675D01*
X11754Y-15325D01*
X11500Y-15071D01*
X11429Y-15142D01*
X11429Y-15000D01*
X11175Y-14746D01*
X11109Y-14777D01*
X11054Y-14944D01*
X11067Y-15120D01*
X11109Y-15223D01*
X11175Y-15254D01*
X11429Y-15000D01*
X11429Y-15142D01*
X11246Y-15325D01*
X11277Y-15391D01*
X11444Y-15446D01*
X11620Y-15433D01*
X11723Y-15391D01*
X11754Y-15325D01*
X11754Y-15675D01*
X11723Y-15609D01*
X11556Y-15554D01*
X11380Y-15567D01*
X11277Y-15609D01*
X11246Y-15675D01*
X11500Y-15929D01*
X11754Y-15675D01*
X11754Y-15817D01*
X11606Y-15965D01*
X11571Y-16000D01*
X11500Y-16071D01*
X11429Y-16000D01*
X11394Y-15965D01*
X11175Y-15746D01*
X11109Y-15777D01*
X11054Y-15944D01*
X11066Y-16115D01*
X11000Y-16115D01*
X10921Y-16130D01*
X10946Y-16056D01*
X10946Y-15056D01*
X10946Y-14056D01*
X10946Y-13056D01*
X10946Y-12056D01*
X10933Y-11880D01*
X10891Y-11777D01*
X10825Y-11746D01*
X10754Y-11817D01*
X10754Y-11675D01*
X10723Y-11609D01*
X10556Y-11554D01*
X10380Y-11567D01*
X10277Y-11609D01*
X10246Y-11675D01*
X10500Y-11929D01*
X10754Y-11675D01*
X10754Y-11817D01*
X10571Y-12000D01*
X10825Y-12254D01*
X10891Y-12223D01*
X10946Y-12056D01*
X10946Y-13056D01*
X10933Y-12880D01*
X10891Y-12777D01*
X10825Y-12746D01*
X10754Y-12817D01*
X10754Y-12675D01*
X10754Y-12325D01*
X10500Y-12071D01*
X10429Y-12142D01*
X10429Y-12000D01*
X10175Y-11746D01*
X10109Y-11777D01*
X10054Y-11944D01*
X10067Y-12120D01*
X10109Y-12223D01*
X10175Y-12254D01*
X10429Y-12000D01*
X10429Y-12142D01*
X10246Y-12325D01*
X10277Y-12391D01*
X10444Y-12446D01*
X10620Y-12433D01*
X10723Y-12391D01*
X10754Y-12325D01*
X10754Y-12675D01*
X10723Y-12609D01*
X10556Y-12554D01*
X10380Y-12567D01*
X10277Y-12609D01*
X10246Y-12675D01*
X10500Y-12929D01*
X10754Y-12675D01*
X10754Y-12817D01*
X10571Y-13000D01*
X10825Y-13254D01*
X10891Y-13223D01*
X10946Y-13056D01*
X10946Y-14056D01*
X10933Y-13880D01*
X10891Y-13777D01*
X10825Y-13746D01*
X10754Y-13817D01*
X10754Y-13675D01*
X10754Y-13325D01*
X10500Y-13071D01*
X10429Y-13142D01*
X10429Y-13000D01*
X10175Y-12746D01*
X10109Y-12777D01*
X10054Y-12944D01*
X10067Y-13120D01*
X10109Y-13223D01*
X10175Y-13254D01*
X10429Y-13000D01*
X10429Y-13142D01*
X10246Y-13325D01*
X10277Y-13391D01*
X10444Y-13446D01*
X10620Y-13433D01*
X10723Y-13391D01*
X10754Y-13325D01*
X10754Y-13675D01*
X10723Y-13609D01*
X10556Y-13554D01*
X10380Y-13567D01*
X10277Y-13609D01*
X10246Y-13675D01*
X10500Y-13929D01*
X10754Y-13675D01*
X10754Y-13817D01*
X10571Y-14000D01*
X10825Y-14254D01*
X10891Y-14223D01*
X10946Y-14056D01*
X10946Y-15056D01*
X10933Y-14880D01*
X10891Y-14777D01*
X10825Y-14746D01*
X10754Y-14817D01*
X10754Y-14675D01*
X10754Y-14325D01*
X10500Y-14071D01*
X10429Y-14142D01*
X10429Y-14000D01*
X10175Y-13746D01*
X10109Y-13777D01*
X10054Y-13944D01*
X10067Y-14120D01*
X10109Y-14223D01*
X10175Y-14254D01*
X10429Y-14000D01*
X10429Y-14142D01*
X10246Y-14325D01*
X10277Y-14391D01*
X10444Y-14446D01*
X10620Y-14433D01*
X10723Y-14391D01*
X10754Y-14325D01*
X10754Y-14675D01*
X10723Y-14609D01*
X10556Y-14554D01*
X10380Y-14567D01*
X10277Y-14609D01*
X10246Y-14675D01*
X10500Y-14929D01*
X10754Y-14675D01*
X10754Y-14817D01*
X10571Y-15000D01*
X10825Y-15254D01*
X10891Y-15223D01*
X10946Y-15056D01*
X10946Y-16056D01*
X10933Y-15880D01*
X10891Y-15777D01*
X10825Y-15746D01*
X10754Y-15817D01*
X10754Y-15675D01*
X10754Y-15325D01*
X10500Y-15071D01*
X10429Y-15142D01*
X10429Y-15000D01*
X10175Y-14746D01*
X10109Y-14777D01*
X10054Y-14944D01*
X10067Y-15120D01*
X10109Y-15223D01*
X10175Y-15254D01*
X10429Y-15000D01*
X10429Y-15142D01*
X10246Y-15325D01*
X10277Y-15391D01*
X10444Y-15446D01*
X10620Y-15433D01*
X10723Y-15391D01*
X10754Y-15325D01*
X10754Y-15675D01*
X10723Y-15609D01*
X10556Y-15554D01*
X10380Y-15567D01*
X10277Y-15609D01*
X10246Y-15675D01*
X10500Y-15929D01*
X10754Y-15675D01*
X10754Y-15817D01*
X10606Y-15965D01*
X10571Y-16000D01*
X10500Y-16071D01*
X10465Y-16106D01*
X10429Y-16142D01*
X10429Y-16000D01*
X10175Y-15746D01*
X10109Y-15777D01*
X10054Y-15944D01*
X10067Y-16120D01*
X10109Y-16223D01*
X10175Y-16254D01*
X10429Y-16000D01*
X10429Y-16142D01*
X10246Y-16325D01*
X10276Y-16390D01*
X10132Y-16450D01*
X09950Y-16632D01*
X09851Y-16871D01*
X09851Y-17129D01*
X09950Y-17368D01*
X10082Y-17500D01*
X09950Y-17632D01*
X09851Y-17871D01*
X09851Y-18129D01*
X09950Y-18368D01*
X10082Y-18500D01*
X09950Y-18632D01*
X09851Y-18871D01*
X09851Y-19129D01*
X09950Y-19368D01*
X10082Y-19500D01*
X09950Y-19632D01*
X09851Y-19871D01*
X09851Y-20129D01*
X09950Y-20368D01*
X10082Y-20500D01*
X09950Y-20632D01*
X09851Y-20871D01*
X09851Y-21129D01*
X09950Y-21368D01*
X10082Y-21500D01*
X09950Y-21632D01*
X09851Y-21871D01*
X09851Y-22129D01*
X09950Y-22368D01*
X10082Y-22500D01*
X09950Y-22632D01*
X09851Y-22871D01*
X09851Y-23129D01*
X09950Y-23368D01*
X10082Y-23500D01*
X09950Y-23632D01*
X09851Y-23871D01*
X09851Y-24129D01*
X09950Y-24368D01*
X10082Y-24500D01*
X09950Y-24632D01*
X09851Y-24871D01*
X09851Y-25129D01*
X09950Y-25368D01*
X10082Y-25500D01*
X09950Y-25632D01*
X09851Y-25871D01*
X09851Y-26129D01*
X09950Y-26368D01*
X10082Y-26500D01*
X09950Y-26632D01*
X09851Y-26871D01*
X09851Y-27129D01*
X09950Y-27368D01*
X10082Y-27500D01*
X09950Y-27632D01*
X09851Y-27871D01*
X09851Y-28129D01*
X09950Y-28368D01*
X10082Y-28500D01*
X09950Y-28632D01*
X09851Y-28871D01*
X09851Y-29129D01*
X09950Y-29368D01*
X10082Y-29500D01*
X09950Y-29632D01*
X09851Y-29871D01*
X09851Y-30129D01*
X09950Y-30368D01*
X10082Y-30500D01*
X09950Y-30632D01*
X09851Y-30871D01*
X09851Y-31129D01*
X09950Y-31368D01*
X10082Y-31500D01*
X09950Y-31632D01*
X09851Y-31871D01*
X09851Y-32129D01*
X09950Y-32368D01*
X10082Y-32500D01*
X09950Y-32632D01*
X09851Y-32871D01*
X09851Y-33129D01*
X09950Y-33368D01*
X10082Y-33500D01*
X09950Y-33632D01*
X09851Y-33871D01*
X09851Y-34129D01*
X09950Y-34368D01*
X10082Y-34500D01*
X09950Y-34632D01*
X09851Y-34871D01*
X09851Y-35129D01*
X09950Y-35368D01*
X10082Y-35500D01*
X09950Y-35632D01*
X09851Y-35871D01*
X09851Y-36129D01*
X09950Y-36368D01*
X10132Y-36550D01*
X10371Y-36649D01*
X10629Y-36649D01*
X10868Y-36550D01*
X10912Y-36505D01*
X11002Y-36596D01*
X11130Y-36649D01*
X11269Y-36649D01*
X11869Y-36649D01*
X11997Y-36596D01*
X12096Y-36498D01*
X12149Y-36370D01*
X12149Y-36231D01*
X12149Y-35645D01*
X14087Y-33706D01*
X14742Y-34362D01*
X14349Y-34525D01*
X14026Y-34848D01*
X13850Y-35271D01*
X13850Y-35728D01*
X14025Y-36151D01*
X14348Y-36474D01*
X14771Y-36650D01*
X15228Y-36650D01*
X15651Y-36475D01*
X15974Y-36152D01*
X16138Y-35757D01*
X17942Y-37562D01*
X17880Y-37567D01*
X17777Y-37609D01*
X17746Y-37675D01*
X17965Y-37894D01*
X18000Y-37929D01*
X18071Y-38000D01*
X18106Y-38035D01*
X18325Y-38254D01*
X18391Y-38223D01*
X18446Y-38056D01*
X18433Y-37880D01*
X18424Y-37860D01*
X18581Y-37860D01*
X18554Y-37944D01*
X18567Y-38120D01*
X18609Y-38223D01*
X18675Y-38254D01*
X18894Y-38035D01*
X18929Y-38000D01*
X19000Y-37929D01*
X19071Y-38000D01*
X19106Y-38035D01*
X19325Y-38254D01*
X19391Y-38223D01*
X19446Y-38056D01*
X19433Y-37880D01*
X19424Y-37860D01*
X19581Y-37860D01*
X19554Y-37944D01*
X19567Y-38120D01*
X19609Y-38223D01*
X19675Y-38254D01*
X19894Y-38035D01*
X19929Y-38000D01*
X20000Y-37929D01*
X20071Y-38000D01*
X20106Y-38035D01*
X20325Y-38254D01*
X20391Y-38223D01*
X20446Y-38056D01*
X20433Y-37880D01*
X20424Y-37860D01*
X20581Y-37860D01*
X20554Y-37944D01*
X20567Y-38120D01*
X20609Y-38223D01*
X20675Y-38254D01*
X20894Y-38035D01*
X20929Y-38000D01*
X21000Y-37929D01*
X21071Y-38000D01*
X21106Y-38035D01*
X21325Y-38254D01*
X21391Y-38223D01*
X21446Y-38056D01*
X21433Y-37880D01*
X21424Y-37860D01*
X21581Y-37860D01*
X21554Y-37944D01*
X21567Y-38120D01*
X21609Y-38223D01*
X21675Y-38254D01*
X21894Y-38035D01*
X21929Y-38000D01*
X22000Y-37929D01*
X22071Y-38000D01*
X22000Y-38071D01*
X21965Y-38106D01*
X21746Y-38325D01*
X21777Y-38391D01*
X21944Y-38446D01*
X22115Y-38433D01*
X22115Y-38500D01*
X22130Y-38578D01*
X22056Y-38554D01*
X21880Y-38567D01*
X21777Y-38609D01*
X21746Y-38675D01*
X21965Y-38894D01*
X22000Y-38929D01*
X22071Y-39000D01*
X22106Y-39035D01*
X22325Y-39254D01*
X22390Y-39223D01*
X22450Y-39368D01*
X22632Y-39550D01*
X22871Y-39649D01*
X23129Y-39649D01*
X23368Y-39550D01*
X23500Y-39418D01*
X23632Y-39550D01*
X23871Y-39649D01*
X24129Y-39649D01*
X24368Y-39550D01*
X24500Y-39418D01*
X24632Y-39550D01*
X24871Y-39649D01*
X25129Y-39649D01*
X25368Y-39550D01*
X25500Y-39418D01*
X25632Y-39550D01*
X25871Y-39649D01*
X26129Y-39649D01*
X26368Y-39550D01*
X26500Y-39418D01*
X26632Y-39550D01*
X26871Y-39649D01*
X27129Y-39649D01*
X27368Y-39550D01*
X27500Y-39418D01*
X27632Y-39550D01*
X27871Y-39649D01*
X28129Y-39649D01*
X28368Y-39550D01*
X28500Y-39418D01*
X28632Y-39550D01*
X28871Y-39649D01*
X29129Y-39649D01*
X29368Y-39550D01*
X29500Y-39418D01*
X29632Y-39550D01*
X29871Y-39649D01*
X30129Y-39649D01*
X30368Y-39550D01*
X30500Y-39418D01*
X30632Y-39550D01*
X30871Y-39649D01*
X31129Y-39649D01*
X31368Y-39550D01*
X31500Y-39418D01*
X31632Y-39550D01*
X31871Y-39649D01*
X32129Y-39649D01*
X32368Y-39550D01*
X32500Y-39418D01*
X32632Y-39550D01*
X32871Y-39649D01*
X33129Y-39649D01*
X33368Y-39550D01*
X33500Y-39418D01*
X33632Y-39550D01*
X33871Y-39649D01*
X34129Y-39649D01*
X34368Y-39550D01*
X34500Y-39418D01*
X34632Y-39550D01*
X34871Y-39649D01*
X35129Y-39649D01*
X35368Y-39550D01*
X35500Y-39418D01*
X35632Y-39550D01*
X35871Y-39649D01*
X36129Y-39649D01*
X36368Y-39550D01*
X36500Y-39418D01*
X36632Y-39550D01*
X36871Y-39649D01*
X37129Y-39649D01*
X37368Y-39550D01*
X37500Y-39418D01*
X37632Y-39550D01*
X37871Y-39649D01*
X38129Y-39649D01*
X38368Y-39550D01*
X38500Y-39418D01*
X38632Y-39550D01*
X38871Y-39649D01*
X39129Y-39649D01*
X39368Y-39550D01*
X39500Y-39418D01*
X39632Y-39550D01*
X39871Y-39649D01*
X40129Y-39649D01*
X40368Y-39550D01*
X40500Y-39418D01*
X40632Y-39550D01*
X40871Y-39649D01*
X41129Y-39649D01*
X41368Y-39550D01*
X41500Y-39418D01*
X41632Y-39550D01*
X41871Y-39649D01*
X42129Y-39649D01*
X42368Y-39550D01*
X42550Y-39368D01*
X42649Y-39129D01*
X42649Y-38895D01*
X44022Y-37523D01*
X44022Y-37522D01*
X44077Y-37439D01*
X44105Y-37398D01*
X44106Y-37397D01*
X44134Y-37251D01*
X44135Y-37250D01*
X44135Y-36261D01*
X44348Y-36474D01*
X44771Y-36650D01*
X45228Y-36650D01*
X45651Y-36475D01*
X45974Y-36152D01*
X46150Y-35729D01*
X46150Y-35272D01*
X45975Y-34849D01*
X45652Y-34526D01*
X45229Y-34350D01*
X45194Y-34350D01*
X47522Y-32023D01*
X47522Y-32022D01*
X47577Y-31939D01*
X47605Y-31898D01*
X47606Y-31897D01*
X47634Y-31751D01*
X47635Y-31750D01*
X47635Y-30429D01*
X47917Y-30711D01*
X47851Y-30871D01*
X47851Y-31129D01*
X47950Y-31368D01*
X48132Y-31550D01*
X48276Y-31609D01*
X48246Y-31675D01*
X48500Y-31929D01*
X48754Y-31675D01*
X48723Y-31609D01*
X48868Y-31550D01*
X49000Y-31418D01*
X49132Y-31550D01*
X49276Y-31609D01*
X49246Y-31675D01*
X49500Y-31929D01*
X49754Y-31675D01*
X49723Y-31609D01*
X49868Y-31550D01*
X50050Y-31368D01*
X50149Y-31129D01*
X50149Y-30871D01*
X50050Y-30632D01*
X49918Y-30500D01*
X50050Y-30368D01*
X50149Y-30129D01*
X50149Y-29871D01*
X50050Y-29632D01*
X49918Y-29500D01*
X50050Y-29368D01*
X50149Y-29129D01*
X50149Y-28871D01*
X50050Y-28632D01*
X49918Y-28500D01*
X50050Y-28368D01*
X50149Y-28129D01*
X50149Y-27871D01*
X50050Y-27632D01*
X49918Y-27500D01*
X50050Y-27368D01*
X50149Y-27129D01*
X50149Y-26871D01*
X50050Y-26632D01*
X49918Y-26500D01*
X50050Y-26368D01*
X50149Y-26129D01*
X50149Y-25871D01*
X50050Y-25632D01*
X49918Y-25500D01*
X50050Y-25368D01*
X50149Y-25129D01*
X50149Y-24871D01*
X50050Y-24632D01*
X49918Y-24500D01*
X50050Y-24368D01*
X50149Y-24129D01*
X50149Y-23871D01*
X50050Y-23632D01*
X49918Y-23500D01*
X50050Y-23368D01*
X50149Y-23129D01*
X50149Y-22871D01*
X50050Y-22632D01*
X49918Y-22500D01*
X50050Y-22368D01*
X50149Y-22129D01*
X50149Y-21871D01*
X50050Y-21632D01*
X49918Y-21500D01*
X50050Y-21368D01*
X50149Y-21129D01*
X50149Y-20871D01*
X50050Y-20632D01*
X49918Y-20500D01*
X50050Y-20368D01*
X50149Y-20129D01*
X50149Y-19871D01*
X50050Y-19632D01*
X49918Y-19500D01*
X50050Y-19368D01*
X50149Y-19129D01*
X50149Y-18871D01*
X50050Y-18632D01*
X49918Y-18500D01*
X50050Y-18368D01*
X50149Y-18129D01*
X50149Y-17871D01*
X50050Y-17632D01*
X49918Y-17500D01*
X50050Y-17368D01*
X50149Y-17129D01*
X50149Y-16871D01*
X50050Y-16632D01*
X49918Y-16500D01*
X50050Y-16368D01*
X50149Y-16129D01*
X50149Y-15871D01*
X50050Y-15632D01*
X49918Y-15500D01*
X50050Y-15368D01*
X50149Y-15129D01*
X50149Y-14871D01*
X50050Y-14632D01*
X49918Y-14500D01*
X50050Y-14368D01*
X50149Y-14129D01*
X50149Y-13871D01*
X50050Y-13632D01*
X49918Y-13500D01*
X50050Y-13368D01*
X50149Y-13129D01*
X50149Y-12871D01*
X50050Y-12632D01*
X49918Y-12500D01*
X50050Y-12368D01*
X50149Y-12129D01*
X50149Y-11871D01*
X50050Y-11632D01*
X49868Y-11450D01*
X49629Y-11351D01*
X49371Y-11351D01*
X49132Y-11450D01*
X49087Y-11494D01*
X48998Y-11404D01*
X48870Y-11351D01*
X48731Y-11351D01*
X48131Y-11351D01*
X48003Y-11404D01*
X47904Y-11502D01*
X47857Y-11615D01*
X46000Y-11615D01*
X45988Y-11617D01*
X46150Y-11229D01*
X46150Y-10772D01*
X45975Y-10349D01*
X45652Y-10026D01*
X45229Y-09850D01*
X44772Y-09850D01*
X44349Y-10025D01*
X44026Y-10348D01*
X43850Y-10771D01*
X43850Y-11228D01*
X44025Y-11651D01*
X44348Y-11974D01*
X44771Y-12150D01*
X45228Y-12150D01*
X45361Y-12094D01*
X41105Y-16351D01*
X40871Y-16351D01*
X40632Y-16450D01*
X40450Y-16632D01*
X40425Y-16692D01*
X40425Y-07425D01*
X47961Y-07425D01*
X47694Y-07692D01*
X47476Y-08216D01*
X47476Y-08782D01*
X47692Y-09305D01*
X48092Y-09706D01*
X48616Y-09924D01*
X49182Y-09924D01*
X49705Y-09708D01*
X50106Y-09308D01*
X50324Y-08784D01*
X50324Y-08218D01*
X50108Y-07695D01*
X49838Y-07425D01*
X50575Y-07425D01*
X50575Y-40575D01*
X50575Y-40575D01*
G37*
G54D16*
X50575Y-40575D02*
X49838Y-40575D01*
X50106Y-40308D01*
X50324Y-39784D01*
X50324Y-39218D01*
X50108Y-38695D01*
X49946Y-38532D01*
X49946Y-36056D01*
X49946Y-35056D01*
X49946Y-34056D01*
X49946Y-33056D01*
X49946Y-32056D01*
X49933Y-31880D01*
X49891Y-31777D01*
X49825Y-31746D01*
X49571Y-32000D01*
X49825Y-32254D01*
X49891Y-32223D01*
X49946Y-32056D01*
X49946Y-33056D01*
X49933Y-32880D01*
X49891Y-32777D01*
X49825Y-32746D01*
X49754Y-32817D01*
X49754Y-32675D01*
X49754Y-32325D01*
X49500Y-32071D01*
X49429Y-32142D01*
X49429Y-32000D01*
X49175Y-31746D01*
X49109Y-31777D01*
X49054Y-31944D01*
X49067Y-32120D01*
X49109Y-32223D01*
X49175Y-32254D01*
X49429Y-32000D01*
X49429Y-32142D01*
X49246Y-32325D01*
X49277Y-32391D01*
X49444Y-32446D01*
X49620Y-32433D01*
X49723Y-32391D01*
X49754Y-32325D01*
X49754Y-32675D01*
X49723Y-32609D01*
X49556Y-32554D01*
X49380Y-32567D01*
X49277Y-32609D01*
X49246Y-32675D01*
X49500Y-32929D01*
X49754Y-32675D01*
X49754Y-32817D01*
X49571Y-33000D01*
X49825Y-33254D01*
X49891Y-33223D01*
X49946Y-33056D01*
X49946Y-34056D01*
X49933Y-33880D01*
X49891Y-33777D01*
X49825Y-33746D01*
X49754Y-33817D01*
X49754Y-33675D01*
X49754Y-33325D01*
X49500Y-33071D01*
X49429Y-33142D01*
X49429Y-33000D01*
X49175Y-32746D01*
X49109Y-32777D01*
X49054Y-32944D01*
X49067Y-33120D01*
X49109Y-33223D01*
X49175Y-33254D01*
X49429Y-33000D01*
X49429Y-33142D01*
X49246Y-33325D01*
X49277Y-33391D01*
X49444Y-33446D01*
X49620Y-33433D01*
X49723Y-33391D01*
X49754Y-33325D01*
X49754Y-33675D01*
X49723Y-33609D01*
X49556Y-33554D01*
X49380Y-33567D01*
X49277Y-33609D01*
X49246Y-33675D01*
X49500Y-33929D01*
X49754Y-33675D01*
X49754Y-33817D01*
X49571Y-34000D01*
X49825Y-34254D01*
X49891Y-34223D01*
X49946Y-34056D01*
X49946Y-35056D01*
X49933Y-34880D01*
X49891Y-34777D01*
X49825Y-34746D01*
X49754Y-34817D01*
X49754Y-34675D01*
X49754Y-34325D01*
X49500Y-34071D01*
X49429Y-34142D01*
X49429Y-34000D01*
X49175Y-33746D01*
X49109Y-33777D01*
X49054Y-33944D01*
X49067Y-34120D01*
X49109Y-34223D01*
X49175Y-34254D01*
X49429Y-34000D01*
X49429Y-34142D01*
X49246Y-34325D01*
X49277Y-34391D01*
X49444Y-34446D01*
X49620Y-34433D01*
X49723Y-34391D01*
X49754Y-34325D01*
X49754Y-34675D01*
X49723Y-34609D01*
X49556Y-34554D01*
X49380Y-34567D01*
X49277Y-34609D01*
X49246Y-34675D01*
X49500Y-34929D01*
X49754Y-34675D01*
X49754Y-34817D01*
X49571Y-35000D01*
X49825Y-35254D01*
X49891Y-35223D01*
X49946Y-35056D01*
X49946Y-36056D01*
X49933Y-35880D01*
X49891Y-35777D01*
X49825Y-35746D01*
X49754Y-35817D01*
X49754Y-35675D01*
X49754Y-35325D01*
X49500Y-35071D01*
X49429Y-35142D01*
X49429Y-35000D01*
X49175Y-34746D01*
X49109Y-34777D01*
X49054Y-34944D01*
X49067Y-35120D01*
X49109Y-35223D01*
X49175Y-35254D01*
X49429Y-35000D01*
X49429Y-35142D01*
X49246Y-35325D01*
X49277Y-35391D01*
X49444Y-35446D01*
X49620Y-35433D01*
X49723Y-35391D01*
X49754Y-35325D01*
X49754Y-35675D01*
X49723Y-35609D01*
X49556Y-35554D01*
X49380Y-35567D01*
X49277Y-35609D01*
X49246Y-35675D01*
X49500Y-35929D01*
X49754Y-35675D01*
X49754Y-35817D01*
X49571Y-36000D01*
X49825Y-36254D01*
X49891Y-36223D01*
X49946Y-36056D01*
X49946Y-38532D01*
X49754Y-38340D01*
X49754Y-36325D01*
X49500Y-36071D01*
X49429Y-36142D01*
X49429Y-36000D01*
X49175Y-35746D01*
X49109Y-35777D01*
X49054Y-35944D01*
X49067Y-36120D01*
X49109Y-36223D01*
X49175Y-36254D01*
X49429Y-36000D01*
X49429Y-36142D01*
X49246Y-36325D01*
X49277Y-36391D01*
X49444Y-36446D01*
X49620Y-36433D01*
X49723Y-36391D01*
X49754Y-36325D01*
X49754Y-38340D01*
X49708Y-38294D01*
X49184Y-38076D01*
X48946Y-38076D01*
X48946Y-36056D01*
X48946Y-35056D01*
X48946Y-34056D01*
X48946Y-33056D01*
X48946Y-32056D01*
X48933Y-31880D01*
X48891Y-31777D01*
X48825Y-31746D01*
X48571Y-32000D01*
X48825Y-32254D01*
X48891Y-32223D01*
X48946Y-32056D01*
X48946Y-33056D01*
X48933Y-32880D01*
X48891Y-32777D01*
X48825Y-32746D01*
X48754Y-32817D01*
X48754Y-32675D01*
X48754Y-32325D01*
X48500Y-32071D01*
X48429Y-32142D01*
X48429Y-32000D01*
X48175Y-31746D01*
X48109Y-31777D01*
X48054Y-31944D01*
X48067Y-32120D01*
X48109Y-32223D01*
X48175Y-32254D01*
X48429Y-32000D01*
X48429Y-32142D01*
X48246Y-32325D01*
X48277Y-32391D01*
X48444Y-32446D01*
X48620Y-32433D01*
X48723Y-32391D01*
X48754Y-32325D01*
X48754Y-32675D01*
X48723Y-32609D01*
X48556Y-32554D01*
X48380Y-32567D01*
X48277Y-32609D01*
X48246Y-32675D01*
X48500Y-32929D01*
X48754Y-32675D01*
X48754Y-32817D01*
X48571Y-33000D01*
X48825Y-33254D01*
X48891Y-33223D01*
X48946Y-33056D01*
X48946Y-34056D01*
X48933Y-33880D01*
X48891Y-33777D01*
X48825Y-33746D01*
X48754Y-33817D01*
X48754Y-33675D01*
X48754Y-33325D01*
X48500Y-33071D01*
X48429Y-33142D01*
X48429Y-33000D01*
X48175Y-32746D01*
X48109Y-32777D01*
X48054Y-32944D01*
X48067Y-33120D01*
X48109Y-33223D01*
X48175Y-33254D01*
X48429Y-33000D01*
X48429Y-33142D01*
X48246Y-33325D01*
X48277Y-33391D01*
X48444Y-33446D01*
X48620Y-33433D01*
X48723Y-33391D01*
X48754Y-33325D01*
X48754Y-33675D01*
X48723Y-33609D01*
X48556Y-33554D01*
X48380Y-33567D01*
X48277Y-33609D01*
X48246Y-33675D01*
X48500Y-33929D01*
X48754Y-33675D01*
X48754Y-33817D01*
X48571Y-34000D01*
X48825Y-34254D01*
X48891Y-34223D01*
X48946Y-34056D01*
X48946Y-35056D01*
X48933Y-34880D01*
X48891Y-34777D01*
X48825Y-34746D01*
X48754Y-34817D01*
X48754Y-34675D01*
X48754Y-34325D01*
X48500Y-34071D01*
X48429Y-34142D01*
X48429Y-34000D01*
X48175Y-33746D01*
X48109Y-33777D01*
X48054Y-33944D01*
X48067Y-34120D01*
X48109Y-34223D01*
X48175Y-34254D01*
X48429Y-34000D01*
X48429Y-34142D01*
X48246Y-34325D01*
X48277Y-34391D01*
X48444Y-34446D01*
X48620Y-34433D01*
X48723Y-34391D01*
X48754Y-34325D01*
X48754Y-34675D01*
X48723Y-34609D01*
X48556Y-34554D01*
X48380Y-34567D01*
X48277Y-34609D01*
X48246Y-34675D01*
X48500Y-34929D01*
X48754Y-34675D01*
X48754Y-34817D01*
X48571Y-35000D01*
X48825Y-35254D01*
X48891Y-35223D01*
X48946Y-35056D01*
X48946Y-36056D01*
X48933Y-35880D01*
X48891Y-35777D01*
X48825Y-35746D01*
X48754Y-35817D01*
X48754Y-35675D01*
X48754Y-35325D01*
X48500Y-35071D01*
X48429Y-35142D01*
X48429Y-35000D01*
X48175Y-34746D01*
X48109Y-34777D01*
X48054Y-34944D01*
X48067Y-35120D01*
X48109Y-35223D01*
X48175Y-35254D01*
X48429Y-35000D01*
X48429Y-35142D01*
X48246Y-35325D01*
X48277Y-35391D01*
X48444Y-35446D01*
X48620Y-35433D01*
X48723Y-35391D01*
X48754Y-35325D01*
X48754Y-35675D01*
X48723Y-35609D01*
X48556Y-35554D01*
X48380Y-35567D01*
X48277Y-35609D01*
X48246Y-35675D01*
X48500Y-35929D01*
X48754Y-35675D01*
X48754Y-35817D01*
X48571Y-36000D01*
X48825Y-36254D01*
X48891Y-36223D01*
X48946Y-36056D01*
X48946Y-38076D01*
X48754Y-38076D01*
X48754Y-36325D01*
X48500Y-36071D01*
X48429Y-36142D01*
X48429Y-36000D01*
X48175Y-35746D01*
X48109Y-35777D01*
X48054Y-35944D01*
X48067Y-36120D01*
X48109Y-36223D01*
X48175Y-36254D01*
X48429Y-36000D01*
X48429Y-36142D01*
X48246Y-36325D01*
X48277Y-36391D01*
X48444Y-36446D01*
X48620Y-36433D01*
X48723Y-36391D01*
X48754Y-36325D01*
X48754Y-38076D01*
X48618Y-38076D01*
X48095Y-38292D01*
X47694Y-38692D01*
X47476Y-39216D01*
X47476Y-39782D01*
X47692Y-40305D01*
X47961Y-40575D01*
X46924Y-40575D01*
X46924Y-38684D01*
X46924Y-38118D01*
X46708Y-37595D01*
X46308Y-37194D01*
X45784Y-36976D01*
X45218Y-36976D01*
X44695Y-37192D01*
X44294Y-37592D01*
X44076Y-38116D01*
X44076Y-38682D01*
X44292Y-39205D01*
X44692Y-39606D01*
X45216Y-39824D01*
X45782Y-39824D01*
X46305Y-39608D01*
X46706Y-39208D01*
X46924Y-38684D01*
X46924Y-40575D01*
X22254Y-40575D01*
X22254Y-39325D01*
X22000Y-39071D01*
X21929Y-39142D01*
X21929Y-39000D01*
X21675Y-38746D01*
X21609Y-38777D01*
X21554Y-38944D01*
X21567Y-39120D01*
X21609Y-39223D01*
X21675Y-39254D01*
X21929Y-39000D01*
X21929Y-39142D01*
X21746Y-39325D01*
X21777Y-39391D01*
X21944Y-39446D01*
X22120Y-39433D01*
X22223Y-39391D01*
X22254Y-39325D01*
X22254Y-40575D01*
X21446Y-40575D01*
X21446Y-39056D01*
X21433Y-38880D01*
X21391Y-38777D01*
X21325Y-38746D01*
X21254Y-38817D01*
X21254Y-38675D01*
X21254Y-38325D01*
X21000Y-38071D01*
X20746Y-38325D01*
X20777Y-38391D01*
X20944Y-38446D01*
X21120Y-38433D01*
X21223Y-38391D01*
X21254Y-38325D01*
X21254Y-38675D01*
X21223Y-38609D01*
X21056Y-38554D01*
X20880Y-38567D01*
X20777Y-38609D01*
X20746Y-38675D01*
X21000Y-38929D01*
X21254Y-38675D01*
X21254Y-38817D01*
X21071Y-39000D01*
X21325Y-39254D01*
X21391Y-39223D01*
X21446Y-39056D01*
X21446Y-40575D01*
X21254Y-40575D01*
X21254Y-39325D01*
X21000Y-39071D01*
X20929Y-39142D01*
X20929Y-39000D01*
X20675Y-38746D01*
X20609Y-38777D01*
X20554Y-38944D01*
X20567Y-39120D01*
X20609Y-39223D01*
X20675Y-39254D01*
X20929Y-39000D01*
X20929Y-39142D01*
X20746Y-39325D01*
X20777Y-39391D01*
X20944Y-39446D01*
X21120Y-39433D01*
X21223Y-39391D01*
X21254Y-39325D01*
X21254Y-40575D01*
X20446Y-40575D01*
X20446Y-39056D01*
X20433Y-38880D01*
X20391Y-38777D01*
X20325Y-38746D01*
X20254Y-38817D01*
X20254Y-38675D01*
X20254Y-38325D01*
X20000Y-38071D01*
X19746Y-38325D01*
X19777Y-38391D01*
X19944Y-38446D01*
X20120Y-38433D01*
X20223Y-38391D01*
X20254Y-38325D01*
X20254Y-38675D01*
X20223Y-38609D01*
X20056Y-38554D01*
X19880Y-38567D01*
X19777Y-38609D01*
X19746Y-38675D01*
X20000Y-38929D01*
X20254Y-38675D01*
X20254Y-38817D01*
X20071Y-39000D01*
X20325Y-39254D01*
X20391Y-39223D01*
X20446Y-39056D01*
X20446Y-40575D01*
X20254Y-40575D01*
X20254Y-39325D01*
X20000Y-39071D01*
X19929Y-39142D01*
X19929Y-39000D01*
X19675Y-38746D01*
X19609Y-38777D01*
X19554Y-38944D01*
X19567Y-39120D01*
X19609Y-39223D01*
X19675Y-39254D01*
X19929Y-39000D01*
X19929Y-39142D01*
X19746Y-39325D01*
X19777Y-39391D01*
X19944Y-39446D01*
X20120Y-39433D01*
X20223Y-39391D01*
X20254Y-39325D01*
X20254Y-40575D01*
X19446Y-40575D01*
X19446Y-39056D01*
X19433Y-38880D01*
X19391Y-38777D01*
X19325Y-38746D01*
X19254Y-38817D01*
X19254Y-38675D01*
X19254Y-38325D01*
X19000Y-38071D01*
X18746Y-38325D01*
X18777Y-38391D01*
X18944Y-38446D01*
X19120Y-38433D01*
X19223Y-38391D01*
X19254Y-38325D01*
X19254Y-38675D01*
X19223Y-38609D01*
X19056Y-38554D01*
X18880Y-38567D01*
X18777Y-38609D01*
X18746Y-38675D01*
X19000Y-38929D01*
X19254Y-38675D01*
X19254Y-38817D01*
X19071Y-39000D01*
X19325Y-39254D01*
X19391Y-39223D01*
X19446Y-39056D01*
X19446Y-40575D01*
X19254Y-40575D01*
X19254Y-39325D01*
X19000Y-39071D01*
X18929Y-39142D01*
X18929Y-39000D01*
X18675Y-38746D01*
X18609Y-38777D01*
X18554Y-38944D01*
X18567Y-39120D01*
X18609Y-39223D01*
X18675Y-39254D01*
X18929Y-39000D01*
X18929Y-39142D01*
X18746Y-39325D01*
X18777Y-39391D01*
X18944Y-39446D01*
X19120Y-39433D01*
X19223Y-39391D01*
X19254Y-39325D01*
X19254Y-40575D01*
X18446Y-40575D01*
X18446Y-39056D01*
X18433Y-38880D01*
X18391Y-38777D01*
X18325Y-38746D01*
X18254Y-38817D01*
X18254Y-38675D01*
X18254Y-38325D01*
X18000Y-38071D01*
X17929Y-38142D01*
X17929Y-38000D01*
X17675Y-37746D01*
X17609Y-37777D01*
X17554Y-37944D01*
X17567Y-38120D01*
X17609Y-38223D01*
X17675Y-38254D01*
X17929Y-38000D01*
X17929Y-38142D01*
X17746Y-38325D01*
X17777Y-38391D01*
X17944Y-38446D01*
X18120Y-38433D01*
X18223Y-38391D01*
X18254Y-38325D01*
X18254Y-38675D01*
X18223Y-38609D01*
X18056Y-38554D01*
X17880Y-38567D01*
X17777Y-38609D01*
X17746Y-38675D01*
X18000Y-38929D01*
X18254Y-38675D01*
X18254Y-38817D01*
X18071Y-39000D01*
X18325Y-39254D01*
X18391Y-39223D01*
X18446Y-39056D01*
X18446Y-40575D01*
X18254Y-40575D01*
X18254Y-39325D01*
X18000Y-39071D01*
X17929Y-39142D01*
X17929Y-39000D01*
X17675Y-38746D01*
X17609Y-38777D01*
X17554Y-38944D01*
X17567Y-39120D01*
X17609Y-39223D01*
X17675Y-39254D01*
X17929Y-39000D01*
X17929Y-39142D01*
X17746Y-39325D01*
X17777Y-39391D01*
X17944Y-39446D01*
X18120Y-39433D01*
X18223Y-39391D01*
X18254Y-39325D01*
X18254Y-40575D01*
X15924Y-40575D01*
X15924Y-38684D01*
X15924Y-38118D01*
X15708Y-37595D01*
X15308Y-37194D01*
X14784Y-36976D01*
X14218Y-36976D01*
X13695Y-37192D01*
X13294Y-37592D01*
X13076Y-38116D01*
X13076Y-38682D01*
X13292Y-39205D01*
X13692Y-39606D01*
X14216Y-39824D01*
X14782Y-39824D01*
X15305Y-39608D01*
X15706Y-39208D01*
X15924Y-38684D01*
X15924Y-40575D01*
X12038Y-40575D01*
X12306Y-40308D01*
X12524Y-39784D01*
X12524Y-39218D01*
X12308Y-38695D01*
X11908Y-38294D01*
X11384Y-38076D01*
X10818Y-38076D01*
X10295Y-38292D01*
X09894Y-38692D01*
X09676Y-39216D01*
X09676Y-39782D01*
X09892Y-40305D01*
X10161Y-40575D01*
X09425Y-40575D01*
X09425Y-07425D01*
X10161Y-07425D01*
X09894Y-07692D01*
X09676Y-08216D01*
X09676Y-08782D01*
X09892Y-09305D01*
X10292Y-09706D01*
X10816Y-09924D01*
X11382Y-09924D01*
X11905Y-09708D01*
X12306Y-09308D01*
X12524Y-08784D01*
X12524Y-08218D01*
X12308Y-07695D01*
X12038Y-07425D01*
X19575Y-07425D01*
X19575Y-16692D01*
X19550Y-16632D01*
X19368Y-16450D01*
X19129Y-16351D01*
X18895Y-16351D01*
X18522Y-15978D01*
X18398Y-15894D01*
X18250Y-15865D01*
X16150Y-15865D01*
X16150Y-11229D01*
X16150Y-10772D01*
X15975Y-10349D01*
X15652Y-10026D01*
X15229Y-09850D01*
X14772Y-09850D01*
X14349Y-10025D01*
X14026Y-10348D01*
X13850Y-10771D01*
X13850Y-11228D01*
X14025Y-11651D01*
X14348Y-11974D01*
X14771Y-12150D01*
X15228Y-12150D01*
X15651Y-11975D01*
X15974Y-11652D01*
X16150Y-11229D01*
X16150Y-15865D01*
X12500Y-15865D01*
X12353Y-15894D01*
X12311Y-15922D01*
X12227Y-15978D01*
X12090Y-16115D01*
X11926Y-16115D01*
X11946Y-16056D01*
X11946Y-15056D01*
X11946Y-14056D01*
X11946Y-13056D01*
X11946Y-12056D01*
X11933Y-11880D01*
X11891Y-11777D01*
X11825Y-11746D01*
X11754Y-11817D01*
X11754Y-11675D01*
X11723Y-11609D01*
X11556Y-11554D01*
X11380Y-11567D01*
X11277Y-11609D01*
X11246Y-11675D01*
X11500Y-11929D01*
X11754Y-11675D01*
X11754Y-11817D01*
X11571Y-12000D01*
X11825Y-12254D01*
X11891Y-12223D01*
X11946Y-12056D01*
X11946Y-13056D01*
X11933Y-12880D01*
X11891Y-12777D01*
X11825Y-12746D01*
X11754Y-12817D01*
X11754Y-12675D01*
X11754Y-12325D01*
X11500Y-12071D01*
X11429Y-12142D01*
X11429Y-12000D01*
X11175Y-11746D01*
X11109Y-11777D01*
X11054Y-11944D01*
X11067Y-12120D01*
X11109Y-12223D01*
X11175Y-12254D01*
X11429Y-12000D01*
X11429Y-12142D01*
X11246Y-12325D01*
X11277Y-12391D01*
X11444Y-12446D01*
X11620Y-12433D01*
X11723Y-12391D01*
X11754Y-12325D01*
X11754Y-12675D01*
X11723Y-12609D01*
X11556Y-12554D01*
X11380Y-12567D01*
X11277Y-12609D01*
X11246Y-12675D01*
X11500Y-12929D01*
X11754Y-12675D01*
X11754Y-12817D01*
X11571Y-13000D01*
X11825Y-13254D01*
X11891Y-13223D01*
X11946Y-13056D01*
X11946Y-14056D01*
X11933Y-13880D01*
X11891Y-13777D01*
X11825Y-13746D01*
X11754Y-13817D01*
X11754Y-13675D01*
X11754Y-13325D01*
X11500Y-13071D01*
X11429Y-13142D01*
X11429Y-13000D01*
X11175Y-12746D01*
X11109Y-12777D01*
X11054Y-12944D01*
X11067Y-13120D01*
X11109Y-13223D01*
X11175Y-13254D01*
X11429Y-13000D01*
X11429Y-13142D01*
X11246Y-13325D01*
X11277Y-13391D01*
X11444Y-13446D01*
X11620Y-13433D01*
X11723Y-13391D01*
X11754Y-13325D01*
X11754Y-13675D01*
X11723Y-13609D01*
X11556Y-13554D01*
X11380Y-13567D01*
X11277Y-13609D01*
X11246Y-13675D01*
X11500Y-13929D01*
X11754Y-13675D01*
X11754Y-13817D01*
X11571Y-14000D01*
X11825Y-14254D01*
X11891Y-14223D01*
X11946Y-14056D01*
X11946Y-15056D01*
X11933Y-14880D01*
X11891Y-14777D01*
X11825Y-14746D01*
X11754Y-14817D01*
X11754Y-14675D01*
X11754Y-14325D01*
X11500Y-14071D01*
X11429Y-14142D01*
X11429Y-14000D01*
X11175Y-13746D01*
X11109Y-13777D01*
X11054Y-13944D01*
X11067Y-14120D01*
X11109Y-14223D01*
X11175Y-14254D01*
X11429Y-14000D01*
X11429Y-14142D01*
X11246Y-14325D01*
X11277Y-14391D01*
X11444Y-14446D01*
X11620Y-14433D01*
X11723Y-14391D01*
X11754Y-14325D01*
X11754Y-14675D01*
X11723Y-14609D01*
X11556Y-14554D01*
X11380Y-14567D01*
X11277Y-14609D01*
X11246Y-14675D01*
X11500Y-14929D01*
X11754Y-14675D01*
X11754Y-14817D01*
X11571Y-15000D01*
X11825Y-15254D01*
X11891Y-15223D01*
X11946Y-15056D01*
X11946Y-16056D01*
X11933Y-15880D01*
X11891Y-15777D01*
X11825Y-15746D01*
X11754Y-15817D01*
X11754Y-15675D01*
X11754Y-15325D01*
X11500Y-15071D01*
X11429Y-15142D01*
X11429Y-15000D01*
X11175Y-14746D01*
X11109Y-14777D01*
X11054Y-14944D01*
X11067Y-15120D01*
X11109Y-15223D01*
X11175Y-15254D01*
X11429Y-15000D01*
X11429Y-15142D01*
X11246Y-15325D01*
X11277Y-15391D01*
X11444Y-15446D01*
X11620Y-15433D01*
X11723Y-15391D01*
X11754Y-15325D01*
X11754Y-15675D01*
X11723Y-15609D01*
X11556Y-15554D01*
X11380Y-15567D01*
X11277Y-15609D01*
X11246Y-15675D01*
X11500Y-15929D01*
X11754Y-15675D01*
X11754Y-15817D01*
X11606Y-15965D01*
X11571Y-16000D01*
X11500Y-16071D01*
X11429Y-16000D01*
X11394Y-15965D01*
X11175Y-15746D01*
X11109Y-15777D01*
X11054Y-15944D01*
X11066Y-16115D01*
X11000Y-16115D01*
X10921Y-16130D01*
X10946Y-16056D01*
X10946Y-15056D01*
X10946Y-14056D01*
X10946Y-13056D01*
X10946Y-12056D01*
X10933Y-11880D01*
X10891Y-11777D01*
X10825Y-11746D01*
X10754Y-11817D01*
X10754Y-11675D01*
X10723Y-11609D01*
X10556Y-11554D01*
X10380Y-11567D01*
X10277Y-11609D01*
X10246Y-11675D01*
X10500Y-11929D01*
X10754Y-11675D01*
X10754Y-11817D01*
X10571Y-12000D01*
X10825Y-12254D01*
X10891Y-12223D01*
X10946Y-12056D01*
X10946Y-13056D01*
X10933Y-12880D01*
X10891Y-12777D01*
X10825Y-12746D01*
X10754Y-12817D01*
X10754Y-12675D01*
X10754Y-12325D01*
X10500Y-12071D01*
X10429Y-12142D01*
X10429Y-12000D01*
X10175Y-11746D01*
X10109Y-11777D01*
X10054Y-11944D01*
X10067Y-12120D01*
X10109Y-12223D01*
X10175Y-12254D01*
X10429Y-12000D01*
X10429Y-12142D01*
X10246Y-12325D01*
X10277Y-12391D01*
X10444Y-12446D01*
X10620Y-12433D01*
X10723Y-12391D01*
X10754Y-12325D01*
X10754Y-12675D01*
X10723Y-12609D01*
X10556Y-12554D01*
X10380Y-12567D01*
X10277Y-12609D01*
X10246Y-12675D01*
X10500Y-12929D01*
X10754Y-12675D01*
X10754Y-12817D01*
X10571Y-13000D01*
X10825Y-13254D01*
X10891Y-13223D01*
X10946Y-13056D01*
X10946Y-14056D01*
X10933Y-13880D01*
X10891Y-13777D01*
X10825Y-13746D01*
X10754Y-13817D01*
X10754Y-13675D01*
X10754Y-13325D01*
X10500Y-13071D01*
X10429Y-13142D01*
X10429Y-13000D01*
X10175Y-12746D01*
X10109Y-12777D01*
X10054Y-12944D01*
X10067Y-13120D01*
X10109Y-13223D01*
X10175Y-13254D01*
X10429Y-13000D01*
X10429Y-13142D01*
X10246Y-13325D01*
X10277Y-13391D01*
X10444Y-13446D01*
X10620Y-13433D01*
X10723Y-13391D01*
X10754Y-13325D01*
X10754Y-13675D01*
X10723Y-13609D01*
X10556Y-13554D01*
X10380Y-13567D01*
X10277Y-13609D01*
X10246Y-13675D01*
X10500Y-13929D01*
X10754Y-13675D01*
X10754Y-13817D01*
X10571Y-14000D01*
X10825Y-14254D01*
X10891Y-14223D01*
X10946Y-14056D01*
X10946Y-15056D01*
X10933Y-14880D01*
X10891Y-14777D01*
X10825Y-14746D01*
X10754Y-14817D01*
X10754Y-14675D01*
X10754Y-14325D01*
X10500Y-14071D01*
X10429Y-14142D01*
X10429Y-14000D01*
X10175Y-13746D01*
X10109Y-13777D01*
X10054Y-13944D01*
X10067Y-14120D01*
X10109Y-14223D01*
X10175Y-14254D01*
X10429Y-14000D01*
X10429Y-14142D01*
X10246Y-14325D01*
X10277Y-14391D01*
X10444Y-14446D01*
X10620Y-14433D01*
X10723Y-14391D01*
X10754Y-14325D01*
X10754Y-14675D01*
X10723Y-14609D01*
X10556Y-14554D01*
X10380Y-14567D01*
X10277Y-14609D01*
X10246Y-14675D01*
X10500Y-14929D01*
X10754Y-14675D01*
X10754Y-14817D01*
X10571Y-15000D01*
X10825Y-15254D01*
X10891Y-15223D01*
X10946Y-15056D01*
X10946Y-16056D01*
X10933Y-15880D01*
X10891Y-15777D01*
X10825Y-15746D01*
X10754Y-15817D01*
X10754Y-15675D01*
X10754Y-15325D01*
X10500Y-15071D01*
X10429Y-15142D01*
X10429Y-15000D01*
X10175Y-14746D01*
X10109Y-14777D01*
X10054Y-14944D01*
X10067Y-15120D01*
X10109Y-15223D01*
X10175Y-15254D01*
X10429Y-15000D01*
X10429Y-15142D01*
X10246Y-15325D01*
X10277Y-15391D01*
X10444Y-15446D01*
X10620Y-15433D01*
X10723Y-15391D01*
X10754Y-15325D01*
X10754Y-15675D01*
X10723Y-15609D01*
X10556Y-15554D01*
X10380Y-15567D01*
X10277Y-15609D01*
X10246Y-15675D01*
X10500Y-15929D01*
X10754Y-15675D01*
X10754Y-15817D01*
X10606Y-15965D01*
X10571Y-16000D01*
X10500Y-16071D01*
X10465Y-16106D01*
X10429Y-16142D01*
X10429Y-16000D01*
X10175Y-15746D01*
X10109Y-15777D01*
X10054Y-15944D01*
X10067Y-16120D01*
X10109Y-16223D01*
X10175Y-16254D01*
X10429Y-16000D01*
X10429Y-16142D01*
X10246Y-16325D01*
X10276Y-16390D01*
X10132Y-16450D01*
X09950Y-16632D01*
X09851Y-16871D01*
X09851Y-17129D01*
X09950Y-17368D01*
X10082Y-17500D01*
X09950Y-17632D01*
X09851Y-17871D01*
X09851Y-18129D01*
X09950Y-18368D01*
X10082Y-18500D01*
X09950Y-18632D01*
X09851Y-18871D01*
X09851Y-19129D01*
X09950Y-19368D01*
X10082Y-19500D01*
X09950Y-19632D01*
X09851Y-19871D01*
X09851Y-20129D01*
X09950Y-20368D01*
X10082Y-20500D01*
X09950Y-20632D01*
X09851Y-20871D01*
X09851Y-21129D01*
X09950Y-21368D01*
X10082Y-21500D01*
X09950Y-21632D01*
X09851Y-21871D01*
X09851Y-22129D01*
X09950Y-22368D01*
X10082Y-22500D01*
X09950Y-22632D01*
X09851Y-22871D01*
X09851Y-23129D01*
X09950Y-23368D01*
X10082Y-23500D01*
X09950Y-23632D01*
X09851Y-23871D01*
X09851Y-24129D01*
X09950Y-24368D01*
X10082Y-24500D01*
X09950Y-24632D01*
X09851Y-24871D01*
X09851Y-25129D01*
X09950Y-25368D01*
X10082Y-25500D01*
X09950Y-25632D01*
X09851Y-25871D01*
X09851Y-26129D01*
X09950Y-26368D01*
X10082Y-26500D01*
X09950Y-26632D01*
X09851Y-26871D01*
X09851Y-27129D01*
X09950Y-27368D01*
X10082Y-27500D01*
X09950Y-27632D01*
X09851Y-27871D01*
X09851Y-28129D01*
X09950Y-28368D01*
X10082Y-28500D01*
X09950Y-28632D01*
X09851Y-28871D01*
X09851Y-29129D01*
X09950Y-29368D01*
X10082Y-29500D01*
X09950Y-29632D01*
X09851Y-29871D01*
X09851Y-30129D01*
X09950Y-30368D01*
X10082Y-30500D01*
X09950Y-30632D01*
X09851Y-30871D01*
X09851Y-31129D01*
X09950Y-31368D01*
X10082Y-31500D01*
X09950Y-31632D01*
X09851Y-31871D01*
X09851Y-32129D01*
X09950Y-32368D01*
X10082Y-32500D01*
X09950Y-32632D01*
X09851Y-32871D01*
X09851Y-33129D01*
X09950Y-33368D01*
X10082Y-33500D01*
X09950Y-33632D01*
X09851Y-33871D01*
X09851Y-34129D01*
X09950Y-34368D01*
X10082Y-34500D01*
X09950Y-34632D01*
X09851Y-34871D01*
X09851Y-35129D01*
X09950Y-35368D01*
X10082Y-35500D01*
X09950Y-35632D01*
X09851Y-35871D01*
X09851Y-36129D01*
X09950Y-36368D01*
X10132Y-36550D01*
X10371Y-36649D01*
X10629Y-36649D01*
X10868Y-36550D01*
X10912Y-36505D01*
X11002Y-36596D01*
X11130Y-36649D01*
X11269Y-36649D01*
X11869Y-36649D01*
X11997Y-36596D01*
X12096Y-36498D01*
X12149Y-36370D01*
X12149Y-36231D01*
X12149Y-35645D01*
X14087Y-33706D01*
X14742Y-34362D01*
X14349Y-34525D01*
X14026Y-34848D01*
X13850Y-35271D01*
X13850Y-35728D01*
X14025Y-36151D01*
X14348Y-36474D01*
X14771Y-36650D01*
X15228Y-36650D01*
X15651Y-36475D01*
X15974Y-36152D01*
X16138Y-35757D01*
X17942Y-37562D01*
X17880Y-37567D01*
X17777Y-37609D01*
X17746Y-37675D01*
X17965Y-37894D01*
X18000Y-37929D01*
X18071Y-38000D01*
X18106Y-38035D01*
X18325Y-38254D01*
X18391Y-38223D01*
X18446Y-38056D01*
X18433Y-37880D01*
X18424Y-37860D01*
X18581Y-37860D01*
X18554Y-37944D01*
X18567Y-38120D01*
X18609Y-38223D01*
X18675Y-38254D01*
X18894Y-38035D01*
X18929Y-38000D01*
X19000Y-37929D01*
X19071Y-38000D01*
X19106Y-38035D01*
X19325Y-38254D01*
X19391Y-38223D01*
X19446Y-38056D01*
X19433Y-37880D01*
X19424Y-37860D01*
X19581Y-37860D01*
X19554Y-37944D01*
X19567Y-38120D01*
X19609Y-38223D01*
X19675Y-38254D01*
X19894Y-38035D01*
X19929Y-38000D01*
X20000Y-37929D01*
X20071Y-38000D01*
X20106Y-38035D01*
X20325Y-38254D01*
X20391Y-38223D01*
X20446Y-38056D01*
X20433Y-37880D01*
X20424Y-37860D01*
X20581Y-37860D01*
X20554Y-37944D01*
X20567Y-38120D01*
X20609Y-38223D01*
X20675Y-38254D01*
X20894Y-38035D01*
X20929Y-38000D01*
X21000Y-37929D01*
X21071Y-38000D01*
X21106Y-38035D01*
X21325Y-38254D01*
X21391Y-38223D01*
X21446Y-38056D01*
X21433Y-37880D01*
X21424Y-37860D01*
X21581Y-37860D01*
X21554Y-37944D01*
X21567Y-38120D01*
X21609Y-38223D01*
X21675Y-38254D01*
X21894Y-38035D01*
X21929Y-38000D01*
X22000Y-37929D01*
X22071Y-38000D01*
X22000Y-38071D01*
X21965Y-38106D01*
X21746Y-38325D01*
X21777Y-38391D01*
X21944Y-38446D01*
X22115Y-38433D01*
X22115Y-38500D01*
X22130Y-38578D01*
X22056Y-38554D01*
X21880Y-38567D01*
X21777Y-38609D01*
X21746Y-38675D01*
X21965Y-38894D01*
X22000Y-38929D01*
X22071Y-39000D01*
X22106Y-39035D01*
X22325Y-39254D01*
X22390Y-39223D01*
X22450Y-39368D01*
X22632Y-39550D01*
X22871Y-39649D01*
X23129Y-39649D01*
X23368Y-39550D01*
X23500Y-39418D01*
X23632Y-39550D01*
X23871Y-39649D01*
X24129Y-39649D01*
X24368Y-39550D01*
X24500Y-39418D01*
X24632Y-39550D01*
X24871Y-39649D01*
X25129Y-39649D01*
X25368Y-39550D01*
X25500Y-39418D01*
X25632Y-39550D01*
X25871Y-39649D01*
X26129Y-39649D01*
X26368Y-39550D01*
X26500Y-39418D01*
X26632Y-39550D01*
X26871Y-39649D01*
X27129Y-39649D01*
X27368Y-39550D01*
X27500Y-39418D01*
X27632Y-39550D01*
X27871Y-39649D01*
X28129Y-39649D01*
X28368Y-39550D01*
X28500Y-39418D01*
X28632Y-39550D01*
X28871Y-39649D01*
X29129Y-39649D01*
X29368Y-39550D01*
X29500Y-39418D01*
X29632Y-39550D01*
X29871Y-39649D01*
X30129Y-39649D01*
X30368Y-39550D01*
X30500Y-39418D01*
X30632Y-39550D01*
X30871Y-39649D01*
X31129Y-39649D01*
X31368Y-39550D01*
X31500Y-39418D01*
X31632Y-39550D01*
X31871Y-39649D01*
X32129Y-39649D01*
X32368Y-39550D01*
X32500Y-39418D01*
X32632Y-39550D01*
X32871Y-39649D01*
X33129Y-39649D01*
X33368Y-39550D01*
X33500Y-39418D01*
X33632Y-39550D01*
X33871Y-39649D01*
X34129Y-39649D01*
X34368Y-39550D01*
X34500Y-39418D01*
X34632Y-39550D01*
X34871Y-39649D01*
X35129Y-39649D01*
X35368Y-39550D01*
X35500Y-39418D01*
X35632Y-39550D01*
X35871Y-39649D01*
X36129Y-39649D01*
X36368Y-39550D01*
X36500Y-39418D01*
X36632Y-39550D01*
X36871Y-39649D01*
X37129Y-39649D01*
X37368Y-39550D01*
X37500Y-39418D01*
X37632Y-39550D01*
X37871Y-39649D01*
X38129Y-39649D01*
X38368Y-39550D01*
X38500Y-39418D01*
X38632Y-39550D01*
X38871Y-39649D01*
X39129Y-39649D01*
X39368Y-39550D01*
X39500Y-39418D01*
X39632Y-39550D01*
X39871Y-39649D01*
X40129Y-39649D01*
X40368Y-39550D01*
X40500Y-39418D01*
X40632Y-39550D01*
X40871Y-39649D01*
X41129Y-39649D01*
X41368Y-39550D01*
X41500Y-39418D01*
X41632Y-39550D01*
X41871Y-39649D01*
X42129Y-39649D01*
X42368Y-39550D01*
X42550Y-39368D01*
X42649Y-39129D01*
X42649Y-38895D01*
X44022Y-37523D01*
X44022Y-37522D01*
X44077Y-37439D01*
X44105Y-37398D01*
X44106Y-37397D01*
X44134Y-37251D01*
X44135Y-37250D01*
X44135Y-36261D01*
X44348Y-36474D01*
X44771Y-36650D01*
X45228Y-36650D01*
X45651Y-36475D01*
X45974Y-36152D01*
X46150Y-35729D01*
X46150Y-35272D01*
X45975Y-34849D01*
X45652Y-34526D01*
X45229Y-34350D01*
X45194Y-34350D01*
X47522Y-32023D01*
X47522Y-32022D01*
X47577Y-31939D01*
X47605Y-31898D01*
X47606Y-31897D01*
X47634Y-31751D01*
X47635Y-31750D01*
X47635Y-30429D01*
X47917Y-30711D01*
X47851Y-30871D01*
X47851Y-31129D01*
X47950Y-31368D01*
X48132Y-31550D01*
X48276Y-31609D01*
X48246Y-31675D01*
X48500Y-31929D01*
X48754Y-31675D01*
X48723Y-31609D01*
X48868Y-31550D01*
X49000Y-31418D01*
X49132Y-31550D01*
X49276Y-31609D01*
X49246Y-31675D01*
X49500Y-31929D01*
X49754Y-31675D01*
X49723Y-31609D01*
X49868Y-31550D01*
X50050Y-31368D01*
X50149Y-31129D01*
X50149Y-30871D01*
X50050Y-30632D01*
X49918Y-30500D01*
X50050Y-30368D01*
X50149Y-30129D01*
X50149Y-29871D01*
X50050Y-29632D01*
X49918Y-29500D01*
X50050Y-29368D01*
X50149Y-29129D01*
X50149Y-28871D01*
X50050Y-28632D01*
X49918Y-28500D01*
X50050Y-28368D01*
X50149Y-28129D01*
X50149Y-27871D01*
X50050Y-27632D01*
X49918Y-27500D01*
X50050Y-27368D01*
X50149Y-27129D01*
X50149Y-26871D01*
X50050Y-26632D01*
X49918Y-26500D01*
X50050Y-26368D01*
X50149Y-26129D01*
X50149Y-25871D01*
X50050Y-25632D01*
X49918Y-25500D01*
X50050Y-25368D01*
X50149Y-25129D01*
X50149Y-24871D01*
X50050Y-24632D01*
X49918Y-24500D01*
X50050Y-24368D01*
X50149Y-24129D01*
X50149Y-23871D01*
X50050Y-23632D01*
X49918Y-23500D01*
X50050Y-23368D01*
X50149Y-23129D01*
X50149Y-22871D01*
X50050Y-22632D01*
X49918Y-22500D01*
X50050Y-22368D01*
X50149Y-22129D01*
X50149Y-21871D01*
X50050Y-21632D01*
X49918Y-21500D01*
X50050Y-21368D01*
X50149Y-21129D01*
X50149Y-20871D01*
X50050Y-20632D01*
X49918Y-20500D01*
X50050Y-20368D01*
X50149Y-20129D01*
X50149Y-19871D01*
X50050Y-19632D01*
X49918Y-19500D01*
X50050Y-19368D01*
X50149Y-19129D01*
X50149Y-18871D01*
X50050Y-18632D01*
X49918Y-18500D01*
X50050Y-18368D01*
X50149Y-18129D01*
X50149Y-17871D01*
X50050Y-17632D01*
X49918Y-17500D01*
X50050Y-17368D01*
X50149Y-17129D01*
X50149Y-16871D01*
X50050Y-16632D01*
X49918Y-16500D01*
X50050Y-16368D01*
X50149Y-16129D01*
X50149Y-15871D01*
X50050Y-15632D01*
X49918Y-15500D01*
X50050Y-15368D01*
X50149Y-15129D01*
X50149Y-14871D01*
X50050Y-14632D01*
X49918Y-14500D01*
X50050Y-14368D01*
X50149Y-14129D01*
X50149Y-13871D01*
X50050Y-13632D01*
X49918Y-13500D01*
X50050Y-13368D01*
X50149Y-13129D01*
X50149Y-12871D01*
X50050Y-12632D01*
X49918Y-12500D01*
X50050Y-12368D01*
X50149Y-12129D01*
X50149Y-11871D01*
X50050Y-11632D01*
X49868Y-11450D01*
X49629Y-11351D01*
X49371Y-11351D01*
X49132Y-11450D01*
X49087Y-11494D01*
X48998Y-11404D01*
X48870Y-11351D01*
X48731Y-11351D01*
X48131Y-11351D01*
X48003Y-11404D01*
X47904Y-11502D01*
X47857Y-11615D01*
X46000Y-11615D01*
X45988Y-11617D01*
X46150Y-11229D01*
X46150Y-10772D01*
X45975Y-10349D01*
X45652Y-10026D01*
X45229Y-09850D01*
X44772Y-09850D01*
X44349Y-10025D01*
X44026Y-10348D01*
X43850Y-10771D01*
X43850Y-11228D01*
X44025Y-11651D01*
X44348Y-11974D01*
X44771Y-12150D01*
X45228Y-12150D01*
X45361Y-12094D01*
X41105Y-16351D01*
X40871Y-16351D01*
X40632Y-16450D01*
X40450Y-16632D01*
X40425Y-16692D01*
X40425Y-07425D01*
X47961Y-07425D01*
X47694Y-07692D01*
X47476Y-08216D01*
X47476Y-08782D01*
X47692Y-09305D01*
X48092Y-09706D01*
X48616Y-09924D01*
X49182Y-09924D01*
X49705Y-09708D01*
X50106Y-09308D01*
X50324Y-08784D01*
X50324Y-08218D01*
X50108Y-07695D01*
X49838Y-07425D01*
X50575Y-07425D01*
X50575Y-40575D01*
M02*
