G04 (created by PCBNEW-RS274X (2011-11-27 BZR 3249)-stable) date 15/05/2012 4:52:55 PM*
G01*
G70*
G90*
%MOIN*%
G04 Gerber Fmt 3.4, Leading zero omitted, Abs format*
%FSLAX34Y34*%
G04 APERTURE LIST*
%ADD10C,0.006000*%
%ADD11R,0.080000X0.080000*%
%ADD12C,0.080000*%
%ADD13C,0.235000*%
%ADD14C,0.180000*%
G04 APERTURE END LIST*
G54D10*
G54D11*
X11500Y-36000D03*
G54D12*
X10500Y-36000D03*
X11500Y-35000D03*
X10500Y-35000D03*
X11500Y-34000D03*
X10500Y-34000D03*
X11500Y-33000D03*
X10500Y-33000D03*
X11500Y-32000D03*
X10500Y-32000D03*
X11500Y-31000D03*
X10500Y-31000D03*
X11500Y-30000D03*
X10500Y-30000D03*
X11500Y-29000D03*
X10500Y-29000D03*
X11500Y-28000D03*
X10500Y-28000D03*
X11500Y-27000D03*
X10500Y-27000D03*
G54D13*
X11100Y-39500D03*
G54D12*
X11500Y-26000D03*
X10500Y-26000D03*
X11500Y-25000D03*
X10500Y-25000D03*
X11500Y-24000D03*
X10500Y-24000D03*
X11500Y-23000D03*
X10500Y-23000D03*
X11500Y-22000D03*
X10500Y-22000D03*
X11500Y-21000D03*
X10500Y-21000D03*
X11500Y-20000D03*
X10500Y-20000D03*
X11500Y-19000D03*
X10500Y-19000D03*
X11500Y-18000D03*
X10500Y-18000D03*
X11500Y-17000D03*
X10500Y-17000D03*
X11500Y-16000D03*
X10500Y-16000D03*
X11500Y-15000D03*
X10500Y-15000D03*
X11500Y-14000D03*
X10500Y-14000D03*
X11500Y-13000D03*
X10500Y-13000D03*
X11500Y-12000D03*
X10500Y-12000D03*
G54D13*
X11100Y-08500D03*
G54D14*
X15000Y-35500D03*
X45000Y-35500D03*
X15000Y-11000D03*
G54D11*
X48500Y-12000D03*
G54D12*
X49500Y-12000D03*
X48500Y-13000D03*
X49500Y-13000D03*
X48500Y-14000D03*
X49500Y-14000D03*
X48500Y-15000D03*
X49500Y-15000D03*
X48500Y-16000D03*
X49500Y-16000D03*
X48500Y-17000D03*
X49500Y-17000D03*
X48500Y-18000D03*
X49500Y-18000D03*
X48500Y-19000D03*
X49500Y-19000D03*
X48500Y-20000D03*
X49500Y-20000D03*
X48500Y-21000D03*
X49500Y-21000D03*
G54D13*
X48900Y-08500D03*
G54D12*
X48500Y-22000D03*
X49500Y-22000D03*
X48500Y-23000D03*
X49500Y-23000D03*
X48500Y-24000D03*
X49500Y-24000D03*
X48500Y-25000D03*
X49500Y-25000D03*
X48500Y-26000D03*
X49500Y-26000D03*
X48500Y-27000D03*
X49500Y-27000D03*
X48500Y-28000D03*
X49500Y-28000D03*
X48500Y-29000D03*
X49500Y-29000D03*
X48500Y-30000D03*
X49500Y-30000D03*
X48500Y-31000D03*
X49500Y-31000D03*
X48500Y-32000D03*
X49500Y-32000D03*
X48500Y-33000D03*
X49500Y-33000D03*
X48500Y-34000D03*
X49500Y-34000D03*
X48500Y-35000D03*
X49500Y-35000D03*
X48500Y-36000D03*
X49500Y-36000D03*
G54D13*
X48900Y-39500D03*
G54D11*
X42000Y-38000D03*
G54D12*
X42000Y-39000D03*
X41000Y-38000D03*
X41000Y-39000D03*
X40000Y-38000D03*
X40000Y-39000D03*
X39000Y-38000D03*
X39000Y-39000D03*
X38000Y-38000D03*
X38000Y-39000D03*
X37000Y-38000D03*
X37000Y-39000D03*
X36000Y-38000D03*
X36000Y-39000D03*
X35000Y-38000D03*
X35000Y-39000D03*
X34000Y-38000D03*
X34000Y-39000D03*
X33000Y-38000D03*
X33000Y-39000D03*
G54D13*
X45500Y-38400D03*
G54D12*
X32000Y-38000D03*
X32000Y-39000D03*
X31000Y-38000D03*
X31000Y-39000D03*
X30000Y-38000D03*
X30000Y-39000D03*
X29000Y-38000D03*
X29000Y-39000D03*
X28000Y-38000D03*
X28000Y-39000D03*
X27000Y-38000D03*
X27000Y-39000D03*
X26000Y-38000D03*
X26000Y-39000D03*
X25000Y-38000D03*
X25000Y-39000D03*
X24000Y-38000D03*
X24000Y-39000D03*
X23000Y-38000D03*
X23000Y-39000D03*
X22000Y-38000D03*
X22000Y-39000D03*
X21000Y-38000D03*
X21000Y-39000D03*
X20000Y-38000D03*
X20000Y-39000D03*
X19000Y-38000D03*
X19000Y-39000D03*
X18000Y-38000D03*
X18000Y-39000D03*
G54D13*
X14500Y-38400D03*
G54D14*
X45000Y-11000D03*
G54D12*
X41000Y-17000D03*
X42000Y-17000D03*
X43000Y-17000D03*
X44000Y-17000D03*
X41000Y-18000D03*
X42000Y-18000D03*
X43000Y-18000D03*
X44000Y-18000D03*
X41000Y-19000D03*
X42000Y-19000D03*
X43000Y-19000D03*
X44000Y-19000D03*
X41000Y-20000D03*
X42000Y-20000D03*
X43000Y-20000D03*
X44000Y-20000D03*
X41000Y-21000D03*
X42000Y-21000D03*
X43000Y-21000D03*
X44000Y-21000D03*
X41000Y-22000D03*
X42000Y-22000D03*
X43000Y-22000D03*
X44000Y-22000D03*
X41000Y-23000D03*
X42000Y-23000D03*
X43000Y-23000D03*
X44000Y-23000D03*
X41000Y-24000D03*
X42000Y-24000D03*
X43000Y-24000D03*
X44000Y-24000D03*
X41000Y-25000D03*
X42000Y-25000D03*
X43000Y-25000D03*
X44000Y-25000D03*
X41000Y-26000D03*
X42000Y-26000D03*
X43000Y-26000D03*
X44000Y-26000D03*
X41000Y-27000D03*
X42000Y-27000D03*
X43000Y-27000D03*
X44000Y-27000D03*
X41000Y-28000D03*
X42000Y-28000D03*
X43000Y-28000D03*
X44000Y-28000D03*
X41000Y-29000D03*
X42000Y-29000D03*
X43000Y-29000D03*
X44000Y-29000D03*
X41000Y-30000D03*
X42000Y-30000D03*
X43000Y-30000D03*
X44000Y-30000D03*
X41000Y-31000D03*
X42000Y-31000D03*
X43000Y-31000D03*
X44000Y-31000D03*
X16000Y-31000D03*
X17000Y-31000D03*
X18000Y-31000D03*
X19000Y-31000D03*
X16000Y-30000D03*
X17000Y-30000D03*
X18000Y-30000D03*
X19000Y-30000D03*
X16000Y-29000D03*
X17000Y-29000D03*
X18000Y-29000D03*
X19000Y-29000D03*
X16000Y-28000D03*
X17000Y-28000D03*
X18000Y-28000D03*
X19000Y-28000D03*
X16000Y-27000D03*
X17000Y-27000D03*
X18000Y-27000D03*
X19000Y-27000D03*
X16000Y-26000D03*
X17000Y-26000D03*
X18000Y-26000D03*
X19000Y-26000D03*
X16000Y-25000D03*
X17000Y-25000D03*
X18000Y-25000D03*
X19000Y-25000D03*
X16000Y-24000D03*
X17000Y-24000D03*
X18000Y-24000D03*
X19000Y-24000D03*
X16000Y-23000D03*
X17000Y-23000D03*
X18000Y-23000D03*
X19000Y-23000D03*
X16000Y-22000D03*
X17000Y-22000D03*
X18000Y-22000D03*
X19000Y-22000D03*
X16000Y-21000D03*
X17000Y-21000D03*
X18000Y-21000D03*
X19000Y-21000D03*
X16000Y-20000D03*
X17000Y-20000D03*
X18000Y-20000D03*
X19000Y-20000D03*
X16000Y-19000D03*
X17000Y-19000D03*
X18000Y-19000D03*
X19000Y-19000D03*
X16000Y-18000D03*
X17000Y-18000D03*
X18000Y-18000D03*
X19000Y-18000D03*
X16000Y-17000D03*
X17000Y-17000D03*
X18000Y-17000D03*
X19000Y-17000D03*
M02*
