G04 (created by PCBNEW-RS274X (2011-04-29 BZR 2986)-stable) date 11/21/2011 11:58:13 AM*
G01*
G70*
G90*
%MOIN*%
G04 Gerber Fmt 3.4, Leading zero omitted, Abs format*
%FSLAX34Y34*%
G04 APERTURE LIST*
%ADD10C,0.006000*%
%ADD11C,0.180000*%
%ADD12R,0.080000X0.080000*%
%ADD13C,0.080000*%
%ADD14C,0.235000*%
G04 APERTURE END LIST*
G54D10*
G54D11*
X13000Y-37500D03*
X43000Y-37500D03*
X13000Y-13000D03*
G54D12*
X08500Y-14000D03*
G54D13*
X09500Y-14000D03*
X08500Y-15000D03*
X09500Y-15000D03*
X08500Y-16000D03*
X09500Y-16000D03*
X08500Y-17000D03*
X09500Y-17000D03*
X08500Y-18000D03*
X09500Y-18000D03*
X08500Y-19000D03*
X09500Y-19000D03*
X08500Y-20000D03*
X09500Y-20000D03*
X08500Y-21000D03*
X09500Y-21000D03*
X08500Y-22000D03*
X09500Y-22000D03*
X08500Y-23000D03*
X09500Y-23000D03*
G54D14*
X08900Y-10500D03*
G54D13*
X08500Y-24000D03*
X09500Y-24000D03*
X08500Y-25000D03*
X09500Y-25000D03*
X08500Y-26000D03*
X09500Y-26000D03*
X08500Y-27000D03*
X09500Y-27000D03*
X08500Y-28000D03*
X09500Y-28000D03*
X08500Y-29000D03*
X09500Y-29000D03*
X08500Y-30000D03*
X09500Y-30000D03*
X08500Y-31000D03*
X09500Y-31000D03*
X08500Y-32000D03*
X09500Y-32000D03*
X08500Y-33000D03*
X09500Y-33000D03*
X08500Y-34000D03*
X09500Y-34000D03*
X08500Y-35000D03*
X09500Y-35000D03*
X08500Y-36000D03*
X09500Y-36000D03*
X08500Y-37000D03*
X09500Y-37000D03*
X08500Y-38000D03*
X09500Y-38000D03*
G54D14*
X08900Y-41500D03*
G54D12*
X16000Y-41000D03*
G54D13*
X16000Y-40000D03*
X17000Y-41000D03*
X17000Y-40000D03*
X18000Y-41000D03*
X18000Y-40000D03*
X19000Y-41000D03*
X19000Y-40000D03*
X20000Y-41000D03*
X20000Y-40000D03*
X21000Y-41000D03*
X21000Y-40000D03*
X22000Y-41000D03*
X22000Y-40000D03*
X23000Y-41000D03*
X23000Y-40000D03*
X24000Y-41000D03*
X24000Y-40000D03*
X25000Y-41000D03*
X25000Y-40000D03*
G54D14*
X12500Y-40600D03*
G54D13*
X26000Y-41000D03*
X26000Y-40000D03*
X27000Y-41000D03*
X27000Y-40000D03*
X28000Y-41000D03*
X28000Y-40000D03*
X29000Y-41000D03*
X29000Y-40000D03*
X30000Y-41000D03*
X30000Y-40000D03*
X31000Y-41000D03*
X31000Y-40000D03*
X32000Y-41000D03*
X32000Y-40000D03*
X33000Y-41000D03*
X33000Y-40000D03*
X34000Y-41000D03*
X34000Y-40000D03*
X35000Y-41000D03*
X35000Y-40000D03*
X36000Y-41000D03*
X36000Y-40000D03*
X37000Y-41000D03*
X37000Y-40000D03*
X38000Y-41000D03*
X38000Y-40000D03*
X39000Y-41000D03*
X39000Y-40000D03*
X40000Y-41000D03*
X40000Y-40000D03*
G54D14*
X43500Y-40600D03*
G54D12*
X47500Y-38000D03*
G54D13*
X46500Y-38000D03*
X47500Y-37000D03*
X46500Y-37000D03*
X47500Y-36000D03*
X46500Y-36000D03*
X47500Y-35000D03*
X46500Y-35000D03*
X47500Y-34000D03*
X46500Y-34000D03*
X47500Y-33000D03*
X46500Y-33000D03*
X47500Y-32000D03*
X46500Y-32000D03*
X47500Y-31000D03*
X46500Y-31000D03*
X47500Y-30000D03*
X46500Y-30000D03*
X47500Y-29000D03*
X46500Y-29000D03*
G54D14*
X47100Y-41500D03*
G54D13*
X47500Y-28000D03*
X46500Y-28000D03*
X47500Y-27000D03*
X46500Y-27000D03*
X47500Y-26000D03*
X46500Y-26000D03*
X47500Y-25000D03*
X46500Y-25000D03*
X47500Y-24000D03*
X46500Y-24000D03*
X47500Y-23000D03*
X46500Y-23000D03*
X47500Y-22000D03*
X46500Y-22000D03*
X47500Y-21000D03*
X46500Y-21000D03*
X47500Y-20000D03*
X46500Y-20000D03*
X47500Y-19000D03*
X46500Y-19000D03*
X47500Y-18000D03*
X46500Y-18000D03*
X47500Y-17000D03*
X46500Y-17000D03*
X47500Y-16000D03*
X46500Y-16000D03*
X47500Y-15000D03*
X46500Y-15000D03*
X47500Y-14000D03*
X46500Y-14000D03*
G54D14*
X47100Y-10500D03*
G54D11*
X43000Y-13000D03*
G54D13*
X17000Y-19000D03*
X16000Y-19000D03*
X15000Y-19000D03*
X14000Y-19000D03*
X17000Y-20000D03*
X16000Y-20000D03*
X15000Y-20000D03*
X14000Y-20000D03*
X17000Y-21000D03*
X16000Y-21000D03*
X15000Y-21000D03*
X14000Y-21000D03*
X17000Y-22000D03*
X16000Y-22000D03*
X15000Y-22000D03*
X14000Y-22000D03*
X17000Y-23000D03*
X16000Y-23000D03*
X15000Y-23000D03*
X14000Y-23000D03*
X17000Y-24000D03*
X16000Y-24000D03*
X15000Y-24000D03*
X14000Y-24000D03*
X17000Y-25000D03*
X16000Y-25000D03*
X15000Y-25000D03*
X14000Y-25000D03*
X17000Y-26000D03*
X16000Y-26000D03*
X15000Y-26000D03*
X14000Y-26000D03*
X17000Y-27000D03*
X16000Y-27000D03*
X15000Y-27000D03*
X14000Y-27000D03*
X17000Y-28000D03*
X16000Y-28000D03*
X15000Y-28000D03*
X14000Y-28000D03*
X17000Y-29000D03*
X16000Y-29000D03*
X15000Y-29000D03*
X14000Y-29000D03*
X17000Y-30000D03*
X16000Y-30000D03*
X15000Y-30000D03*
X14000Y-30000D03*
X17000Y-31000D03*
X16000Y-31000D03*
X15000Y-31000D03*
X14000Y-31000D03*
X17000Y-32000D03*
X16000Y-32000D03*
X15000Y-32000D03*
X14000Y-32000D03*
X17000Y-33000D03*
X16000Y-33000D03*
X15000Y-33000D03*
X14000Y-33000D03*
X42000Y-33000D03*
X41000Y-33000D03*
X40000Y-33000D03*
X39000Y-33000D03*
X42000Y-32000D03*
X41000Y-32000D03*
X40000Y-32000D03*
X39000Y-32000D03*
X42000Y-31000D03*
X41000Y-31000D03*
X40000Y-31000D03*
X39000Y-31000D03*
X42000Y-30000D03*
X41000Y-30000D03*
X40000Y-30000D03*
X39000Y-30000D03*
X42000Y-29000D03*
X41000Y-29000D03*
X40000Y-29000D03*
X39000Y-29000D03*
X42000Y-28000D03*
X41000Y-28000D03*
X40000Y-28000D03*
X39000Y-28000D03*
X42000Y-27000D03*
X41000Y-27000D03*
X40000Y-27000D03*
X39000Y-27000D03*
X42000Y-26000D03*
X41000Y-26000D03*
X40000Y-26000D03*
X39000Y-26000D03*
X42000Y-25000D03*
X41000Y-25000D03*
X40000Y-25000D03*
X39000Y-25000D03*
X42000Y-24000D03*
X41000Y-24000D03*
X40000Y-24000D03*
X39000Y-24000D03*
X42000Y-23000D03*
X41000Y-23000D03*
X40000Y-23000D03*
X39000Y-23000D03*
X42000Y-22000D03*
X41000Y-22000D03*
X40000Y-22000D03*
X39000Y-22000D03*
X42000Y-21000D03*
X41000Y-21000D03*
X40000Y-21000D03*
X39000Y-21000D03*
X42000Y-20000D03*
X41000Y-20000D03*
X40000Y-20000D03*
X39000Y-20000D03*
X42000Y-19000D03*
X41000Y-19000D03*
X40000Y-19000D03*
X39000Y-19000D03*
M02*
