M48
INCH,TZ
T1C0.018
T2C0.036
T3C0.106
T4C0.120
%
T1
X14000Y-19000
X14000Y-20000
X14000Y-21000
X14000Y-22000
X14000Y-23000
X14000Y-24000
X14000Y-25000
X14000Y-26000
X14000Y-27000
X14000Y-28000
X14000Y-29000
X14000Y-30000
X14000Y-31000
X14000Y-32000
X14000Y-33000
X15000Y-19000
X15000Y-20000
X15000Y-21000
X15000Y-22000
X15000Y-23000
X15000Y-24000
X15000Y-25000
X15000Y-26000
X15000Y-27000
X15000Y-28000
X15000Y-29000
X15000Y-30000
X15000Y-31000
X15000Y-32000
X15000Y-33000
X16000Y-19000
X16000Y-20000
X16000Y-21000
X16000Y-22000
X16000Y-23000
X16000Y-24000
X16000Y-25000
X16000Y-26000
X16000Y-27000
X16000Y-28000
X16000Y-29000
X16000Y-30000
X16000Y-31000
X16000Y-32000
X16000Y-33000
X17000Y-19000
X17000Y-20000
X17000Y-21000
X17000Y-22000
X17000Y-23000
X17000Y-24000
X17000Y-25000
X17000Y-26000
X17000Y-27000
X17000Y-28000
X17000Y-29000
X17000Y-30000
X17000Y-31000
X17000Y-32000
X17000Y-33000
X39000Y-19000
X39000Y-20000
X39000Y-21000
X39000Y-22000
X39000Y-23000
X39000Y-24000
X39000Y-25000
X39000Y-26000
X39000Y-27000
X39000Y-28000
X39000Y-29000
X39000Y-30000
X39000Y-31000
X39000Y-32000
X39000Y-33000
X40000Y-19000
X40000Y-20000
X40000Y-21000
X40000Y-22000
X40000Y-23000
X40000Y-24000
X40000Y-25000
X40000Y-26000
X40000Y-27000
X40000Y-28000
X40000Y-29000
X40000Y-30000
X40000Y-31000
X40000Y-32000
X40000Y-33000
X41000Y-19000
X41000Y-20000
X41000Y-21000
X41000Y-22000
X41000Y-23000
X41000Y-24000
X41000Y-25000
X41000Y-26000
X41000Y-27000
X41000Y-28000
X41000Y-29000
X41000Y-30000
X41000Y-31000
X41000Y-32000
X41000Y-33000
X42000Y-19000
X42000Y-20000
X42000Y-21000
X42000Y-22000
X42000Y-23000
X42000Y-24000
X42000Y-25000
X42000Y-26000
X42000Y-27000
X42000Y-28000
X42000Y-29000
X42000Y-30000
X42000Y-31000
X42000Y-32000
X42000Y-33000
T2
X8500Y-14000
X8500Y-15000
X8500Y-16000
X8500Y-17000
X8500Y-18000
X8500Y-19000
X8500Y-20000
X8500Y-21000
X8500Y-22000
X8500Y-23000
X8500Y-24000
X8500Y-25000
X8500Y-26000
X8500Y-27000
X8500Y-28000
X8500Y-29000
X8500Y-30000
X8500Y-31000
X8500Y-32000
X8500Y-33000
X8500Y-34000
X8500Y-35000
X8500Y-36000
X8500Y-37000
X8500Y-38000
X9500Y-14000
X9500Y-15000
X9500Y-16000
X9500Y-17000
X9500Y-18000
X9500Y-19000
X9500Y-20000
X9500Y-21000
X9500Y-22000
X9500Y-23000
X9500Y-24000
X9500Y-25000
X9500Y-26000
X9500Y-27000
X9500Y-28000
X9500Y-29000
X9500Y-30000
X9500Y-31000
X9500Y-32000
X9500Y-33000
X9500Y-34000
X9500Y-35000
X9500Y-36000
X9500Y-37000
X9500Y-38000
X16000Y-40000
X16000Y-41000
X17000Y-40000
X17000Y-41000
X18000Y-40000
X18000Y-41000
X19000Y-40000
X19000Y-41000
X20000Y-40000
X20000Y-41000
X21000Y-40000
X21000Y-41000
X22000Y-40000
X22000Y-41000
X23000Y-40000
X23000Y-41000
X24000Y-40000
X24000Y-41000
X25000Y-40000
X25000Y-41000
X26000Y-40000
X26000Y-41000
X27000Y-40000
X27000Y-41000
X28000Y-40000
X28000Y-41000
X29000Y-40000
X29000Y-41000
X30000Y-40000
X30000Y-41000
X31000Y-40000
X31000Y-41000
X32000Y-40000
X32000Y-41000
X33000Y-40000
X33000Y-41000
X34000Y-40000
X34000Y-41000
X35000Y-40000
X35000Y-41000
X36000Y-40000
X36000Y-41000
X37000Y-40000
X37000Y-41000
X38000Y-40000
X38000Y-41000
X39000Y-40000
X39000Y-41000
X40000Y-40000
X40000Y-41000
X46500Y-14000
X46500Y-15000
X46500Y-16000
X46500Y-17000
X46500Y-18000
X46500Y-19000
X46500Y-20000
X46500Y-21000
X46500Y-22000
X46500Y-23000
X46500Y-24000
X46500Y-25000
X46500Y-26000
X46500Y-27000
X46500Y-28000
X46500Y-29000
X46500Y-30000
X46500Y-31000
X46500Y-32000
X46500Y-33000
X46500Y-34000
X46500Y-35000
X46500Y-36000
X46500Y-37000
X46500Y-38000
X47500Y-14000
X47500Y-15000
X47500Y-16000
X47500Y-17000
X47500Y-18000
X47500Y-19000
X47500Y-20000
X47500Y-21000
X47500Y-22000
X47500Y-23000
X47500Y-24000
X47500Y-25000
X47500Y-26000
X47500Y-27000
X47500Y-28000
X47500Y-29000
X47500Y-30000
X47500Y-31000
X47500Y-32000
X47500Y-33000
X47500Y-34000
X47500Y-35000
X47500Y-36000
X47500Y-37000
X47500Y-38000
T3
X8900Y-10500
X8900Y-41500
X12500Y-40600
X43500Y-40600
X47100Y-10500
X47100Y-41500
T4
X13000Y-13000
X13000Y-37500
X43000Y-13000
X43000Y-37500
M30
